<?xml version="1.0" encoding="UTF-8"?>
<svg id="_Слой_2" data-name="Слой 2" xmlns="http://www.w3.org/2000/svg" viewBox="0 0 992.4 1471.16">
  <defs>
    <style>
      .cls-1 {
        fill: #f3fafa;
      }

      .cls-2 {
        fill: #f3f6f8;
      }

      .cls-3 {
        fill: #f6f8f9;
      }

      .cls-4 {
        fill: #f6f6f7;
      }

      .cls-5 {
        fill: #f6f7f8;
      }

      .cls-6 {
        fill: #f6f7f9;
      }

      .cls-7 {
        fill: #f7f8f9;
      }

      .cls-8 {
        fill: #f7fbfd;
      }

      .cls-9 {
        fill: #f2f8fc;
      }

      .cls-10 {
        fill: #f2f8f9;
      }

      .cls-11 {
        fill: #f2f9f9;
      }

      .cls-12 {
        fill: #f9fafa;
      }

      .cls-13 {
        fill: #f8fcfd;
      }

      .cls-14 {
        fill: #f8f9fa;
      }

      .cls-15 {
        fill: #f8f9f9;
      }

      .cls-16 {
        fill: #f9fcfe;
      }

      .cls-17 {
        fill: #031a31;
      }

      .cls-18 {
        fill: #01172d;
      }

      .cls-19 {
        fill: #01172f;
      }

      .cls-20 {
        fill: #01172e;
      }

      .cls-21 {
        fill: #002446;
      }

      .cls-22 {
        fill: #041b32;
      }

      .cls-23 {
        fill: #00162d;
      }

      .cls-24 {
        fill: #00172d;
      }

      .cls-25 {
        fill: #ebeef1;
      }

      .cls-26 {
        fill: #f0f7f8;
      }

      .cls-27 {
        fill: #f0f6f7;
      }

      .cls-28 {
        fill: #e6e9ec;
      }

      .cls-29 {
        fill: #e6e8ea;
      }

      .cls-30 {
        fill: #e6ebef;
      }

      .cls-31 {
        fill: #f4f5f6;
      }

      .cls-32 {
        fill: #f4fafb;
      }

      .cls-33 {
        fill: #f5f6f8;
      }

      .cls-34 {
        fill: #f5f6f6;
      }

      .cls-35 {
        fill: #fafdfe;
      }

      .cls-36 {
        fill: #fafbfb;
      }

      .cls-37 {
        fill: #fafcfd;
      }

      .cls-38 {
        fill: #fcfcfd;
      }

      .cls-39 {
        fill: #fcfdfe;
      }

      .cls-40 {
        fill: #edf0f3;
      }

      .cls-41 {
        fill: #e2e8ed;
      }

      .cls-42 {
        fill: #f1f3f5;
      }

      .cls-43 {
        fill: #fefefe;
      }

      .cls-44 {
        fill: #fbfefe;
      }

      .cls-45 {
        fill: #fafafb;
      }

      .cls-46 {
        fill: #fbfdfe;
      }

      .cls-47 {
        fill: #fbfcfe;
      }

      .cls-48 {
        fill: #fbfbfc;
      }

      .cls-49 {
        fill: #fbfbfb;
      }

      .cls-50 {
        fill: #ecf0f3;
      }

      .cls-51 {
        fill: #eceef1;
      }

      .cls-52 {
        fill: #fdfefe;
      }

      .cls-53 {
        fill: #819db6;
      }

      .cls-54 {
        fill: #84a3bd;
      }

      .cls-55 {
        fill: #9faab3;
      }

      .cls-56 {
        fill: #9ebbd3;
      }

      .cls-57 {
        fill: #9cb4c9;
      }

      .cls-58 {
        fill: #8daac2;
      }

      .cls-59 {
        fill: #2f577a;
      }

      .cls-60 {
        fill: #2f567a;
      }

      .cls-61 {
        fill: #2f5679;
      }

      .cls-62 {
        fill: #adcae2;
      }

      .cls-63 {
        fill: #adcbe3;
      }

      .cls-64 {
        fill: #b1cfe6;
      }

      .cls-65 {
        fill: #b1cfe7;
      }

      .cls-66 {
        fill: #a6c2d8;
      }

      .cls-67 {
        fill: #aecce4;
      }

      .cls-68 {
        fill: #afcce4;
      }

      .cls-69 {
        fill: #afcce3;
      }

      .cls-70 {
        fill: #b2d0e7;
      }

      .cls-71 {
        fill: #afcbe2;
      }

      .cls-72 {
        fill: #b0cee6;
      }

      .cls-73 {
        fill: #b0cee5;
      }

      .cls-74 {
        fill: #d8dde2;
      }

      .cls-75 {
        fill: #b1cee5;
      }

      .cls-76 {
        fill: #bdc7cd;
      }

      .cls-77 {
        fill: #aac8e0;
      }

      .cls-78 {
        fill: #c9d2d7;
      }

      .cls-79 {
        fill: #d1d9dd;
      }

      .cls-80 {
        fill: #c4ccd5;
      }

      .cls-81 {
        fill: #accae2;
      }

      .cls-82 {
        fill: #dce1e6;
      }

      .cls-83 {
        fill: #dcdfe3;
      }

      .cls-84 {
        fill: #dbdee2;
      }

      .cls-85 {
        fill: #d9dde1;
      }

      .cls-86 {
        fill: #d9dce0;
      }

      .cls-87 {
        fill: #abc8e0;
      }

      .cls-88 {
        fill: #abc9e2;
      }

      .cls-89 {
        fill: #e0e7ea;
      }

      .cls-90 {
        fill: #e0e6eb;
      }

      .cls-91 {
        fill: #e0e5e9;
      }

      .cls-92 {
        fill: #1f4262;
      }

      .cls-93 {
        fill: #081d34;
      }

      .cls-94 {
        fill: #081e34;
      }

      .cls-95 {
        fill: #365c7f;
      }

      .cls-96 {
        fill: #182e42;
      }

      .cls-97 {
        fill: #0c2137;
      }

      .cls-98 {
        fill: #94b1c9;
      }

      .cls-99 {
        fill: #2a3f52;
      }

      .cls-100 {
        fill: #294e70;
      }

      .cls-101 {
        fill: #2b4e6f;
      }

      .cls-102 {
        fill: #2d5578;
      }

      .cls-103 {
        fill: #2d5478;
      }

      .cls-104 {
        fill: #2d5477;
      }

      .cls-105 {
        fill: #2e5679;
      }

      .cls-106 {
        fill: #2e567a;
      }

      .cls-107 {
        fill: #2e5579;
      }

      .cls-108 {
        fill: #30577a;
      }

      .cls-109 {
        fill: #3a5f81;
      }

      .cls-110 {
        fill: #839fb7;
      }
    </style>
  </defs>
  <g id="_Слой_1-2" data-name="Слой 1">
    <path class="cls-24" d="M184.24,6.7c8.4,6.1,14.3,13.89,17,24,1.36,11.12,1.03,21.81-6,31-3.09,3.34-6.23,6.43-10,9h-3c-.02,17.74-.04,35.49-.05,53.23,0,8.24-.01,16.48-.02,24.72-.01,7.19-.02,14.39-.02,21.58,0,3.8,0,7.6-.01,11.4-.03,16.71,.13,33.38,1.11,50.07,.48-1.02,.96-2.03,1.46-3.08,8.68-18.23,19.25-35.89,31.54-51.92,.65-.85,1.3-1.69,1.96-2.57,1.97-2.51,3.99-4.98,6.04-7.43,.42-.51,.84-1.02,1.27-1.54,10.22-12.38,21.31-24.24,33.73-34.46q.78-.66,1.58-1.33c15.07-12.73,31.21-24.01,48.42-33.67,.75-.42,1.51-.85,2.29-1.29,14.08-7.85,28.6-14.12,43.71-19.71,.88-.32,1.75-.65,2.65-.98,38.37-13.99,79.54-22.15,120.38-22.18,1.41,0,2.81,0,4.22-.01,2.93,0,5.86,0,8.79,0,2.96,0,5.91,0,8.87-.02,17.12-.08,34.06,.16,51.09,2.21,1.17,.13,2.35,.26,3.56,.39,51.64,6.09,106.91,24.51,149.44,54.61,1.07,.73,2.14,1.47,3.24,2.22,15.75,10.9,29.99,23.5,43.76,36.78q1.22,1.16,2.46,2.34c4.44,4.3,8.34,8.94,12.2,13.77,1.55,1.92,3.13,3.81,4.75,5.67,10.23,11.82,18.01,25.1,25.91,38.54q.86,1.47,1.74,2.96c3.93,6.78,7.5,13.69,10.95,20.73,1.02-17.43,1.14-34.84,1.1-52.3,0-3.84,0-7.67,0-11.51,0-7.23-.01-14.46-.02-21.68-.01-8.24-.02-16.49-.02-24.73-.01-16.92-.03-33.85-.05-50.77-.62-.14-1.23-.27-1.87-.41-6.46-1.78-11.43-8.38-14.7-13.9-4.25-9.31-4.32-21.75-.81-31.38,5.17-10.42,13.33-18.86,24.11-23.44,11.93-3.2,24.86-1.15,35.68,4.52,8.71,5.41,14.95,12.33,18.9,21.73,2.15,12.13,1.11,22.09-5.81,32.25q-3.17,4.39-5.08,5.79c-2.2,2.86-1.83,5.91-1.79,9.37,0,.77,0,1.55-.01,2.35-.01,2.6,0,5.21,0,7.81,0,1.86,0,3.73-.02,5.59-.01,4.02-.01,8.04,0,12.06,0,6.36,0,12.73-.03,19.09-.04,13.52-.05,27.04-.06,40.56-.01,14.57-.03,29.13-.07,43.7-.02,6.32-.02,12.64-.02,18.96,0,3.94,0,7.89-.02,11.83,0,1.82,0,3.64,0,5.46,.03,9.45-.09,18.06-3.39,27.05-.37,1.01-.74,2.02-1.12,3.07-.34,.78-.68,1.56-1.04,2.36-.38,.88-.77,1.76-1.16,2.67-.39,.88-.78,1.76-1.18,2.66-.39,.89-.78,1.79-1.18,2.71-.75,1.73-1.51,3.45-2.27,5.17-1.37,3.11-2.71,6.24-4.04,9.37,.56,.14,1.12,.27,1.7,.41,29.21,7.84,52.95,31.38,68.3,56.59,11.43,20.03,19.01,42.62,19.24,65.79q.01,1.23,.03,2.48,.32,33.4-4.27,49.72c-.21,.82-.43,1.64-.65,2.49-9.33,35.69-29.05,66.59-61.35,85.51-8.9,4.88-18.19,8.39-28,11q-1.13,.32-2.28,.65c-7.09,1.83-14.43,1.99-21.72,2.35-.22,.78-.45,1.56-.68,2.37-1.75,4.81-4.06,9.23-6.45,13.76-.5,.94-.99,1.88-1.5,2.85-3.74,7-7.69,13.6-12.37,20.03-.43,.6-.87,1.2-1.31,1.82-10.14,13.99-21.08,26.73-33.25,38.99-.86,.87-1.72,1.74-2.61,2.64-5.97,5.94-12.23,11.33-18.82,16.55-.59,.48-1.19,.96-1.8,1.45q-45.47,36.55-60.2,36.55v2c.97,.15,1.94,.29,2.94,.45,27.14,4.41,50.97,18.14,70.59,37.14,1.47,1.42,2.97,2.82,4.46,4.22,1,.96,2.01,1.92,3.01,2.89,.51,.48,1.01,.96,1.53,1.46,2.86,2.84,5.01,5.61,6.98,9.14q3.83,6.66,9.49,11.72c6.38,1.66,12.95,1.2,19.5,1.04,20.51-.5,37.95,10.53,52.5,23.96,.53,.49,1.06,.97,1.6,1.47,2.16,1.99,4.32,3.98,6.47,5.98,8.95,8.3,18.08,16.06,28.06,23.11,6.93,4.91,13.29,10,19.37,15.97,1.64,1.61,3.3,3.19,4.96,4.78,7.39,7.14,13.93,14.59,20.1,22.8,1.53,2.01,3.1,4,4.68,5.97,13.76,17.31,26.73,35.18,36.77,54.93,.37,.71,.73,1.42,1.11,2.15,5.28,10.31,8.99,20.65,11.89,31.85,.19,.61,.37,1.22,.56,1.85,.56,2.73,.46,5.23,.36,8.02q-.04,1.73-.08,3.49c-.06,2.39-.14,4.79-.23,7.18-.15,8.65,1.69,14.71,5.39,22.46,.85,2.28,1.55,4.54,2.25,6.88,.31,1.03,.63,2.06,.95,3.12,2.45,9.25,1.97,18.52,1.8,28.01-.02,1.11-.03,2.22-.05,3.36-1.01,21.77-8.05,43.74-21.95,60.64-.46,.63-.91,1.26-1.38,1.9-9.9,13.04-28.45,20.91-43.56,25.9-8.51,2.87-16.76,6.31-25.04,9.77-14.16,5.91-28.38,11.55-42.83,16.74-.75,.27-1.5,.54-2.28,.82q-25.09,9.01-38.77,8.83c-14.48-.14-22.44,1.36-33.14,11.04-19.63,14.13-42.12,19.06-65.9,19.01-.78,0-1.56,0-2.37,0-1.91,0-3.82,0-5.73,0,.01,.61,.03,1.21,.04,1.84,.13,6.34,.22,12.69,.29,19.03,.03,2.36,.07,4.73,.12,7.09,.07,3.41,.11,6.82,.13,10.22,.03,1.05,.06,2.09,.09,3.17,0,8.89-3.11,13.7-8.95,20.15-6.91,6.09-14.29,11.21-21.98,16.25-.66,.44-1.32,.87-2,1.32-10.74,7.1-21.66,13.83-32.83,20.25-5.7,3.28-11.37,6.61-17.05,9.93-.61,.36-1.22,.71-1.85,1.08-11.6,6.78-23.09,13.73-34.56,20.73-6.49,3.96-13,7.87-19.52,11.77-4.57,2.74-9.13,5.51-13.66,8.31-9.72,5.99-19.56,11.72-29.52,17.3-2.89,1.63-5.77,3.29-8.64,4.96-1.94,1.1-3.88,2.2-5.82,3.3q-1.33,.78-2.68,1.57c-6.51,3.64-12.64,6.05-20.1,4.1-2.6-.98-5.05-2.11-7.53-3.35q-1.28-.63-2.58-1.28c-2.79-1.43-5.54-2.91-8.29-4.41-1.03-.56-2.05-1.12-3.11-1.69-11.78-6.49-23.23-13.51-34.67-20.56-5-3.08-10.01-6.13-15.03-9.18-.93-.56-1.85-1.13-2.8-1.71-14.95-9.1-29.94-18.12-45.07-26.92-8.99-5.23-17.96-10.48-26.91-15.77-1.36-.81-2.73-1.61-4.09-2.41q-50.68-29.78-57.43-45.07c-.65-3.92-.59-7.75-.49-11.72,0-1.1,.01-2.2,.02-3.33,.03-3.48,.09-6.97,.15-10.45,.03-2.37,.05-4.74,.07-7.12,.05-5.79,.14-11.59,.24-17.38q-.83,0-1.68,.02c-2.57,.03-5.14,.04-7.71,.06q-1.31,.01-2.64,.03c-27.89,.12-50.79-9.78-72.28-26.9-3.72-2.66-6.31-3.44-10.9-3.33-1.02,.02-2.03,.03-3.08,.05-2.1,.05-4.21,.1-6.31,.16-12.15,.18-22.72-2.17-34.14-6.2q-1.83-.64-3.7-1.29c-15.41-5.44-30.52-11.66-45.66-17.8-6.67-2.71-13.37-5.36-20.08-7.97q-1.36-.53-2.74-1.07c-3.58-1.4-7.16-2.77-10.78-4.07-20.92-7.56-39.33-20.16-49.4-40.49-2.89-6.22-5.26-12.51-6.9-19.18-.16-.62-.32-1.23-.49-1.87-2.45-9.38-4.25-18.41-4.51-28.13-.03-.72-.05-1.44-.08-2.18-.39-11.8-.52-23.68,4.84-34.51,5.1-10.44,5.65-18.89,5.33-30.49-.22-9.09,.68-16.24,3.91-24.82,.4-1.15,.8-2.3,1.21-3.49,6.29-16.96,15.34-32.8,25.79-47.51,.84-1.2,1.69-2.41,2.53-3.61,2.46-3.49,4.95-6.94,7.47-10.39,.72-.98,1.43-1.97,2.17-2.98,8.98-12.14,18.44-24.05,28.83-35.02,.5-.54,1-1.08,1.52-1.63,9.57-10.23,20-18.59,31.33-26.8,9.03-6.59,17.37-13.98,25.44-21.71,15.78-15.07,34.5-29.02,57.37-28.83,.94,.03,1.88,.06,2.85,.08q10.91,.58,20.62-3.42c2.22-3.12,4.03-6.34,5.89-9.69,1.73-2.08,3.45-4.05,5.31-6,.46-.49,.93-.99,1.4-1.5,.95-1,1.9-2.01,2.85-3,.95-.99,1.89-1.99,2.83-3,21.53-23.01,47.93-36.47,78.6-42.5-1-.44-1.99-.88-3.02-1.33-39.71-17.87-78.68-47.8-104.98-82.67-.51-.66-1.02-1.32-1.55-2q-30.45-39.49-30.45-52-1.4-.02-2.83-.04c-31.56-1.15-58.36-16.07-79.75-38.69-13.95-15.93-22.87-34.61-29.17-54.64-.28-.88-.56-1.77-.85-2.68-4.4-14.64-5.9-29.23-5.79-44.46,.02-2.55,0-5.1-.02-7.65-.02-14.38,1.86-28.11,6.1-41.9,.25-.83,.51-1.66,.77-2.52,2.43-7.64,5.71-14.67,9.58-21.68,.88-1.6,1.73-3.22,2.57-4.84,12.6-23.21,36.39-47.9,62.29-55.79,2.69-.74,5.39-1.45,8.1-2.12-.32-.7-.64-1.41-.96-2.14-1.46-3.24-2.9-6.49-4.35-9.74q-.75-1.66-1.51-3.36c-2.88-6.49-5.38-12.89-7.17-19.77-.17-.55-.35-1.09-.53-1.65-.67-3.34-.6-6.64-.58-10.03,0-.78,0-1.56,0-2.36,0-2.61,0-5.22,.02-7.83,0-1.87,0-3.74,0-5.61,0-4.03,0-8.05,.01-12.08,0-6.37,0-12.74,0-19.11,0-1.08,0-2.15,0-3.26,0-2.2,0-4.4,0-6.6-.02-14.83-.03-29.66,0-44.5,.02-10,.02-20.01-.01-30.01-.02-5.29-.02-10.59,0-15.88,.03-4.98,.02-9.96-.01-14.94,0-1.83,0-3.65,.02-5.48q.45-11.08-4.34-20.67c-1.17-1.03-2.35-2.03-3.55-3.01q-1.74-2.57-2.88-4.69-.58-1.06-1.18-2.14c-3.5-8.06-3.09-18.68-.51-26.93,4.5-10.76,13.9-18.33,24.31-23.06,12.65-4.62,27.15-3.95,38.25,3.81Z"/>
    <path class="cls-65" d="M448.37,802.4c3.48,0,6.95,0,10.43,0,8.23-.01,16.45-.01,24.68,0,8.38,0,16.76,0,25.14-.03,7.29-.02,14.58-.02,21.87-.02,4.31,0,8.62,0,12.93-.01,17.13-.05,34.13,.22,51.2,1.71,.68,.06,1.36,.12,2.07,.18,25.74,2.26,54.83,6.87,72.4,27.66,8.55,11.53,14.3,25.08,18.16,38.83,.23,.83,.47,1.66,.71,2.51,6.04,21.81,9.62,44.08,12.1,66.55,.12,1.11,.25,2.22,.38,3.36,2.78,27.16,.7,59.74-16.28,82.36-2.21,2.52-4.51,4.87-6.91,7.21-.99,1.01-1.97,2.02-2.96,3.03-5.95,6.08-12.09,11.84-18.61,17.28-17.94,15-35.26,34.1-37.72,58.57-.12,3-.15,5.99-.15,9q-.02,1.64-.04,3.31c-.04,3.46-.06,6.91-.08,10.37-.02,3.46-.05,6.92-.09,10.38-.02,2.14-.04,4.29-.04,6.43-.13,12.22-2.19,23.44-10.74,32.69-26.32,24.24-65.69,36.21-100.82,35.43-9.74-.49-18.62-3.23-27.74-6.49-1.59-.55-3.18-1.1-4.77-1.64-.69-.24-1.39-.48-2.1-.72-4.95-1.49-9.56-1.74-14.71-1.68q-30.93,.06-43.42-8.96c-1.75-1.04-3.5-2.08-5.25-3.12-1.93-1.28-3.84-2.57-5.75-3.88-.76-.51-1.52-1.03-2.3-1.56-2.66-1.8-5.3-3.62-7.95-5.44-.85-.58-1.7-1.16-2.58-1.76-7.78-5.42-15.08-10.52-17.17-20.24-.38-3-.43-5.92-.38-8.94q0-1.25,.02-2.53c.11-5.26,.75-10.13,1.86-15.28,4.37-20.95,3.78-44.08-7.69-62.44-9.62-14.42-21.42-24.66-35.32-34.79-22.54-16.44-31.96-34.22-36.47-61.64q-6.16-41.13,.97-55.38c.22-1.43,.39-2.87,.54-4.31,3.67-32.62,10.61-72.69,36.64-95.44,5.83-4.56,11.93-7.58,18.81-10.25,.94-.37,1.87-.73,2.84-1.11,7.15-2.48,14.47-3.77,21.91-5.01,.93-.16,1.86-.32,2.82-.48,23.06-3.6,46.28-3.71,69.55-3.7Z"/>
    <path class="cls-23" d="M313.38,317.44c1.66,0,3.31,0,4.97-.01,4.5-.01,8.99,0,13.49,0,4.87,0,9.74,0,14.61-.01,9.52-.01,19.04-.01,28.56-.01,7.74,0,15.49,0,23.23,0,1.11,0,2.21,0,3.35,0,2.25,0,4.49,0,6.74,0,21.02-.01,42.05,0,63.07,0,19.2,0,38.4,0,57.6-.03,19.75-.02,39.51-.03,59.26-.02,11.08,0,22.15,0,33.23-.01,9.43-.01,18.85-.01,28.28,0,4.8,0,9.6,0,14.41,0,4.41-.01,8.82,0,13.23,0,1.58,0,3.16,0,4.75,0,23.95-.11,49.38,3.58,67.28,20.89,21.58,21.99,24.17,52.43,23.97,81.67-.12,7.96-.48,15.89-.97,23.83q-.11,1.83-.21,3.7c-1.32,19.19-7.7,32.69-21.66,46.05-8.35,6.99-19.67,11.66-30.25,13.81-1.18,.25-2.37,.5-3.59,.75-15.26,2.56-31,1.88-46.41,1.87-1.31,0-2.63,0-3.98,0-18.21,0-36.39-.29-54.58-1.06-.97-.04-1.94-.08-2.93-.12-16.88-.7-33.54-1.4-47.57-12.01-.8-.6-1.59-1.19-2.41-1.81-9.85-8.34-14.94-21.51-20.36-32.93-7.95-16.51-17.38-29.1-34.91-35.64-9.86-1.86-18.19,.01-26.5,5.62-11.89,8.94-18.07,20.09-24.5,33.29-8.09,16.61-15.57,31.6-33.69,38.77-12.79,4.05-25.95,4.3-39.25,4.81-1.04,.04-2.09,.08-3.16,.13-18.34,.72-36.67,.96-55.03,1q-1.82,0-3.69,.02-58.36,.2-79.99-20.59c-21.75-23.21-19.47-56.31-18.66-86.25,1.09-23.83,7.35-47.76,24.16-65.43,19.73-18,44.71-20.33,70.14-20.26Z"/>
    <path class="cls-64" d="M352.42,282.57c1.85,0,3.71,0,5.56,0,3.89,0,7.77,0,11.66,0,4.85,0,9.69,0,14.54,0,20.34-.02,40.66,.15,60.99,.7,15.07,.41,30.12,.59,45.2,.56,3.81,0,7.62,0,11.43,0,14.83,0,29.65-.24,44.47-.63,21.15-.55,42.29-.73,63.44-.75,4.05,0,8.09-.02,12.14-.04,36.74-.2,73.62-.05,107.39,16.28,1.06,.51,2.11,1.01,3.2,1.53,22.24,11.42,40.94,32,49.8,55.47,.81,3.1,1.3,6.01,1.59,9.19,.3,2.78,.66,5.48,1.12,8.23,2.04,12.47,2.76,24.62,2.68,37.25-.02,3.02,0,6.04,.02,9.06,.02,15.26-1.48,29.92-5.72,44.64-.21,.74-.42,1.48-.64,2.24-5.08,16.98-14.86,27.52-30.04,36.38-3.81,2.03-7.65,3.99-11.5,5.94-23.4,11.95-32.38,26.19-40.36,50.82-4.97,15.31-9.89,30.33-21.14,42.25q-.75,.81-1.52,1.63c-10.43,11.05-21.07,19.95-34.82,26.57-10.05,4.86-18.14,11.94-24.97,20.8-7.92,9.66-19.33,14.68-30.69,19-1.21,.46-2.41,.93-3.65,1.4-6.78,2.42-13.55,4.18-20.6,5.57-.87,.17-1.74,.34-2.63,.52-9.22,1.78-18.48,3.12-27.8,4.26q-1.31,.16-2.65,.33c-12.25,1.48-24.39,2.39-36.73,2.36-1.28,0-2.56,0-3.88,0-24.75-.4-44.95-4.22-63.9-20.72-15.25-13.22-30.94-18.78-50.47-22.51-21.7-4.16-42.99-12.24-56.44-30.95-1.11-1.73-2.19-3.49-3.25-5.25-.72-1.15-1.45-2.29-2.17-3.43-.78-1.25-1.55-2.5-2.33-3.75-.34-.55-.69-1.1-1.04-1.67-7.78-12.94-12.63-26.9-17.26-41.18-7.27-22.32-16.58-34.62-37.67-45.36-1-.51-2-1.01-3.03-1.53-9.02-4.58-16.89-9.37-24.5-16.06q-1.05-.87-2.12-1.75c-12.48-11.14-15.4-30.5-17.88-46.25q-.16-.99-.32-2c-3.14-20.28-1.91-40.7,.32-61,.1-.97,.2-1.95,.31-2.95,2.82-26.41,14.62-47.37,34.69-65.05,13.57-10.88,28.34-18.14,45-23,.95-.28,1.89-.57,2.87-.86,6.42-1.77,12.93-2.8,19.51-3.76,.84-.12,1.67-.25,2.54-.37,13.75-1.9,27.42-2.15,41.26-2.13Zm-111.18,57.13c-24.14,30.84-23.63,67.7-21.19,105.12,.07,1.12,.14,2.24,.21,3.39,1.42,18.79,8,32.02,21.54,45.17,22.02,18.24,52.76,16.68,79.62,16.56q1.87,0,3.79,0c18.08-.05,36.15-.37,54.21-1.05q1.51-.05,3.05-.11c20.15-.72,37.81-2.53,53.76-16.08,7.85-8.98,12.71-20.05,17.78-30.73,7.95-16.51,17.38-29.1,34.91-35.64,9.86-1.86,18.19,.01,26.5,5.62,11.89,8.94,18.07,20.09,24.5,33.29q11.82,24.3,33.97,38.66c8.72,2.97,17.17,3.89,26.3,4.33,.87,.04,1.74,.09,2.63,.13,2.89,.14,5.77,.27,8.66,.4,1,.04,2,.09,3.03,.13,18.59,.8,37.17,1,55.78,.99,1.29,0,2.59,0,3.92,0q44.18,.37,81.19-21.35c21.17-22.6,18.61-56.49,17.97-85.48-.92-21.99-6.16-44.58-21.14-61.36-.64-.75-1.29-1.5-1.95-2.27-14.6-15.86-36.55-20.98-57.4-22.01-4.34-.14-8.67-.12-13.01-.1-1.65,0-3.31,0-4.96-.01-4.49-.01-8.97,0-13.46,0-4.86,0-9.72,0-14.59-.01-9.5-.01-19-.01-28.51,0-7.73,0-15.46,0-23.19,0-1.1,0-2.21,0-3.35,0-2.24,0-4.49,0-6.73,0-21,0-41.99,0-62.99,.02-17.97,.01-35.95,.01-53.92,0-20.92-.02-41.84-.02-62.76-.01-2.24,0-4.47,0-6.71,0q-1.65,0-3.33,0c-7.71,0-15.42,0-23.13,0-9.41,0-18.82,0-28.24,0-4.79,0-9.59,.01-14.38,0q-48.14-1.15-88.39,22.4Z"/>
    <path class="cls-18" d="M60.24,1150.7c9.44,3.33,18.61,7.1,27.75,11.19,19.81,8.8,39.78,16.69,60.57,22.82q17.75,5.26,23.24,11.3c3.27,3.47,6.6,6.65,10.22,9.75,2.2,1.92,4.35,3.9,6.49,5.89,5.16,4.79,10.45,9.32,15.94,13.74,3.02,2.51,5.91,5.14,8.78,7.81,4.55,4.23,9.24,8.22,14.08,12.12,3.38,2.76,6.68,5.6,9.98,8.45,4.69,4.04,9.42,8,14.27,11.83,2.01,1.59,4.02,3.19,6.02,4.8,8.72,7.03,17.57,13.88,26.5,20.66,2.13,1.62,4.25,3.26,6.38,4.9,22.21,17.13,45.13,33.42,68.8,48.48,1.95,1.25,3.89,2.51,5.82,3.79,28.72,18.88,58.57,35.83,89.16,51.48q1.07,.55,2.16,1.11c4.58,2.36,9.2,4.64,13.84,6.89,.96,.47,1.92,.94,2.92,1.42,3.23,1.57,6.47,3.11,9.71,4.64,1.03,.5,2.06,1,3.13,1.52,.98,.46,1.96,.92,2.97,1.39,.87,.42,1.74,.83,2.64,1.26,4.86,1.42,8.96-.16,13.41-2.21,.91-.42,1.82-.83,2.75-1.26q1.47-.69,2.96-1.39c1.04-.48,2.08-.97,3.15-1.46,20.65-9.67,40.93-19.92,60.66-31.36,2.69-1.55,5.39-3.08,8.1-4.6,11.77-6.63,23.23-13.63,34.58-20.95,1.44-.93,2.89-1.85,4.33-2.78,28.6-18.38,56.39-37.73,83.35-58.45,1.99-1.52,3.98-3.04,5.97-4.56,7.99-6.09,15.78-12.41,23.56-18.76,2.35-1.92,4.72-3.81,7.1-5.7,9.12-7.28,18.09-14.73,26.97-22.29,1.16-.99,2.32-1.97,3.48-2.96,7.04-5.98,13.99-12.03,20.79-18.28,2.1-1.92,4.23-3.8,6.38-5.66,3.41-2.96,6.74-6,10.06-9.06,4.61-4.24,9.22-8.46,14-12.5,.7-.64,1.41-1.28,2.13-1.94,3.34-2.41,6.64-3.51,10.54-4.62,1.55-.47,3.1-.93,4.65-1.4,.81-.24,1.63-.48,2.46-.73,18.93-5.63,37.09-12.5,55.21-20.31,.69-.3,1.38-.59,2.09-.9,6.18-2.67,12.36-5.33,18.52-8.05,1.17-.52,2.35-1.03,3.56-1.56,1.03-.46,2.06-.91,3.13-1.38,2.24-.91,4.34-1.6,6.7-2.1v2h-2c-.27,.59-.55,1.18-.83,1.79-1.13,2.13-2.31,3.72-3.89,5.53q-.8,.92-1.62,1.86c-.57,.64-1.14,1.29-1.72,1.95-.58,.67-1.17,1.33-1.77,2.02-4.03,4.59-8.1,9.15-12.2,13.67-1.8,2-3.58,4.02-5.34,6.06-4.28,4.91-8.69,9.7-13.11,14.48-1.48,1.61-2.95,3.22-4.42,4.84-7.93,8.66-16.18,17-24.47,25.31-.56,.57-1.13,1.13-1.71,1.72-5.6,5.62-11.2,11.22-17.27,16.35-1.8,1.57-3.48,3.23-5.15,4.93-2.94,2.99-6.02,5.75-9.2,8.48-2.81,2.46-5.56,4.99-8.3,7.52-7.93,7.3-16.1,14.32-24.29,21.32-2.42,2.07-4.83,4.15-7.23,6.23-6.31,5.47-12.71,10.76-19.3,15.88-3.92,3.05-7.72,6.21-11.49,9.44-6.22,5.33-12.7,10.29-19.23,15.24-3.74,2.84-7.45,5.72-11.14,8.62-9.59,7.52-19.36,14.73-29.31,21.76-.9,.64-1.8,1.27-2.72,1.93-12.85,9.09-25.84,17.87-39.28,26.07-.95,.58-1.9,1.16-2.88,1.76-41.27,25.14-83.77,46.79-128.24,65.61-.63,.27-1.26,.54-1.91,.82-14.26,6.06-25.84,10.28-40.92,4.54q-1.2-.48-2.42-.98c-.88-.35-1.76-.69-2.67-1.05-12.2-4.88-24.15-10.37-36.09-15.84-1.85-.85-3.69-1.69-5.54-2.53-46.97-21.49-92.41-46.5-134.3-76.86-2.1-1.52-4.21-3.03-6.33-4.53-21.55-15.39-42.39-31.71-62.89-48.46-1.6-1.31-3.2-2.61-4.81-3.91-5.44-4.43-10.82-8.93-16.16-13.48-3.43-2.91-6.9-5.76-10.4-8.59-5.07-4.13-9.87-8.5-14.67-12.95-2.23-2.06-4.48-4.07-6.77-6.05-3.88-3.37-7.67-6.84-11.45-10.32-3.06-2.81-6.14-5.6-9.24-8.36-12.14-10.94-23.87-22.27-35.44-33.81-.54-.54-1.08-1.07-1.63-1.62-5.44-5.42-10.83-10.84-15.79-16.71-1.58-1.81-3.24-3.49-4.96-5.17-3.01-2.97-5.8-6.07-8.56-9.28-2.23-2.55-4.52-5.04-6.82-7.54-4.15-4.55-8.08-9.24-11.94-14.04-2.8-3.4-5.75-6.65-8.75-9.88q-1.43-1.78-1.43-3.78h-2v-2Z"/>
    <path class="cls-65" d="M549.33,107.64c3.74,1.07,7.5,1.77,11.32,2.47,7.17,1.31,13.8,2.85,20.53,5.66,6.24,2.6,12.24,3.74,18.94,4.56,18.75,2.37,33.35,11.97,45.1,26.88,.65,.84,1.3,1.69,1.96,2.56,5.65,7.22,12.66,12.07,20.31,17,11.67,7.76,15.11,17.17,18.06,30.75,1.62,6.99,4.79,13.19,7.95,19.6,2.38,4.91,3.54,9.13,2.74,14.59-3.77,5.3-9.66,6.38-15.72,7.57-7.3,.97-14.72,.74-22.07,.74-1.9,0-3.8,.02-5.7,.03-4.09,.02-8.17,.03-12.26,.04-6.52,.01-13.03,.04-19.55,.06-10.37,.04-20.74,.07-31.11,.1-18.4,.05-36.81,.11-55.21,.19-6.42,.02-12.84,.04-19.26,.06-23.97,.06-47.93,.35-71.9,.87-14.56,.31-29.1,.5-43.66,.49-2.15,0-4.3,0-6.45,0-4.37,0-8.74,0-13.11,0-5.58,0-11.16,0-16.73,0-4.38,0-8.76,0-13.14,0-2.06,0-4.12,0-6.18,0-2.85,0-5.69,0-8.53,0-.82,0-1.65,0-2.5,0-4.69-.02-9.25-.31-13.9-.91-5.34-.61-10.76-.41-16.13-.41-2.18,0-4.36-.02-6.54-.04-11.88-.05-22.72,1.16-33.85,5.47-.82,.31-1.63,.62-2.47,.94-11.08,4.29-20.65,9.48-30.03,16.81q-.94,.69-1.89,1.39c-6.16,4.79-10.51,11.39-15.11,17.61-1,1.33-2,2.67-3,4,3.44-33.67,32.68-69.84,55.04-93.89,1.77-1.91,3.46-3.86,5.14-5.86,8.73-9.98,18.3-19.18,28.81-27.25,.59-.46,1.18-.92,1.79-1.4,21.84-17.05,45.79-29.22,72.21-37.6q1.2-.39,2.42-.79c50.59-16.49,121.59-27.18,173.66-12.27Z"/>
    <path class="cls-19" d="M635.63,895.62c6.08-.04,12.16-.08,18.23-.1,3.44-.01,6.88-.03,10.33-.07,3.68-.03,7.37-.05,11.05-.06,1.07-.01,2.14-.03,3.24-.04,.97,0,1.95,0,2.95,0,.84,0,1.68-.01,2.54-.02,2.84,.46,4.19,1.4,6.27,3.36,1.18,3.55,1.36,6.89,1.54,10.59,.04,.82,.08,1.63,.13,2.47,.57,12.65,.59,25.32,.63,37.97,.01,3.76,.05,7.52,.09,11.27,.03,2.92,.03,5.83,.04,8.75,0,1.39,.02,2.78,.04,4.16,.02,1.92,.02,3.85,.02,5.77q0,1.64,.02,3.31-.49,2.7-2.22,4.34c-2.62,1.56-4.07,1.74-7.1,1.75-.98,.01-1.96,.03-2.97,.04-1.08,0-2.15,0-3.26,0q-1.73,.02-3.49,.03c-3.22,.03-6.44,.04-9.67,.04-3.53,0-7.07,.04-10.6,.06-7.06,.05-14.13,.07-21.19,.1-5.82,.02-11.65,.04-17.47,.07-23.81,.11-47.62,.19-71.42,.24-8.2,.02-16.39,.04-24.59,.07-32.44,.09-64.88,.16-97.32,.19-9.11,.01-18.23,.03-27.34,.05-11.21,.03-22.42,.04-33.63,.04-5.8,0-11.6,0-17.39,.02-5.35,.02-10.7,.02-16.05,.01-1.95,0-3.9,0-5.86,.01-2.65,.01-5.29,0-7.94,0-.77,0-1.55,.02-2.34,.02q-5.11-.05-7.61-1.69c-1.83-3.05-1.43-6.54-1.4-10,0-.85,0-1.69-.01-2.56,0-2.8,0-5.6,.02-8.4,0-1.94,0-3.88,0-5.82,0-4.07,.01-8.14,.03-12.21,.02-5.22,.02-10.45,.02-15.67,0-4.01,0-8.02,.01-12.03,0-1.93,0-3.85,0-5.78,0-2.69,.01-5.38,.03-8.07,0-.8,0-1.6,0-2.43q.05-5.51,2.28-7.74c3.08-.21,6.08-.3,9.16-.3,.97,0,1.94-.02,2.94-.03,3.3-.03,6.59-.04,9.89-.05,2.39-.02,4.79-.03,7.18-.05,5.94-.04,11.89-.07,17.83-.1,7.09-.03,14.17-.08,21.26-.12,14.31-.09,28.61-.17,42.92-.24,14.17-.07,28.34-.15,42.51-.24,23.97-.14,47.94-.28,71.91-.41,3.07-.02,6.14-.03,9.22-.05,22.9-.13,45.8-.24,68.71-.34,9.29-.04,18.58-.09,27.87-.15Z"/>
    <path class="cls-23" d="M833.24,610.7c15.78,6.15,29.89,19.46,42,31,1.39,1.2,2.78,2.38,4.19,3.56,4.7,4.09,8.74,8.73,12.81,13.44,.86,.97,1.71,1.94,2.59,2.93,12.26,14.01,22.09,29.28,31.04,45.58,1.25,2.28,2.53,4.54,3.81,6.8,13.42,24.02,21.2,50.46,24.56,77.7,.1,.69,.19,1.38,.29,2.1,.99,8.07,.86,16.17,.84,24.29,0,2.54,0,5.09,0,7.63q.01,24.8-4.14,29.99-1,1-4.06,1.5c-8.61-1.09-15.23-10.77-21.12-16.8-9.98-10.21-19.68-20.05-31.82-27.7-1.52-1-3.03-2-4.55-3-11.27-7.3-22.99-13.59-34.97-19.63-11.12-5.62-22.15-11.44-32.35-18.63q-.99-.69-2-1.39c-4.09-2.86-8.07-5.82-12.03-8.85-15.57-11.92-32.52-21.34-50.1-29.95-5.12-2.55-10.12-5.24-15.06-8.12-.62-.35-1.24-.7-1.88-1.07-4.3-2.56-7.11-5.31-10.06-9.37-.62-3.27-.32-4.46,1.38-7.31,.54-.56,1.07-1.11,1.62-1.69h2c.33-.99,.66-1.98,1-3q1.73-1.19,3.98-2.35c.83-.43,1.65-.87,2.51-1.32q1.34-.69,2.7-1.4c13.69-7.33,25.24-15.76,36.38-26.56,1.27-1.23,2.56-2.44,3.85-3.65,13.81-13.22,24.63-29.24,31.19-47.18,3.18-8.44,7.07-9.76,15.38-7.55Z"/>
    <path class="cls-23" d="M168.24,609.7c4.89,3.91,6.57,8.2,8.69,13.88,13.24,33.18,42,57,72.31,74.12,1.33,.76,2.67,1.52,4,2.29,.99,.57,1.98,1.13,3,1.71v2h2q1.69,1.56,3,4c.13,3.41,.04,5.82-2.29,8.47-4.84,4.11-9.98,7.13-15.58,10.09-.95,.51-1.9,1.02-2.88,1.55-5.2,2.79-10.43,5.5-15.69,8.17-14.46,7.36-27.5,15.33-40.39,25.15-15.66,11.9-32.17,21.31-49.68,30.24-27.22,13.89-50.03,30.6-71.49,52.33-2.23,2.25-4.46,4.5-6.69,6.75-.51,.51-1.01,1.03-1.53,1.56q-4.6,4.63-7.73,4.79c-2.02-.03-4.04-.07-6.05-.1-4.17-7.25-4.16-14.73-4.2-22.87,0-.83-.01-1.66-.02-2.52-.02-2.68-.02-5.36-.03-8.05,0-.92,0-1.83,0-2.78,.07-61.91,24.43-119.56,66.55-164.86,2.5-2.71,4.95-5.46,7.39-8.23,3.85-4.27,7.86-8.05,12.31-11.69,.52-.43,1.04-.86,1.57-1.3,6.9-5.72,13.91-11.2,21.37-16.2,.59-.4,1.18-.79,1.79-1.2q13.01-8.53,20.28-7.3Z"/>
    <path class="cls-59" d="M541.24,105.7c53.83,1.93,111.35,20.46,153,55q.85,.7,1.73,1.41c12.43,10.21,24.22,21.28,34.18,33.93,2.23,2.83,4.56,5.54,6.91,8.28,20.15,24.2,40.42,54.2,47.19,85.38l-1,2c-.4-.61-.8-1.21-1.21-1.84-13.11-19.32-29.95-31.23-53.07-35.82-6.39-1.05-12.79-1.68-19.25-2.1q-2.46-.25-5.46-1.25c-1.82-.1-3.64-.15-5.46-.16-1.14,0-2.28-.02-3.45-.03-1.25,0-2.51-.01-3.8-.02-1.34,0-2.68-.02-4.01-.03-3.67-.03-7.33-.05-11-.07-3.91-.02-7.81-.05-11.72-.08-8.45-.06-16.9-.11-25.35-.15-5.29-.03-10.57-.06-15.86-.09-59.45-.36-118.9-.61-178.36-.37-1.39,0-2.78,.01-4.18,.02-21.28,.08-42.55,.19-63.83,.32-5.47,.03-10.93,.06-16.4,.09-6.68,.03-13.37,.07-20.05,.12-3.43,.02-6.85,.05-10.28,.06-14.52,.07-28.98,.43-43.47,1.32-1.32,.08-2.63,.16-3.99,.24-25.01,1.65-47.05,7.48-64.37,26.71-1.48,1.71-2.96,3.42-4.44,5.12-.99,1.01-1.98,2.02-3,3,1.32-3.7,2.91-6.45,5.38-9.5,.59-.73,1.17-1.46,1.77-2.22,.61-.75,1.22-1.51,1.85-2.28,.63-.83,1.27-1.66,1.92-2.51,14.24-17.02,40.24-28.42,62.08-30.49,2.56-.09,5.12-.13,7.68-.13,.7,0,1.4,0,2.12,0,1.47,0,2.94,0,4.4,0,2.22,0,4.44,0,6.66,0,1.44,0,2.88,0,4.31,0q1.93,0,3.89,0c2.78,.09,5.35,.28,8.08,.63,4.76,.54,9.46,.64,14.25,.63,.9,0,1.79,0,2.72,0,2.96,0,5.91,0,8.87,0,2.11,0,4.22,0,6.33,0,4.44,0,8.89,0,13.33,0,5.53,0,11.06,0,16.59,0,4.38,0,8.76,0,13.14,0,2.03,0,4.05,0,6.08,0,14.65,.01,29.29-.24,43.93-.56,23.92-.52,47.82-.73,71.74-.77,6.5-.01,13-.03,19.5-.05,18.44-.06,36.88-.12,55.32-.15,10.29-.02,20.58-.05,30.86-.09,5.4-.02,10.8-.04,16.21-.04,5.05,0,10.09-.02,15.14-.04,1.84,0,3.68,0,5.52,0,9.87,.02,18.82-.33,28.31-3.42q1.86-.59,3.75-1.19,1.11-.4,2.25-.81c1.39-9.2-2.34-16.07-6.15-24.14-2.53-5.49-4.42-11.19-6-17.03-3.7-13.69-7.89-19.8-19.75-27.69-8.77-5.83-15.62-12.34-22.06-20.66-11.42-13.82-25.93-21.59-43.68-23.29-6.22-.6-11.47-2.16-17.25-4.5-8.99-3.63-18.04-5.46-27.58-7.09-1.07-.18-2.13-.37-3.23-.56-.95-.15-1.91-.31-2.89-.47q-2.43-.57-5.43-2.57Z"/>
    <path class="cls-65" d="M658.24,1194.7c4.29,2.04,8.03,4.21,11,8,.94,3.3,.84,6.42,.72,9.82,0,.94-.02,1.88-.02,2.85-.03,3-.11,6.01-.2,9.01-.03,2-.05,4-.07,6q-.35,25.9-3.27,29.72c-.84,.51-1.68,1.01-2.54,1.54q-1.51,.96-3.05,1.93c-.57,.34-1.14,.67-1.72,1.02-2.01,1.2-3.97,2.47-5.93,3.74-4.93,3.19-9.92,6.29-14.92,9.37-.96,.59-1.93,1.19-2.92,1.8q-93.49,57.29-129.08,55.2c-.82-2.06-1.63-4.12-2.44-6.19-.45-1.15-.9-2.3-1.37-3.48-2.51-7.02-2.44-13.76-2.5-21.14-.03-1.15-.06-2.3-.09-3.49-.07-8.73,1.31-13.81,6.71-20.6,3.3-2.57,5.71-3.08,9.82-3.73,43.71-7.12,89.58-32.89,122.88-61.38,.73-.6,1.45-1.21,2.2-1.83,6.38-5.4,11.66-11.59,16.8-18.17Z"/>
    <path class="cls-70" d="M332.24,1194.7c3.4,1.13,4.24,2.17,6.5,4.88q2.5,2.98,5.22,5.76,1.28,1.37,1.28,3.37c.59,.26,1.18,.53,1.79,.8,2.31,1.26,3.71,2.56,5.5,4.47,3.44,3.53,7.06,6.55,11.02,9.48,.69,.51,1.37,1.02,2.08,1.55,18.12,13.26,38.37,24.04,58.61,33.7,.68,.33,1.36,.65,2.06,.99,16.65,7.94,34.31,14.87,52.7,17.15,5.49,1.46,8.76,4.6,11.59,9.38,2.51,5.56,2.2,11.31,2.09,17.3,0,1.11,.01,2.22,.02,3.37-.08,10.02-2.23,18.76-6.46,27.82-6.71-.46-12.84-1.54-19.25-3.56q-1.29-.4-2.6-.8c-45.63-14.36-86.97-37.11-126.88-63.17-2-1.28-4.01-2.51-6.05-3.73q-1.5-.95-3.04-1.92c-.81-.49-1.62-.98-2.46-1.48-5.46-7.36-3.17-23.55-3.3-32.52-.04-2-.09-4.01-.16-6.01q-.59-16.76,2.78-21.94c2.23-1.99,4.29-3.51,6.95-4.86Z"/>
    <path class="cls-60" d="M219.24,484.7c.95,.82,1.9,1.65,2.88,2.5,1.37,1.17,2.75,2.33,4.12,3.5,.7,.61,1.41,1.23,2.13,1.86,8.44,7.12,18.04,12.19,27.85,17.17,19.67,10.04,29.05,22.85,35.92,43.68,.64,1.98,1.28,3.96,1.92,5.94,7.66,23.67,18.22,49.26,38.88,64.47q1.06,.78,2.14,1.58c5.45,3.94,10.79,7.09,17.17,9.29,.95,.33,1.89,.66,2.87,1,6.8,2.13,13.62,3.49,20.63,4.75,19.88,3.6,35.01,9.21,50,23.31,13.88,12.97,27.25,16.17,45.46,17.69q2.04,.25,3.92,.76c37.09,8.56,95.33-3.01,127.87-21.01,7.64-4.79,13.74-10.74,19.59-17.56,6.68-7.79,13.61-11.97,22.8-16.48,8.74-4.45,15.72-9.84,22.86-16.46,.54-.49,1.07-.98,1.62-1.49,13.81-12.81,21.06-27.62,27.05-45.27,.24-.7,.47-1.39,.72-2.11,1.19-3.53,2.37-7.06,3.52-10.6,7.63-23.14,19.29-33.68,40.58-44.47,9.03-4.58,16.84-9.44,24.5-16.06,.77-.64,1.54-1.29,2.33-1.95,1.57-1.33,3.12-2.68,4.67-4.05-5.5,15-18.11,26.71-32,34-2.17,.94-4.36,1.83-6.56,2.69-4.71,1.88-8.29,3.51-10.44,8.31-1.08,3.52-1.99,7.07-2.87,10.64-5.78,22.87-16.43,44.88-31.13,63.36-.74,.94-1.47,1.89-2.23,2.86-18.81,23.57-40.45,39.7-66.77,54.14-1.41,.79-2.82,1.58-4.23,2.37-18.48,10.18-38.45,19.55-59.08,24.26-.82,.2-1.63,.41-2.47,.62-17.67,4.08-36.11,4.09-54.15,4.02-3.37-.01-6.74,0-10.11,.01-21.18,.01-42.46-.54-62.96-6.27q-1-.27-2.03-.54c-33.63-9.26-69.68-28.79-95.97-51.46q-1.19-1.01-2.4-2.03c-17.84-15.53-31.49-34.18-42.6-54.97-.37-.69-.74-1.38-1.12-2.1-6.91-13.12-12.06-27.61-15.37-42.06-.71-3.08-1.42-4.75-3.62-7.05-3.54-2.2-7.19-3.83-11.01-5.48-15.37-6.96-26.79-18.53-34.88-33.31v-2Z"/>
    <path class="cls-59" d="M291.24,958.7c2.39,2.39,2.33,3.2,2.64,6.49,.1,.92,.2,1.85,.3,2.8,.1,1,.21,2,.31,3.03,1.37,11.66,3.97,22.58,7.75,33.69,.24,.7,.47,1.39,.71,2.11,4.78,13.58,13.02,21.43,24.53,29.63,19.78,14.19,43.2,32.19,48.4,57.62,2.08,15.31,1.25,31.67-1.96,46.72-1.61,9.22-2.94,21.66,1.89,30.1,8.72,11.16,22.92,18.68,34.74,26.2,.61,.39,1.22,.78,1.84,1.19,1.92,1.2,3.87,2.33,5.84,3.44,.76,.45,1.53,.91,2.31,1.38,8.45,4.5,16.81,4.31,26.12,4.25,13.66-.02,24.91,1.59,37.81,6.4,9.21,3.26,17.94,4.5,27.69,4.41,1.18-.01,2.36-.02,3.57-.03,25.16-.51,46.72-9.16,68.93-20.53,.92-.47,1.83-.93,2.78-1.41,11.87-6.29,22.07-14.12,27.02-26.84,2.01-6.91,1.91-13.83,1.94-20.97,.02-2.24,.05-4.48,.07-6.71,.03-3.49,.06-6.99,.08-10.48,.13-27.77,7.14-48.52,26.61-68.71,2.89-2.78,5.94-5.3,9.06-7.81,7.09-5.7,13.65-11.96,20.22-18.25,1.49-1.41,3-2.79,4.53-4.16,10.71-9.91,15.74-22.66,19.26-36.53q.27-1.04,.54-2.09c1.43-5.95,2.07-11.88,2.59-17.97q.13-1.44,.26-2.91c.21-2.34,.41-4.68,.61-7.03h1c.11,10.1,.13,20.2,.04,30.3-.03,4.07-.05,8.13,.04,12.2q.43,21.36-3.62,26.43c-3.97,3.16-8.45,4.68-13.22,6.23-3.58,1.34-6.46,3.43-9.49,5.72-.56,.41-1.13,.83-1.71,1.26-21.61,16.14-38.57,35.81-42.72,63.34-.11,.83-.21,1.67-.32,2.53-.18,1.02-.35,2.05-.53,3.1-.61,5.08-.65,10.09-.66,15.21-.01,.98-.02,1.96-.04,2.97-.02,9.13,1.31,17.13,4.85,25.59,1.59,3.82,2.38,5.93,2.38,10.12q-1.44,1.5-3.56,3c-2.94,2.15-5.84,4.3-8.64,6.63-39.81,33.02-88.54,52.41-140.8,49.37-8.09-.83-16.04-2.36-24-4-.92-.18-1.83-.36-2.77-.55-32.47-6.57-59.88-22.49-85.45-43.03-3.2-2.56-6.43-5.08-9.65-7.61-1.19-.93-2.37-1.86-3.55-2.79q-1.27-1-2.57-2.02,.42-1.02,.84-2.07c1.29-3.25,2.52-6.52,3.72-9.8,.43-1.17,.87-2.35,1.32-3.55,7.11-22.65,1.94-50.92-8.82-71.57-2.93-5.03-6.31-9.56-10.06-14-.66-.8-1.31-1.6-1.99-2.43-7.73-9.08-17.1-15.78-27.01-22.26-.57-.39-1.15-.77-1.74-1.17-3.03-1.97-5.44-3.19-8.96-4.24-4.36-1.42-6.36-2.33-9.3-5.9-2.17-8.18-1.92-16.86-1.97-25.27-.04-4.34-.26-8.65-.5-12.97-.46-8.35-.62-16.71-.65-25.07,0-.85,0-1.7-.01-2.57q.02-5.87,1.14-8.11Z"/>
    <path class="cls-65" d="M147.24,880.7c3.68,2.36,6.85,4.97,10,8,.69,.67,1.39,1.33,2.11,2.02,6.68,6.97,13.06,16.68,15.89,25.98q-.23,.84-.46,1.69c-.76,3.22-.6,6.25-.54,9.56,.02,1.43,.03,2.85,.05,4.28,.03,2.24,.07,4.48,.11,6.71,.04,2.17,.07,4.34,.09,6.5,.02,1.29,.04,2.59,.07,3.92-.34,3.53-.72,4.95-3.32,7.33-2.93,.38-5.57,.56-8.5,.56q-5.44-.25-10.22,1.78c-1.9,2.45-1.73,4.59-1.85,7.65q-.23,5.69-2.44,9c-11.89,1.88-20.34-.06-30.2-6.81-3.25-2.16-6.65-4.04-10.05-5.94q-1.01-.57-2.05-1.16c-9.95-5.55-18.74-8.26-30.14-8.34-.73-.02-1.45-.04-2.2-.06-3.83-.03-6.71,.28-10.21,1.89q-3.15,1.42-6.15,.42c10.01-19.27,20.61-38.59,35-55,.81-.96,1.63-1.92,2.47-2.9,15-17.28,30-28.73,52.53-17.1Z"/>
    <path class="cls-65" d="M876.63,879.06c4.92,3.1,9.27,6.79,13.61,10.64,.67,.58,1.33,1.16,2.02,1.76,18.69,17.47,31.16,41.94,42.98,64.24q-3,1-6.62-.44c-11.12-3.89-23.81-2.43-34.35,2.44q-12.53,6.06-24.16,13.61c-4.39,3.25-9.96,2.51-15.18,2.45-.74,0-1.48,0-2.24-.01-1.81-.01-3.63-.03-5.44-.05-.28-.64-.55-1.28-.84-1.93-.36-.83-.72-1.65-1.1-2.5-.36-.82-.72-1.65-1.09-2.5q-.8-2.01-1.97-3.07c-2.86-.24-5.7-.42-8.56-.56q-1.21-.06-2.44-.13c-2-.11-4-.21-5.99-.31q-.26-1.05-.52-2.12c-.24-.91-.48-1.82-.73-2.76-.23-.9-.46-1.81-.7-2.74q-.85-2.53-3.16-3.7c-.62-.22-1.25-.45-1.89-.68-.42-7.33,.37-14.03,1.93-21.16,1.22-5.79,1.69-11.13,.36-16.95-.67-6.67,5.93-13.59,9.9-18.71,11.95-13.96,28.6-24.31,46.2-14.82Z"/>
    <path class="cls-17" d="M930.24,998.7q2.6,1.92,5,4c.84,.62,1.67,1.25,2.53,1.89,9.49,8.12,15.52,20.74,16.76,33.03,1.3,19.34-1.31,37.61-13.88,53.03-4.43,4.81-9.67,8.03-15.42,11.06-.6,.34-1.2,.69-1.82,1.04-7.52,3.61-18.33,3.35-26.26,1.08-2.53-1.18-4.68-2.46-6.92-4.12-.63-.46-1.26-.92-1.91-1.4-10.17-8.8-16.14-26.57-17.09-39.6-.06-.82-.13-1.64-.19-2.49-.81-19.22,6.64-38.6,19.45-52.74,12.17-12.27,24.35-11.99,39.75-4.77Z"/>
    <path class="cls-67" d="M94.76,996.9c14.35,10.44,22.74,28.09,25.86,45.24,.24,1.85,.45,3.7,.62,5.56,.08,.73,.17,1.46,.25,2.21,.73,12.2-4.64,26.7-12.13,36.17-4.17,4.44-8.49,7.35-14.12,9.62-.78,.36-1.55,.71-2.36,1.08-7.82,2.72-16.6,1.35-24.09-1.76-8-4.13-14.04-10.32-19.56-17.32-.47-.54-.94-1.09-1.42-1.65-9.39-11.05-11.16-20.86-10.27-35.21,1.38-14.3,6.95-27.11,17.56-37.08,11.1-8.94,26.48-14.28,39.64-6.87Z"/>
    <path class="cls-14" d="M352.42,282.57c1.85,0,3.71,0,5.56,0,3.89,0,7.77,0,11.66,0,4.85,0,9.69,0,14.54,0,20.34-.02,40.66,.15,60.99,.7,15.07,.41,30.12,.59,45.2,.56,3.81,0,7.62,0,11.43,0,14.83,0,29.65-.24,44.47-.63,21.15-.55,42.29-.73,63.44-.75,4.05,0,8.09-.02,12.14-.04,36.74-.2,73.62-.05,107.39,16.28,1.06,.51,2.11,1.01,3.2,1.53,22.24,11.42,40.94,32,49.8,55.47,.83,3.17,1.31,6.16,1.64,9.42,.27,2.65,.63,5.12,1.13,7.72,3.33,18.11,2.51,36.53,2.23,54.86h-1c-.03-.57-.07-1.14-.1-1.73-2.28-35.54-9.52-78.04-37.35-102.96-10.47-8.9-22.76-13.67-35.54-18.31-1.07-.41-2.15-.82-3.25-1.25-32.81-11.47-72.04-9.91-106.28-9.9-2.55,0-5.1,0-7.65-.01-6.14,0-12.29-.01-18.43-.01-5.01,0-10.02,0-15.04,0-14.31,0-28.63-.01-42.94-.01q-1.15,0-2.32,0t-2.33,0c-12.4,0-24.81,0-37.21-.02-12.84-.01-25.68-.02-38.51-.02-7.17,0-14.33,0-21.5-.01q-92.91-5.18-174.87,29.77-1.67,1.47-3.67,1.47c-.27,.59-.53,1.18-.81,1.79-1.21,2.25-2.48,3.7-4.25,5.52-13.12,14.72-20.15,34.18-25.94,52.69h-1c-.98-26.88,9.59-45.7,27.07-65.33,14.12-14.93,32.44-23.98,51.93-29.67,.95-.28,1.89-.57,2.87-.86,6.42-1.77,12.93-2.8,19.51-3.76,.84-.12,1.67-.25,2.54-.37,13.75-1.9,27.42-2.15,41.26-2.13Z"/>
    <path class="cls-105" d="M157.24,337.7c0,1.26,.02,2.52,.02,3.82q.27,70.91,1.91,141.8,.06,1.65,.11,3.34c.4,11.4,1.07,22.73,2.28,34.08,.7,6.68,.89,13.24,.67,19.96-5.2-.56-9.11-2.26-13.69-4.62-.7-.35-1.4-.71-2.11-1.07q-14.27-7.37-19.2-12.3c-.19-2.48-.26-4.84-.24-7.32,0-.76,0-1.51,0-2.29,0-2.53,0-5.05,.02-7.58,0-1.78,0-3.56,0-5.34,0-3.76,0-7.51,.02-11.27,.02-4.71,.02-9.42,.02-14.13,0-18.86,.17-37.7,.83-56.55,.3-8.7,.4-17.38,.39-26.09,0-3.39,.02-6.79,.03-10.18,0-2.3-.01-4.59-.04-6.89-.03-3.42-.02-6.83,.01-10.24-.02-1.02-.05-2.04-.07-3.09,.07-4.1,.14-6.9,2.75-10.19,4.14-3.7,8.78-6.59,13.66-9.22,.61-.34,1.23-.68,1.86-1.04q6.48-3.59,10.76-3.59Z"/>
    <path class="cls-65" d="M142.24,1013.7c5.96,1.83,11.5,4,17,6.94,.72,.39,1.44,.77,2.19,1.17,21.81,11.97,38.49,26.38,45.81,50.89,3.34,12.94,1.56,27.01-4,39-4.61,7.64-10.8,12.25-19.17,15.3-9.79,2.41-19.82,1.12-28.83-3.3-6.66-4.28-11.22-10.38-13.61-17.94-1.51-8.02-.17-15.89,1.47-23.76,1.17-5.84,1.62-11.6,1.85-17.54,.12-2.92,.29-5.73,.8-8.61,2.24-14.26,.57-28.43-3.5-42.15Z"/>
    <path class="cls-72" d="M246.24,1061.7c16.37-2.08,31.71,9.31,44.06,18.75,14.76,12.25,29.16,27.45,31.16,47.48,.86,17.38-3.08,30.65-14.54,44.02-5.57,5.98-12.11,10.61-19.69,13.75q-.99-.5-2-1c.63-.82,1.26-1.65,1.91-2.5,4.72-6.32,9.01-12.71,12.59-19.75q.49-.94,.99-1.89c4.62-9.42,4.85-19.15,4.83-29.48,.02-1.18,.03-2.35,.05-3.56,0-6.71-.58-11.7-3.36-17.81-.38-1.66-.74-3.32-1-5h-2q.02,1.18,.03,2.38c.04,3.62,.07,7.25,.09,10.87,.02,1.23,.03,2.47,.05,3.74,.08,15.18-2.18,31.59-11.24,44.3-3.91,3.45-8.95,3.85-13.93,4.7q-1.64,.59-3.31,1.19c-3.45,1.04-6.11,1.29-9.69,.81q-1.69-2.12-3-5c-2.54-4.32-4.08-6.63-9-8q-.25-7.28,1-10.88c.97-3.02,1.02-4.65,.88-7.75-.11-4.09,.57-6.85,2.12-10.62,6.75-18.95,.85-42.3-6.2-60.36-.97-2.88-1.13-5.37-.8-8.39Z"/>
    <path class="cls-65" d="M850.24,1013.7c-.29,.97-.58,1.94-.88,2.95-3.8,13.75-4.65,27.97-2.12,42.05,.15,2.44,.27,4.87,.38,7.31,.3,5.93,1.06,11.61,2.19,17.44,2.25,11.97,2.75,21.83-3.96,32.47-5.02,6.56-11.98,9.75-20.02,11.22-9.23,.51-17.13-4.14-23.99-9.89-4.64-4.57-8.55-9.73-12.39-14.99q-1.31-1.76-3.49-3.96c-2.37-3.6-2.31-6.87-2.21-11.04,.01-.8,.02-1.59,.04-2.41,.6-18.14,8.67-32.8,21.46-45.15,9.75-8.97,31.09-26,45-26Z"/>
    <path class="cls-48" d="M742.18,1061.58q1.16,.03,2.34,.05c.57,.02,1.14,.05,1.72,.07,.25,4.65-.5,7.83-2.25,12.12-8.1,22.02-10.58,45.12-.75,66.88,.39,.75,.79,1.5,1.2,2.27q.8,1.73,.8,4.73c-.81-.13-1.62-.26-2.45-.39q-6.56-1.03-12.49,1.27c-2.2,3.33-4.2,6.7-6.05,10.23q-1.02,1.89-2.02,2.89c-4.63,.68-8.04,.56-12.12-1.81-7.63-7.56-11.32-16.96-13.88-27.19-.21-.8-.43-1.59-.65-2.41-1.98-8.35-2-17.05-2.35-25.59h-2c-.1,.66-.21,1.32-.31,2q-.69,3-2.21,6.36c-2.21,5.83-1.92,11.74-1.86,17.89-.01,1.15-.02,2.3-.04,3.49,.04,10.83,2.01,20.64,7.04,30.26q.51,1,1.03,2.02c3.43,6.53,7.68,12.28,12.35,17.98q-.99,.5-2,1c-13.69-5.47-24.18-16.46-30.31-29.69-5.42-12.63-5.65-27.49-.93-40.4,4.44-10.38,10.43-17.92,18.25-25.91,.66-.72,1.32-1.44,2-2.18,10.98-11.74,31.09-26.46,47.94-25.94Z"/>
    <path class="cls-20" d="M453.74,523.61c3.99,1.89,7.43,3.86,10.63,6.9,3.58,3.3,7.68,5.34,12,7.5,.69,.35,1.39,.7,2.1,1.06,9.67,4.72,20.57,5.25,30.9,2.07,9.06-3.43,17.16-8.25,24.16-14.96,4.1-3.53,7.83-4.02,13.11-3.94,4.45,.78,7.48,3.31,10.61,6.46,2.88,4.32,2.68,7.93,2,13-2.58,8.12-8.09,14.07-14,20-.54,.57-1.09,1.13-1.64,1.71-13.58,12.96-32.87,15.91-50.79,15.76-18.8-.51-35.35-6.83-48.56-20.47q-1-1.01-2.03-2.04c-5.51-5.86-9.04-11.95-9.6-20.09,.19-4.68,1.74-7.16,4.92-10.5,4.97-4.02,10.24-4.64,16.2-2.46Z"/>
    <path class="cls-45" d="M448.37,802.4c3.48,0,6.95,0,10.43,0,8.23-.01,16.45-.01,24.68,0,8.38,0,16.76,0,25.14-.03,7.29-.02,14.58-.02,21.87-.02,4.31,0,8.62,0,12.93-.01,17.13-.05,34.13,.22,51.2,1.71,.68,.06,1.36,.12,2.07,.18,25.74,2.26,54.83,6.87,72.4,27.66,8.62,11.63,14.08,25.05,18.16,38.83q.48,1.54,.97,3.1c1.63,5.49,2.36,10.17,2.03,15.9h-2c-.34-.91-.68-1.82-1.03-2.75-10.78-28.21-27.9-49.66-55.87-62.35-19.38-8.28-40.11-10-60.94-10.16-2.89-.02-5.78-.05-8.67-.08-5.14-.05-10.29-.09-15.43-.14-24.58-.21-49.16-.42-73.74-.99-.84-.02-1.69-.04-2.56-.06-8.65-.2-17.23-.53-25.85-1.26-4.51-.33-9.01-.36-13.53-.35-.95,0-1.89,0-2.87,0-1.98,0-3.96,0-5.95,0-2.99,0-5.98,0-8.97,0-27.88-.01-59.22,1.35-80.42,21.96-.72,.72-1.43,1.43-2.17,2.17-.62,.55-1.25,1.1-1.89,1.67-11.22,10.19-16.66,25.57-22.11,39.33h-1c.51-6.53,1.74-12.08,4.06-18.19,.31-.82,.62-1.65,.94-2.49,7.01-18.02,17.52-32.49,35.31-41.01,9.98-4.22,19.78-6.67,30.44-8.44q1.4-.24,2.82-.48c23.06-3.6,46.28-3.71,69.55-3.7Z"/>
    <path class="cls-38" d="M461.37,104.64c1.12,0,2.23,.02,3.38,.03,.82,.01,1.64,.02,2.49,.04,.12,4.16,.15,6.98-2.43,10.43-13.59,13.59-34.86,16.55-53.09,18.22-14.47,1.35-28.54,3.07-42.48,7.35-.82,.25-1.63,.49-2.47,.75-28.83,8.88-54.2,25.42-77.53,44.25-1.13,.88-2.25,1.75-3.38,2.62-16.79,12.98-32.53,26.57-45.62,43.38-.42,.53-.83,1.06-1.26,1.6-5.2,6.61-10.22,13.29-14.74,20.4l-1-2q.72-1.63,1.92-3.57c.44-.72,.89-1.45,1.34-2.19,.49-.78,.98-1.56,1.49-2.36,.5-.81,1-1.62,1.52-2.45,10.62-16.94,22.13-33.65,35.77-48.32,1.77-1.91,3.46-3.86,5.14-5.86,8.73-9.98,18.3-19.18,28.81-27.25,.59-.46,1.18-.92,1.79-1.4,21.84-17.05,45.79-29.22,72.21-37.6q1.2-.39,2.42-.79c26.92-8.77,57.28-15.57,85.7-15.27Z"/>
    <path class="cls-72" d="M715.24,771.7q18.87,13.74,22,19c.17,3.27-.35,5.2-2.42,7.76-1.89,1.94-3.84,3.79-5.83,5.62-6.41,5.95-10.9,11.77-14.75,19.62-3.36-4.03-6.33-8.29-9.32-12.6-1.07-1.53-2.18-3.03-3.34-4.5q-1.34-1.91-2.21-5.34c-1.34-4.26-2.77-5.64-6.12-8.56-.58-.58-1.17-1.17-1.77-1.77-10.09-9.76-23.09-15.73-36.23-20.23-.76-.28-1.53-.57-2.31-.86-5.57-2.01-11.27-3.21-17.06-4.39-2.5-.51-4.98-1.12-7.43-1.8-7.59-1.7-15.51-1.42-23.25-1.57-1.65-.04-3.29-.08-4.94-.12-4-.1-8-.18-12-.26v-3c1.18-.37,2.35-.74,3.56-1.12,3.23-1.19,5.46-2.56,8-4.88,3.21-2.92,6.35-4.58,10.44-6q1.25-.53,2.52-1.07c33.81-12.73,75.17,6.57,102.48,26.07Z"/>
    <path class="cls-72" d="M373.99,751.7c.86,.66,1.72,1.32,2.61,2,.87,.66,1.74,1.32,2.64,2q1.38,1.06,2.78,2.15c3.98,2.29,7.47,2.87,11.97,3.48q8.01,1.13,10.25,3.38c-6.31,.9-12.53,1.24-18.9,1.43-2.13,.07-4.26,.15-6.39,.22-3.31,.11-6.62,.22-9.93,.32-26.16,.8-49.88,2.95-69,22.89-4,4.81-6.91,10.26-9.59,15.88-3.09,6.43-7.28,12.3-11.19,18.25q-2-1-3.56-4.44c-3.96-8.22-11.2-14.56-17.91-20.58-2.09-2.71-2.49-4.57-2.53-7.98,15.8-24.33,54.73-39.71,81.47-46.64,14.15-2.01,25.58-.74,37.28,7.64Z"/>
    <path class="cls-67" d="M854.62,352.58q3.62,1.12,4.82,2.65c2.7,5.4,3.46,10.03,3.63,16.03q.06,1.37,.12,2.77c.12,3,.21,5.99,.3,8.99,.07,2.11,.15,4.23,.22,6.34,.22,6.45,.38,12.9,.53,19.35,.02,.96,.04,1.92,.07,2.91,.46,21.4,.02,42.67-1.44,64.03q-.09,1.39-.19,2.82-2.29,32.86-9.92,40.79c-2.45,1.85-4.2,2.46-7.27,2.39q-2.25-.94-4.25-3.94-.23-2.49-.2-5.48c0-1.12,.01-2.23,.02-3.38,.02-1.21,.03-2.41,.05-3.66,0-1.25,.02-2.51,.03-3.8,.02-2.62,.04-5.23,.07-7.85,.04-3.53,.06-7.06,.07-10.58,.05-12.9,.15-25.79,.25-38.69,.05-6.42,.1-12.85,.13-19.27,.04-6.3,.08-12.6,.14-18.91,.02-2.38,.03-4.75,.05-7.13q.24-45.92,12.77-46.39Z"/>
    <path class="cls-10" d="M620.24,350.7l2,1c-1.03,.78-2.06,1.57-3.12,2.38-4.51,3.88-7.15,8.39-9.88,13.62-.42,.73-.83,1.45-1.26,2.2-4.85,9.74-4.26,23.15-1.11,33.36,.74,1.84,1.53,3.65,2.38,5.44,.41,.87,.82,1.74,1.25,2.63,6.17,11.47,15.86,18.19,28.06,22.11,12.85,3.34,25.89,.87,37.45-5.38,10.74-6.55,16.71-16.47,20.24-28.37,.19-.64,.39-1.28,.59-1.94,2.55-12.81-.2-24.78-7.13-35.53q-1.46-2.53-1.46-5.53c11.06,9.68,18.14,23.89,19.27,38.52,.45,16.98-4.61,32.75-16.46,45.29-12.78,12.14-28.73,16.85-46.03,16.53-14.53-.7-27.77-8.3-37.65-18.69-6.34-7.86-10.9-16.79-13.14-26.65-.18-.59-.36-1.17-.55-1.78-2.88-14.13,.62-28.23,7.71-40.52,5.06-7.47,11.19-13.89,18.83-18.7Z"/>
    <path class="cls-10" d="M369.24,349.7c4.42,1.43,7.51,3.83,10.88,6.94,.53,.49,1.05,.97,1.59,1.47,9.79,9.36,17.2,22.98,17.83,36.7,.24,17.36-4.59,33-16.93,45.71-12.92,11.86-28.38,16.98-45.7,16.55-14.68-.84-27.7-8.48-37.68-18.99-11.17-13.31-15.25-29.34-14-46.38,1.85-13.99,9.21-25.17,19-35,0,4.7-2.83,7.88-5.27,11.8-5.5,10.21-5.2,23.22-2.1,34.2,1.99,5.65,4.72,10.28,8.38,15,.72,1.03,1.44,2.06,2.19,3.12,7.01,8.11,18.33,12.97,28.81,13.88,13.18,.7,25.62-2.47,35.9-11.03,8.53-8,14.92-19.19,15.37-31.09,.48-16.3-3.81-27.41-14.9-39.67-1.09-1.1-2.23-2.16-3.38-3.2Z"/>
    <path class="cls-43" d="M400.74,149.45c1.1-.03,2.21-.05,3.34-.08,4.47,.46,7.02,2.2,10.16,5.33,.5,4.95,.45,8.79-2.38,13.1-15.83,18.62-42.89,27.79-65.3,35.34q-1.47,.5-2.97,1-23.2,7.58-32.53,3-1.81-2.44-2.5-5.69c1.57-8.58,7.93-13.13,14.77-17.9,21.28-14.31,51.2-33.73,77.41-34.1Z"/>
    <path class="cls-60" d="M635.63,895.62c6.08-.04,12.16-.08,18.23-.1,3.44-.01,6.88-.03,10.33-.07,3.68-.03,7.37-.05,11.05-.06,1.07-.01,2.14-.03,3.24-.04,.97,0,1.95,0,2.95,0,.84,0,1.68-.01,2.54-.02,2.84,.46,4.19,1.4,6.27,3.36,1.18,3.55,1.36,6.89,1.54,10.59,.04,.82,.08,1.63,.13,2.47,.57,12.65,.59,25.32,.63,37.97,.01,3.76,.05,7.52,.09,11.27,.03,2.92,.03,5.83,.04,8.75,0,1.39,.02,2.78,.04,4.16,.02,1.92,.02,3.85,.02,5.77q0,1.64,.02,3.31-.49,2.7-2.22,4.34c-2.62,1.56-4.07,1.74-7.1,1.75-.98,.01-1.96,.03-2.97,.04-1.08,0-2.15,0-3.26,0q-1.73,.02-3.49,.03c-3.22,.03-6.44,.04-9.67,.04-3.53,0-7.07,.04-10.6,.06-7.06,.05-14.13,.07-21.19,.1-5.82,.02-11.65,.04-17.47,.07-23.81,.11-47.62,.19-71.42,.24-8.2,.02-16.39,.04-24.59,.07-32.44,.09-64.88,.16-97.32,.19-9.11,.01-18.23,.03-27.34,.05-11.21,.03-22.42,.04-33.63,.04-5.8,0-11.6,0-17.39,.02-5.35,.02-10.7,.02-16.05,.01-1.95,0-3.9,0-5.86,.01-2.65,.01-5.29,0-7.94,0-.77,0-1.55,.02-2.34,.02q-5.11-.05-7.61-1.69c-1.83-3.05-1.43-6.54-1.4-10,0-.85,0-1.69-.01-2.56,0-2.8,0-5.6,.02-8.4,0-1.94,0-3.88,0-5.82,0-4.07,.01-8.14,.03-12.21,.02-5.22,.02-10.45,.02-15.67,0-4.01,0-8.02,.01-12.03,0-1.93,0-3.85,0-5.78,0-2.69,.01-5.38,.03-8.07,0-.8,0-1.6,0-2.43q.05-5.51,2.28-7.74c3.08-.21,6.08-.3,9.16-.3,.97,0,1.94-.02,2.94-.03,3.3-.03,6.59-.04,9.89-.05,2.39-.02,4.79-.03,7.18-.05,5.94-.04,11.89-.07,17.83-.1,7.09-.03,14.17-.08,21.26-.12,14.31-.09,28.61-.17,42.92-.24,14.17-.07,28.34-.15,42.51-.24,23.97-.14,47.94-.28,71.91-.41,3.07-.02,6.14-.03,9.22-.05,22.9-.13,45.8-.24,68.71-.34,9.29-.04,18.58-.09,27.87-.15Zm-328.39,5.08c-2.43,3.64-2.29,6.32-2.27,10.53,0,.76-.01,1.53-.02,2.32-.01,2.53-.01,5.06-.01,7.59,0,1.76,0,3.51-.01,5.27,0,3.68,0,7.37,0,11.05,0,4.72-.01,9.44-.03,14.17-.01,3.63-.02,7.26-.01,10.89,0,1.74,0,3.48-.02,5.22-.01,2.43,0,4.87,0,7.3,0,.72-.02,1.44-.02,2.18,.03,2.88,.19,5.09,1.53,7.66,2.65,2.58,4.41,2.31,8.08,2.31q1.96,.01,3.97,.03c1.46-.01,2.92-.02,4.38-.03,1.55,0,3.09,0,4.64,.01,4.26,.01,8.52,0,12.78-.02,4.59-.01,9.18,0,13.77,0,9,.01,17.99,0,26.98-.02,10.47-.02,20.94-.02,31.41-.02,18.68,0,37.35-.02,56.03-.05,18.13-.03,36.27-.04,54.4-.04q1.67,0,3.38,0c1.11,0,2.23,0,3.38,0,20.63,0,41.25-.01,61.88-.03,7.3,0,14.6,0,21.9,0,8.9,0,17.79-.01,26.69-.03,4.54,0,9.08-.02,13.62-.01,4.16,0,8.31,0,12.46-.02,1.51,0,3.01,0,4.52,0,2.04,0,4.08,0,6.13-.02,1.14,0,2.27,0,3.44,0,3.09-.26,5.27-.84,8.02-2.25,1.51-3.01,1.16-6.13,1.16-9.43,0-.77,0-1.53,.02-2.32,.01-2.54,.02-5.08,.03-7.62,0-1.76,.01-3.52,.02-5.28,.01-3.69,.02-7.39,.02-11.08,0-4.74,.03-9.48,.06-14.22,.02-3.64,.02-7.28,.03-10.91,0-1.75,.01-3.5,.02-5.24,.02-2.44,.02-4.88,0-7.33,0-.72,.02-1.45,.03-2.2q0-3.73-1.51-7.05c-2.73-1.92-4.83-1.69-8.15-1.69-.64,0-1.29,0-1.95-.01-2.17-.01-4.34,0-6.51,0-1.56,0-3.13,0-4.69-.01-4.31-.01-8.62,0-12.93,0-4.64,0-9.29,0-13.93-.01-9.1-.01-18.2-.01-27.31,0-7.39,0-14.79,0-22.18,0-1.05,0-2.1,0-3.18,0-2.13,0-4.27,0-6.4,0-20.03,0-40.07,0-60.1,.02-17.21,.01-34.41,.01-51.62,0-19.96-.02-39.92-.02-59.88-.01-2.13,0-4.25,0-6.38,0-1.05,0-2.09,0-3.17,0-7.39,0-14.78,0-22.17,0-9,0-18,0-27,0-4.6,0-9.19,.01-13.79,0-4.2,0-8.4,0-12.6,.01-1.53,0-3.05,0-4.58,0-2.06,0-4.12,0-6.19,.01-1.15,0-2.3,0-3.48,0-.88,.12-1.77,.25-2.68,.38Z"/>
    <path class="cls-68" d="M930.24,998.7c8.8,7.73,16.99,21.16,18.2,32.97,.1,2.1,.13,4.18,.11,6.28,0,.74,0,1.48,0,2.24-.11,6.15-1.21,11.71-3.31,17.51-1.23-3.76-.99-7.26-.88-11.19,.13-9.22-1.87-15.38-7.12-22.81v-2c-.52-.25-1.03-.5-1.56-.75q-2.44-1.25-5.25-3.38c-5.82-3.32-12.76-2.76-19.19-1.88-7.09,2.66-11.74,8.31-15,15-3.44,10.05-3.69,22.28,1,32,3.88,6.55,8.66,11.58,16,14,7.17,1.07,13.37-.25,20-3-7.9,8.67-17.67,13.97-29.38,15.42-6.13,.26-10.93-.06-15.92-3.82-6.5-6.1-9.67-13.32-12.7-21.6-.32-.84-.64-1.67-.98-2.54-5.19-14.92-.64-29.05,5.73-42.78,4.96-9.38,12.31-19.22,22-24.06,10.06-1.94,19.18-.55,28.25,4.38Z"/>
    <path class="cls-68" d="M872.24,362.7c16.32,12.73,26.26,35.85,29,56,.3,4.88,.33,9.74,.31,14.62q0,1,0,2.02c-.06,10.07-.38,19.64-3.3,29.35q-.38,1.28-.77,2.58c-3.29,10.76-7.22,21.07-12.42,31.05-.4,.78-.81,1.55-1.22,2.35-2.4,4.39-5,7.49-8.59,11.03-.02-.92-.05-1.85-.07-2.8-.22-8.85-.44-17.7-.66-26.55-.11-4.55-.23-9.09-.34-13.64-.13-5.27-.26-10.54-.39-15.8-.02-.87-.04-1.74-.07-2.63-.28-11.27-.63-22.53-1.03-33.8-.42-11.89-.56-23.76-.5-35.66,0-1.79,0-3.58,.01-5.37,.01-4.25,.03-8.5,.05-12.75Z"/>
    <path class="cls-69" d="M119.24,362.7h1c.3,30.3-.54,60.57-1.39,90.85-.18,6.58-.36,13.16-.54,19.74-.35,12.8-.71,25.61-1.07,38.41-4.34-4.27-7.09-8.14-9.88-13.5-.43-.83-.86-1.66-1.31-2.51-4.7-9.33-7.92-18.98-10.82-28.99-.22-.72-.45-1.45-.68-2.19-7.99-26.1-4.77-54.78,7.68-78.81,4.62-8.29,10.27-16.27,17-23Z"/>
    <path class="cls-63" d="M143.24,350.7c2,3.33,2.25,5.85,2.23,9.71,0,1.15,0,2.29,0,3.47q-.02,1.8-.04,3.63c0,1.12,0,2.25,0,3.41-.04,7.6-.33,15.16-.69,22.74-.56,11.93-.7,23.84-.69,35.79,0,1.04,0,2.09,0,3.17,.04,23.38,1.58,46.04,5.28,69.15,.3,1.98,.6,3.96,.9,5.93,.15,.94,.3,1.88,.45,2.85,.12,.88,.24,1.76,.36,2.67,.11,.77,.22,1.54,.33,2.33-.19,2.81-1.32,4.07-3.14,6.14-3.62-.25-5.64-.73-8.56-2.94-6.71-8.43-8.84-17.61-10.44-28.06-.21-1.26-.41-2.51-.62-3.8-3.18-21.71-1.55-44.49-.8-66.34,.48-14.14,.73-28.28,.99-42.42,.02-1.21,.04-2.42,.07-3.67,.13-6.92,.25-13.84,.37-20.76,5.06-2.31,8.29-3.35,14-3Z"/>
    <path class="cls-22" d="M84.81,1016.27c7,4.33,11.49,11.52,14.03,19.23,1.84,9.88,1.2,20.96-4.07,29.64-4.37,6.08-9.39,10.19-16.52,12.57-7.89,.91-13.68-.08-20-5-6.39-5.82-10.78-12.29-11.34-21.04-.41-11.98,1.38-21.58,9.34-30.96,7.41-7.55,18.93-8.68,28.56-4.44Z"/>
    <path class="cls-48" d="M246.24,1061.7c16.37-2.08,31.71,9.31,44.06,18.75,14.76,12.25,29.16,27.45,31.16,47.48,.86,17.38-3.08,30.65-14.54,44.02-5.57,5.98-12.11,10.61-19.69,13.75q-.99-.5-2-1c.63-.82,1.26-1.65,1.91-2.5,4.72-6.32,9.01-12.71,12.59-19.75q.49-.94,.99-1.89c4.62-9.42,4.85-19.15,4.83-29.48,.02-1.18,.03-2.35,.05-3.56,0-6.71-.58-11.7-3.36-17.81-.38-1.66-.74-3.32-1-5h-2v6c-.48-.39-.97-.77-1.47-1.17-7.87-6.12-14.85-10-24.97-10.08-1.32-.03-2.64-.05-4-.08-3.71,.34-4.87,.91-7.57,3.33h-2c-.33,.99-.66,1.98-1,3-2.49-2.95-3.52-5.25-4.25-9.04q-.3-1.46-.6-2.96c-.2-1.01-.39-2.03-.59-3.07-1.39-7.14-3.07-13.82-5.75-20.59-.99-2.86-1.13-5.35-.81-8.35Z"/>
    <path class="cls-107" d="M835.24,337.7c5.5,.83,9.27,2.41,14.03,5.27q2.92,1.8,6.12,2.95c3.92,1.89,5.54,3.01,7.84,6.77,1.4,8.89,.66,18.06,0,27h-1c-.04-1.22-.07-2.44-.11-3.69-.07-1.62-.13-3.25-.2-4.87-.02-.8-.05-1.6-.07-2.42-.24-5.32-.97-9.35-3.62-14.01q-3.59-1.06-7-1c-7.5,11.02-8.13,21.86-8.21,34.86q-.01,1.57-.03,3.18c-.03,3.45-.06,6.91-.08,10.36-.02,2.43-.04,4.86-.06,7.29-.04,5.1-.08,10.2-.12,15.3-.05,6.46-.1,12.91-.16,19.37-.05,6.24-.1,12.48-.16,18.72,0,1.15-.02,2.3-.03,3.49-.05,5.55-.08,11.1-.11,16.65-.02,4.86-.09,9.72-.16,14.58-.03,2.57-.06,5.13-.08,7.7-.02,1.21-.05,2.41-.07,3.66,0,1.11-.02,2.23-.03,3.38-.01,.99-.03,1.97-.04,2.99q.15,2.53,1.71,4.33,1.62,1.39,4,1.16c4.37-1.66,6.75-4.08,8.7-8.36,2.34-6.27,3.61-11.91,3.99-18.58,.07-.96,.14-1.93,.21-2.92,.21-2.97,.4-5.93,.59-8.9,.29-4.53,.62-9.06,.93-13.59,.76-10.88,1.49-21.77,2.21-32.65h1c.26,11.2,.45,22.41,.57,33.62,.06,5.2,.14,10.41,.26,15.61,.12,5.03,.19,10.05,.21,15.08,.02,1.91,.06,3.83,.12,5.74q.45,14.98-3.53,19.87c-2.8,2.08-5.47,3.62-8.63,5.08-1.43,.81-2.87,1.63-4.29,2.46-1.29,.65-2.59,1.29-3.89,1.91-.65,.33-1.29,.66-1.96,1-4.53,2.23-8.92,3.54-13.85,4.63-.25-7.61,.14-14.97,.94-22.53,1.16-11.61,1.72-23.19,2.12-34.85,.04-1.14,.08-2.28,.12-3.46,1.64-47.36,1.51-94.78,1.81-142.16Z"/>
    <path class="cls-36" d="M147.24,880.7c6.84,4.37,16.61,11.6,18.71,19.77q.14,1.1,.29,2.23-8-6-10-7.59c-4.72-3.32-11.02-5.08-16.77-4.82-9.08,1.67-16.38,6.47-23.23,12.41-.67,.53-1.33,1.07-2.02,1.62-9.42,7.75-21.35,20.2-23.11,32.7-.11,4.39,.46,7.08,3.12,10.69,5.21,5.22,11.02,9.7,17,14-3.48,1.16-3.86,.89-7.02-.62-.78-.36-1.55-.72-2.35-1.09-.81-.39-1.61-.77-2.44-1.17-8.06-3.83-14.72-5.31-23.62-5.38-.73-.02-1.45-.04-2.2-.06-3.83-.03-6.71,.28-10.21,1.89q-3.15,1.42-6.15,.42c10.01-19.27,20.61-38.59,35-55,.81-.96,1.63-1.92,2.47-2.9,15-17.28,30-28.73,52.53-17.1Z"/>
    <path class="cls-45" d="M876.63,879.06c4.92,3.1,9.27,6.79,13.61,10.64,.67,.58,1.33,1.16,2.02,1.76,18.69,17.47,31.16,41.94,42.98,64.24q-3,1-6.62-.44c-12.33-4.31-24.84-1.81-36.38,3.44-1.57,.78-3.13,1.57-4.69,2.38q-3.31,1.62-6.31,.62c.63-.5,1.26-.99,1.91-1.5,2.71-2.15,5.4-4.32,8.09-6.5,.78-.63,1.57-1.26,2.38-1.91q5.21-4.14,7.62-10.09c.43-10.48-4.54-17.43-11.35-24.88-1-1.07-2.02-2.14-3.04-3.19q-3.61-3.74-3.61-5.93h-2v-2c-.59-.27-1.19-.54-1.8-.82-2.15-1.15-3.62-2.33-5.39-3.99-7.17-6.28-15.89-10.82-25.64-10.5-8.33,1.19-14.33,5.5-20.17,11.31q-.8-1.64-1-4c1.51-2.18,2.93-3.92,4.75-5.81,.5-.53,1-1.06,1.52-1.61,11.98-12.28,27.11-19.85,43.12-11.22Z"/>
    <path class="cls-72" d="M730.62,1100.58q2.62,2.12,3.62,4.12l2-1q0,1.87,0,3.78c.22,12.84,2.19,24.02,8.18,35.5q.81,1.72,.81,4.72c-.81-.13-1.62-.26-2.45-.39q-6.56-1.03-12.49,1.27c-2.2,3.33-4.2,6.7-6.05,10.23q-1.02,1.89-2.02,2.89c-4.63,.68-8.04,.56-12.12-1.81-7.62-7.56-11.34-16.96-13.88-27.19-.21-.85-.43-1.71-.65-2.59-.55-2.46-.96-4.92-1.35-7.41-.24-1.06-.48-2.13-.73-3.23-.61-3.54-.91-6.23-.27-9.77,3.14-3.66,6.76-5.77,11-8,1.07-.66,2.15-1.32,3.25-2,7.19-1.92,16.38-2.86,23.12,.88Z"/>
    <path class="cls-32" d="M490.8,919.37c.74,0,1.48-.01,2.24-.02,1.56-.01,3.12-.01,4.69-.01,2.38,0,4.76-.04,7.14-.08,1.52,0,3.04,0,4.56-.01,.71-.01,1.42-.03,2.15-.04,4.84,.04,7.28,1.08,10.67,4.5,1.48,2.96,1.18,5.99,1.2,9.24,0,.72,.01,1.44,.02,2.18,0,1.52,.02,3.04,.02,4.56,0,2.32,.04,4.63,.07,6.95,0,1.48,.01,2.96,.02,4.44,.01,.69,.02,1.38,.04,2.09-.02,4.36-.68,7.09-3.37,10.55-3.62,2.42-6.36,2.34-10.55,2.37-.74,0-1.48,.02-2.24,.03-1.56,.01-3.12,.02-4.69,.03-2.38,.01-4.76,.06-7.14,.11-1.52,0-3.04,.02-4.56,.02q-1.06,.03-2.15,.06c-3.89-.04-5.53-.5-8.6-2.97-4.33-5.54-3.3-12.15-3.31-18.85,0-2.16-.04-4.33-.07-6.49,0-1.38-.01-2.77-.02-4.15q-.01-1.88-.03-3.8c.39-3.65,1.14-5.48,3.36-8.37,3.63-2.42,6.36-2.32,10.55-2.34Z"/>
    <path class="cls-32" d="M386.8,919.37c.74,0,1.48-.01,2.24-.02,1.56-.01,3.12-.01,4.69-.01,2.38,0,4.76-.04,7.14-.08,1.52,0,3.04,0,4.56-.01,.71-.01,1.42-.03,2.15-.04,4.84,.04,7.28,1.08,10.67,4.5,1.48,2.96,1.18,5.99,1.2,9.24,0,.72,.01,1.44,.02,2.18,0,1.52,.02,3.04,.02,4.56,0,2.32,.04,4.63,.07,6.95,0,1.48,.01,2.96,.02,4.44,.01,.69,.02,1.38,.04,2.09-.02,4.36-.68,7.09-3.37,10.55-3.62,2.42-6.36,2.34-10.55,2.37-.74,0-1.48,.02-2.24,.03-1.56,.01-3.12,.02-4.69,.03-2.38,.01-4.76,.06-7.14,.11-1.52,0-3.04,.02-4.56,.02q-1.06,.03-2.15,.06c-3.89-.04-5.53-.5-8.6-2.97-4.33-5.54-3.3-12.15-3.31-18.85,0-2.16-.04-4.33-.07-6.49,0-1.38-.01-2.77-.02-4.15q-.01-1.88-.03-3.8c.39-3.65,1.14-5.48,3.36-8.37,3.63-2.42,6.36-2.32,10.55-2.34Z"/>
    <path class="cls-105" d="M495.56,415.27c.92,0,1.85,.02,2.8,.03,12.34,.31,21.71,4.03,30.89,12.41,8.66,9.39,13.38,21.62,18.19,33.27,7.28,17.58,14.62,34,33.21,41.77,3.18,1.18,6.31,2.16,9.6,2.96v1c-12.47,.51-23.92-4.69-33-13-7.19-8.26-11.94-17.24-16.56-27.06-8.51-18.04-17.7-33.07-37.12-40.31-9.86-1.86-18.19,.01-26.5,5.62-11.89,8.94-18.07,20.09-24.5,33.29-8.09,16.61-15.57,31.6-33.69,38.77-10.85,3.54-21.32,3.97-32.62,3.69v-1c1.16-.1,2.32-.2,3.52-.3,14.94-1.38,28.43-3.91,39.11-15.33,7.34-9.08,11.98-19.59,16.38-30.31q14.39-34.99,32.99-42.91c5.81-2.16,11.15-2.66,17.32-2.59Z"/>
    <path class="cls-6" d="M332.24,1194.7c3.4,1.13,4.24,2.17,6.5,4.88q2.5,2.98,5.22,5.76,1.28,1.37,1.28,3.37c.59,.26,1.18,.53,1.79,.8,2.31,1.26,3.71,2.56,5.5,4.47,3.44,3.53,7.06,6.55,11.02,9.48,.67,.5,1.35,1.01,2.04,1.53,7.88,5.78,16.23,10.78,24.65,15.72-.33,.99-.66,1.98-1,3-20.54-7.1-43.65-20.47-56-39h-2c-.91,23.21,3.86,40.74,19,59,.72,.9,1.44,1.81,2.18,2.74,8.45,9.56,19.7,14.66,30.94,20.31,1.98,1,3.95,2,5.92,3.01,14.23,7.26,28.51,14.38,43.09,20.94,6.82,3.07,13.52,6.24,20.06,9.88,.63,.35,1.26,.69,1.91,1.05,3.95,2.26,6.84,4.77,9.9,8.08-45.69-11.73-87.58-36.97-126.73-62.54-2-1.28-4.01-2.51-6.05-3.73q-1.5-.95-3.04-1.92c-.81-.49-1.62-.98-2.46-1.48-5.46-7.36-3.17-23.55-3.3-32.52-.04-2-.09-4.01-.16-6.01q-.59-16.76,2.78-21.94c2.23-1.99,4.29-3.51,6.95-4.86Z"/>
    <path class="cls-44" d="M629.24,551.7q1.73,1.34,3,3c.34,4.12-.26,6-2.73,9.33-2.35,2.64-4.78,5.16-7.27,7.67-.73,.79-1.47,1.59-2.22,2.41-16.14,17.05-37.17,29.71-57.78,40.59q-1.04,.55-2.1,1.11c-2.27,1.06-3.97,1.19-6.47,1.2-.76,.02-1.53,.03-2.32,.05-2.65-.45-3.51-1.25-5.12-3.36-.63-3-.51-4.99,.89-7.75,7.67-11.11,19.6-19.74,30.25-27.84,1.94-1.48,3.88-2.97,5.81-4.45q32.73-25.04,46.05-21.96Z"/>
    <path class="cls-106" d="M847.24,1066.7c1.82,2.73,2.83,5.17,3.9,8.24,4.48,12.82,11.21,23.85,19.12,34.82,2.56,3.8,4.62,7.4,5.67,11.88-1.15,5.11-4.39,7.3-8.69,10.06-14.44,7.62-31.49,13.72-48,11-4.71-1.94-8.2-4.64-12-8q-1.43-1.23-2.9-2.49c-9.19-8.5-16.14-19.25-19.1-31.51q.44-2.24,1-4c.65,.86,1.3,1.71,1.98,2.6,2.25,2.95,4.53,5.89,6.81,8.83,.96,1.24,1.9,2.49,2.83,3.75,5.66,7.27,14.43,12.61,23.52,14.2,7.54,.25,14.87-2.23,20.82-6.91,6.28-6.71,8.68-15.01,8.38-24.04-.48-4.81-1.3-9.54-2.27-14.28-.96-4.8-1.2-9.24-1.07-14.14Z"/>
    <path class="cls-59" d="M347.24,742.7q33.48-.86,47,4c.94,.33,1.87,.67,2.84,1.01,11.15,4.06,22.01,8.58,32.41,14.3,.72,.4,1.44,.79,2.18,1.2,4.15,2.39,7.22,5.02,10.57,8.49-.72,0-1.44-.01-2.18-.02-6.91-.06-13.82-.11-20.73-.14-3.55-.02-7.1-.04-10.65-.07-41.35-.39-80.25,3.54-113.45,30.23-.95,.76-1.9,1.52-2.88,2.3-.7,.56-1.4,1.12-2.12,1.7,3.16-12.32,13.77-23.06,24.34-29.62,3.37-1.74,6.82-3.24,10.35-4.62,.61-.25,1.22-.49,1.85-.75,14.29-5.28,30.46-4.56,45.46-5.07,3.34-.12,6.68-.23,10.02-.36,2.06-.08,4.13-.15,6.19-.21,4.68-.17,9.19-.43,13.79-1.37-1.1-.12-2.2-.25-3.33-.38-10.21-1.35-16.76-3.7-24.67-10.62-8.34-6.68-16.42-8.43-27-9v-1Z"/>
    <path class="cls-11" d="M333.8,919.37c.74,0,1.48-.01,2.24-.02,1.56-.01,3.12-.01,4.69-.01,2.38,0,4.76-.04,7.14-.08,1.52,0,3.04,0,4.56-.01,.71-.01,1.42-.03,2.15-.04,4.84,.04,7.28,1.08,10.67,4.5,2.11,4.22,1.32,9.68,1.38,14.31q.06,1.71,.11,3.46,.09,8.25-1.59,11.1-1.36,1.36-3.9,3.13c-.33,.33-.66,.66-1,1-2.22,.16-4.44,.25-6.66,.32-.66,.02-1.33,.04-2.01,.06-2.13,.07-4.26,.12-6.39,.18-1.44,.04-2.88,.09-4.32,.13-3.54,.11-7.08,.21-10.62,.31l-1,8q-6.15,.1-8,0c-2.06-2.06-1.19-6.4-1.2-9.23,0-.83-.01-1.66-.02-2.52,0-1.76-.02-3.52-.02-5.29,0-2.69-.04-5.38-.07-8.07,0-1.71-.01-3.42-.02-5.13-.01-.8-.02-1.6-.04-2.43,.02-4.6,.37-7.6,3.37-11.33,3.63-2.42,6.36-2.32,10.55-2.34Z"/>
    <path class="cls-60" d="M933.24,1002.7c7.83,2.5,12.15,10,15.81,17,4.41,8.92,5.77,17.63,5.75,27.5,0,1.14,0,2.27,0,3.45-.33,15.4-5.21,30.32-15.81,41.8-4.12,3.86-8.78,6.63-13.75,9.25-.6,.34-1.2,.69-1.82,1.04-7.52,3.61-18.33,3.35-26.26,1.08-2.53-1.18-4.68-2.46-6.92-4.12-.63-.46-1.26-.92-1.91-1.4-10.17-8.8-16.14-26.57-17.09-39.6-.07-4-.06-8,0-12h1c.16,.86,.32,1.72,.48,2.61,2.55,12.93,5.99,28.09,17.08,36.46,6.62,3.6,13.91,2.78,21,1.09,8.07-2.6,15.19-6.35,21.44-12.15q.5-1.49,1-3c.74-.7,1.49-1.4,2.25-2.12,3.43-3.59,5.5-7.48,7.75-11.88h2c3.85-15.93,3.35-30.03-5-44.31-.99-1.57-1.99-3.13-3-4.69-.42-.65-.84-1.29-1.27-1.96-.9-1.36-1.81-2.7-2.73-4.04Z"/>
    <path class="cls-14" d="M658.24,1194.7c4.29,2.04,8.03,4.21,11,8,.94,3.3,.84,6.42,.72,9.82,0,.94-.02,1.88-.02,2.85-.03,3-.11,6.01-.2,9.01-.03,2-.05,4-.07,6q-.35,25.9-3.27,29.72c-.84,.51-1.68,1.01-2.54,1.54-1,.63-2,1.27-3.03,1.92q-.85,.51-1.72,1.02c-2.07,1.24-4.1,2.55-6.13,3.86-4.88,3.15-9.81,6.21-14.75,9.26-.92,.57-1.84,1.14-2.78,1.73-2.75,1.71-5.52,3.4-8.28,5.09q-1.29,.8-2.61,1.62c-.8,.48-1.6,.97-2.42,1.46-.71,.43-1.41,.86-2.14,1.31q-.87,.39-1.76,.8c-.66-.33-1.32-.66-2-1,5.21-4.83,10.4-9.61,16-14q15.53-11.91,24-29c.51-4.88,.76-8.65-1.69-13-4.15-3.59-7.98-4.6-13.51-4.43-14.79,2.25-32.08,11.06-44.42,19.14-.78,.42-1.57,.85-2.38,1.28-.99-.33-1.98-.66-3-1,5.08-3.55,10.27-6.74,15.69-9.75,11.65-6.53,22.14-14.62,32.31-23.25q1.09-.91,2.21-1.84c6.38-5.4,11.65-11.59,16.79-18.16Z"/>
    <path class="cls-14" d="M797.62,828.39q1.16,.51,2.34,1.03c4.65,2.17,7.89,4.43,11.28,8.29q-1.39,.98-2.82,1.98c-6.29,4.44-12.46,8.85-18.18,14.02-.51-.41-1.02-.82-1.54-1.24-5.81-4.55-10.6-7.29-18.25-7.07-7,1-13.35,4.23-18.21,9.32-7.56,11.01-9.13,19.86-8,33,1.54,8.28,5.74,14.43,12,20q2.13,1.23,4,2c-.33,2.64-.66,5.28-1,8-3.64,0-4.09-.66-6.69-3.06-2.11-1.95-4.18-3.84-6.47-5.57-8.08-6.24-9.98-14.93-11.53-24.68-1.53-13.12,.54-25.52,8.59-36.21,14.06-16.51,33.29-29.15,54.47-19.78Z"/>
    <path class="cls-14" d="M223.27,828.16c14.14,7.33,28.35,17.85,33.49,33.62,.84,3.29,1.28,6.54,1.49,9.92,.05,.74,.11,1.47,.16,2.23,.38,10.17-1.58,23.07-7.16,31.77-2.12,1.83-4.26,3.22-6.68,4.62-2.97,1.77-5.38,3.95-7.91,6.28q-1.41,1.1-3.41,1.1l-1-8c.87-.52,1.73-1.03,2.62-1.56,7.41-5.03,11.54-11.68,13.38-20.44,1.4-11.14,.61-20.55-6-30q-2.4-2.98-5-5c-.78-.7-1.57-1.4-2.38-2.12-6.3-4.5-11.95-5.97-19.62-4.88-2.91,1-5.41,2.36-8,4-.6,.38-1.21,.76-1.83,1.16-1.41,.92-2.79,1.88-4.17,2.84-.37-.41-.73-.83-1.11-1.25-4.64-4.94-9.74-8.41-15.51-11.95-.79-.59-1.57-1.19-2.38-1.8v-3c3.06-2.43,6.57-4.16,10-6q1.35-.74,2.73-1.5c10.1-5.12,18.08-4.76,28.3-.04Z"/>
    <path class="cls-105" d="M144.24,1066.7h1c.31,5.84-.32,11.1-1.5,16.81-2.34,11.73-2.94,21.81,3.82,32.22,3.5,4.5,7.42,6.9,12.68,8.96q1.55,.62,3.12,1.25c11.95,2.31,21.85,.79,32.18-5.7,1.61-1.13,3.16-2.33,4.7-3.55-4.5,10.27-15.81,20.39-25.85,25.2-3.54,1.32-6.84,1.44-10.59,1.37q-1.16-.02-2.35-.03c-14.98-.55-30.49-6.44-42.13-15.9q-2.08-2.62-2.54-5.62c1.18-7.61,6.45-14.06,10.84-20.19,7.57-10.62,13.02-22.28,16.62-34.81Z"/>
    <path class="cls-36" d="M142.24,1013.7c5.96,1.83,11.5,4,17,6.94,.72,.39,1.44,.77,2.19,1.17,21.81,11.97,38.49,26.38,45.81,50.89,2.61,9.91,2.84,24.82-2,34q-.99,.5-2,1c-1.1-3.3-1.18-5.97-1.31-9.44-1-14.3-6.45-24.92-16.88-34.75-6.99-5.83-14.45-10.67-23.02-13.75q-13.57-5-15.83-8.81c-1.22-4.03-1.1-8.04-.95-12.21-.03-3.3-.84-6.35-1.64-9.54-.26-1.06-.52-2.12-.79-3.22-.19-.75-.39-1.51-.59-2.28Z"/>
    <path class="cls-27" d="M439.16,919.47c.77,0,1.54,0,2.33,0,1.63,0,3.25,.01,4.88,.02,2.5,.02,4.99,.02,7.49,.02,1.58,0,3.16,.01,4.73,.02q1.13,0,2.28,0,5.26,.05,6.37,1.16,.12,3.5,0,7c-1.91,1.91-5.34,1.24-7.88,1.32q-1.03,.03-2.08,.06c-2.2,.07-4.4,.12-6.6,.18-1.49,.04-2.98,.09-4.47,.13-3.66,.11-7.31,.21-10.97,.31-.33,2.64-.66,5.28-1,8,.85-.02,1.69-.03,2.57-.05,3.16-.05,6.33-.09,9.49-.12,1.37-.02,2.73-.04,4.1-.06,1.97-.04,3.94-.05,5.91-.07,1.18-.02,2.37-.03,3.59-.05,3.77,.38,6.13,1.35,9.34,3.34,2.5,3.75,2.3,5.9,2.31,10.38,.02,1.31,.03,2.61,.05,3.96-.38,3.82-1.03,5.66-3.36,8.66-3.62,2.42-6.36,2.34-10.55,2.37-.74,0-1.48,.02-2.24,.03-1.56,.01-3.12,.02-4.69,.03-2.38,.01-4.76,.06-7.14,.11-1.52,0-3.04,.02-4.56,.02q-1.06,.03-2.15,.06c-3.89-.04-5.53-.5-8.6-2.97-4.33-5.54-3.3-12.15-3.31-18.85,0-2.16-.04-4.33-.07-6.49,0-1.38-.01-2.77-.02-4.15q-.01-1.88-.03-3.8c.39-3.65,1.14-5.48,3.36-8.37,3.73-2.48,6.6-2.27,10.91-2.23Z"/>
    <path class="cls-45" d="M850.24,1013.7q-.42,1.63-.84,3.3c-2.13,8.57-3.82,16.83-4.16,25.7-1.14,.48-2.27,.97-3.45,1.47-19.65,8.48-40.15,17.98-48.61,39.16-1.63,5.06-2.46,10.08-2.95,15.37q-3,0-4.66-.98c-2.13-3.21-1.83-6.61-1.78-10.33q.01-1.21,.02-2.44c.49-18.18,8.6-32.87,21.41-45.25,9.75-8.97,31.09-26,45-26Z"/>
    <path class="cls-60" d="M693.24,1112.7h1c.11,.85,.22,1.7,.33,2.57,2.23,16.5,4.56,32.04,16.67,44.43,2.9,1.45,5.38,1.81,8.62,1.82,3.56-1.23,4.39-3.4,6.2-6.63q.78-1.62,1.58-3.27c1.65-3.01,2.58-4.36,5.61-5.92,4.52-.58,8.62-.25,13,1,2.12,1.96,3.19,3.83,4.53,6.38,2.25,4.01,5.39,7.11,8.52,10.46q1.95,2.16,3.95,5.16c-.22,2.42-.7,3.65-2.29,5.49-7.91,6.16-20.04,11.86-30.29,11.08-12.52-2.96-20.82-11.27-27.68-21.7-7.49-12.73-9.94-25.67-9.81-40.31,0-1.02,0-2.04,.01-3.08,.01-2.49,.03-4.99,.05-7.48Z"/>
    <path class="cls-60" d="M623.24,742.7c-2.75,1.83-5.06,2.71-8.19,3.65-7,2.11-12.22,4.54-17.81,9.35-2.93,1.86-5.9,3.46-9,5,.96,0,1.92,.02,2.91,.03q34.48,.39,51.09,4.97c1.13,.25,2.25,.5,3.41,.75,7.02,1.55,13.16,4.07,19.59,7.25,1.13,.53,2.25,1.05,3.41,1.6,7.85,3.75,14.76,8.02,21.59,13.4,.62,.46,1.23,.93,1.87,1.41,3.53,2.75,6.03,5.64,8.13,9.59q-.4,2.18-1,4c-.48-.47-.95-.95-1.44-1.43-10.82-10.22-23.61-16.7-37.56-21.57-1.2-.44-2.4-.88-3.63-1.34-33.5-11.6-71.47-8.1-106.37-7.66,3.76-3.88,7.46-6.73,12.19-9.31q1.04-.57,2.1-1.16c12.42-6.73,24.99-12.11,38.71-15.53,1.07-.3,2.15-.6,3.25-.9,5.76-1.56,10.78-2.44,16.75-2.1Z"/>
    <path class="cls-108" d="M391.24,1322.7c4.91,1.61,9.79,3.29,14.65,5.05,20.91,7.56,43.07,14.39,65.42,15.15q1.29,.05,2.6,.09c1.69,.05,3.38,.09,5.07,.1q5.83,.16,7.92,2.3c1.5,2.58,2.12,4.74,2.73,7.66,.22,1.03,.43,2.07,.65,3.13,.21,1.08,.43,2.15,.65,3.26q.34,1.59,.68,3.21c1.18,5.79,1.9,11.13,1.63,17.04-6.35-1.94-12.21-4.37-18.12-7.38-.86-.43-1.71-.87-2.6-1.31-10.62-5.43-20.95-11.35-31.28-17.31-1.02-.59-2.05-1.18-3.1-1.78-11.29-6.51-22.51-13.11-33.52-20.09-3.87-2.44-7.8-4.77-11.76-7.07-.54-.35-1.07-.7-1.62-1.06v-1Z"/>
    <path class="cls-106" d="M761.24,1065.7c1.27,2.55,.73,3.31,0,6-3.07,29.25,10.4,53.28,27.43,75.9,2.93,3.93,4.17,6.13,3.57,11.1-8.28,.8-15.55-1.74-22.27-6.66-11.78-10.95-20.48-29.21-21.13-45.27-.29-15.09,4.45-28.29,12.39-41.07Z"/>
    <path class="cls-14" d="M338.24,745.7v2c-.54,.21-1.08,.41-1.63,.62-20.06,7.72-41.79,16.26-52.37,36.38-1.13,3.39-1.05,5.83-.96,9.39,.02,1.27,.04,2.53,.06,3.84,.05,2.67,.12,5.33,.2,7.99,.1,7.13,.13,12.03-4.3,17.78q-2-1-3.56-4.44c-3.96-8.22-11.2-14.56-17.91-20.58-2.09-2.71-2.49-4.57-2.53-7.98,13.13-20.21,58.44-47.51,83-45Z"/>
    <path class="cls-12" d="M654.24,745.7c5.6-.29,9.97,.61,15.25,2.44q1.17,.4,2.36,.81c20.56,7.29,53.69,22.1,65.39,41.75,.17,3.27-.35,5.2-2.42,7.76-1.89,1.94-3.84,3.79-5.83,5.62-6.41,5.95-10.9,11.77-14.75,19.62-4.02-4.93-5.13-6.89-4.96-13.26,.02-1.27,.04-2.53,.06-3.84,.05-2.67,.12-5.33,.2-7.99,.17-12.13-2.69-17.82-10.9-26.54-10.45-10.35-23.47-16.76-37.3-21.39-3.61-1.24-4.91-1.7-7.1-4.99Z"/>
    <path class="cls-1" d="M581.24,919.7h8v31c7.81-7.81,15.1-15.96,21.99-24.59q5.2-6.25,8.11-6.84,5.78,.31,6.89,1.43c.09,1.41,.12,2.83,.11,4.24,0,.9,0,1.8,0,2.73,0,.98-.01,1.96-.02,2.97,0,1,0,1.99,0,3.02,0,3.2-.02,6.4-.03,9.6,0,2.16,0,4.33-.01,6.49-.01,5.32-.03,10.63-.05,15.95q-6.15,.1-8,0c-1.86-1.86-1.24-4.95-1.32-7.44-.04-1.31-.08-2.61-.13-3.96-.04-1.39-.08-2.78-.12-4.17-.04-1.39-.09-2.79-.13-4.18-.11-3.42-.21-6.84-.31-10.26-5.04,5.46-10,10.92-14.69,16.69-.74,.9-1.47,1.79-2.23,2.72-1.33,1.66-2.63,3.34-3.88,5.06q-4.04,5.28-7.6,6.05c-2.3,.04-4.35-.06-6.6-.52-1.55-1.55-1.13-2.99-1.13-5.14,0-.88,0-1.76,0-2.66,0-.95,0-1.91,0-2.89,0-.97,0-1.95,0-2.95,0-2.06,0-4.12,0-6.18,0-3.17,0-6.33,0-9.5,0-2,0-3.99,0-5.99,0-.95,0-1.91,0-2.89,0-.88,0-1.76,0-2.66,0-.78,0-1.55,0-2.35q.13-1.78,1.13-2.78Z"/>
    <path class="cls-67" d="M923.24,1023.7c5.99,3.05,9.99,7.65,12.46,13.93,2.12,8.12,.57,15.85-3.46,23.07-3.17,3.81-6.18,6.4-11.08,7.44-4.69,.26-7.52-.36-11.23-3.32-5.58-5.55-7.84-11.89-8.19-19.69,.34-7.59,2.8-13.14,8.19-18.5,4.29-3.44,7.96-4.19,13.31-2.94Z"/>
    <path class="cls-67" d="M76.24,1023.7c6.4,2.22,10.4,6.8,13.38,12.75,1.68,8.73,1.09,16.44-3.38,24.25-2.57,3.3-4.95,5.65-9,7-4.52,.53-8.06,.42-12.25-1.44-5.05-4.7-8.32-10.6-8.75-17.56-.07-.67-.15-1.33-.22-2.02-.45-6.59,1.57-11.54,5.22-16.98,4.62-4.93,8.26-6.45,15-6Z"/>
    <path class="cls-12" d="M114.24,370.7c1.25,3.76,.55,4.98-.77,8.67-.39,1.13-.79,2.27-1.2,3.43-.43,1.2-.85,2.41-1.29,3.65-3.34,9.7-6.27,19.07-7.75,29.25-.18,1.04-.36,2.07-.55,3.14-3.11,26.73,2.39,52.04,10.82,77.22,1.73,5.23,3.21,10.14,3.73,15.64-4.45-3.99-7.13-8.22-9.88-13.5-.43-.83-.86-1.66-1.31-2.51-4.7-9.33-7.92-18.98-10.82-28.99-.22-.72-.45-1.45-.68-2.19-7.99-26.1-4.76-54.78,7.68-78.81,3.37-6.07,6.38-10.82,12-15Z"/>
    <path class="cls-63" d="M230.24,1065.7c3.44,2.76,4.82,6.61,6.5,10.56,.31,.73,.62,1.45,.93,2.2,.87,2.08,1.72,4.16,2.57,6.24,.37,.87,.74,1.75,1.12,2.64,5.06,13.82,2.04,29.12-3.77,42.09-4.19,8.93-9.07,16.13-18.35,20.27-4.61,0-8-1.81-12-4,.62-3.15,1.69-5.33,3.48-7.98,.5-.76,1.01-1.52,1.52-2.31,.54-.81,1.07-1.62,1.62-2.46,5.46-8.46,9.79-16.86,13.38-26.25,.43-1.03,.86-2.05,1.31-3.11,4.3-11.49,4.15-25.92,1.69-37.89Z"/>
    <path class="cls-60" d="M819.24,911.7c2.81,3.35,3.37,5.43,3.2,9.87-.32,3.37-.98,6.64-1.7,9.94q-2.01,9.54-1.5,19.19,2.35,2.77,5,5,.66,3.64,1,7,1.77-.09,3.58-.18c1.56-.05,3.11-.09,4.67-.14,.78-.04,1.55-.08,2.36-.13q5.76-.12,8.88,2.65,1.52,2.79,2.52,7.79h19c-6.77,5.08-13.91,7.17-22.12,8.75-.66,.13-1.31,.26-1.99,.39-4.76,.85-9.09,1.35-13.89,.86q-2.48-2.16-5-5c-1.32-.9-2.66-1.76-4.02-2.59q-11.4-7.16-12.9-13c.25-3.97,.96-7.55,1.93-11.41q.26-1.71,.52-3.45c1.92-12.24,6.41-23.9,10.48-35.55Z"/>
    <path class="cls-26" d="M633.24,919.7h8v18c4.22,.44,6.11,.53,10-1,4.5-3.89,8.12-8.71,11.74-13.41q1.26-1.59,3.26-3.59,2.6-.2,5.62-.12,1.5,.03,3.04,.05c.77,.02,1.54,.05,2.34,.07-1.58,3.58-3.76,6.31-6.25,9.31q-1.2,1.44-2.42,2.91c-2.76,3.28-5.53,6.54-8.33,9.77,1.44,4.61,4.09,7.59,7.38,11q9.62,10.14,9.62,13c-3.97,1-7.04,1.1-11,0-5.97-4.48-10.88-10.83-15-17q-2.43-.58-5.12-.69c-1.61-.1-3.22-.21-4.88-.31v18h-8c-1.55-1.55-1.13-2.99-1.13-5.14,0-.88,0-1.76,0-2.66,0-.95,0-1.91,0-2.89,0-.97,0-1.95,0-2.95,0-2.06,0-4.12,0-6.18,0-3.17,0-6.33,0-9.5,0-2,0-3.99,0-5.99,0-.95,0-1.91,0-2.89,0-.88,0-1.76,0-2.66,0-.78,0-1.55,0-2.35q.13-1.78,1.13-2.78Z"/>
    <path class="cls-49" d="M642.41,353.35c4.48,2.32,7.93,5.7,9.83,10.35,1.14,6.23,.8,11.52-2.5,17-3.67,4.75-7.64,7.22-13.51,8.41-5.69,.45-9.66-1.89-13.99-5.41-4.59-4.96-6.49-8.98-6.31-15.69,.71-5.26,3.49-8.8,7.44-12.18,5.58-4.12,12.36-4.47,19.05-2.48Z"/>
    <path class="cls-49" d="M330.41,353.35c4.48,2.32,7.93,5.7,9.83,10.35,1.14,6.23,.8,11.52-2.5,17-3.67,4.75-7.64,7.22-13.51,8.41-5.69,.45-9.66-1.89-13.99-5.41-4.59-4.96-6.49-8.98-6.31-15.69,.71-5.26,3.49-8.8,7.44-12.18,5.58-4.12,12.36-4.47,19.05-2.48Z"/>
    <path class="cls-59" d="M175.24,918.7c4.6,8.56,6.72,18.67,8.33,28.18q.6,3.85,1.74,7.62c.93,4.4,1.25,6.88-.07,11.21-4.79,5.25-10.96,8.98-17.01,12.61q-2.26,1.4-3.99,4.39c-2.54,.17-4.74,.15-7.25-.06-.71-.05-1.42-.1-2.15-.16q-17.37-1.55-22.6-6.78c1.14-.05,2.29-.1,3.46-.15,1.49-.08,2.98-.15,4.47-.23,.75-.03,1.51-.06,2.29-.09,1.93-.1,3.85-.31,5.78-.53,1.7-3.4,1.29-7.3,1.43-11.05q.57-2.95,2.08-5.29c3.63-2.4,6.86-2.21,11.12-2.21,2.84-.02,5.53-.16,8.38-.44,2.51-3.77,2.2-5.72,2.12-10.22,0-.7-.02-1.4-.02-2.13-.02-2.24-.06-4.48-.1-6.71-.05-2.95-.09-5.9-.12-8.85-.02-1.31-.05-2.62-.07-3.97q.2-3.12,2.2-5.12Z"/>
    <path class="cls-62" d="M166.06,850.52c18.48,6.88,31.04,23.88,39.19,41.19,3.41,8.02,6.9,16.31,8,25q-3.96,.99-8,2c-.42-.94-.85-1.89-1.29-2.86-10.78-23.73-25.56-44.51-49.71-56.14,1.72-5.16,6.45-8.83,11.81-9.19Z"/>
    <path class="cls-15" d="M841.24,73.7h2c1.73,14.89,2.47,29.69,2.85,44.67,.06,2.34,.13,4.68,.19,7.02,.13,4.88,.26,9.76,.39,14.63,.16,6.15,.33,12.3,.5,18.46q1.19,42.98,1.22,62.74,0,1.78,0,3.6-.08,23.2-3.03,32.19c-.33,1.05-.65,2.1-.99,3.18q-1.13,2.51-4.13,4.51h-3c.57-5.04,1.4-9.82,2.55-14.77,2.48-12.16,1.81-24.64,1.7-36.98-.01-2.63-.02-5.26-.03-7.89-.07-14.08-.29-28.15-.79-42.22-.52-15.18-.55-30.36-.55-45.54,0-2.01,0-4.03,0-6.04,0-3.81,0-7.62,0-11.43q0-1.7,0-3.43c.02-7.61,.46-15.13,1.14-22.7Z"/>
    <path class="cls-81" d="M830.24,851.7q2.24,1.34,4.31,2.94c.7,.52,1.39,1.05,2.11,1.59,.52,.49,1.04,.97,1.57,1.47v2c-.64,.31-1.29,.61-1.95,.93-22.45,11.37-37.23,31.47-47.05,54.07-.66,1.34-1.32,2.67-2,4-2.31-.99-4.62-1.98-7-3,2.05-20.87,14.74-41.97,30.16-55.96,1.89-1.48,3.8-2.78,5.84-4.04,.76-.49,1.53-.99,2.32-1.5q6.75-4.11,11.68-2.5Z"/>
    <path class="cls-77" d="M779.24,518.7c1.1,3.31,.96,3.84-.15,6.96-.28,.79-.56,1.58-.84,2.39-.31,.85-.62,1.7-.94,2.58-.32,.89-.64,1.77-.97,2.69-11.15,30.73-24.28,58.68-46.1,83.38,0-3.17,.38-4.02,1.91-6.68,.41-.73,.82-1.47,1.24-2.22,.45-.8,.89-1.59,1.35-2.41,8.68-16.08,13.92-33.16,18.54-50.79,4.45-16.5,11.38-26.98,25.96-35.89Z"/>
    <path class="cls-77" d="M212.24,518.7c10.66,5.33,19.39,13.57,23.55,24.88,.45,1.37,.89,2.75,1.32,4.12,.25,.76,.49,1.52,.75,2.31,1.75,5.49,3.33,11.02,4.88,16.56,4.58,16.2,10.26,31.19,19.12,45.54q.68,1.28,1.37,2.59l-1,2c-18.29-18.88-30.52-42.73-40-67-.36-.89-.71-1.78-1.08-2.7-1.11-2.78-2.21-5.57-3.3-8.36-.33-.84-.67-1.69-1.01-2.56-2.19-5.71-3.6-11.35-4.61-17.38Z"/>
    <path class="cls-3" d="M573.24,1340.7q-65.91,39-74,39c-.24-6.54,.65-12.48,1.94-18.88,.18-.95,.36-1.9,.55-2.88q1.36-6.96,2.51-9.25,8.03-.79,12,2.44c.66,.85,1.32,1.69,2,2.56,.33,.33,.66,.66,1,1q3.33,.05,7-1c.83-.99,1.65-1.98,2.5-3,2.16-2.38,3.16-2.96,6.4-3.37q1.75-.03,3.54-.07c8.49-.18,15.86-2.53,23.88-5.21,.95-.31,1.9-.63,2.89-.95,.85-.29,1.7-.58,2.58-.89q2.21-.51,5.21,.49Z"/>
    <path class="cls-60" d="M250.24,1137.7l2,2c-.43,6.75-1.72,13.36-3,20,.78,.12,1.56,.24,2.37,.36,3.66,.89,4.57,2.54,6.63,5.64,1.04,1.98,2.06,3.97,3,6,5.98,.54,10.54-1.03,16.13-3.12,2.8-.86,4.96-1.05,7.87-.88-3.62,7.9-10.16,12.31-17.89,15.89-8.62,3.08-15.78,1.06-24.01-2.39-5.18-2.52-10.01-5.42-14.1-9.5,.26-4.17,1.56-5.96,4.62-8.69,7.64-7.3,12.37-15.6,16.38-25.31Z"/>
    <path class="cls-44" d="M381.24,1253.7c13.99,5.21,30.72,16.59,39,29,.32,3.09,.49,5.14-1.06,7.88-3.08,1.79-5.41,1.43-8.94,1.12-2.99-1.12-5.68-2.64-8.44-4.25-.78-.44-1.56-.89-2.36-1.35q-25.25-14.79-30.21-24.4-.06-3.94,1-7c3.63-1.82,7.1-1.64,11-1Z"/>
    <path class="cls-63" d="M224.24,854.7c6.42,2.1,10.83,7.18,14.11,12.95,3.25,7.56,2.65,15.42-.18,23.01-1.75,3.86-3.92,7.04-6.93,10.04h-3c-.34-.91-.68-1.82-1.03-2.75-4.82-12.6-10.38-24.73-18.97-35.25,3.15-7.02,8.71-9.16,16-8Z"/>
    <path class="cls-63" d="M778.56,856.02c2.26,1.42,3.96,2.67,5.69,4.69-1.61,3.42-3.58,6.51-5.62,9.69-3.3,5.25-6.12,10.64-8.75,16.25-.33,.71-.67,1.42-1.01,2.15-1.8,3.91-3.34,7.8-4.61,11.91-3-.32-3.96-.95-6.06-3.19-5.23-7.59-6.89-14.69-5.94-23.81,1.96-7.14,6.57-14.3,12.98-18.2,4.63-1.82,8.86-1.26,13.34,.52Z"/>
    <path class="cls-4" d="M230.24,979.7c.01,.9,.03,1.8,.04,2.73,.35,9.43,1.91,18.07,4.15,27.23,1.76,7.38,2.67,14.44,2.81,22.05-3.35-1.44-5.42-3.24-7.91-5.89q-1.11-1.16-2.24-2.34c-.78-.81-1.56-1.63-2.36-2.46-8.15-8.35-15.56-14.07-26.5-18.31,4.67-3.82,9.52-7.37,14.38-10.94q1.24-.91,2.5-1.84c2.37-1.74,4.75-3.48,7.12-5.22q1.05-.77,2.13-1.56,4.75-3.44,5.87-3.44Z"/>
    <path class="cls-14" d="M94.76,996.9c9.07,6.6,17.06,17.02,20.48,27.8q-.38,2.31-1,4c-.52-.71-1.04-1.43-1.58-2.16-7.04-9.16-15.71-16.74-27.42-18.84-12.63-1.29-23.16,2.01-33,10-5.19,4.81-8.1,10.62-11,17h-1c-.86-9.89,3.88-17.72,9.73-25.39,10.76-12.41,29.15-21.22,44.79-12.42Z"/>
    <path class="cls-5" d="M762.24,979.7c6.75,4.06,13.14,8.47,19.44,13.19,.69,.51,1.37,1.02,2.08,1.55,3.4,2.57,6.57,5.14,9.48,8.26-.82,.4-1.64,.8-2.49,1.21-9.46,4.82-16.46,10.69-23.95,18.25-.59,.59-1.18,1.19-1.79,1.8-1.17,1.18-2.33,2.37-3.48,3.57-1.39,1.43-2.84,2.8-4.29,4.17h-2c.44-10.13,1.97-19.47,4.61-29.25,1.88-7.46,2.04-15.1,2.39-22.75Z"/>
    <path class="cls-93" d="M492.99,928.57c1.17,0,2.33,0,3.53,0,1.23,0,2.45,0,3.72,.01q1.84,0,3.72-.01t3.53,0c1.08,0,2.16,0,3.27,0q2.48,.13,3.48,1.13c.1,1.91,.13,3.83,.13,5.75q0,1.75,0,3.53c0,1.23,0,2.45-.01,3.72q0,1.84,.01,3.72c0,1.17,0,2.33,0,3.53,0,1.08,0,2.16,0,3.27q-.13,2.48-1.13,3.48c-1.91,.1-3.83,.13-5.75,.13-1.17,0-2.33,0-3.53,0-1.23,0-2.45,0-3.72-.01q-1.84,0-3.72,.01c-1.17,0-2.33,0-3.53,0-1.08,0-2.16,0-3.27,0q-2.48-.13-3.48-1.13c-.1-1.91-.13-3.83-.13-5.75,0-1.17,0-2.33,0-3.53,0-1.23,0-2.45,.01-3.72,0-1.23,0-2.45-.01-3.72,0-1.17,0-2.33,0-3.53,0-1.08,0-2.16,0-3.27,.24-4.67,2.79-3.61,6.88-3.62Z"/>
    <path class="cls-93" d="M388.99,928.57c1.17,0,2.33,0,3.53,0,1.23,0,2.45,0,3.72,.01q1.84,0,3.72-.01t3.53,0c1.08,0,2.16,0,3.27,0q2.48,.13,3.48,1.13c.1,1.91,.13,3.83,.13,5.75q0,1.75,0,3.53c0,1.23,0,2.45-.01,3.72q0,1.84,.01,3.72c0,1.17,0,2.33,0,3.53,0,1.08,0,2.16,0,3.27q-.13,2.48-1.13,3.48c-1.91,.1-3.83,.13-5.75,.13-1.17,0-2.33,0-3.53,0-1.23,0-2.45,0-3.72-.01q-1.84,0-3.72,.01c-1.17,0-2.33,0-3.53,0-1.08,0-2.16,0-3.27,0q-2.48-.13-3.48-1.13c-.1-1.91-.13-3.83-.13-5.75,0-1.17,0-2.33,0-3.53,0-1.23,0-2.45,.01-3.72,0-1.23,0-2.45-.01-3.72,0-1.17,0-2.33,0-3.53,0-1.08,0-2.16,0-3.27,.24-4.67,2.79-3.61,6.88-3.62Z"/>
    <path class="cls-45" d="M146.24,92.7h2c.82,9.68,1.15,19.26,1.13,28.97,0,1.43,0,2.86,0,4.29,0,3.81,0,7.62,0,11.44,0,2.38,0,4.76,0,7.14-.02,21.49-.13,42.98-.44,64.47-.04,2.61-.07,5.22-.1,7.83-.05,3.63-.1,7.26-.16,10.88-.01,1.04-.02,2.09-.04,3.16q-.38,18.82-4.38,22.82c-.91-6.2-1.14-12.21-1.13-18.47,0-1.02,0-2.04,0-3.09,0-3.36,0-6.72,0-10.08,0-2.37,0-4.73,0-7.1,0-4.97,0-9.93,0-14.9,0-6.28,0-12.56,0-18.85q-.05-68.59,3.13-88.52Z"/>
    <path class="cls-11" d="M531.07,919.58c.8,0,1.59,0,2.42,0,.9,0,1.8,0,2.73,0,.98,0,1.96,.01,2.97,.02,1,0,1.99,0,3.02,0,3.2,0,6.4,.02,9.6,.03,2.16,0,4.33,0,6.49,.01,5.32,.01,10.63,.03,15.95,.05v9h-18c.01,2.59,.02,5.17,.04,7.84,0,2.5,.01,4.99,.02,7.49,0,1.74,.01,3.48,.02,5.22,.01,2.49,.02,4.99,.02,7.48,0,.78,.01,1.56,.02,2.37,0,1.87-.05,3.74-.11,5.6-.33,.33-.66,.66-1,1h-8c-.33-11.88-.66-23.76-1-36-5.94-.33-11.88-.66-18-1q0-8.93,2.83-9.12Z"/>
    <path class="cls-33" d="M873.24,364.7c9.96,3.88,16.85,19.7,21,29,5.32,13.12,7.38,25.51,7.31,39.62q0,1,0,2.02c-.06,10.06-.37,19.65-3.3,29.35-.26,.87-.53,1.74-.8,2.64-3.88,12.47-8.53,24.12-15.2,35.36q-1-2-.44-4.25c.31-.93,.63-1.86,.95-2.81,.34-1.04,.69-2.07,1.04-3.14,.37-1.11,.75-2.22,1.13-3.36,11.16-33.93,14.92-69.64-1.71-102.56q-4.24-8.97-9.98-16.87c-.04-1.67-.04-3.33,0-5Z"/>
    <path class="cls-71" d="M229.14,842.03c8.53,4.6,15,12.29,21.11,19.68,.78,.93,1.57,1.86,2.38,2.81,2.46,4.82,2.97,9.86,3.62,15.19l2-2q-2.7,24.26-9.02,29.75c-1.53,1-3.08,1.95-4.66,2.87-2.97,1.77-5.38,3.95-7.91,6.28q-1.41,1.1-3.41,1.1l-1-8c.87-.52,1.73-1.03,2.62-1.56,7.41-5.03,11.54-11.68,13.38-20.44,1.4-11.14,.61-20.55-6-30q-2.4-2.98-5-5c-.78-.7-1.57-1.4-2.38-2.12-6.3-4.5-11.95-5.97-19.62-4.88-2.91,1-5.41,2.36-8,4-.6,.38-1.21,.76-1.83,1.16-1.41,.92-2.79,1.88-4.17,2.84-1.65-1.98-3.3-3.96-5-6,8.73-11.55,20.16-11.07,32.89-5.68Z"/>
    <path class="cls-73" d="M424.24,1342.7c3.04,.55,6,1.26,8.98,2.09,8.32,2.31,16.45,4.23,25.02,5.35,8.48,1.16,15.34,3.64,21.99,9.24,2.46,1.62,3.85,1.64,6.76,1.51q1.2-.04,2.42-.08c.6-.03,1.21-.07,1.83-.11,1.32,6.43,2.25,12.43,2,19-6.35-1.94-12.21-4.37-18.12-7.38-.85-.43-1.7-.86-2.58-1.3-10.62-5.43-20.97-11.35-31.29-17.32-.88-.51-1.76-1.01-2.67-1.54-2.43-1.4-4.85-2.8-7.27-4.21-.72-.42-1.44-.84-2.19-1.27-1.64-.97-3.26-1.97-4.87-2.98v-1Z"/>
    <path class="cls-52" d="M395.24,813.7q3.12,2.06,5,5c.31,5.43-1.76,8.93-5.07,13.02-6.53,6.71-15.41,12.36-24.8,13.42q-3.12-.44-5.06-1.5c-1.79-3.26-1.59-5.24-1.06-8.94,3.87-9.32,10.83-14.62,19.06-20,4.07-1.39,7.69-1.82,11.94-1Z"/>
    <path class="cls-87" d="M788.74,840.33c3.69,2.14,5.48,4.67,7.5,8.38-1.98,1.65-3.96,3.3-6,5-.51-.41-1.02-.82-1.54-1.24-5.81-4.55-10.6-7.29-18.25-7.07-7,1-13.35,4.23-18.21,9.32-7.56,11.01-9.13,19.86-8,33,1.54,8.28,5.74,14.43,12,20q2.13,1.23,4,2l-1,8c-3.64,0-4.09-.66-6.69-3.06-2.13-1.96-4.22-3.87-6.51-5.64-.7-.55-1.4-1.1-2.12-1.67-.64-.48-1.27-.96-1.93-1.46-5.2-6.39-5.21-14.41-5.07-22.29,0-.95,0-1.9,0-2.88,.06-8.26,1.12-14.18,6.63-20.62,.76-.9,1.52-1.8,2.3-2.73,2.38-2.64,4.85-5.16,7.39-7.65q.79-.8,1.6-1.62c8.92-8.37,22.24-12.87,33.9-7.75Z"/>
    <path class="cls-88" d="M761.24,1065.7c1.28,2.55,.72,3.3,0,6-.87,11.16-.89,22.1,3.12,32.64q.88,2.36,.88,5.36c-.99,.66-1.98,1.32-3,2-.89,5.86,1.06,10.57,3.12,16.04,.93,3.14,1.03,5.71,.88,8.96q-5.37,.49-8-1.55c-2.48-3.04-3.82-6.26-5.18-9.89q-.39-.98-.79-1.99c-6.09-15.7-3.6-31.52,2.97-46.58,1.83-3.78,3.78-7.43,6-11Z"/>
    <path class="cls-107" d="M599.24,1322.7l2,1c-.65,.38-1.29,.76-1.96,1.15-2.93,1.72-5.86,3.44-8.79,5.17q-1.52,.89-3.08,1.8c-.98,.58-1.96,1.15-2.97,1.75-.9,.53-1.8,1.06-2.73,1.6q-2.45,1.45-4.44,3.12c-2.52,1.75-4.83,2.41-7.79,3.2-1.1,.3-2.2,.6-3.34,.91-1.15,.3-2.29,.61-3.47,.92-2.27,.62-4.54,1.23-6.82,1.85-1.01,.27-2.01,.54-3.05,.81-1.87,.52-3.73,1.09-5.57,1.71-2.4,.05-4.79,.09-7.19,.12-5.14,.19-8.6,.78-12.44,4.44-.55,.64-1.1,1.28-1.66,1.94q-1.71,1.5-4.28,1.83c-3.29-.45-4.41-1.78-6.43-4.33v-2c-3.63-.33-7.26-.66-11-1q1-2.46,3-5c2.82-.48,5.12-.65,7.94-.62,1.64-.04,3.27-.09,4.91-.15,.85-.03,1.7-.06,2.57-.09,23.49-1.25,45.77-9.34,67.84-16.81,.65-.22,1.3-.44,1.97-.67,2.32-.79,4.57-1.56,6.77-2.66Z"/>
    <path class="cls-59" d="M40.24,1063.7c2.66,3.23,5.09,6.55,7.45,10.01,7.3,10.61,16.24,20.5,29.55,22.99,8.28,.68,14.79,.23,22-4,1.03-.58,2.06-1.16,3.12-1.75,7.47-5.84,11.39-12.51,14.88-21.25,1.85,4.85-.5,8.42-2.48,12.9-4.58,9.38-10.62,17.48-20.57,21.5-8.95,2.77-19.19,1.56-27.51-2.4-13.08-7.55-20.8-17.37-25.81-31.59q-.63-2.41-.63-6.41Z"/>
    <path class="cls-97" d="M335.99,928.57c1.17,0,2.33,0,3.53,0,1.23,0,2.45,0,3.72,.01q1.84,0,3.72-.01t3.53,0c1.08,0,2.16,0,3.27,0q2.48,.13,3.48,1.13c.1,2.84,.14,5.66,.12,8.5q0,1.2,.01,2.42-.01,5.96-1.14,7.08c-1.91,.1-3.83,.13-5.75,.13-1.17,0-2.33,0-3.53,0-1.23,0-2.45,0-3.72-.01q-1.84,0-3.72,.01c-1.17,0-2.33,0-3.53,0-1.08,0-2.16,0-3.27,0q-2.48-.13-3.48-1.13c-.1-2.84-.14-5.66-.12-8.5,0-.8,0-1.6-.01-2.42,.01-6.89,.1-7.21,6.89-7.21Z"/>
    <path class="cls-21" d="M418.52,330.47c.8,0,1.6,0,2.43,0,1.7,0,3.39,.01,5.09,.02,2.54,.02,5.09,.02,7.63,.02,9.9,.02,19.71,.38,29.58,1.19q.49,1.98,1,4c-7.2,5.94-16.72,5.32-25.63,5.07-1.78-.05-3.56-.09-5.35-.12-3.34-.07-6.68-.16-10.02-.25-1.09-.02-2.17-.04-3.29-.07-5.68-.2-9.89-.5-14.71-3.62v-4c4.4-2.18,8.47-2.28,13.27-2.23Z"/>
    <path class="cls-67" d="M546.24,1347.7c-2.88,2.25-5.81,4.11-9,5.89-.96,.54-1.93,1.08-2.92,1.64-1.02,.57-2.03,1.13-3.08,1.72-7.2,4.03-14.37,8.08-21.4,12.38-3.43,1.81-6.95,3.06-10.6,4.37,.64-3.79,1.29-7.58,1.94-11.38,.18-1.08,.36-2.16,.55-3.27l.54-3.12c.16-.95,.32-1.91,.49-2.89q.48-2.34,1.48-4.34,8.03-.79,12,2.44c.66,.85,1.32,1.69,2,2.56l1,1q3.33,.05,7-1c.85-1.01,1.69-2.02,2.56-3.06,4.33-5,11.42-3.38,17.44-2.94Z"/>
    <path class="cls-21" d="M227.24,404.7l4,2c.02,1.16,.04,2.32,.06,3.51,.08,4.34,.17,8.68,.26,13.03,.04,1.87,.07,3.74,.1,5.62,.05,2.71,.1,5.41,.16,8.12,.01,.82,.02,1.65,.04,2.49,.22,9.02,1.39,16.61,6.57,24.11q3.87,5.62,3.55,8.51c-.24,.53-.49,1.07-.74,1.62q-2.48,.5-5,1c-13.13-13.92-11.06-34.26-11.19-52.19-.01-1.18-.03-2.37-.04-3.58,0-1.12,0-2.24,0-3.4,0-1,0-2.01-.01-3.04,.26-2.94,1.01-5.12,2.24-7.79Z"/>
    <path class="cls-35" d="M619.24,1022.7c-4.93,10.85-14.92,19.45-23.8,27.09-3.49,3.03-6.88,6.17-10.29,9.29-.96,.87-1.92,1.73-2.91,2.62-.59,.53-1.17,1.06-1.77,1.61-5.17,4.62-10.62,8.76-16.23,12.83q-1.31,.95-2.64,1.93c-2.12,1.55-4.24,3.09-6.36,4.63,0-3.61,.57-3.98,2.97-6.52,.64-.69,1.29-1.37,1.95-2.08,.7-.73,1.41-1.46,2.14-2.22,.72-.76,1.44-1.52,2.19-2.3,6.42-6.68,13.12-13.03,19.97-19.26,1.75-1.6,3.49-3.22,5.22-4.85q24.32-22.78,29.56-22.78Z"/>
    <path class="cls-31" d="M166.06,850.52c9.62,3.58,19.58,10.44,25.19,19.19v3c-.66-.27-1.32-.54-2-.81-3.65-1.44-7.32-2.82-11-4.19,.66,2.97,1.32,5.94,2,9-2.9-1.45-4.78-2.48-7.17-4.46q-.87-.71-1.75-1.42t-1.82-1.49c-4.87-3.91-9.45-7.19-15.25-9.62,2.23-5.11,6.08-8.81,11.81-9.19Z"/>
    <path class="cls-7" d="M830.24,851.7c2.82,1.82,5.54,3.7,8,6v2c-.64,.31-1.29,.61-1.95,.93-6.73,3.41-12.22,7.47-17.81,12.47q-4.06,3.61-6.24,3.61c.66-2.97,1.32-5.94,2-9-.69,.29-1.37,.58-2.08,.88-.9,.37-1.8,.74-2.73,1.12-.89,.37-1.79,.74-2.71,1.12q-2.48,.88-5.48,.88,10.55-10.55,12.37-12.36c1.31-1.31,2.61-2.64,3.9-3.98,3.83-3.67,7.66-5.71,12.73-3.66Z"/>
    <path class="cls-104" d="M442.24,555.7c2.82,1.31,5.1,2.79,7.5,4.75,17.49,13.29,38.96,15.21,60.19,12.97,13.75-1.97,25.75-6.52,36.31-15.72q.99,.49,2,1c-10.09,11.53-24.11,17.38-39,20-20.81,1.36-40.95-.11-58.03-13.35-3.44-3.04-6.42-5.83-8.97-9.65Z"/>
    <path class="cls-42" d="M924.24,996.7v1c-.81,.07-1.62,.15-2.46,.23-17.32,2.06-28.07,11.97-38.63,25.24-2.1,2.78-4.02,5.61-5.91,8.53h-1c.6-13.24,10.29-24.97,19.69-33.56,8.42-6.66,19-5.65,28.31-1.44Z"/>
    <path class="cls-35" d="M629.24,1029.7l2,1c-8.68,10.51-17.96,20-28.03,29.19-1.77,1.62-3.52,3.26-5.26,4.91-6.88,6.47-14.14,12.27-21.71,17.9,0-4.23,1.88-5.35,4.75-8.38,2.55-2.71,5.05-5.37,7.36-8.29,1.69-2.09,3.32-3.7,5.39-5.4,3.63-3.09,6.98-6.41,10.31-9.81,7.74-7.86,16.29-14.62,25.19-21.12Z"/>
    <path class="cls-16" d="M881.24,423.7q3.06-.25,6,0c2.63,2.63,1.23,10.15,1.25,13.69,.02,1.19,.04,2.37,.06,3.59q.05,10.81-3.31,15.72h-3c-3.35-6.26-3.42-11.73-3.31-18.75,0-1.04,0-2.08,0-3.15q.05-7.7,2.32-11.1Z"/>
    <path class="cls-52" d="M110.24,1054.7q2.06,.44,4,1c-.04,8.92-2.63,15.56-8.93,21.96-3.25,2.7-5.77,4.38-10.07,4.41-.99-.12-1.98-.25-3-.38l-1-5c.71-.51,1.43-1.02,2.16-1.55,7.48-5.67,11.52-11.08,15.84-19.45l1-1Z"/>
    <path class="cls-40" d="M424.24,1342.7c9.1,1.75,16.53,4.48,24.38,9.44,1.74,1.07,3.48,2.14,5.21,3.21q1.33,.82,2.68,1.67c4.53,2.81,9.1,5.56,13.66,8.31,.83,.51,1.67,1.02,2.53,1.54,5.36,3.24,10.01,5.89,16.35,6.46,.79,.07,1.58,.15,2.39,.23,.59,.05,1.18,.1,1.79,.15v6c-6.35-1.94-12.21-4.37-18.12-7.38-.85-.43-1.7-.86-2.58-1.3-10.62-5.43-20.97-11.35-31.29-17.32-.88-.51-1.76-1.01-2.67-1.54-2.43-1.4-4.85-2.8-7.27-4.21-.72-.42-1.44-.84-2.19-1.27-1.64-.97-3.26-1.97-4.87-2.98v-1Z"/>
    <path class="cls-94" d="M434.24,947.7h28v8c-1.77,1.77-4.35,1.13-6.75,1.13-1.17,0-2.33,0-3.53,0-1.23,0-2.45,0-3.72-.01q-1.84,0-3.72,.01c-1.17,0-2.33,0-3.53,0-1.08,0-2.16,0-3.27,0q-2.48-.13-3.48-1.13v-8Z"/>
    <path class="cls-75" d="M788.74,840.33c3.69,2.14,5.48,4.67,7.5,8.38-1.98,1.65-3.96,3.3-6,5-.51-.41-1.02-.82-1.54-1.24-7.42-5.81-13.36-7.47-22.75-6.53-1.91,.23-3.81,.5-5.71,.77v-3c9.26-4.59,18.52-7.76,28.5-3.38Z"/>
    <path class="cls-39" d="M431.92,171.29q2.32,.42,5.01,2.04,1.31,2.38,1.31,5.38c-1.12,3.37-2.24,4.81-5,7-3.62,1.21-6.2,1.4-10,1-2.66-2.39-3.78-4.02-4.56-7.5,1.61-7.15,6.77-8.28,13.24-7.92Z"/>
    <path class="cls-103" d="M779.24,913.7l1,2c.8,.14,1.61,.29,2.44,.44q2.56,.56,4.56,3.56c-.46,2.8-1.02,5.4-1.75,8.12-.39,1.53-.77,3.07-1.16,4.6-.19,.74-.38,1.47-.57,2.23-.64,2.53-1.22,5.06-1.77,7.61-.25,1.13-.49,2.27-.75,3.44q-5.78-3.32-6.75-6.3c-.27-3,.08-5.28,.75-8.22q.34-1.53,.69-3.1c.25-1.06,.49-2.11,.75-3.2q.36-1.61,.74-3.26c.6-2.65,1.21-5.29,1.83-7.93Z"/>
    <path class="cls-102" d="M213.24,916.7c.65,2.5,1.3,5,1.94,7.5,.18,.7,.36,1.39,.55,2.11,1.22,4.79,2.26,9.44,2.51,14.39-1.63,2.52-3.43,3.32-6,5-1.97-3.44-2.72-6.81-3.5-10.69q-.38-1.85-.77-3.74c-.24-1.18-.48-2.36-.73-3.57-.39-1.79-.79-3.58-1.19-5.38-.27-1.2-.54-2.39-.81-3.62,3.23-2.15,4.28-2.2,8-2Z"/>
    <path class="cls-31" d="M158.24,5.7q2.81,1.06,5,3,1.12,3.38,1,7-2,2.94-5,5c-4.47,.8-6.25,.52-10-2.06q-2-2.94-2.06-6.56,1.06-3.38,2.75-5.31c3.03-1.39,5-1.47,8.31-1.06Z"/>
    <path class="cls-105" d="M228.24,1142.7c0,3.69-.71,4.25-3.19,6.88-5.81,5.6-13.94,9.39-22.12,9.44-.89-.1-1.77-.21-2.69-.31-.88-5.73,1.5-8.77,4.69-13.24q.65-.87,1.31-1.76c.33,.66,.66,1.32,1,2q2.76,1.14,6,2,1.39,.49,2.81,1c5.04,0,8.29-3.01,12.19-6Z"/>
    <path class="cls-35" d="M655.24,560.08c3.77,.79,5.5,1.67,8,4.62q.19,3.44-1,7c-2.98,3.26-4.8,4.81-9.19,5.5q-2.81-.5-4.69-1.56c-1.83-3.15-1.61-5.37-1.12-8.94,1.86-3.64,3.88-5.77,8-6.62Z"/>
    <path class="cls-8" d="M634.9,301.57q1.9,0,3.85,0c1.32,0,2.64,0,4,.01q1.98,0,4-.01c1.27,0,2.54,0,3.85,0q1.74,0,3.51,0c2.84,.12,5.39,.48,8.15,1.13v2c-6.16,2.17-11.88,2.33-18.38,2.31-.99,.02-1.98,.03-3,.05-6.42,0-11.69-.91-17.62-3.36v-1c3.94-.93,7.61-1.13,11.66-1.13Z"/>
    <path class="cls-31" d="M820.24,10.7l2,2c-.08,4.16-.37,6.3-3.19,9.44-3.28,1.82-5.12,2.14-8.81,1.56q-2-3-1.88-6.5,.88-3.5,2.5-5.44c3.27-1.46,5.84-1.39,9.38-1.06Z"/>
    <path class="cls-44" d="M109.24,419.7q3,2,4,5c.12,2.53,.19,5.03,.19,7.56,.01,.69,.02,1.37,.04,2.08,0,1.79-.1,3.58-.22,5.36-.66,.66-1.32,1.32-2,2q-2.62-.38-5-1c-.05-2.21-.09-4.42-.12-6.62-.02-1.23-.05-2.46-.07-3.73,.2-3.65,.47-7.92,3.2-10.65Z"/>
    <path class="cls-47" d="M393.24,537.7q2,2,2.44,4.81-.44,3.19-2.62,6.12-2.81,2.06-5.5,2-2.31-.94-4.31-2.94c.18-3.37,.4-6.02,2.19-8.94,2.68-1.57,4.77-1.39,7.81-1.06Z"/>
    <path class="cls-13" d="M435.24,1278.7q2,2,2.31,4.94-.31,3.06-1.5,4.94c-2.51,1.56-3.91,1.62-6.81,1.12q-2.31-1.62-4-4-.25-3.25,0-6c3.57-2.33,5.94-2.06,10-1Z"/>
    <path class="cls-61" d="M250.24,905.7l1,2h-2c-.21,.66-.41,1.32-.62,2-2.58,5.63-6.67,10.96-11.38,15h-2q-.89-3.13-1-7c1.68-2.46,3.88-4.1,6.25-5.88,.6-.48,1.2-.97,1.82-1.47,2.6-2.06,4.76-3.6,7.93-4.66Z"/>
    <path class="cls-104" d="M740.24,903.7c3.78,2.08,6.58,4.39,9.56,7.5,2.68,2.78,5.28,5.27,8.44,7.5l-1,6c-7.66-3.33-13-11.93-17-19v-2Z"/>
    <path class="cls-35" d="M881.24,465.7q4.88,1.88,6,3,.38,2.75,0,6-2.5,2.88-5,5c-2.65-2.22-3.9-3.69-5-7q0-3,1.94-5.38c.68-.54,1.36-1.07,2.06-1.62Z"/>
    <path class="cls-21" d="M465.24,342.7q1,1,1.25,3.38-.25,2.62-1.31,4.44c-2.93,1.8-5.58,1.38-8.94,1.19q-1.12-1.75-2-4c1.97-5.75,5.44-5.2,11-5Z"/>
    <path class="cls-46" d="M413.18,822.52q3.06,.19,5.06,2.19,.25,2.5,0,5-2,2-4.44,2.31-2.56-.31-4.44-1.5-1.12-1.81-.88-4.44,1.05-3.33,4.69-3.56Z"/>
    <path class="cls-8" d="M110.24,397.7c2.93,.37,3.86,.86,6,3q.25,2.5,0,5-2,2-4.5,2.31-1.24-.15-2.5-.31-2-3-1.75-5.56,.75-2.44,2.75-4.44Z"/>
    <path class="cls-52" d="M108.24,1036.7q4.56,.56,6,2,.19,2.94,0,6c-.66,.66-1.32,1.32-2,2q-4.56-.56-6-2-.19-2.94,0-6l2-2Z"/>
    <path class="cls-29" d="M179.68,14.52q2.56,.19,4.56,2.19,.25,2.5,0,5c-.66,.66-1.32,1.32-2,2-3.3-.33-4.62-.62-7-3q.72-5.9,4.44-6.19Z"/>
    <path class="cls-83" d="M110.24,882.7l2,1-21,21-2-1c2.37-2.57,4.75-5.13,7.12-7.69,.67-.72,1.33-1.44,2.02-2.19,3.75-4.03,7.54-7.71,11.86-11.13Z"/>
    <path class="cls-78" d="M620.24,350.7l2,1q-.67,.51-1.36,1.03c-4.23,3.39-6.96,6.64-9.5,11.43-.38,.51-.75,1.02-1.14,1.54h-6c4.93-5.76,9.58-10.9,16-15Z"/>
    <path class="cls-91" d="M609.24,1236.7l2,1c-3.14,3.48-6.45,5.59-10.56,7.81-1.14,.63-2.27,1.25-3.44,1.89q-3,1.29-6,.29,12.74-8.77,18-11Z"/>
    <path class="cls-90" d="M735.24,874.7h2c1.03,6.7,1.1,13.23,1,20-3.99-3.99-3.91-11.18-4.19-16.62q.19-2.38,1.19-3.38Z"/>
    <path class="cls-85" d="M814.24,856.7l2,1c-.42,.41-.85,.83-1.29,1.25-1.91,1.87-3.81,3.74-5.71,5.62-.67,.65-1.34,1.3-2.02,1.97-.63,.63-1.26,1.25-1.91,1.89-.59,.58-1.17,1.15-1.78,1.75q-1.5,1.44-1.29,3.51l-4,2c1.39-4.17,3.35-6.84,6.31-10.06,.76-.84,1.52-1.67,2.3-2.54,2.33-2.35,4.76-4.39,7.39-6.4Z"/>
    <path class="cls-37" d="M888.24,1029.7c.99,.33,1.98,.66,3,1q-.75,5.75-3,8-2.12-.38-4-1c.5-3.69,1.1-5.6,4-8Z"/>
    <path class="cls-95" d="M224.24,267.7l2,1c-1.32,.99-2.64,1.98-4,3l2-4Zm-3,4c.33,.99,.66,1.98,1,3-1.27,1.44-2.54,2.88-3.81,4.31-.71,.8-1.42,1.6-2.14,2.43-1.64,1.81-3.3,3.56-5.04,5.26,1.34-3.8,3.04-6.61,5.56-9.75,.62-.78,1.24-1.56,1.88-2.36q1.56-1.89,2.56-2.89Z"/>
    <path class="cls-84" d="M335.24,820.7l2,1c-4.95,4.95-9.9,9.9-15,15,0-5.2,4.5-8.42,8-12,1.62-1.39,3.27-2.75,5-4Z"/>
    <path class="cls-98" d="M736.24,602.7h3c-.5,4.46-2.02,6.58-5.06,9.81q-1.1,1.19-2.22,2.39c-.57,.59-1.13,1.18-1.71,1.79,0-3.72,1.18-5.46,3-8.69,.56-.99,1.11-1.99,1.69-3.01,.43-.76,.87-1.52,1.31-2.3Z"/>
    <path class="cls-96" d="M311.24,350.7l2,1c-.5,.43-.99,.87-1.5,1.31q-1.83,1.68-1.5,4.69-1.88,2.19-4,4h-2l-2,1c2.36-4.9,4.35-8.95,9-12Z"/>
    <path class="cls-25" d="M310.24,860.7l2,1c-1.98,4.95-3.96,9.9-6,15h-1c.44-5.23,.93-10.12,3-15l2-1Z"/>
    <path class="cls-34" d="M832.24,12.7h5q.62,1.88,1,4l-2,2q-2.62-.38-5-1c.33-1.65,.66-3.3,1-5Z"/>
    <path class="cls-57" d="M692.24,894.7h1c.33,2.97,.66,5.94,1,9h-2v17h-1c-.03-3.58-.05-7.17-.06-10.75,0-1.02-.02-2.03-.03-3.08,0-.98,0-1.96,0-2.97,0-.9-.01-1.8-.02-2.73,.11-2.31,.46-4.26,1.11-6.47Z"/>
    <path class="cls-110" d="M230.24,1065.7c3.09,2.53,3.91,5.22,5,9h-2v13h-1c-.06-1.09-.12-2.17-.18-3.29-.08-1.45-.17-2.89-.25-4.34-.04-.71-.08-1.43-.12-2.16-.25-4.13-.68-8.14-1.44-12.21Z"/>
    <path class="cls-54" d="M945.24,1040.7l3,2c-.45,5.27-1.08,10.02-3,15-1.23-3.68-.91-6.91-.56-10.75,.1-1.17,.2-2.34,.31-3.55,.08-.89,.17-1.78,.25-2.7Z"/>
    <path class="cls-53" d="M761.24,1065.7c1.27,2.54,.74,3.32,0,6-.22,2.75-.41,5.49-.56,8.25-.04,.75-.09,1.49-.13,2.26-.11,1.83-.21,3.66-.31,5.49h-1q-.09-1.37-.18-2.77c-.08-1.19-.17-2.38-.25-3.6-.08-1.18-.16-2.37-.25-3.59q-.13-2.95-1.32-5.04,.78-1.73,1.94-3.62c.68-1.11,1.36-2.23,2.06-3.38Z"/>
    <path class="cls-86" d="M59.24,1000.7l2,1-12,12c0-4.58,2.92-6.82,6-10q2.38-1.94,4-3Z"/>
    <path class="cls-78" d="M687.24,356.7c4.14,3.3,7.59,6.17,10,11h-2l-1,2c-.98-1.6-1.96-3.21-2.94-4.81-.55-.89-1.09-1.79-1.65-2.71q-1.41-2.48-2.41-5.48Z"/>
    <path class="cls-100" d="M442.24,555.7c2.98,1.39,5.51,3.01,8.12,5,.68,.52,1.37,1.03,2.07,1.56q1.8,1.44,3.8,3.44l-3,1q-1.94-1.29-4-3.19c-.68-.61-1.36-1.22-2.06-1.86-1.86-1.88-3.41-3.8-4.94-5.96Z"/>
    <path class="cls-9" d="M623.24,1049.7q2.47,.5,5,1c-.33,1.65-.66,3.3-1,5h-4v-6Z"/>
    <path class="cls-58" d="M256.24,604.7c2.64,3.19,5.1,6.31,7,10l-1,2c-2.64-2.97-5.28-5.94-8-9,.66-.33,1.32-.66,2-1v-2Z"/>
    <path class="cls-30" d="M231.24,238.7q.75,1.64,1,4-1.65,2.8-3.94,5.75-1.13,1.48-2.28,2.98c-.59,.75-1.18,1.5-1.79,2.27l-1-2c1.24-2.29,2.53-4.44,3.94-6.62,.39-.61,.77-1.22,1.17-1.85,.96-1.51,1.92-3.02,2.89-4.52Z"/>
    <path class="cls-80" d="M573.24,1340.7c-1.29,.84-2.58,1.67-3.88,2.5-.72,.46-1.44,.93-2.18,1.41q-1.95,1.09-3.95,1.09v-2c-.66-.33-1.32-.66-2-1,1.43-.53,2.87-1.05,4.31-1.56q1.2-.44,2.43-.88,2.26-.56,5.26,.44Z"/>
    <path class="cls-109" d="M117.24,1069.7c1.33,4.05,.51,6.38-1.03,10.23q-.97,1.77-3.16,3.27c-.6,.16-1.2,.33-1.81,.5,1.83-4.74,3.92-9.36,6-14Z"/>
    <path class="cls-56" d="M234.24,848.7q7.07,2.04,9,5-.31,2.19-1,4c-2.93-2.85-5.64-5.65-8-9Z"/>
    <path class="cls-74" d="M644.24,743.7c1.44-.05,2.87-.09,4.31-.12,.8-.02,1.6-.05,2.43-.07q2.26,.2,5.26,2.2c-.33,.66-.66,1.32-1,2-3.63-.99-7.26-1.98-11-3v-1Z"/>
    <path class="cls-28" d="M474.24,1368.7c1.69,.61,3.36,1.28,5,2,.99,.33,1.98,.66,3,1v3c-3.91-1.16-6.87-2.36-10-5l2-1Z"/>
    <path class="cls-41" d="M76.24,995.7l4,2c-3.3,.33-6.6,.66-10,1-.33-.99-.66-1.98-1-3,3.21-1.07,3.93-1.02,7,0Z"/>
    <path class="cls-50" d="M886.24,490.7q1,3,0,5.26c-.48,.8-.95,1.6-1.44,2.43-.47,.81-.95,1.62-1.43,2.45-.37,.61-.75,1.23-1.13,1.86q-1-2-.51-4.13c.27-.8,.54-1.61,.82-2.43,.26-.81,.53-1.61,.8-2.44q.89-2,2.89-3Z"/>
    <path class="cls-51" d="M609.24,1236.7l2,1c-3.02,3.48-5.57,4.79-10,6,1.12-3.35,1.51-3.62,4.44-5.25,1.18-.58,2.35-1.15,3.56-1.75Z"/>
    <path class="cls-42" d="M887.24,956.7q2,1,3,3-2.81,1.56-6,3c-.99-.33-1.98-.66-3-1,1.98-1.65,3.96-3.3,6-5Z"/>
    <path class="cls-66" d="M759.24,844.7q2,1,3,3c-2.31,1.32-4.62,2.64-7,4-.33-.99-.66-1.98-1-3,1.65-1.32,3.3-2.64,5-4Z"/>
    <path class="cls-101" d="M623.24,742.7c-3.51,2.34-5.82,2.71-10,3q-2.44-.94-4-2c4.76-.95,9.17-1.08,14-1Z"/>
    <path class="cls-55" d="M369.24,349.7c4.59,1.49,7.44,3.85,11,7l-2,3c-.56-.72-1.11-1.44-1.69-2.19-2.29-2.79-4.73-5.3-7.31-7.81Z"/>
    <path class="cls-2" d="M238.24,230.7c0,3.4-.52,4.07-2.5,6.69-.46,.62-.93,1.25-1.41,1.89-.36,.47-.72,.94-1.09,1.43q-.65-1.83-1-4,2.38-2.69,5-5l1-1Z"/>
    <path class="cls-25" d="M622.24,1282.7l2,1q-.62,1.88-2,4-3.12,1.25-6,2c1.98-2.31,3.96-4.62,6-7Z"/>
    <path class="cls-76" d="M304.24,356.7c0,4-1.73,5.8-4,9-.99-.66-1.98-1.32-3-2l7-7Z"/>
    <path class="cls-92" d="M391.24,1322.7c1.44,.45,2.88,.91,4.31,1.38,.8,.26,1.6,.51,2.43,.77q2.26,.85,5.26,2.85c-2.56,.96-3.6,1.18-6.14,.04-.7-.47-1.39-.93-2.11-1.41-.71-.46-1.41-.92-2.14-1.4-.53-.4-1.06-.81-1.61-1.23v-1Z"/>
    <path class="cls-82" d="M115.24,366.7h2c-.33,1.98-.66,3.96-1,6h-3q-.99,.49-2,1c1.2-2.49,2.45-4.68,4-7Z"/>
    <path class="cls-89" d="M297.24,364.7h2q-.19,2.38-1,5-2.56,1.31-5,2c1.07-2.92,1.78-4.78,4-7Z"/>
    <path class="cls-79" d="M379.24,357.7c3.16,1.37,3.99,1.99,6,5-1.32,.33-2.64,.66-4,1q-2-3-2-6Z"/>
    <path class="cls-99" d="M311.24,350.7l2,1c-2.31,2.31-4.62,4.62-7,7-.33-.99-.66-1.98-1-3,1.98-1.65,3.96-3.3,6-5Z"/>
  </g>
</svg>