<svg width="305" height="65" viewBox="0 0 305 65" fill="none" xmlns="http://www.w3.org/2000/svg">
<g filter="url(#filter0_d_502_48)">
<rect x="5" width="295" height="55" rx="20" fill="white"/>
</g>
<ellipse cx="37.5" cy="27.647" rx="14.5" ry="14.4866" fill="#36D8FF"/>
<path d="M84.16 30.28C84.7333 30.3733 85.2267 30.5867 85.64 30.92C86.0533 31.24 86.3733 31.6533 86.6 32.16C86.8267 32.6533 86.94 33.2133 86.94 33.84C86.94 34.6533 86.74 35.3667 86.34 35.98C85.9533 36.6067 85.4 37.0867 84.68 37.42C83.96 37.7667 83.12 37.94 82.16 37.94C81.1467 37.94 80.2533 37.7467 79.48 37.36C78.72 36.9867 78.1267 36.4533 77.7 35.76L78.88 34.58C79.1867 35.1133 79.6 35.54 80.12 35.86C80.6533 36.18 81.3333 36.34 82.16 36.34C83.08 36.34 83.8 36.1267 84.32 35.7C84.8533 35.2867 85.12 34.6667 85.12 33.84C85.12 33 84.8333 32.3333 84.26 31.84C83.7 31.3333 82.88 31.08 81.8 31.08H81.28V29.6H81.84C82.8 29.6 83.5333 29.3667 84.04 28.9C84.56 28.4333 84.82 27.8533 84.82 27.16C84.82 26.68 84.7067 26.2867 84.48 25.98C84.2533 25.6733 83.9467 25.4467 83.56 25.3C83.1733 25.14 82.7267 25.06 82.22 25.06C81.4867 25.06 80.84 25.22 80.28 25.54C79.7333 25.8467 79.3067 26.28 79 26.84L77.92 25.72C78.16 25.2667 78.5 24.8733 78.94 24.54C79.3933 24.2067 79.9133 23.9467 80.5 23.76C81.1 23.5733 81.7333 23.48 82.4 23.48C83.24 23.48 83.98 23.6267 84.62 23.92C85.2733 24.2133 85.78 24.6267 86.14 25.16C86.5 25.6933 86.68 26.32 86.68 27.04C86.68 27.56 86.58 28.0533 86.38 28.52C86.18 28.9733 85.8867 29.36 85.5 29.68C85.1267 29.9867 84.68 30.1867 84.16 30.28ZM89.5008 35V20.8H94.4208C95.9408 20.8 97.2074 21.12 98.2208 21.76C99.2474 22.3867 100.014 23.24 100.521 24.32C101.027 25.3867 101.281 26.5733 101.281 27.88C101.281 29.32 101.001 30.5733 100.441 31.64C99.8808 32.7067 99.0874 33.5333 98.0608 34.12C97.0341 34.7067 95.8208 35 94.4208 35H89.5008ZM99.4608 27.88C99.4608 26.8133 99.2608 25.8667 98.8608 25.04C98.4741 24.2133 97.9074 23.5667 97.1608 23.1C96.4141 22.6333 95.5008 22.4 94.4208 22.4H91.3008V33.4H94.4208C95.5141 33.4 96.4341 33.16 97.1808 32.68C97.9274 32.1867 98.4941 31.5267 98.8808 30.7C99.2674 29.86 99.4608 28.92 99.4608 27.88ZM108.576 35V24.56H110.396L114.276 31.4L118.176 24.56H119.956V35H118.276V27.1L114.836 33.14H113.716L110.256 27.1V35H108.576ZM127.355 35.2C126.568 35.2 125.855 35.06 125.215 34.78C124.575 34.4867 124.022 34.0933 123.555 33.6C123.088 33.0933 122.728 32.5133 122.475 31.86C122.222 31.2067 122.095 30.52 122.095 29.8C122.095 29.0667 122.222 28.3733 122.475 27.72C122.728 27.0667 123.088 26.4933 123.555 26C124.022 25.4933 124.575 25.1 125.215 24.82C125.868 24.5267 126.582 24.38 127.355 24.38C128.142 24.38 128.855 24.5267 129.495 24.82C130.135 25.1 130.688 25.4933 131.155 26C131.635 26.4933 132.002 27.0667 132.255 27.72C132.508 28.3733 132.635 29.0667 132.635 29.8C132.635 30.52 132.508 31.2067 132.255 31.86C132.002 32.5133 131.642 33.0933 131.175 33.6C130.708 34.0933 130.148 34.4867 129.495 34.78C128.855 35.06 128.142 35.2 127.355 35.2ZM123.895 29.82C123.895 30.54 124.048 31.1933 124.355 31.78C124.675 32.3667 125.095 32.8333 125.615 33.18C126.135 33.5133 126.715 33.68 127.355 33.68C127.995 33.68 128.575 33.5067 129.095 33.16C129.628 32.8133 130.048 32.3467 130.355 31.76C130.675 31.16 130.835 30.5 130.835 29.78C130.835 29.06 130.675 28.4067 130.355 27.82C130.048 27.2333 129.628 26.7667 129.095 26.42C128.575 26.0733 127.995 25.9 127.355 25.9C126.715 25.9 126.135 26.08 125.615 26.44C125.095 26.7867 124.675 27.2533 124.355 27.84C124.048 28.4267 123.895 29.0867 123.895 29.82ZM133.608 37.46V33.44H133.828C134.121 33.44 134.388 33.3533 134.628 33.18C134.881 33.0067 135.101 32.7067 135.288 32.28C135.488 31.84 135.648 31.24 135.768 30.48C135.888 29.72 135.968 28.7533 136.008 27.58L136.108 24.56H143.208V33.44H144.628V37.46H143.068V35H135.168V37.46H133.608ZM136.288 33.44H141.448V26.12H137.668L137.608 27.74C137.568 28.8733 137.488 29.8267 137.368 30.6C137.261 31.36 137.114 31.9667 136.928 32.42C136.754 32.8733 136.541 33.2133 136.288 33.44ZM151.204 35.2C150.417 35.2 149.697 35.06 149.044 34.78C148.404 34.4867 147.844 34.0933 147.364 33.6C146.897 33.0933 146.531 32.5133 146.264 31.86C146.011 31.2067 145.884 30.5133 145.884 29.78C145.884 28.7933 146.111 27.8933 146.564 27.08C147.017 26.2667 147.644 25.6133 148.444 25.12C149.257 24.6267 150.184 24.38 151.224 24.38C152.277 24.38 153.191 24.6333 153.964 25.14C154.751 25.6333 155.357 26.2867 155.784 27.1C156.224 27.9 156.444 28.7667 156.444 29.7C156.444 29.8333 156.437 29.9667 156.424 30.1C156.424 30.22 156.417 30.3133 156.404 30.38H147.744C147.797 31.06 147.984 31.6667 148.304 32.2C148.637 32.72 149.064 33.1333 149.584 33.44C150.104 33.7333 150.664 33.88 151.264 33.88C151.904 33.88 152.504 33.72 153.064 33.4C153.637 33.08 154.031 32.66 154.244 32.14L155.764 32.56C155.537 33.0667 155.197 33.52 154.744 33.92C154.304 34.32 153.777 34.6333 153.164 34.86C152.564 35.0867 151.911 35.2 151.204 35.2ZM147.684 29.16H154.804C154.751 28.48 154.557 27.88 154.224 27.36C153.891 26.84 153.464 26.4333 152.944 26.14C152.424 25.8467 151.851 25.7 151.224 25.7C150.611 25.7 150.044 25.8467 149.524 26.14C149.004 26.4333 148.577 26.84 148.244 27.36C147.924 27.88 147.737 28.48 147.684 29.16ZM157.48 35.08V33.5C157.827 33.5 158.134 33.4133 158.4 33.24C158.68 33.0533 158.927 32.7467 159.14 32.32C159.354 31.88 159.52 31.28 159.64 30.52C159.774 29.7467 159.86 28.7667 159.9 27.58L160.02 24.56H167.12V35H165.36V26.12H161.58L161.54 27.74C161.487 29.1667 161.367 30.3533 161.18 31.3C160.994 32.2467 160.734 32.9933 160.4 33.54C160.067 34.0867 159.654 34.48 159.16 34.72C158.68 34.96 158.12 35.08 157.48 35.08ZM169.943 35V24.58H171.703V32.64L177.543 24.56H179.143V35H177.383V27.1L171.623 35H169.943ZM187.575 35.2C186.722 35.2 185.962 34.9867 185.295 34.56C184.628 34.1333 184.102 33.5933 183.715 32.94V39.26H181.955V24.56H183.515V26.52C183.928 25.88 184.468 25.3667 185.135 24.98C185.802 24.58 186.528 24.38 187.315 24.38C188.035 24.38 188.695 24.5267 189.295 24.82C189.895 25.1133 190.415 25.5133 190.855 26.02C191.295 26.5267 191.635 27.1067 191.875 27.76C192.128 28.4 192.255 29.0733 192.255 29.78C192.255 30.7667 192.055 31.6733 191.655 32.5C191.268 33.3267 190.722 33.9867 190.015 34.48C189.308 34.96 188.495 35.2 187.575 35.2ZM187.035 33.68C187.555 33.68 188.022 33.5733 188.435 33.36C188.862 33.1333 189.222 32.84 189.515 32.48C189.822 32.1067 190.055 31.6867 190.215 31.22C190.375 30.7533 190.455 30.2733 190.455 29.78C190.455 29.26 190.362 28.7667 190.175 28.3C190.002 27.8333 189.748 27.42 189.415 27.06C189.095 26.7 188.715 26.42 188.275 26.22C187.848 26.0067 187.382 25.9 186.875 25.9C186.555 25.9 186.222 25.96 185.875 26.08C185.542 26.2 185.222 26.3733 184.915 26.6C184.608 26.8133 184.348 27.06 184.135 27.34C183.922 27.62 183.782 27.92 183.715 28.24V31.22C183.915 31.6733 184.182 32.0867 184.515 32.46C184.848 32.8333 185.235 33.1333 185.675 33.36C186.115 33.5733 186.568 33.68 187.035 33.68ZM198.976 35.2C198.189 35.2 197.476 35.06 196.836 34.78C196.196 34.4867 195.643 34.0933 195.176 33.6C194.709 33.0933 194.349 32.5133 194.096 31.86C193.843 31.2067 193.716 30.52 193.716 29.8C193.716 29.0667 193.843 28.3733 194.096 27.72C194.349 27.0667 194.709 26.4933 195.176 26C195.643 25.4933 196.196 25.1 196.836 24.82C197.489 24.5267 198.203 24.38 198.976 24.38C199.763 24.38 200.476 24.5267 201.116 24.82C201.756 25.1 202.309 25.4933 202.776 26C203.256 26.4933 203.623 27.0667 203.876 27.72C204.129 28.3733 204.256 29.0667 204.256 29.8C204.256 30.52 204.129 31.2067 203.876 31.86C203.623 32.5133 203.263 33.0933 202.796 33.6C202.329 34.0933 201.769 34.4867 201.116 34.78C200.476 35.06 199.763 35.2 198.976 35.2ZM195.516 29.82C195.516 30.54 195.669 31.1933 195.976 31.78C196.296 32.3667 196.716 32.8333 197.236 33.18C197.756 33.5133 198.336 33.68 198.976 33.68C199.616 33.68 200.196 33.5067 200.716 33.16C201.249 32.8133 201.669 32.3467 201.976 31.76C202.296 31.16 202.456 30.5 202.456 29.78C202.456 29.06 202.296 28.4067 201.976 27.82C201.669 27.2333 201.249 26.7667 200.716 26.42C200.196 26.0733 199.616 25.9 198.976 25.9C198.336 25.9 197.756 26.08 197.236 26.44C196.716 26.7867 196.296 27.2533 195.976 27.84C195.669 28.4267 195.516 29.0867 195.516 29.82ZM206.369 35V24.56H211.769C212.395 24.56 212.915 24.6867 213.329 24.94C213.742 25.18 214.049 25.4933 214.249 25.88C214.462 26.2667 214.569 26.68 214.569 27.12C214.569 27.68 214.435 28.1867 214.169 28.64C213.902 29.08 213.515 29.4133 213.009 29.64C213.609 29.8133 214.095 30.1267 214.469 30.58C214.842 31.02 215.029 31.5667 215.029 32.22C215.029 32.8067 214.889 33.3067 214.609 33.72C214.329 34.1333 213.935 34.4533 213.429 34.68C212.922 34.8933 212.335 35 211.669 35H206.369ZM208.049 33.76H211.629C211.949 33.76 212.235 33.68 212.489 33.52C212.755 33.36 212.962 33.1467 213.109 32.88C213.255 32.6133 213.329 32.3333 213.329 32.04C213.329 31.72 213.255 31.4333 213.109 31.18C212.975 30.9133 212.782 30.7067 212.529 30.56C212.289 30.4 212.009 30.32 211.689 30.32H208.049V33.76ZM208.049 29.16H211.309C211.629 29.16 211.909 29.08 212.149 28.92C212.389 28.7467 212.575 28.5267 212.709 28.26C212.842 27.9933 212.909 27.7133 212.909 27.42C212.909 26.98 212.762 26.6 212.469 26.28C212.189 25.96 211.822 25.8 211.369 25.8H208.049V29.16ZM216.448 31.98C216.448 31.3133 216.634 30.74 217.008 30.26C217.394 29.7667 217.921 29.3867 218.588 29.12C219.254 28.8533 220.028 28.72 220.908 28.72C221.374 28.72 221.868 28.76 222.388 28.84C222.908 28.9067 223.368 29.0133 223.768 29.16V28.4C223.768 27.6 223.528 26.9733 223.048 26.52C222.568 26.0533 221.888 25.82 221.008 25.82C220.434 25.82 219.881 25.9267 219.348 26.14C218.828 26.34 218.274 26.6333 217.688 27.02L217.048 25.78C217.728 25.3133 218.408 24.9667 219.088 24.74C219.768 24.5 220.474 24.38 221.208 24.38C222.541 24.38 223.594 24.7533 224.368 25.5C225.141 26.2333 225.528 27.26 225.528 28.58V33C225.528 33.2133 225.568 33.3733 225.648 33.48C225.741 33.5733 225.888 33.6267 226.088 33.64V35C225.914 35.0267 225.761 35.0467 225.628 35.06C225.508 35.0733 225.408 35.08 225.328 35.08C224.914 35.08 224.601 34.9667 224.388 34.74C224.188 34.5133 224.074 34.2733 224.048 34.02L224.008 33.36C223.554 33.9467 222.961 34.4 222.228 34.72C221.494 35.04 220.768 35.2 220.048 35.2C219.354 35.2 218.734 35.06 218.188 34.78C217.641 34.4867 217.214 34.1 216.908 33.62C216.601 33.1267 216.448 32.58 216.448 31.98ZM223.248 32.72C223.408 32.5333 223.534 32.3467 223.628 32.16C223.721 31.96 223.768 31.7933 223.768 31.66V30.36C223.354 30.2 222.921 30.08 222.468 30C222.014 29.9067 221.568 29.86 221.128 29.86C220.234 29.86 219.508 30.04 218.948 30.4C218.401 30.7467 218.128 31.2267 218.128 31.84C218.128 32.1733 218.214 32.5 218.388 32.82C218.574 33.1267 218.841 33.38 219.188 33.58C219.548 33.78 219.988 33.88 220.508 33.88C221.054 33.88 221.574 33.7733 222.068 33.56C222.561 33.3333 222.954 33.0533 223.248 32.72ZM228.322 35V24.56H230.082V28.88H235.522V24.56H237.282V35H235.522V30.44H230.082V35H228.322ZM240.099 35V24.58H241.859V32.64L247.699 24.56H249.299V35H247.539V27.1L241.779 35H240.099ZM256.731 35.2C255.945 35.2 255.225 35.06 254.571 34.78C253.931 34.4867 253.371 34.0933 252.891 33.6C252.425 33.0933 252.058 32.5133 251.791 31.86C251.538 31.2067 251.411 30.5133 251.411 29.78C251.411 28.7933 251.638 27.8933 252.091 27.08C252.545 26.2667 253.171 25.6133 253.971 25.12C254.785 24.6267 255.711 24.38 256.751 24.38C257.805 24.38 258.718 24.6333 259.491 25.14C260.278 25.6333 260.885 26.2867 261.311 27.1C261.751 27.9 261.971 28.7667 261.971 29.7C261.971 29.8333 261.965 29.9667 261.951 30.1C261.951 30.22 261.945 30.3133 261.931 30.38H253.271C253.325 31.06 253.511 31.6667 253.831 32.2C254.165 32.72 254.591 33.1333 255.111 33.44C255.631 33.7333 256.191 33.88 256.791 33.88C257.431 33.88 258.031 33.72 258.591 33.4C259.165 33.08 259.558 32.66 259.771 32.14L261.291 32.56C261.065 33.0667 260.725 33.52 260.271 33.92C259.831 34.32 259.305 34.6333 258.691 34.86C258.091 35.0867 257.438 35.2 256.731 35.2ZM253.211 29.16H260.331C260.278 28.48 260.085 27.88 259.751 27.36C259.418 26.84 258.991 26.4333 258.471 26.14C257.951 25.8467 257.378 25.7 256.751 25.7C256.138 25.7 255.571 25.8467 255.051 26.14C254.531 26.4333 254.105 26.84 253.771 27.36C253.451 27.88 253.265 28.48 253.211 29.16Z" fill="black"/>
<defs>
<filter id="filter0_d_502_48" x="0" y="0" width="305" height="65" filterUnits="userSpaceOnUse" color-interpolation-filters="sRGB">
<feFlood flood-opacity="0" result="BackgroundImageFix"/>
<feColorMatrix in="SourceAlpha" type="matrix" values="0 0 0 0 0 0 0 0 0 0 0 0 0 0 0 0 0 0 127 0" result="hardAlpha"/>
<feOffset dy="5"/>
<feGaussianBlur stdDeviation="2.5"/>
<feComposite in2="hardAlpha" operator="out"/>
<feColorMatrix type="matrix" values="0 0 0 0 1 0 0 0 0 1 0 0 0 0 1 0 0 0 0.25 0"/>
<feBlend mode="normal" in2="BackgroundImageFix" result="effect1_dropShadow_502_48"/>
<feBlend mode="normal" in="SourceGraphic" in2="effect1_dropShadow_502_48" result="shape"/>
</filter>
</defs>
</svg>
