<svg width="299" height="65" viewBox="0 0 299 65" fill="none" xmlns="http://www.w3.org/2000/svg">
<g filter="url(#filter0_d_309_124)">
<rect x="5" width="289" height="55" rx="20" fill="white"/>
</g>
<ellipse cx="37.5" cy="27.647" rx="14.5" ry="14.4866" fill="#36D8FF"/>
<path d="M78.7 35.1577V20.9577H84.62C85.2467 20.9577 85.82 21.091 86.34 21.3577C86.86 21.611 87.3133 21.9577 87.7 22.3977C88.0867 22.8244 88.3867 23.311 88.6 23.8577C88.8133 24.391 88.92 24.9377 88.92 25.4977C88.92 26.271 88.7467 27.011 88.4 27.7177C88.0533 28.411 87.5667 28.9777 86.94 29.4177C86.3133 29.8444 85.58 30.0577 84.74 30.0577H80.5V35.1577H78.7ZM80.5 28.4577H84.64C85.1333 28.4577 85.56 28.3244 85.92 28.0577C86.2933 27.791 86.58 27.431 86.78 26.9777C86.9933 26.5244 87.1 26.031 87.1 25.4977C87.1 24.9377 86.98 24.4377 86.74 23.9977C86.5 23.5444 86.1867 23.191 85.8 22.9377C85.4133 22.6844 84.9867 22.5577 84.52 22.5577H80.5V28.4577ZM89.9438 32.1377C89.9438 31.471 90.1304 30.8977 90.5038 30.4177C90.8904 29.9244 91.4171 29.5444 92.0838 29.2777C92.7504 29.011 93.5238 28.8777 94.4038 28.8777C94.8704 28.8777 95.3638 28.9177 95.8838 28.9977C96.4038 29.0644 96.8638 29.171 97.2638 29.3177V28.5577C97.2638 27.7577 97.0238 27.131 96.5438 26.6777C96.0638 26.211 95.3838 25.9777 94.5038 25.9777C93.9304 25.9777 93.3771 26.0844 92.8438 26.2977C92.3238 26.4977 91.7704 26.791 91.1838 27.1777L90.5438 25.9377C91.2238 25.471 91.9038 25.1244 92.5838 24.8977C93.2638 24.6577 93.9704 24.5377 94.7038 24.5377C96.0371 24.5377 97.0904 24.911 97.8638 25.6577C98.6371 26.391 99.0238 27.4177 99.0238 28.7377V33.1577C99.0238 33.371 99.0638 33.531 99.1438 33.6377C99.2371 33.731 99.3838 33.7844 99.5838 33.7977V35.1577C99.4104 35.1844 99.2571 35.2044 99.1238 35.2177C99.0038 35.231 98.9038 35.2377 98.8238 35.2377C98.4104 35.2377 98.0971 35.1244 97.8838 34.8977C97.6838 34.671 97.5704 34.431 97.5438 34.1777L97.5038 33.5177C97.0504 34.1044 96.4571 34.5577 95.7238 34.8777C94.9904 35.1977 94.2638 35.3577 93.5438 35.3577C92.8504 35.3577 92.2304 35.2177 91.6838 34.9377C91.1371 34.6444 90.7104 34.2577 90.4038 33.7777C90.0971 33.2844 89.9438 32.7377 89.9438 32.1377ZM96.7438 32.8777C96.9038 32.691 97.0304 32.5044 97.1238 32.3177C97.2171 32.1177 97.2638 31.951 97.2638 31.8177V30.5177C96.8504 30.3577 96.4171 30.2377 95.9638 30.1577C95.5104 30.0644 95.0638 30.0177 94.6237 30.0177C93.7304 30.0177 93.0038 30.1977 92.4438 30.5577C91.8971 30.9044 91.6238 31.3844 91.6238 31.9977C91.6238 32.331 91.7104 32.6577 91.8838 32.9777C92.0704 33.2844 92.3371 33.5377 92.6838 33.7377C93.0438 33.9377 93.4838 34.0377 94.0038 34.0377C94.5504 34.0377 95.0704 33.931 95.5638 33.7177C96.0571 33.491 96.4504 33.211 96.7438 32.8777ZM105.098 35.2977C104.085 35.2977 103.225 35.111 102.518 34.7377C101.825 34.351 101.291 33.8177 100.918 33.1377L102.358 32.4977C102.598 32.9244 102.938 33.2577 103.378 33.4977C103.831 33.7377 104.378 33.8577 105.018 33.8577C105.778 33.8577 106.378 33.691 106.818 33.3577C107.258 33.0244 107.478 32.5777 107.478 32.0177C107.478 31.511 107.298 31.1044 106.938 30.7977C106.591 30.4777 106.098 30.311 105.458 30.2977H104.398V29.1377H105.518C105.798 29.1377 106.045 29.071 106.258 28.9377C106.485 28.791 106.658 28.5977 106.778 28.3577C106.911 28.1177 106.978 27.851 106.978 27.5577C106.978 27.091 106.811 26.7177 106.478 26.4377C106.145 26.1444 105.645 25.9977 104.978 25.9977C104.431 25.9977 103.971 26.1044 103.598 26.3177C103.238 26.531 102.945 26.851 102.718 27.2777L101.378 26.5577C101.711 25.931 102.191 25.4444 102.818 25.0977C103.458 24.7377 104.205 24.5577 105.058 24.5577C105.738 24.5577 106.338 24.671 106.858 24.8977C107.391 25.111 107.805 25.4244 108.098 25.8377C108.405 26.251 108.558 26.751 108.558 27.3377C108.558 27.831 108.438 28.291 108.198 28.7177C107.971 29.131 107.631 29.4444 107.178 29.6577C107.805 29.8444 108.285 30.171 108.618 30.6377C108.951 31.091 109.118 31.631 109.118 32.2577C109.118 32.8977 108.945 33.4444 108.598 33.8977C108.251 34.351 107.778 34.6977 107.178 34.9377C106.578 35.1777 105.885 35.2977 105.098 35.2977ZM116.853 35.3577C115.999 35.3577 115.239 35.1444 114.573 34.7177C113.906 34.291 113.379 33.751 112.993 33.0977V39.4177H111.233V24.7177H112.793V26.6777C113.206 26.0377 113.746 25.5244 114.413 25.1377C115.079 24.7377 115.806 24.5377 116.593 24.5377C117.313 24.5377 117.973 24.6844 118.573 24.9777C119.173 25.271 119.693 25.671 120.133 26.1777C120.573 26.6844 120.913 27.2644 121.153 27.9177C121.406 28.5577 121.533 29.231 121.533 29.9377C121.533 30.9244 121.333 31.831 120.933 32.6577C120.546 33.4844 119.999 34.1444 119.293 34.6377C118.586 35.1177 117.773 35.3577 116.853 35.3577ZM116.313 33.8377C116.833 33.8377 117.299 33.731 117.713 33.5177C118.139 33.291 118.499 32.9977 118.793 32.6377C119.099 32.2644 119.333 31.8444 119.493 31.3777C119.653 30.911 119.733 30.431 119.733 29.9377C119.733 29.4177 119.639 28.9244 119.453 28.4577C119.279 27.991 119.026 27.5777 118.693 27.2177C118.373 26.8577 117.993 26.5777 117.553 26.3777C117.126 26.1644 116.659 26.0577 116.153 26.0577C115.833 26.0577 115.499 26.1177 115.153 26.2377C114.819 26.3577 114.499 26.531 114.193 26.7577C113.886 26.971 113.626 27.2177 113.413 27.4977C113.199 27.7777 113.059 28.0777 112.993 28.3977V31.3777C113.193 31.831 113.459 32.2444 113.793 32.6177C114.126 32.991 114.513 33.291 114.952 33.5177C115.393 33.731 115.846 33.8377 116.313 33.8377ZM122.873 32.1377C122.873 31.471 123.06 30.8977 123.433 30.4177C123.82 29.9244 124.347 29.5444 125.013 29.2777C125.68 29.011 126.453 28.8777 127.333 28.8777C127.8 28.8777 128.293 28.9177 128.813 28.9977C129.333 29.0644 129.793 29.171 130.193 29.3177V28.5577C130.193 27.7577 129.953 27.131 129.473 26.6777C128.993 26.211 128.313 25.9777 127.433 25.9777C126.86 25.9777 126.307 26.0844 125.773 26.2977C125.253 26.4977 124.7 26.791 124.113 27.1777L123.473 25.9377C124.153 25.471 124.833 25.1244 125.513 24.8977C126.193 24.6577 126.9 24.5377 127.633 24.5377C128.967 24.5377 130.02 24.911 130.793 25.6577C131.567 26.391 131.953 27.4177 131.953 28.7377V33.1577C131.953 33.371 131.993 33.531 132.073 33.6377C132.167 33.731 132.313 33.7844 132.513 33.7977V35.1577C132.34 35.1844 132.187 35.2044 132.053 35.2177C131.933 35.231 131.833 35.2377 131.753 35.2377C131.34 35.2377 131.027 35.1244 130.813 34.8977C130.613 34.671 130.5 34.431 130.473 34.1777L130.433 33.5177C129.98 34.1044 129.387 34.5577 128.653 34.8777C127.92 35.1977 127.193 35.3577 126.473 35.3577C125.78 35.3577 125.16 35.2177 124.613 34.9377C124.067 34.6444 123.64 34.2577 123.333 33.7777C123.027 33.2844 122.873 32.7377 122.873 32.1377ZM129.673 32.8777C129.833 32.691 129.96 32.5044 130.053 32.3177C130.147 32.1177 130.193 31.951 130.193 31.8177V30.5177C129.78 30.3577 129.347 30.2377 128.893 30.1577C128.44 30.0644 127.993 30.0177 127.553 30.0177C126.66 30.0177 125.933 30.1977 125.373 30.5577C124.827 30.9044 124.553 31.3844 124.553 31.9977C124.553 32.331 124.64 32.6577 124.813 32.9777C125 33.2844 125.267 33.5377 125.613 33.7377C125.973 33.9377 126.413 34.0377 126.933 34.0377C127.48 34.0377 128 33.931 128.493 33.7177C128.987 33.491 129.38 33.211 129.673 32.8777ZM139.688 35.3577C137.968 35.3577 136.668 34.8377 135.788 33.7977C134.908 32.7577 134.468 31.291 134.468 29.3977C134.468 28.1044 134.574 27.0177 134.788 26.1377C135.001 25.2444 135.321 24.511 135.748 23.9377C136.174 23.351 136.701 22.8777 137.328 22.5177C137.954 22.1444 138.674 21.8377 139.488 21.5977L143.908 20.2577L144.008 21.7777L139.708 23.0777C138.974 23.3177 138.361 23.6244 137.868 23.9977C137.374 24.371 136.988 24.851 136.708 25.4377C136.428 26.0244 136.241 26.7777 136.148 27.6977C136.494 26.991 137.014 26.4444 137.708 26.0577C138.401 25.6577 139.208 25.4577 140.128 25.4577C141.114 25.4577 141.961 25.6644 142.668 26.0777C143.388 26.4777 143.934 27.0444 144.308 27.7777C144.694 28.4977 144.888 29.331 144.888 30.2777C144.888 31.291 144.688 32.1777 144.288 32.9377C143.888 33.6977 143.301 34.291 142.528 34.7177C141.754 35.1444 140.808 35.3577 139.688 35.3577ZM139.688 33.8377C140.768 33.8377 141.601 33.5244 142.188 32.8977C142.788 32.2577 143.088 31.411 143.088 30.3577C143.088 29.331 142.794 28.4977 142.208 27.8577C141.621 27.2177 140.781 26.8977 139.688 26.8977C139.048 26.8977 138.468 27.031 137.948 27.2977C137.441 27.5644 137.034 27.9577 136.728 28.4777C136.434 28.9844 136.288 29.611 136.288 30.3577C136.288 31.0244 136.414 31.6244 136.668 32.1577C136.934 32.6777 137.321 33.091 137.828 33.3977C138.334 33.691 138.954 33.8377 139.688 33.8377ZM151.593 35.3577C150.807 35.3577 150.093 35.2177 149.453 34.9377C148.813 34.6444 148.26 34.251 147.793 33.7577C147.327 33.251 146.967 32.671 146.713 32.0177C146.46 31.3644 146.333 30.6777 146.333 29.9577C146.333 29.2244 146.46 28.531 146.713 27.8777C146.967 27.2244 147.327 26.651 147.793 26.1577C148.26 25.651 148.813 25.2577 149.453 24.9777C150.107 24.6844 150.82 24.5377 151.593 24.5377C152.38 24.5377 153.093 24.6844 153.733 24.9777C154.373 25.2577 154.927 25.651 155.393 26.1577C155.873 26.651 156.24 27.2244 156.493 27.8777C156.747 28.531 156.873 29.2244 156.873 29.9577C156.873 30.6777 156.747 31.3644 156.493 32.0177C156.24 32.671 155.88 33.251 155.413 33.7577C154.947 34.251 154.387 34.6444 153.733 34.9377C153.093 35.2177 152.38 35.3577 151.593 35.3577ZM148.133 29.9777C148.133 30.6977 148.287 31.351 148.593 31.9377C148.913 32.5244 149.333 32.991 149.853 33.3377C150.373 33.671 150.953 33.8377 151.593 33.8377C152.233 33.8377 152.813 33.6644 153.333 33.3177C153.867 32.971 154.287 32.5044 154.593 31.9177C154.913 31.3177 155.073 30.6577 155.073 29.9377C155.073 29.2177 154.913 28.5644 154.593 27.9777C154.287 27.391 153.867 26.9244 153.333 26.5777C152.813 26.231 152.233 26.0577 151.593 26.0577C150.953 26.0577 150.373 26.2377 149.853 26.5977C149.333 26.9444 148.913 27.411 148.593 27.9977C148.287 28.5844 148.133 29.2444 148.133 29.9777ZM161.546 35.1577V26.2777H157.946V24.7177H166.906V26.2777H163.306V35.1577H161.546ZM168.654 35.1577V24.7177H170.414V29.0177H171.574L174.854 24.7177H176.854L172.954 29.7777L177.314 35.1577H175.274L171.574 30.6377H170.414V35.1577H168.654ZM178.225 32.1377C178.225 31.471 178.412 30.8977 178.785 30.4177C179.172 29.9244 179.698 29.5444 180.365 29.2777C181.032 29.011 181.805 28.8777 182.685 28.8777C183.152 28.8777 183.645 28.9177 184.165 28.9977C184.685 29.0644 185.145 29.171 185.545 29.3177V28.5577C185.545 27.7577 185.305 27.131 184.825 26.6777C184.345 26.211 183.665 25.9777 182.785 25.9777C182.212 25.9777 181.658 26.0844 181.125 26.2977C180.605 26.4977 180.052 26.791 179.465 27.1777L178.825 25.9377C179.505 25.471 180.185 25.1244 180.865 24.8977C181.545 24.6577 182.252 24.5377 182.985 24.5377C184.318 24.5377 185.372 24.911 186.145 25.6577C186.918 26.391 187.305 27.4177 187.305 28.7377V33.1577C187.305 33.371 187.345 33.531 187.425 33.6377C187.518 33.731 187.665 33.7844 187.865 33.7977V35.1577C187.692 35.1844 187.538 35.2044 187.405 35.2177C187.285 35.231 187.185 35.2377 187.105 35.2377C186.692 35.2377 186.378 35.1244 186.165 34.8977C185.965 34.671 185.852 34.431 185.825 34.1777L185.785 33.5177C185.332 34.1044 184.738 34.5577 184.005 34.8777C183.272 35.1977 182.545 35.3577 181.825 35.3577C181.132 35.3577 180.512 35.2177 179.965 34.9377C179.418 34.6444 178.992 34.2577 178.685 33.7777C178.378 33.2844 178.225 32.7377 178.225 32.1377ZM185.025 32.8777C185.185 32.691 185.312 32.5044 185.405 32.3177C185.498 32.1177 185.545 31.951 185.545 31.8177V30.5177C185.132 30.3577 184.698 30.2377 184.245 30.1577C183.792 30.0644 183.345 30.0177 182.905 30.0177C182.012 30.0177 181.285 30.1977 180.725 30.5577C180.178 30.9044 179.905 31.3844 179.905 31.9977C179.905 32.331 179.992 32.6577 180.165 32.9777C180.352 33.2844 180.618 33.5377 180.965 33.7377C181.325 33.9377 181.765 34.0377 182.285 34.0377C182.832 34.0377 183.352 33.931 183.845 33.7177C184.338 33.491 184.732 33.211 185.025 32.8777ZM199.798 35.3577C199.011 35.3577 198.291 35.2177 197.638 34.9377C196.998 34.6444 196.438 34.2444 195.958 33.7377C195.491 33.231 195.124 32.651 194.858 31.9977C194.604 31.3444 194.478 30.651 194.478 29.9177C194.478 28.931 194.698 28.031 195.138 27.2177C195.578 26.4044 196.198 25.7577 196.998 25.2777C197.798 24.7844 198.724 24.5377 199.778 24.5377C200.804 24.5377 201.698 24.771 202.458 25.2377C203.231 25.691 203.804 26.3044 204.178 27.0777L202.458 27.6177C202.191 27.1244 201.818 26.7444 201.338 26.4777C200.858 26.1977 200.324 26.0577 199.738 26.0577C199.098 26.0577 198.511 26.2244 197.978 26.5577C197.458 26.891 197.044 27.351 196.738 27.9377C196.431 28.511 196.278 29.171 196.278 29.9177C196.278 30.651 196.431 31.3177 196.738 31.9177C197.058 32.5044 197.478 32.971 197.998 33.3177C198.531 33.6644 199.118 33.8377 199.758 33.8377C200.171 33.8377 200.564 33.7644 200.938 33.6177C201.324 33.471 201.658 33.2777 201.938 33.0377C202.231 32.7844 202.431 32.511 202.538 32.2177L204.258 32.7377C204.044 33.2444 203.718 33.6977 203.278 34.0977C202.851 34.4844 202.338 34.791 201.738 35.0177C201.151 35.2444 200.504 35.3577 199.798 35.3577ZM205.432 32.1377C205.432 31.471 205.619 30.8977 205.992 30.4177C206.379 29.9244 206.905 29.5444 207.572 29.2777C208.239 29.011 209.012 28.8777 209.892 28.8777C210.359 28.8777 210.852 28.9177 211.372 28.9977C211.892 29.0644 212.352 29.171 212.752 29.3177V28.5577C212.752 27.7577 212.512 27.131 212.032 26.6777C211.552 26.211 210.872 25.9777 209.992 25.9777C209.419 25.9777 208.865 26.0844 208.332 26.2977C207.812 26.4977 207.259 26.791 206.672 27.1777L206.032 25.9377C206.712 25.471 207.392 25.1244 208.072 24.8977C208.752 24.6577 209.459 24.5377 210.192 24.5377C211.525 24.5377 212.579 24.911 213.352 25.6577C214.125 26.391 214.512 27.4177 214.512 28.7377V33.1577C214.512 33.371 214.552 33.531 214.632 33.6377C214.725 33.731 214.872 33.7844 215.072 33.7977V35.1577C214.899 35.1844 214.745 35.2044 214.612 35.2177C214.492 35.231 214.392 35.2377 214.312 35.2377C213.899 35.2377 213.585 35.1244 213.372 34.8977C213.172 34.671 213.059 34.431 213.032 34.1777L212.992 33.5177C212.539 34.1044 211.945 34.5577 211.212 34.8777C210.479 35.1977 209.752 35.3577 209.032 35.3577C208.339 35.3577 207.719 35.2177 207.172 34.9377C206.625 34.6444 206.199 34.2577 205.892 33.7777C205.585 33.2844 205.432 32.7377 205.432 32.1377ZM212.232 32.8777C212.392 32.691 212.519 32.5044 212.612 32.3177C212.705 32.1177 212.752 31.951 212.752 31.8177V30.5177C212.339 30.3577 211.905 30.2377 211.452 30.1577C210.999 30.0644 210.552 30.0177 210.112 30.0177C209.219 30.0177 208.492 30.1977 207.932 30.5577C207.385 30.9044 207.112 31.3844 207.112 31.9977C207.112 32.331 207.199 32.6577 207.372 32.9777C207.559 33.2844 207.825 33.5377 208.172 33.7377C208.532 33.9377 208.972 34.0377 209.492 34.0377C210.039 34.0377 210.559 33.931 211.052 33.7177C211.545 33.491 211.939 33.211 212.232 32.8777ZM217.306 35.1577V24.7377H219.066V32.7977L224.906 24.7177H226.506V35.1577H224.746V27.2577L218.986 35.1577H217.306ZM221.926 23.5377C220.966 23.5377 220.24 23.311 219.746 22.8577C219.253 22.391 219.006 21.8177 219.006 21.1377H220.246C220.246 21.511 220.373 21.8244 220.626 22.0777C220.893 22.3177 221.326 22.4377 221.926 22.4377C222.513 22.4377 222.926 22.3244 223.166 22.0977C223.406 21.8577 223.553 21.5377 223.606 21.1377H224.846C224.846 21.8177 224.6 22.391 224.106 22.8577C223.613 23.311 222.886 23.5377 221.926 23.5377ZM231.858 35.1577V26.2777H228.258V24.7177H237.218V26.2777H233.618V35.1577H231.858ZM243.546 35.3577C242.76 35.3577 242.046 35.2177 241.406 34.9377C240.766 34.6444 240.213 34.251 239.746 33.7577C239.28 33.251 238.92 32.671 238.666 32.0177C238.413 31.3644 238.286 30.6777 238.286 29.9577C238.286 29.2244 238.413 28.531 238.666 27.8777C238.92 27.2244 239.28 26.651 239.746 26.1577C240.213 25.651 240.766 25.2577 241.406 24.9777C242.06 24.6844 242.773 24.5377 243.546 24.5377C244.333 24.5377 245.046 24.6844 245.686 24.9777C246.326 25.2577 246.88 25.651 247.346 26.1577C247.826 26.651 248.193 27.2244 248.446 27.8777C248.7 28.531 248.826 29.2244 248.826 29.9577C248.826 30.6777 248.7 31.3644 248.446 32.0177C248.193 32.671 247.833 33.251 247.366 33.7577C246.9 34.251 246.34 34.6444 245.686 34.9377C245.046 35.2177 244.333 35.3577 243.546 35.3577ZM240.086 29.9777C240.086 30.6977 240.24 31.351 240.546 31.9377C240.866 32.5244 241.286 32.991 241.806 33.3377C242.326 33.671 242.906 33.8377 243.546 33.8377C244.186 33.8377 244.766 33.6644 245.286 33.3177C245.82 32.971 246.24 32.5044 246.546 31.9177C246.866 31.3177 247.026 30.6577 247.026 29.9377C247.026 29.2177 246.866 28.5644 246.546 27.9777C246.24 27.391 245.82 26.9244 245.286 26.5777C244.766 26.231 244.186 26.0577 243.546 26.0577C242.906 26.0577 242.326 26.2377 241.806 26.5977C241.286 26.9444 240.866 27.411 240.546 27.9977C240.24 28.5844 240.086 29.2444 240.086 29.9777ZM250.939 35.1577V24.7177H256.339C256.966 24.7177 257.486 24.8444 257.899 25.0977C258.312 25.3377 258.619 25.651 258.819 26.0377C259.032 26.4244 259.139 26.8377 259.139 27.2777C259.139 27.8377 259.006 28.3444 258.739 28.7977C258.472 29.2377 258.086 29.571 257.579 29.7977C258.179 29.971 258.666 30.2844 259.039 30.7377C259.412 31.1777 259.599 31.7244 259.599 32.3777C259.599 32.9644 259.459 33.4644 259.179 33.8777C258.899 34.291 258.506 34.611 257.999 34.8377C257.492 35.051 256.906 35.1577 256.239 35.1577H250.939ZM252.619 33.9177H256.199C256.519 33.9177 256.806 33.8377 257.059 33.6777C257.326 33.5177 257.532 33.3044 257.679 33.0377C257.826 32.771 257.899 32.491 257.899 32.1977C257.899 31.8777 257.826 31.591 257.679 31.3377C257.546 31.071 257.352 30.8644 257.099 30.7177C256.859 30.5577 256.579 30.4777 256.259 30.4777H252.619V33.9177ZM252.619 29.3177H255.879C256.199 29.3177 256.479 29.2377 256.719 29.0777C256.959 28.9044 257.146 28.6844 257.279 28.4177C257.412 28.151 257.479 27.871 257.479 27.5777C257.479 27.1377 257.332 26.7577 257.039 26.4377C256.759 26.1177 256.392 25.9577 255.939 25.9577H252.619V29.3177Z" fill="black"/>
<defs>
<filter id="filter0_d_309_124" x="0" y="0" width="299" height="65" filterUnits="userSpaceOnUse" color-interpolation-filters="sRGB">
<feFlood flood-opacity="0" result="BackgroundImageFix"/>
<feColorMatrix in="SourceAlpha" type="matrix" values="0 0 0 0 0 0 0 0 0 0 0 0 0 0 0 0 0 0 127 0" result="hardAlpha"/>
<feOffset dy="5"/>
<feGaussianBlur stdDeviation="2.5"/>
<feComposite in2="hardAlpha" operator="out"/>
<feColorMatrix type="matrix" values="0 0 0 0 1 0 0 0 0 1 0 0 0 0 1 0 0 0 0.25 0"/>
<feBlend mode="normal" in2="BackgroundImageFix" result="effect1_dropShadow_309_124"/>
<feBlend mode="normal" in="SourceGraphic" in2="effect1_dropShadow_309_124" result="shape"/>
</filter>
</defs>
</svg>
