<svg width="270" height="84" viewBox="0 0 270 84" fill="none" xmlns="http://www.w3.org/2000/svg">
<g filter="url(#filter0_d_330_329)">
<rect x="5.5" y="0.345703" width="259" height="72.9327" rx="36.4664" fill="white"/>
</g>
<path d="M125.528 36.336C125.528 35.296 125.72 34.28 126.104 33.288C126.504 32.28 127.08 31.368 127.832 30.552C128.584 29.736 129.496 29.088 130.568 28.608C131.656 28.112 132.88 27.864 134.24 27.864C135.872 27.864 137.296 28.208 138.512 28.896C139.728 29.568 140.632 30.464 141.224 31.584L137.648 34.128C137.44 33.568 137.136 33.136 136.736 32.832C136.352 32.528 135.928 32.32 135.464 32.208C135.016 32.08 134.576 32.016 134.144 32.016C133.472 32.016 132.888 32.152 132.392 32.424C131.912 32.68 131.512 33.024 131.192 33.456C130.888 33.888 130.656 34.368 130.496 34.896C130.352 35.424 130.28 35.952 130.28 36.48C130.28 37.072 130.368 37.64 130.544 38.184C130.72 38.728 130.976 39.216 131.312 39.648C131.648 40.064 132.056 40.392 132.536 40.632C133.032 40.872 133.584 40.992 134.192 40.992C134.624 40.992 135.064 40.928 135.512 40.8C135.96 40.656 136.368 40.432 136.736 40.128C137.104 39.824 137.384 39.416 137.576 38.904L141.392 41.184C141.056 42.016 140.496 42.728 139.712 43.32C138.928 43.912 138.04 44.368 137.048 44.688C136.056 44.992 135.072 45.144 134.096 45.144C132.832 45.144 131.672 44.896 130.616 44.4C129.576 43.888 128.672 43.216 127.904 42.384C127.152 41.536 126.568 40.592 126.152 39.552C125.736 38.496 125.528 37.424 125.528 36.336ZM150.81 34.68V38.28H148.77V40.56H144.69V38.28H142.65V34.68H144.69V32.4H148.77V34.68H150.81ZM161.075 34.68V38.28H159.035V40.56H154.955V38.28H152.915V34.68H154.955V32.4H159.035V34.68H161.075Z" fill="black"/>
<g clip-path="url(#clip0_330_329)">
<path d="M85.9158 25.5469C85.9154 24.6035 85.7137 23.7699 85.3057 23.0545C84.9049 22.351 84.3047 21.7613 83.4996 21.2951C76.8541 17.4633 70.2021 13.6431 63.5588 9.8074C61.7678 8.77341 60.0312 8.81111 58.2535 9.85994C55.6084 11.4199 42.3652 19.0072 38.4189 21.2929C36.7938 22.2338 36.0029 23.6736 36.0025 25.5451C36 33.2511 36.0025 40.957 36 48.6633C36.0004 49.5859 36.1936 50.4033 36.5836 51.108C36.9846 51.8328 37.5932 52.4386 38.4168 52.9154C42.3633 55.2011 55.6082 62.7879 58.2527 64.3482C60.0312 65.3976 61.7678 65.4351 63.5594 64.4008C70.2029 60.5648 76.8553 56.7449 83.5018 52.9131C84.3254 52.4365 84.934 51.8302 85.335 51.106C85.7244 50.4013 85.918 49.584 85.9184 48.6611C85.9184 48.6611 85.9184 33.2531 85.9158 25.5469Z" fill="#5C8DBC"/>
<path d="M61.0354 37.0291L36.5835 51.108C36.9845 51.8328 37.5931 52.4386 38.4167 52.9154C42.3632 55.2011 55.6081 62.7878 58.2526 64.3482C60.0312 65.3976 61.7677 65.4351 63.5593 64.4007C70.2028 60.5648 76.8552 56.7449 83.5017 52.913C84.3253 52.4365 84.9339 51.8302 85.3349 51.106L61.0354 37.0291Z" fill="#1A4674"/>
<path d="M53.793 41.1994C55.2158 43.6833 57.8906 45.3587 60.959 45.3587C64.0463 45.3587 66.7363 43.6621 68.152 41.1515L61.0354 37.0291L53.793 41.1994Z" fill="#1A4674"/>
<path d="M85.9159 25.5468C85.9155 24.6035 85.7138 23.7699 85.3058 23.0544L61.0356 37.0291L85.3351 51.106C85.7245 50.4013 85.9181 49.5839 85.9185 48.6611C85.9185 48.6611 85.9185 33.2531 85.9159 25.5468Z" fill="#1B598E"/>
<path d="M84.5796 38.0353H82.6808V39.9345H80.7815V38.0353H78.8829V36.1366H80.7815V34.2378H82.6808V36.1366H84.5796V38.0353ZM77.6509 38.0353H75.7522V39.9345H73.8534V38.0353H71.9546V36.1366H73.8534V34.2378H75.7522V36.1366H77.6509V38.0353Z" fill="white"/>
<path d="M68.152 41.1515C66.7363 43.6621 64.0463 45.3587 60.959 45.3587C57.8906 45.3587 55.2158 43.6833 53.793 41.1994C53.0782 39.9529 52.7028 38.5409 52.7043 37.1041C52.7043 32.5453 56.4002 28.8496 60.959 28.8496C64.0076 28.8496 66.6684 30.5041 68.0982 32.9626L75.3133 28.808C72.4455 23.8576 67.0914 20.5271 60.959 20.5271C51.8035 20.5271 44.3818 27.949 44.3818 37.1041C44.3818 40.1076 45.1809 42.9242 46.5773 45.3537C49.4379 50.3302 54.8072 53.6812 60.959 53.6812C67.1221 53.6812 72.4998 50.3167 75.3563 45.3255L68.152 41.1515Z" fill="white"/>
</g>
<defs>
<filter id="filter0_d_330_329" x="0.5" y="0.345703" width="269" height="82.9326" filterUnits="userSpaceOnUse" color-interpolation-filters="sRGB">
<feFlood flood-opacity="0" result="BackgroundImageFix"/>
<feColorMatrix in="SourceAlpha" type="matrix" values="0 0 0 0 0 0 0 0 0 0 0 0 0 0 0 0 0 0 127 0" result="hardAlpha"/>
<feOffset dy="5"/>
<feGaussianBlur stdDeviation="2.5"/>
<feComposite in2="hardAlpha" operator="out"/>
<feColorMatrix type="matrix" values="0 0 0 0 0 0 0 0 0 0 0 0 0 0 0 0 0 0 0.25 0"/>
<feBlend mode="normal" in2="BackgroundImageFix" result="effect1_dropShadow_330_329"/>
<feBlend mode="normal" in="SourceGraphic" in2="effect1_dropShadow_330_329" result="shape"/>
</filter>
<clipPath id="clip0_330_329">
<rect width="50" height="56.2556" fill="white" transform="translate(36 9)"/>
</clipPath>
</defs>
</svg>
