<svg width="270" height="84" viewBox="0 0 270 84" fill="none" xmlns="http://www.w3.org/2000/svg">
<g filter="url(#filter0_d_330_330)">
<rect x="5.5" y="0.345703" width="259" height="72.9327" rx="36.4664" fill="white"/>
</g>
<path d="M120.528 36.336C120.528 35.296 120.72 34.28 121.104 33.288C121.504 32.28 122.08 31.368 122.832 30.552C123.584 29.736 124.496 29.088 125.568 28.608C126.656 28.112 127.88 27.864 129.24 27.864C130.872 27.864 132.296 28.208 133.512 28.896C134.728 29.568 135.632 30.464 136.224 31.584L132.648 34.128C132.44 33.568 132.136 33.136 131.736 32.832C131.352 32.528 130.928 32.32 130.464 32.208C130.016 32.08 129.576 32.016 129.144 32.016C128.472 32.016 127.888 32.152 127.392 32.424C126.912 32.68 126.512 33.024 126.192 33.456C125.888 33.888 125.656 34.368 125.496 34.896C125.352 35.424 125.28 35.952 125.28 36.48C125.28 37.072 125.368 37.64 125.544 38.184C125.72 38.728 125.976 39.216 126.312 39.648C126.648 40.064 127.056 40.392 127.536 40.632C128.032 40.872 128.584 40.992 129.192 40.992C129.624 40.992 130.064 40.928 130.512 40.8C130.96 40.656 131.368 40.432 131.736 40.128C132.104 39.824 132.384 39.416 132.576 38.904L136.392 41.184C136.056 42.016 135.496 42.728 134.712 43.32C133.928 43.912 133.04 44.368 132.048 44.688C131.056 44.992 130.072 45.144 129.096 45.144C127.832 45.144 126.672 44.896 125.616 44.4C124.576 43.888 123.672 43.216 122.904 42.384C122.152 41.536 121.568 40.592 121.152 39.552C120.736 38.496 120.528 37.424 120.528 36.336ZM153.898 35.472H150.082L149.602 37.56H152.674V40.92H148.786L147.802 45H144.178L145.186 40.92H143.746L142.762 45H139.138L140.146 40.92H137.458V37.56H140.962L141.442 35.472H138.682V32.352H142.21L143.29 27.96H146.914L145.81 32.352H147.25L148.33 27.96H151.954L150.85 32.352H153.898V35.472ZM146.002 37.56L146.482 35.472H145.042L144.562 37.56H146.002Z" fill="black"/>
<path d="M80.6978 23.3751L62.9894 13.1251C62.3937 12.7823 61.7184 12.6019 61.0311 12.6019C60.3438 12.6019 59.6685 12.7823 59.0728 13.1251L41.3644 23.3751C40.7712 23.7188 40.2789 24.2126 39.937 24.8068C39.595 25.4011 39.4155 26.0749 39.4165 26.7605V47.2396C39.4155 47.9252 39.595 48.599 39.937 49.1933C40.2789 49.7875 40.7712 50.2813 41.3644 50.6251L59.0728 60.8751C59.6685 61.2178 60.3438 61.3982 61.0311 61.3982C61.7184 61.3982 62.3937 61.2178 62.9894 60.8751L80.6978 50.6251C81.291 50.2813 81.7833 49.7875 82.1252 49.1933C82.4671 48.599 82.6466 47.9252 82.6457 47.2396V26.7605C82.6466 26.0749 82.4671 25.4011 82.1252 24.8068C81.7833 24.2126 81.291 23.7188 80.6978 23.3751ZM60.6873 50.698C51.7811 50.698 47.2082 45.0313 47.2082 37.1563C47.2082 29.2813 52.4165 23.2188 61.0623 23.2188C70.7082 23.2188 73.3957 29.573 73.5623 32.5938H65.8123C65.3332 30.448 64.0103 28.9584 60.9165 28.9584C57.2915 28.9584 55.2394 31.8751 55.2394 36.9688C55.2394 42.5626 57.4165 45.1146 60.8853 45.1146C61.9704 45.1745 63.044 44.8653 63.931 44.2374C64.8181 43.6094 65.4665 42.6997 65.7707 41.6563H73.5519C72.5623 45.9792 69.2082 50.698 60.6873 50.698ZM78.8332 36.1146H77.7915L77.479 37.3959H78.3228V38.5521H77.2186L76.7707 40.4167H75.729L76.1873 38.5521H75.0311L74.5415 40.3751H73.4998L73.9582 38.5105H73.1457V37.3542H74.2498L74.5415 36.073H73.6561V34.9167H74.8228L75.2498 33.198H76.2915L75.9061 34.9167H77.0623L77.479 33.198H78.5207L78.0936 34.9167H78.8436L78.8332 36.1146Z" fill="black"/>
<path d="M75.3125 37.3542H76.4583L76.7708 36.073H75.625L75.3125 37.3542Z" fill="black"/>
<defs>
<filter id="filter0_d_330_330" x="0.5" y="0.345703" width="269" height="82.9326" filterUnits="userSpaceOnUse" color-interpolation-filters="sRGB">
<feFlood flood-opacity="0" result="BackgroundImageFix"/>
<feColorMatrix in="SourceAlpha" type="matrix" values="0 0 0 0 0 0 0 0 0 0 0 0 0 0 0 0 0 0 127 0" result="hardAlpha"/>
<feOffset dy="5"/>
<feGaussianBlur stdDeviation="2.5"/>
<feComposite in2="hardAlpha" operator="out"/>
<feColorMatrix type="matrix" values="0 0 0 0 0 0 0 0 0 0 0 0 0 0 0 0 0 0 0.25 0"/>
<feBlend mode="normal" in2="BackgroundImageFix" result="effect1_dropShadow_330_330"/>
<feBlend mode="normal" in="SourceGraphic" in2="effect1_dropShadow_330_330" result="shape"/>
</filter>
</defs>
</svg>
