<svg width="855" height="47" viewBox="0 0 855 47" fill="none" xmlns="http://www.w3.org/2000/svg">
<path d="M2.44 38L2.44 9.6H14.68C16.0667 9.6 17.3467 9.88 18.52 10.44C19.6933 11 20.7067 11.76 21.56 12.72C22.4133 13.6533 23.0667 14.7067 23.52 15.88C24 17.0533 24.24 18.24 24.24 19.44C24.24 21.12 23.84 22.7067 23.04 24.2C22.2667 25.6933 21.1733 26.92 19.76 27.88C18.3733 28.8133 16.7467 29.28 14.88 29.28H10.24V38H2.44ZM10.24 22.48H14.36C14.68 22.48 14.9867 22.3867 15.28 22.2C15.5733 22.0133 15.8133 21.6933 16 21.24C16.2133 20.7867 16.32 20.1867 16.32 19.44C16.32 18.64 16.2 18.0267 15.96 17.6C15.7467 17.1467 15.4667 16.84 15.12 16.68C14.8 16.4933 14.48 16.4 14.16 16.4H10.24V22.48ZM40.1619 38.24C38.0019 38.24 36.0419 37.84 34.2819 37.04C32.5219 36.2133 31.0019 35.12 29.7219 33.76C28.4685 32.3733 27.4952 30.8267 26.8019 29.12C26.1352 27.3867 25.8019 25.6 25.8019 23.76C25.8019 21.8667 26.1619 20.0667 26.8819 18.36C27.6019 16.6533 28.6019 15.1333 29.8819 13.8C31.1885 12.44 32.7219 11.3733 34.4819 10.6C36.2685 9.82666 38.2152 9.44 40.3219 9.44C42.4819 9.44 44.4419 9.85333 46.2019 10.68C47.9619 11.48 49.4685 12.5733 50.7219 13.96C51.9752 15.3467 52.9352 16.9067 53.6019 18.64C54.2952 20.3467 54.6419 22.1067 54.6419 23.92C54.6419 25.7867 54.2819 27.5733 53.5619 29.28C52.8685 30.9867 51.8685 32.52 50.5619 33.88C49.2819 35.2133 47.7619 36.28 46.0019 37.08C44.2419 37.8533 42.2952 38.24 40.1619 38.24ZM33.7219 23.84C33.7219 24.8 33.8552 25.7333 34.1219 26.64C34.3885 27.52 34.7885 28.32 35.3219 29.04C35.8552 29.7333 36.5219 30.2933 37.3219 30.72C38.1485 31.12 39.1219 31.32 40.2419 31.32C41.3619 31.32 42.3352 31.1067 43.1619 30.68C43.9885 30.2533 44.6552 29.68 45.1619 28.96C45.6952 28.2133 46.0819 27.4 46.3219 26.52C46.5885 25.6133 46.7219 24.6933 46.7219 23.76C46.7219 22.8 46.5885 21.88 46.3219 21C46.0552 20.12 45.6552 19.3333 45.1219 18.64C44.5885 17.92 43.9085 17.36 43.0819 16.96C42.2552 16.56 41.2952 16.36 40.2019 16.36C39.0819 16.36 38.1085 16.5733 37.2819 17C36.4819 17.4267 35.8152 18 35.2819 18.72C34.7485 19.4133 34.3485 20.2133 34.0819 21.12C33.8419 22 33.7219 22.9067 33.7219 23.84ZM58.1078 38V9.6H79.8278V16.28H65.9078V20.6H72.1478C75.4011 20.6 77.8678 21.36 79.5478 22.88C81.2278 24.4 82.0678 26.48 82.0678 29.12C82.0678 30.96 81.7078 32.5467 80.9878 33.88C80.2678 35.1867 79.2011 36.2 77.7878 36.92C76.4011 37.64 74.6545 38 72.5478 38L58.1078 38ZM65.9078 31.32H71.3878C72.0545 31.32 72.5745 31.2 72.9478 30.96C73.3478 30.72 73.6278 30.4133 73.7878 30.04C73.9745 29.6667 74.0678 29.28 74.0678 28.88C74.0678 28.48 73.9878 28.1067 73.8278 27.76C73.6945 27.3867 73.4278 27.0933 73.0278 26.88C72.6278 26.6667 72.0678 26.56 71.3478 26.56H65.9078V31.32ZM97.9744 38.24C95.8144 38.24 93.8544 37.84 92.0944 37.04C90.3344 36.2133 88.8144 35.12 87.5344 33.76C86.281 32.3733 85.3077 30.8267 84.6144 29.12C83.9477 27.3867 83.6144 25.6 83.6144 23.76C83.6144 21.8667 83.9744 20.0667 84.6944 18.36C85.4144 16.6533 86.4144 15.1333 87.6944 13.8C89.001 12.44 90.5344 11.3733 92.2944 10.6C94.081 9.82666 96.0277 9.44 98.1344 9.44C100.294 9.44 102.254 9.85333 104.014 10.68C105.774 11.48 107.281 12.5733 108.534 13.96C109.788 15.3467 110.748 16.9067 111.414 18.64C112.108 20.3467 112.454 22.1067 112.454 23.92C112.454 25.7867 112.094 27.5733 111.374 29.28C110.681 30.9867 109.681 32.52 108.374 33.88C107.094 35.2133 105.574 36.28 103.814 37.08C102.054 37.8533 100.108 38.24 97.9744 38.24ZM91.5344 23.84C91.5344 24.8 91.6677 25.7333 91.9344 26.64C92.201 27.52 92.601 28.32 93.1344 29.04C93.6677 29.7333 94.3344 30.2933 95.1344 30.72C95.961 31.12 96.9344 31.32 98.0544 31.32C99.1744 31.32 100.148 31.1067 100.974 30.68C101.801 30.2533 102.468 29.68 102.974 28.96C103.508 28.2133 103.894 27.4 104.134 26.52C104.401 25.6133 104.534 24.6933 104.534 23.76C104.534 22.8 104.401 21.88 104.134 21C103.868 20.12 103.468 19.3333 102.934 18.64C102.401 17.92 101.721 17.36 100.894 16.96C100.068 16.56 99.1077 16.36 98.0144 16.36C96.8944 16.36 95.921 16.5733 95.0944 17C94.2944 17.4267 93.6277 18 93.0944 18.72C92.561 19.4133 92.161 20.2133 91.8944 21.12C91.6544 22 91.5344 22.9067 91.5344 23.84ZM137.451 16.4H129.291V38H121.491V16.4H113.291V9.6H137.451V16.4ZM140.452 38V9.6L148.252 9.6V26.88L158.732 9.6H166.012V38H158.212V20.72L147.852 38H140.452ZM171.194 38V9.6L178.954 9.6V20.04H180.554L187.874 9.6H196.434L186.434 23.32L197.354 38L187.914 38L180.234 27.12H178.954V38H171.194Z" fill="black"/>
<path d="M221.44 38V9.6H233.68C235.067 9.6 236.347 9.88 237.52 10.44C238.693 11 239.707 11.76 240.56 12.72C241.413 13.6533 242.067 14.7067 242.52 15.88C243 17.0533 243.24 18.24 243.24 19.44C243.24 21.12 242.84 22.7067 242.04 24.2C241.267 25.6933 240.173 26.92 238.76 27.88C237.373 28.8133 235.747 29.28 233.88 29.28H229.24V38H221.44ZM229.24 22.48H233.36C233.68 22.48 233.987 22.3867 234.28 22.2C234.573 22.0133 234.813 21.6933 235 21.24C235.213 20.7867 235.32 20.1867 235.32 19.44C235.32 18.64 235.2 18.0267 234.96 17.6C234.747 17.1467 234.467 16.84 234.12 16.68C233.8 16.4933 233.48 16.4 233.16 16.4H229.24V22.48ZM259.162 38.24C257.002 38.24 255.042 37.84 253.282 37.04C251.522 36.2133 250.002 35.12 248.722 33.76C247.469 32.3733 246.495 30.8267 245.802 29.12C245.135 27.3867 244.802 25.6 244.802 23.76C244.802 21.8667 245.162 20.0667 245.882 18.36C246.602 16.6533 247.602 15.1333 248.882 13.8C250.189 12.44 251.722 11.3733 253.482 10.6C255.269 9.82666 257.215 9.44 259.322 9.44C261.482 9.44 263.442 9.85333 265.202 10.68C266.962 11.48 268.469 12.5733 269.722 13.96C270.975 15.3467 271.935 16.9067 272.602 18.64C273.295 20.3467 273.642 22.1067 273.642 23.92C273.642 25.7867 273.282 27.5733 272.562 29.28C271.869 30.9867 270.869 32.52 269.562 33.88C268.282 35.2133 266.762 36.28 265.002 37.08C263.242 37.8533 261.295 38.24 259.162 38.24ZM252.722 23.84C252.722 24.8 252.855 25.7333 253.122 26.64C253.389 27.52 253.789 28.32 254.322 29.04C254.855 29.7333 255.522 30.2933 256.322 30.72C257.149 31.12 258.122 31.32 259.242 31.32C260.362 31.32 261.335 31.1067 262.162 30.68C262.989 30.2533 263.655 29.68 264.162 28.96C264.695 28.2133 265.082 27.4 265.322 26.52C265.589 25.6133 265.722 24.6933 265.722 23.76C265.722 22.8 265.589 21.88 265.322 21C265.055 20.12 264.655 19.3333 264.122 18.64C263.589 17.92 262.909 17.36 262.082 16.96C261.255 16.56 260.295 16.36 259.202 16.36C258.082 16.36 257.109 16.5733 256.282 17C255.482 17.4267 254.815 18 254.282 18.72C253.749 19.4133 253.349 20.2133 253.082 21.12C252.842 22 252.722 22.9067 252.722 23.84ZM277.108 38V9.6H298.828V16.28H284.908V20.6H291.148C294.401 20.6 296.868 21.36 298.548 22.88C300.228 24.4 301.068 26.48 301.068 29.12C301.068 30.96 300.708 32.5467 299.988 33.88C299.268 35.1867 298.201 36.2 296.788 36.92C295.401 37.64 293.654 38 291.548 38L277.108 38ZM284.908 31.32H290.388C291.054 31.32 291.574 31.2 291.948 30.96C292.348 30.72 292.628 30.4133 292.788 30.04C292.974 29.6667 293.068 29.28 293.068 28.88C293.068 28.48 292.988 28.1067 292.828 27.76C292.694 27.3867 292.428 27.0933 292.028 26.88C291.628 26.6667 291.068 26.56 290.348 26.56H284.908V31.32ZM316.974 38.24C314.814 38.24 312.854 37.84 311.094 37.04C309.334 36.2133 307.814 35.12 306.534 33.76C305.281 32.3733 304.308 30.8267 303.614 29.12C302.948 27.3867 302.614 25.6 302.614 23.76C302.614 21.8667 302.974 20.0667 303.694 18.36C304.414 16.6533 305.414 15.1333 306.694 13.8C308.001 12.44 309.534 11.3733 311.294 10.6C313.081 9.82666 315.028 9.44 317.134 9.44C319.294 9.44 321.254 9.85333 323.014 10.68C324.774 11.48 326.281 12.5733 327.534 13.96C328.788 15.3467 329.748 16.9067 330.414 18.64C331.108 20.3467 331.454 22.1067 331.454 23.92C331.454 25.7867 331.094 27.5733 330.374 29.28C329.681 30.9867 328.681 32.52 327.374 33.88C326.094 35.2133 324.574 36.28 322.814 37.08C321.054 37.8533 319.108 38.24 316.974 38.24ZM310.534 23.84C310.534 24.8 310.668 25.7333 310.934 26.64C311.201 27.52 311.601 28.32 312.134 29.04C312.668 29.7333 313.334 30.2933 314.134 30.72C314.961 31.12 315.934 31.32 317.054 31.32C318.174 31.32 319.148 31.1067 319.974 30.68C320.801 30.2533 321.468 29.68 321.974 28.96C322.508 28.2133 322.894 27.4 323.134 26.52C323.401 25.6133 323.534 24.6933 323.534 23.76C323.534 22.8 323.401 21.88 323.134 21C322.868 20.12 322.468 19.3333 321.934 18.64C321.401 17.92 320.721 17.36 319.894 16.96C319.068 16.56 318.108 16.36 317.014 16.36C315.894 16.36 314.921 16.5733 314.094 17C313.294 17.4267 312.628 18 312.094 18.72C311.561 19.4133 311.161 20.2133 310.894 21.12C310.654 22 310.534 22.9067 310.534 23.84ZM356.451 16.4H348.291V38H340.491V16.4H332.291V9.6H356.451V16.4ZM359.452 38V9.6L367.252 9.6V26.88L377.732 9.6H385.012V38H377.212V20.72L366.852 38H359.452ZM390.194 38V9.6L397.954 9.6V20.04H399.554L406.874 9.6H415.434L405.434 23.32L416.354 38L406.914 38L399.234 27.12H397.954V38H390.194Z" fill="#00B3FF"/>
<path d="M440.44 38V9.6H452.68C454.067 9.6 455.347 9.88 456.52 10.44C457.693 11 458.707 11.76 459.56 12.72C460.413 13.6533 461.067 14.7067 461.52 15.88C462 17.0533 462.24 18.24 462.24 19.44C462.24 21.12 461.84 22.7067 461.04 24.2C460.267 25.6933 459.173 26.92 457.76 27.88C456.373 28.8133 454.747 29.28 452.88 29.28H448.24V38H440.44ZM448.24 22.48H452.36C452.68 22.48 452.987 22.3867 453.28 22.2C453.573 22.0133 453.813 21.6933 454 21.24C454.213 20.7867 454.32 20.1867 454.32 19.44C454.32 18.64 454.2 18.0267 453.96 17.6C453.747 17.1467 453.467 16.84 453.12 16.68C452.8 16.4933 452.48 16.4 452.16 16.4H448.24V22.48ZM478.162 38.24C476.002 38.24 474.042 37.84 472.282 37.04C470.522 36.2133 469.002 35.12 467.722 33.76C466.469 32.3733 465.495 30.8267 464.802 29.12C464.135 27.3867 463.802 25.6 463.802 23.76C463.802 21.8667 464.162 20.0667 464.882 18.36C465.602 16.6533 466.602 15.1333 467.882 13.8C469.189 12.44 470.722 11.3733 472.482 10.6C474.269 9.82666 476.215 9.44 478.322 9.44C480.482 9.44 482.442 9.85333 484.202 10.68C485.962 11.48 487.469 12.5733 488.722 13.96C489.975 15.3467 490.935 16.9067 491.602 18.64C492.295 20.3467 492.642 22.1067 492.642 23.92C492.642 25.7867 492.282 27.5733 491.562 29.28C490.869 30.9867 489.869 32.52 488.562 33.88C487.282 35.2133 485.762 36.28 484.002 37.08C482.242 37.8533 480.295 38.24 478.162 38.24ZM471.722 23.84C471.722 24.8 471.855 25.7333 472.122 26.64C472.389 27.52 472.789 28.32 473.322 29.04C473.855 29.7333 474.522 30.2933 475.322 30.72C476.149 31.12 477.122 31.32 478.242 31.32C479.362 31.32 480.335 31.1067 481.162 30.68C481.989 30.2533 482.655 29.68 483.162 28.96C483.695 28.2133 484.082 27.4 484.322 26.52C484.589 25.6133 484.722 24.6933 484.722 23.76C484.722 22.8 484.589 21.88 484.322 21C484.055 20.12 483.655 19.3333 483.122 18.64C482.589 17.92 481.909 17.36 481.082 16.96C480.255 16.56 479.295 16.36 478.202 16.36C477.082 16.36 476.109 16.5733 475.282 17C474.482 17.4267 473.815 18 473.282 18.72C472.749 19.4133 472.349 20.2133 472.082 21.12C471.842 22 471.722 22.9067 471.722 23.84ZM496.108 38V9.6H517.828V16.28H503.908V20.6H510.148C513.401 20.6 515.868 21.36 517.548 22.88C519.228 24.4 520.068 26.48 520.068 29.12C520.068 30.96 519.708 32.5467 518.988 33.88C518.268 35.1867 517.201 36.2 515.788 36.92C514.401 37.64 512.654 38 510.548 38L496.108 38ZM503.908 31.32H509.388C510.054 31.32 510.574 31.2 510.948 30.96C511.348 30.72 511.628 30.4133 511.788 30.04C511.974 29.6667 512.068 29.28 512.068 28.88C512.068 28.48 511.988 28.1067 511.828 27.76C511.694 27.3867 511.428 27.0933 511.028 26.88C510.628 26.6667 510.068 26.56 509.348 26.56H503.908V31.32ZM535.974 38.24C533.814 38.24 531.854 37.84 530.094 37.04C528.334 36.2133 526.814 35.12 525.534 33.76C524.281 32.3733 523.308 30.8267 522.614 29.12C521.948 27.3867 521.614 25.6 521.614 23.76C521.614 21.8667 521.974 20.0667 522.694 18.36C523.414 16.6533 524.414 15.1333 525.694 13.8C527.001 12.44 528.534 11.3733 530.294 10.6C532.081 9.82666 534.028 9.44 536.134 9.44C538.294 9.44 540.254 9.85333 542.014 10.68C543.774 11.48 545.281 12.5733 546.534 13.96C547.788 15.3467 548.748 16.9067 549.414 18.64C550.108 20.3467 550.454 22.1067 550.454 23.92C550.454 25.7867 550.094 27.5733 549.374 29.28C548.681 30.9867 547.681 32.52 546.374 33.88C545.094 35.2133 543.574 36.28 541.814 37.08C540.054 37.8533 538.108 38.24 535.974 38.24ZM529.534 23.84C529.534 24.8 529.668 25.7333 529.934 26.64C530.201 27.52 530.601 28.32 531.134 29.04C531.668 29.7333 532.334 30.2933 533.134 30.72C533.961 31.12 534.934 31.32 536.054 31.32C537.174 31.32 538.148 31.1067 538.974 30.68C539.801 30.2533 540.468 29.68 540.974 28.96C541.508 28.2133 541.894 27.4 542.134 26.52C542.401 25.6133 542.534 24.6933 542.534 23.76C542.534 22.8 542.401 21.88 542.134 21C541.868 20.12 541.468 19.3333 540.934 18.64C540.401 17.92 539.721 17.36 538.894 16.96C538.068 16.56 537.108 16.36 536.014 16.36C534.894 16.36 533.921 16.5733 533.094 17C532.294 17.4267 531.628 18 531.094 18.72C530.561 19.4133 530.161 20.2133 529.894 21.12C529.654 22 529.534 22.9067 529.534 23.84ZM575.451 16.4H567.291V38H559.491V16.4H551.291V9.6H575.451V16.4ZM578.452 38V9.6L586.252 9.6V26.88L596.732 9.6H604.012V38H596.212V20.72L585.852 38H578.452ZM609.194 38V9.6L616.954 9.6V20.04H618.554L625.874 9.6H634.434L624.434 23.32L635.354 38L625.914 38L618.234 27.12H616.954V38H609.194Z" fill="black"/>
<path d="M659.44 38V9.6H671.68C673.067 9.6 674.347 9.88 675.52 10.44C676.693 11 677.707 11.76 678.56 12.72C679.413 13.6533 680.067 14.7067 680.52 15.88C681 17.0533 681.24 18.24 681.24 19.44C681.24 21.12 680.84 22.7067 680.04 24.2C679.267 25.6933 678.173 26.92 676.76 27.88C675.373 28.8133 673.747 29.28 671.88 29.28H667.24V38H659.44ZM667.24 22.48H671.36C671.68 22.48 671.987 22.3867 672.28 22.2C672.573 22.0133 672.813 21.6933 673 21.24C673.213 20.7867 673.32 20.1867 673.32 19.44C673.32 18.64 673.2 18.0267 672.96 17.6C672.747 17.1467 672.467 16.84 672.12 16.68C671.8 16.4933 671.48 16.4 671.16 16.4H667.24V22.48ZM697.162 38.24C695.002 38.24 693.042 37.84 691.282 37.04C689.522 36.2133 688.002 35.12 686.722 33.76C685.469 32.3733 684.495 30.8267 683.802 29.12C683.135 27.3867 682.802 25.6 682.802 23.76C682.802 21.8667 683.162 20.0667 683.882 18.36C684.602 16.6533 685.602 15.1333 686.882 13.8C688.189 12.44 689.722 11.3733 691.482 10.6C693.269 9.82666 695.215 9.44 697.322 9.44C699.482 9.44 701.442 9.85333 703.202 10.68C704.962 11.48 706.469 12.5733 707.722 13.96C708.975 15.3467 709.935 16.9067 710.602 18.64C711.295 20.3467 711.642 22.1067 711.642 23.92C711.642 25.7867 711.282 27.5733 710.562 29.28C709.869 30.9867 708.869 32.52 707.562 33.88C706.282 35.2133 704.762 36.28 703.002 37.08C701.242 37.8533 699.295 38.24 697.162 38.24ZM690.722 23.84C690.722 24.8 690.855 25.7333 691.122 26.64C691.389 27.52 691.789 28.32 692.322 29.04C692.855 29.7333 693.522 30.2933 694.322 30.72C695.149 31.12 696.122 31.32 697.242 31.32C698.362 31.32 699.335 31.1067 700.162 30.68C700.989 30.2533 701.655 29.68 702.162 28.96C702.695 28.2133 703.082 27.4 703.322 26.52C703.589 25.6133 703.722 24.6933 703.722 23.76C703.722 22.8 703.589 21.88 703.322 21C703.055 20.12 702.655 19.3333 702.122 18.64C701.589 17.92 700.909 17.36 700.082 16.96C699.255 16.56 698.295 16.36 697.202 16.36C696.082 16.36 695.109 16.5733 694.282 17C693.482 17.4267 692.815 18 692.282 18.72C691.749 19.4133 691.349 20.2133 691.082 21.12C690.842 22 690.722 22.9067 690.722 23.84ZM715.108 38V9.6H736.828V16.28H722.908V20.6H729.148C732.401 20.6 734.868 21.36 736.548 22.88C738.228 24.4 739.068 26.48 739.068 29.12C739.068 30.96 738.708 32.5467 737.988 33.88C737.268 35.1867 736.201 36.2 734.788 36.92C733.401 37.64 731.654 38 729.548 38L715.108 38ZM722.908 31.32H728.388C729.054 31.32 729.574 31.2 729.948 30.96C730.348 30.72 730.628 30.4133 730.788 30.04C730.974 29.6667 731.068 29.28 731.068 28.88C731.068 28.48 730.988 28.1067 730.828 27.76C730.694 27.3867 730.428 27.0933 730.028 26.88C729.628 26.6667 729.068 26.56 728.348 26.56H722.908V31.32ZM754.974 38.24C752.814 38.24 750.854 37.84 749.094 37.04C747.334 36.2133 745.814 35.12 744.534 33.76C743.281 32.3733 742.308 30.8267 741.614 29.12C740.948 27.3867 740.614 25.6 740.614 23.76C740.614 21.8667 740.974 20.0667 741.694 18.36C742.414 16.6533 743.414 15.1333 744.694 13.8C746.001 12.44 747.534 11.3733 749.294 10.6C751.081 9.82666 753.028 9.44 755.134 9.44C757.294 9.44 759.254 9.85333 761.014 10.68C762.774 11.48 764.281 12.5733 765.534 13.96C766.788 15.3467 767.748 16.9067 768.414 18.64C769.108 20.3467 769.454 22.1067 769.454 23.92C769.454 25.7867 769.094 27.5733 768.374 29.28C767.681 30.9867 766.681 32.52 765.374 33.88C764.094 35.2133 762.574 36.28 760.814 37.08C759.054 37.8533 757.108 38.24 754.974 38.24ZM748.534 23.84C748.534 24.8 748.668 25.7333 748.934 26.64C749.201 27.52 749.601 28.32 750.134 29.04C750.668 29.7333 751.334 30.2933 752.134 30.72C752.961 31.12 753.934 31.32 755.054 31.32C756.174 31.32 757.148 31.1067 757.974 30.68C758.801 30.2533 759.468 29.68 759.974 28.96C760.508 28.2133 760.894 27.4 761.134 26.52C761.401 25.6133 761.534 24.6933 761.534 23.76C761.534 22.8 761.401 21.88 761.134 21C760.868 20.12 760.468 19.3333 759.934 18.64C759.401 17.92 758.721 17.36 757.894 16.96C757.068 16.56 756.108 16.36 755.014 16.36C753.894 16.36 752.921 16.5733 752.094 17C751.294 17.4267 750.628 18 750.094 18.72C749.561 19.4133 749.161 20.2133 748.894 21.12C748.654 22 748.534 22.9067 748.534 23.84ZM794.451 16.4H786.291V38H778.491V16.4H770.291V9.6H794.451V16.4ZM797.452 38V9.6L805.252 9.6V26.88L815.732 9.6H823.012V38H815.212V20.72L804.852 38H797.452ZM828.194 38V9.6L835.954 9.6V20.04H837.554L844.874 9.6H853.434L843.434 23.32L854.354 38L844.914 38L837.234 27.12H835.954V38H828.194Z" fill="#00B3FF"/>
</svg>
