<svg width="2007" height="75" viewBox="0 0 2007 75" fill="none" xmlns="http://www.w3.org/2000/svg">
<path d="M3.904 60L3.904 14.56L23.488 14.56C25.7067 14.56 27.7547 15.008 29.632 15.904C31.5093 16.8 33.1307 18.016 34.496 19.552C35.8613 21.0453 36.9067 22.7307 37.632 24.608C38.4 26.4853 38.784 28.384 38.784 30.304C38.784 32.992 38.144 35.5307 36.864 37.92C35.6267 40.3093 33.8773 42.272 31.616 43.808C29.3973 45.3013 26.7947 46.048 23.808 46.048H16.384V60H3.904ZM16.384 35.168H22.976C23.488 35.168 23.9787 35.0187 24.448 34.72C24.9173 34.4213 25.3013 33.9093 25.6 33.184C25.9413 32.4587 26.112 31.4987 26.112 30.304C26.112 29.024 25.92 28.0427 25.536 27.36C25.1947 26.6347 24.7467 26.144 24.192 25.888C23.68 25.5893 23.168 25.44 22.656 25.44H16.384L16.384 35.168ZM64.259 60.384C60.803 60.384 57.667 59.744 54.851 58.464C52.035 57.1413 49.603 55.392 47.555 53.216C45.5497 50.9973 43.9923 48.5227 42.883 45.792C41.8163 43.0187 41.283 40.16 41.283 37.216C41.283 34.1867 41.859 31.3067 43.011 28.576C44.163 25.8453 45.763 23.4133 47.811 21.28C49.9017 19.104 52.355 17.3973 55.171 16.16C58.0297 14.9227 61.1443 14.304 64.515 14.304C67.971 14.304 71.107 14.9653 73.923 16.288C76.739 17.568 79.1497 19.3173 81.155 21.536C83.1603 23.7547 84.6963 26.2507 85.763 29.024C86.8723 31.7547 87.427 34.5707 87.427 37.472C87.427 40.4587 86.851 43.3173 85.699 46.048C84.5897 48.7787 82.9897 51.232 80.899 53.408C78.851 55.5413 76.419 57.248 73.603 58.528C70.787 59.7653 67.6723 60.384 64.259 60.384ZM53.955 37.344C53.955 38.88 54.1683 40.3733 54.595 41.824C55.0217 43.232 55.6617 44.512 56.515 45.664C57.3683 46.7733 58.435 47.6693 59.715 48.352C61.0377 48.992 62.595 49.312 64.387 49.312C66.179 49.312 67.7363 48.9707 69.059 48.288C70.3817 47.6053 71.4483 46.688 72.259 45.536C73.1123 44.3413 73.731 43.04 74.115 41.632C74.5417 40.1813 74.755 38.7093 74.755 37.216C74.755 35.68 74.5417 34.208 74.115 32.8C73.6883 31.392 73.0483 30.1333 72.195 29.024C71.3417 27.872 70.2537 26.976 68.931 26.336C67.6083 25.696 66.0723 25.376 64.323 25.376C62.531 25.376 60.9737 25.7173 59.651 26.4C58.371 27.0827 57.3043 28 56.451 29.152C55.5977 30.2613 54.9577 31.5413 54.531 32.992C54.147 34.4 53.955 35.8507 53.955 37.344ZM92.9725 60V14.56L127.725 14.56V25.248H105.453V32.16H115.437C120.642 32.16 124.589 33.376 127.277 35.808C129.965 38.24 131.309 41.568 131.309 45.792C131.309 48.736 130.733 51.2747 129.581 53.408C128.429 55.4987 126.722 57.12 124.461 58.272C122.242 59.424 119.447 60 116.077 60H92.9725ZM105.453 49.312H114.221C115.287 49.312 116.119 49.12 116.717 48.736C117.357 48.352 117.805 47.8613 118.061 47.264C118.359 46.6667 118.509 46.048 118.509 45.408C118.509 44.768 118.381 44.1707 118.125 43.616C117.911 43.0187 117.485 42.5493 116.845 42.208C116.205 41.8667 115.309 41.696 114.157 41.696H105.453V49.312ZM156.759 60.384C153.303 60.384 150.167 59.744 147.351 58.464C144.535 57.1413 142.103 55.392 140.055 53.216C138.05 50.9973 136.492 48.5227 135.383 45.792C134.316 43.0187 133.783 40.16 133.783 37.216C133.783 34.1867 134.359 31.3067 135.511 28.576C136.663 25.8453 138.263 23.4133 140.311 21.28C142.402 19.104 144.855 17.3973 147.671 16.16C150.53 14.9227 153.644 14.304 157.015 14.304C160.471 14.304 163.607 14.9653 166.423 16.288C169.239 17.568 171.65 19.3173 173.655 21.536C175.66 23.7547 177.196 26.2507 178.263 29.024C179.372 31.7547 179.927 34.5707 179.927 37.472C179.927 40.4587 179.351 43.3173 178.199 46.048C177.09 48.7787 175.49 51.232 173.399 53.408C171.351 55.5413 168.919 57.248 166.103 58.528C163.287 59.7653 160.172 60.384 156.759 60.384ZM146.455 37.344C146.455 38.88 146.668 40.3733 147.095 41.824C147.522 43.232 148.162 44.512 149.015 45.664C149.868 46.7733 150.935 47.6693 152.215 48.352C153.538 48.992 155.095 49.312 156.887 49.312C158.679 49.312 160.236 48.9707 161.559 48.288C162.882 47.6053 163.948 46.688 164.759 45.536C165.612 44.3413 166.231 43.04 166.615 41.632C167.042 40.1813 167.255 38.7093 167.255 37.216C167.255 35.68 167.042 34.208 166.615 32.8C166.188 31.392 165.548 30.1333 164.695 29.024C163.842 27.872 162.754 26.976 161.431 26.336C160.108 25.696 158.572 25.376 156.823 25.376C155.031 25.376 153.474 25.7173 152.151 26.4C150.871 27.0827 149.804 28 148.951 29.152C148.098 30.2613 147.458 31.5413 147.031 32.992C146.647 34.4 146.455 35.8507 146.455 37.344ZM219.921 25.44H206.865V60H194.385V25.44H181.265V14.56L219.921 14.56V25.44ZM224.723 60V14.56H237.203V42.208L253.971 14.56H265.619V60H253.139V32.352L236.562 60H224.723ZM273.91 60V14.56H286.326V31.264L288.886 31.264L300.598 14.56L314.294 14.56L298.294 36.512L315.766 60H300.662L288.374 42.592H286.326V60H273.91Z" fill="black"/>
<path d="M341.904 60V14.56L361.488 14.56C363.707 14.56 365.755 15.008 367.632 15.904C369.509 16.8 371.131 18.016 372.496 19.552C373.861 21.0453 374.907 22.7307 375.632 24.608C376.4 26.4853 376.784 28.384 376.784 30.304C376.784 32.992 376.144 35.5307 374.864 37.92C373.627 40.3093 371.877 42.272 369.616 43.808C367.397 45.3013 364.795 46.048 361.808 46.048H354.384V60H341.904ZM354.384 35.168H360.976C361.488 35.168 361.979 35.0187 362.448 34.72C362.917 34.4213 363.301 33.9093 363.6 33.184C363.941 32.4587 364.112 31.4987 364.112 30.304C364.112 29.024 363.92 28.0427 363.536 27.36C363.195 26.6347 362.747 26.144 362.192 25.888C361.68 25.5893 361.168 25.44 360.656 25.44H354.384V35.168ZM402.259 60.384C398.803 60.384 395.667 59.744 392.851 58.464C390.035 57.1413 387.603 55.392 385.555 53.216C383.55 50.9973 381.992 48.5227 380.883 45.792C379.816 43.0187 379.283 40.16 379.283 37.216C379.283 34.1867 379.859 31.3067 381.011 28.576C382.163 25.8453 383.763 23.4133 385.811 21.28C387.902 19.104 390.355 17.3973 393.171 16.16C396.03 14.9227 399.144 14.304 402.515 14.304C405.971 14.304 409.107 14.9653 411.923 16.288C414.739 17.568 417.15 19.3173 419.155 21.536C421.16 23.7547 422.696 26.2507 423.763 29.024C424.872 31.7547 425.427 34.5707 425.427 37.472C425.427 40.4587 424.851 43.3173 423.699 46.048C422.59 48.7787 420.99 51.232 418.899 53.408C416.851 55.5413 414.419 57.248 411.603 58.528C408.787 59.7653 405.672 60.384 402.259 60.384ZM391.955 37.344C391.955 38.88 392.168 40.3733 392.595 41.824C393.022 43.232 393.662 44.512 394.515 45.664C395.368 46.7733 396.435 47.6693 397.715 48.352C399.038 48.992 400.595 49.312 402.387 49.312C404.179 49.312 405.736 48.9707 407.059 48.288C408.382 47.6053 409.448 46.688 410.259 45.536C411.112 44.3413 411.731 43.04 412.115 41.632C412.542 40.1813 412.755 38.7093 412.755 37.216C412.755 35.68 412.542 34.208 412.115 32.8C411.688 31.392 411.048 30.1333 410.195 29.024C409.342 27.872 408.254 26.976 406.931 26.336C405.608 25.696 404.072 25.376 402.323 25.376C400.531 25.376 398.974 25.7173 397.651 26.4C396.371 27.0827 395.304 28 394.451 29.152C393.598 30.2613 392.958 31.5413 392.531 32.992C392.147 34.4 391.955 35.8507 391.955 37.344ZM430.973 60V14.56L465.725 14.56V25.248H443.453V32.16H453.437C458.642 32.16 462.589 33.376 465.277 35.808C467.965 38.24 469.309 41.568 469.309 45.792C469.309 48.736 468.733 51.2747 467.581 53.408C466.429 55.4987 464.722 57.12 462.461 58.272C460.242 59.424 457.447 60 454.077 60H430.973ZM443.453 49.312H452.221C453.287 49.312 454.119 49.12 454.717 48.736C455.357 48.352 455.805 47.8613 456.061 47.264C456.359 46.6667 456.509 46.048 456.509 45.408C456.509 44.768 456.381 44.1707 456.125 43.616C455.911 43.0187 455.485 42.5493 454.845 42.208C454.205 41.8667 453.309 41.696 452.157 41.696H443.453V49.312ZM494.759 60.384C491.303 60.384 488.167 59.744 485.351 58.464C482.535 57.1413 480.103 55.392 478.055 53.216C476.05 50.9973 474.492 48.5227 473.383 45.792C472.316 43.0187 471.783 40.16 471.783 37.216C471.783 34.1867 472.359 31.3067 473.511 28.576C474.663 25.8453 476.263 23.4133 478.311 21.28C480.402 19.104 482.855 17.3973 485.671 16.16C488.53 14.9227 491.644 14.304 495.015 14.304C498.471 14.304 501.607 14.9653 504.423 16.288C507.239 17.568 509.65 19.3173 511.655 21.536C513.66 23.7547 515.196 26.2507 516.263 29.024C517.372 31.7547 517.927 34.5707 517.927 37.472C517.927 40.4587 517.351 43.3173 516.199 46.048C515.09 48.7787 513.49 51.232 511.399 53.408C509.351 55.5413 506.919 57.248 504.103 58.528C501.287 59.7653 498.172 60.384 494.759 60.384ZM484.455 37.344C484.455 38.88 484.668 40.3733 485.095 41.824C485.522 43.232 486.162 44.512 487.015 45.664C487.868 46.7733 488.935 47.6693 490.215 48.352C491.538 48.992 493.095 49.312 494.887 49.312C496.679 49.312 498.236 48.9707 499.559 48.288C500.882 47.6053 501.948 46.688 502.759 45.536C503.612 44.3413 504.231 43.04 504.615 41.632C505.042 40.1813 505.255 38.7093 505.255 37.216C505.255 35.68 505.042 34.208 504.615 32.8C504.188 31.392 503.548 30.1333 502.695 29.024C501.842 27.872 500.754 26.976 499.431 26.336C498.108 25.696 496.572 25.376 494.823 25.376C493.031 25.376 491.474 25.7173 490.151 26.4C488.871 27.0827 487.804 28 486.951 29.152C486.098 30.2613 485.458 31.5413 485.031 32.992C484.647 34.4 484.455 35.8507 484.455 37.344ZM557.921 25.44H544.865V60H532.385V25.44H519.265V14.56L557.921 14.56V25.44ZM562.723 60V14.56H575.203V42.208L591.971 14.56H603.619V60H591.139V32.352L574.562 60H562.723ZM611.91 60V14.56H624.326V31.264L626.886 31.264L638.598 14.56L652.294 14.56L636.294 36.512L653.766 60H638.662L626.374 42.592H624.326V60H611.91Z" fill="#00B3FF"/>
<path d="M679.904 60V14.56L699.488 14.56C701.707 14.56 703.755 15.008 705.632 15.904C707.509 16.8 709.131 18.016 710.496 19.552C711.861 21.0453 712.907 22.7307 713.632 24.608C714.4 26.4853 714.784 28.384 714.784 30.304C714.784 32.992 714.144 35.5307 712.864 37.92C711.627 40.3093 709.877 42.272 707.616 43.808C705.397 45.3013 702.795 46.048 699.808 46.048H692.384V60H679.904ZM692.384 35.168H698.976C699.488 35.168 699.979 35.0187 700.448 34.72C700.917 34.4213 701.301 33.9093 701.6 33.184C701.941 32.4587 702.112 31.4987 702.112 30.304C702.112 29.024 701.92 28.0427 701.536 27.36C701.195 26.6347 700.747 26.144 700.192 25.888C699.68 25.5893 699.168 25.44 698.656 25.44H692.384V35.168ZM740.259 60.384C736.803 60.384 733.667 59.744 730.851 58.464C728.035 57.1413 725.603 55.392 723.555 53.216C721.55 50.9973 719.992 48.5227 718.883 45.792C717.816 43.0187 717.283 40.16 717.283 37.216C717.283 34.1867 717.859 31.3067 719.011 28.576C720.163 25.8453 721.763 23.4133 723.811 21.28C725.902 19.104 728.355 17.3973 731.171 16.16C734.03 14.9227 737.144 14.304 740.515 14.304C743.971 14.304 747.107 14.9653 749.923 16.288C752.739 17.568 755.15 19.3173 757.155 21.536C759.16 23.7547 760.696 26.2507 761.763 29.024C762.872 31.7547 763.427 34.5707 763.427 37.472C763.427 40.4587 762.851 43.3173 761.699 46.048C760.59 48.7787 758.99 51.232 756.899 53.408C754.851 55.5413 752.419 57.248 749.603 58.528C746.787 59.7653 743.672 60.384 740.259 60.384ZM729.955 37.344C729.955 38.88 730.168 40.3733 730.595 41.824C731.022 43.232 731.662 44.512 732.515 45.664C733.368 46.7733 734.435 47.6693 735.715 48.352C737.038 48.992 738.595 49.312 740.387 49.312C742.179 49.312 743.736 48.9707 745.059 48.288C746.382 47.6053 747.448 46.688 748.259 45.536C749.112 44.3413 749.731 43.04 750.115 41.632C750.542 40.1813 750.755 38.7093 750.755 37.216C750.755 35.68 750.542 34.208 750.115 32.8C749.688 31.392 749.048 30.1333 748.195 29.024C747.342 27.872 746.254 26.976 744.931 26.336C743.608 25.696 742.072 25.376 740.323 25.376C738.531 25.376 736.974 25.7173 735.651 26.4C734.371 27.0827 733.304 28 732.451 29.152C731.598 30.2613 730.958 31.5413 730.531 32.992C730.147 34.4 729.955 35.8507 729.955 37.344ZM768.973 60V14.56L803.725 14.56V25.248H781.453V32.16H791.437C796.642 32.16 800.589 33.376 803.277 35.808C805.965 38.24 807.309 41.568 807.309 45.792C807.309 48.736 806.733 51.2747 805.581 53.408C804.429 55.4987 802.722 57.12 800.461 58.272C798.242 59.424 795.447 60 792.077 60H768.973ZM781.453 49.312H790.221C791.287 49.312 792.119 49.12 792.717 48.736C793.357 48.352 793.805 47.8613 794.061 47.264C794.359 46.6667 794.509 46.048 794.509 45.408C794.509 44.768 794.381 44.1707 794.125 43.616C793.911 43.0187 793.485 42.5493 792.845 42.208C792.205 41.8667 791.309 41.696 790.157 41.696H781.453V49.312ZM832.759 60.384C829.303 60.384 826.167 59.744 823.351 58.464C820.535 57.1413 818.103 55.392 816.055 53.216C814.05 50.9973 812.492 48.5227 811.383 45.792C810.316 43.0187 809.783 40.16 809.783 37.216C809.783 34.1867 810.359 31.3067 811.511 28.576C812.663 25.8453 814.263 23.4133 816.311 21.28C818.402 19.104 820.855 17.3973 823.671 16.16C826.53 14.9227 829.644 14.304 833.015 14.304C836.471 14.304 839.607 14.9653 842.423 16.288C845.239 17.568 847.65 19.3173 849.655 21.536C851.66 23.7547 853.196 26.2507 854.263 29.024C855.372 31.7547 855.927 34.5707 855.927 37.472C855.927 40.4587 855.351 43.3173 854.199 46.048C853.09 48.7787 851.49 51.232 849.399 53.408C847.351 55.5413 844.919 57.248 842.103 58.528C839.287 59.7653 836.172 60.384 832.759 60.384ZM822.455 37.344C822.455 38.88 822.668 40.3733 823.095 41.824C823.522 43.232 824.162 44.512 825.015 45.664C825.868 46.7733 826.935 47.6693 828.215 48.352C829.538 48.992 831.095 49.312 832.887 49.312C834.679 49.312 836.236 48.9707 837.559 48.288C838.882 47.6053 839.948 46.688 840.759 45.536C841.612 44.3413 842.231 43.04 842.615 41.632C843.042 40.1813 843.255 38.7093 843.255 37.216C843.255 35.68 843.042 34.208 842.615 32.8C842.188 31.392 841.548 30.1333 840.695 29.024C839.842 27.872 838.754 26.976 837.431 26.336C836.108 25.696 834.572 25.376 832.823 25.376C831.031 25.376 829.474 25.7173 828.151 26.4C826.871 27.0827 825.804 28 824.951 29.152C824.098 30.2613 823.458 31.5413 823.031 32.992C822.647 34.4 822.455 35.8507 822.455 37.344ZM895.921 25.44H882.865V60H870.385V25.44H857.265V14.56L895.921 14.56V25.44ZM900.723 60V14.56H913.203V42.208L929.971 14.56H941.619V60H929.139V32.352L912.562 60H900.723ZM949.91 60V14.56H962.326V31.264L964.886 31.264L976.598 14.56L990.294 14.56L974.294 36.512L991.766 60H976.662L964.374 42.592H962.326V60H949.91Z" fill="black"/>
<path d="M1017.9 60V14.56L1037.49 14.56C1039.71 14.56 1041.75 15.008 1043.63 15.904C1045.51 16.8 1047.13 18.016 1048.5 19.552C1049.86 21.0453 1050.91 22.7307 1051.63 24.608C1052.4 26.4853 1052.78 28.384 1052.78 30.304C1052.78 32.992 1052.14 35.5307 1050.86 37.92C1049.63 40.3093 1047.88 42.272 1045.62 43.808C1043.4 45.3013 1040.79 46.048 1037.81 46.048H1030.38V60H1017.9ZM1030.38 35.168H1036.98C1037.49 35.168 1037.98 35.0187 1038.45 34.72C1038.92 34.4213 1039.3 33.9093 1039.6 33.184C1039.94 32.4587 1040.11 31.4987 1040.11 30.304C1040.11 29.024 1039.92 28.0427 1039.54 27.36C1039.19 26.6347 1038.75 26.144 1038.19 25.888C1037.68 25.5893 1037.17 25.44 1036.66 25.44H1030.38V35.168ZM1078.26 60.384C1074.8 60.384 1071.67 59.744 1068.85 58.464C1066.04 57.1413 1063.6 55.392 1061.56 53.216C1059.55 50.9973 1057.99 48.5227 1056.88 45.792C1055.82 43.0187 1055.28 40.16 1055.28 37.216C1055.28 34.1867 1055.86 31.3067 1057.01 28.576C1058.16 25.8453 1059.76 23.4133 1061.81 21.28C1063.9 19.104 1066.36 17.3973 1069.17 16.16C1072.03 14.9227 1075.14 14.304 1078.52 14.304C1081.97 14.304 1085.11 14.9653 1087.92 16.288C1090.74 17.568 1093.15 19.3173 1095.16 21.536C1097.16 23.7547 1098.7 26.2507 1099.76 29.024C1100.87 31.7547 1101.43 34.5707 1101.43 37.472C1101.43 40.4587 1100.85 43.3173 1099.7 46.048C1098.59 48.7787 1096.99 51.232 1094.9 53.408C1092.85 55.5413 1090.42 57.248 1087.6 58.528C1084.79 59.7653 1081.67 60.384 1078.26 60.384ZM1067.96 37.344C1067.96 38.88 1068.17 40.3733 1068.6 41.824C1069.02 43.232 1069.66 44.512 1070.52 45.664C1071.37 46.7733 1072.44 47.6693 1073.72 48.352C1075.04 48.992 1076.6 49.312 1078.39 49.312C1080.18 49.312 1081.74 48.9707 1083.06 48.288C1084.38 47.6053 1085.45 46.688 1086.26 45.536C1087.11 44.3413 1087.73 43.04 1088.12 41.632C1088.54 40.1813 1088.76 38.7093 1088.76 37.216C1088.76 35.68 1088.54 34.208 1088.12 32.8C1087.69 31.392 1087.05 30.1333 1086.19 29.024C1085.34 27.872 1084.25 26.976 1082.93 26.336C1081.61 25.696 1080.07 25.376 1078.32 25.376C1076.53 25.376 1074.97 25.7173 1073.65 26.4C1072.37 27.0827 1071.3 28 1070.45 29.152C1069.6 30.2613 1068.96 31.5413 1068.53 32.992C1068.15 34.4 1067.96 35.8507 1067.96 37.344ZM1106.97 60V14.56L1141.72 14.56V25.248H1119.45V32.16H1129.44C1134.64 32.16 1138.59 33.376 1141.28 35.808C1143.96 38.24 1145.31 41.568 1145.31 45.792C1145.31 48.736 1144.73 51.2747 1143.58 53.408C1142.43 55.4987 1140.72 57.12 1138.46 58.272C1136.24 59.424 1133.45 60 1130.08 60H1106.97ZM1119.45 49.312H1128.22C1129.29 49.312 1130.12 49.12 1130.72 48.736C1131.36 48.352 1131.8 47.8613 1132.06 47.264C1132.36 46.6667 1132.51 46.048 1132.51 45.408C1132.51 44.768 1132.38 44.1707 1132.12 43.616C1131.91 43.0187 1131.48 42.5493 1130.84 42.208C1130.2 41.8667 1129.31 41.696 1128.16 41.696H1119.45V49.312ZM1170.76 60.384C1167.3 60.384 1164.17 59.744 1161.35 58.464C1158.54 57.1413 1156.1 55.392 1154.06 53.216C1152.05 50.9973 1150.49 48.5227 1149.38 45.792C1148.32 43.0187 1147.78 40.16 1147.78 37.216C1147.78 34.1867 1148.36 31.3067 1149.51 28.576C1150.66 25.8453 1152.26 23.4133 1154.31 21.28C1156.4 19.104 1158.86 17.3973 1161.67 16.16C1164.53 14.9227 1167.64 14.304 1171.02 14.304C1174.47 14.304 1177.61 14.9653 1180.42 16.288C1183.24 17.568 1185.65 19.3173 1187.66 21.536C1189.66 23.7547 1191.2 26.2507 1192.26 29.024C1193.37 31.7547 1193.93 34.5707 1193.93 37.472C1193.93 40.4587 1193.35 43.3173 1192.2 46.048C1191.09 48.7787 1189.49 51.232 1187.4 53.408C1185.35 55.5413 1182.92 57.248 1180.1 58.528C1177.29 59.7653 1174.17 60.384 1170.76 60.384ZM1160.46 37.344C1160.46 38.88 1160.67 40.3733 1161.1 41.824C1161.52 43.232 1162.16 44.512 1163.02 45.664C1163.87 46.7733 1164.94 47.6693 1166.22 48.352C1167.54 48.992 1169.1 49.312 1170.89 49.312C1172.68 49.312 1174.24 48.9707 1175.56 48.288C1176.88 47.6053 1177.95 46.688 1178.76 45.536C1179.61 44.3413 1180.23 43.04 1180.62 41.632C1181.04 40.1813 1181.26 38.7093 1181.26 37.216C1181.26 35.68 1181.04 34.208 1180.62 32.8C1180.19 31.392 1179.55 30.1333 1178.69 29.024C1177.84 27.872 1176.75 26.976 1175.43 26.336C1174.11 25.696 1172.57 25.376 1170.82 25.376C1169.03 25.376 1167.47 25.7173 1166.15 26.4C1164.87 27.0827 1163.8 28 1162.95 29.152C1162.1 30.2613 1161.46 31.5413 1161.03 32.992C1160.65 34.4 1160.46 35.8507 1160.46 37.344ZM1233.92 25.44H1220.87V60H1208.39V25.44H1195.27V14.56L1233.92 14.56V25.44ZM1238.72 60V14.56H1251.2V42.208L1267.97 14.56H1279.62V60H1267.14V32.352L1250.56 60H1238.72ZM1287.91 60V14.56H1300.33V31.264L1302.89 31.264L1314.6 14.56L1328.29 14.56L1312.29 36.512L1329.77 60H1314.66L1302.37 42.592H1300.33V60H1287.91Z" fill="#00B3FF"/>
<path d="M1355.9 60V14.56L1375.49 14.56C1377.71 14.56 1379.75 15.008 1381.63 15.904C1383.51 16.8 1385.13 18.016 1386.5 19.552C1387.86 21.0453 1388.91 22.7307 1389.63 24.608C1390.4 26.4853 1390.78 28.384 1390.78 30.304C1390.78 32.992 1390.14 35.5307 1388.86 37.92C1387.63 40.3093 1385.88 42.272 1383.62 43.808C1381.4 45.3013 1378.79 46.048 1375.81 46.048H1368.38V60H1355.9ZM1368.38 35.168H1374.98C1375.49 35.168 1375.98 35.0187 1376.45 34.72C1376.92 34.4213 1377.3 33.9093 1377.6 33.184C1377.94 32.4587 1378.11 31.4987 1378.11 30.304C1378.11 29.024 1377.92 28.0427 1377.54 27.36C1377.19 26.6347 1376.75 26.144 1376.19 25.888C1375.68 25.5893 1375.17 25.44 1374.66 25.44H1368.38V35.168ZM1416.26 60.384C1412.8 60.384 1409.67 59.744 1406.85 58.464C1404.04 57.1413 1401.6 55.392 1399.56 53.216C1397.55 50.9973 1395.99 48.5227 1394.88 45.792C1393.82 43.0187 1393.28 40.16 1393.28 37.216C1393.28 34.1867 1393.86 31.3067 1395.01 28.576C1396.16 25.8453 1397.76 23.4133 1399.81 21.28C1401.9 19.104 1404.36 17.3973 1407.17 16.16C1410.03 14.9227 1413.14 14.304 1416.52 14.304C1419.97 14.304 1423.11 14.9653 1425.92 16.288C1428.74 17.568 1431.15 19.3173 1433.16 21.536C1435.16 23.7547 1436.7 26.2507 1437.76 29.024C1438.87 31.7547 1439.43 34.5707 1439.43 37.472C1439.43 40.4587 1438.85 43.3173 1437.7 46.048C1436.59 48.7787 1434.99 51.232 1432.9 53.408C1430.85 55.5413 1428.42 57.248 1425.6 58.528C1422.79 59.7653 1419.67 60.384 1416.26 60.384ZM1405.96 37.344C1405.96 38.88 1406.17 40.3733 1406.6 41.824C1407.02 43.232 1407.66 44.512 1408.52 45.664C1409.37 46.7733 1410.44 47.6693 1411.72 48.352C1413.04 48.992 1414.6 49.312 1416.39 49.312C1418.18 49.312 1419.74 48.9707 1421.06 48.288C1422.38 47.6053 1423.45 46.688 1424.26 45.536C1425.11 44.3413 1425.73 43.04 1426.12 41.632C1426.54 40.1813 1426.76 38.7093 1426.76 37.216C1426.76 35.68 1426.54 34.208 1426.12 32.8C1425.69 31.392 1425.05 30.1333 1424.19 29.024C1423.34 27.872 1422.25 26.976 1420.93 26.336C1419.61 25.696 1418.07 25.376 1416.32 25.376C1414.53 25.376 1412.97 25.7173 1411.65 26.4C1410.37 27.0827 1409.3 28 1408.45 29.152C1407.6 30.2613 1406.96 31.5413 1406.53 32.992C1406.15 34.4 1405.96 35.8507 1405.96 37.344ZM1444.97 60V14.56L1479.72 14.56V25.248H1457.45V32.16H1467.44C1472.64 32.16 1476.59 33.376 1479.28 35.808C1481.96 38.24 1483.31 41.568 1483.31 45.792C1483.31 48.736 1482.73 51.2747 1481.58 53.408C1480.43 55.4987 1478.72 57.12 1476.46 58.272C1474.24 59.424 1471.45 60 1468.08 60H1444.97ZM1457.45 49.312H1466.22C1467.29 49.312 1468.12 49.12 1468.72 48.736C1469.36 48.352 1469.8 47.8613 1470.06 47.264C1470.36 46.6667 1470.51 46.048 1470.51 45.408C1470.51 44.768 1470.38 44.1707 1470.12 43.616C1469.91 43.0187 1469.48 42.5493 1468.84 42.208C1468.2 41.8667 1467.31 41.696 1466.16 41.696H1457.45V49.312ZM1508.76 60.384C1505.3 60.384 1502.17 59.744 1499.35 58.464C1496.54 57.1413 1494.1 55.392 1492.06 53.216C1490.05 50.9973 1488.49 48.5227 1487.38 45.792C1486.32 43.0187 1485.78 40.16 1485.78 37.216C1485.78 34.1867 1486.36 31.3067 1487.51 28.576C1488.66 25.8453 1490.26 23.4133 1492.31 21.28C1494.4 19.104 1496.86 17.3973 1499.67 16.16C1502.53 14.9227 1505.64 14.304 1509.02 14.304C1512.47 14.304 1515.61 14.9653 1518.42 16.288C1521.24 17.568 1523.65 19.3173 1525.66 21.536C1527.66 23.7547 1529.2 26.2507 1530.26 29.024C1531.37 31.7547 1531.93 34.5707 1531.93 37.472C1531.93 40.4587 1531.35 43.3173 1530.2 46.048C1529.09 48.7787 1527.49 51.232 1525.4 53.408C1523.35 55.5413 1520.92 57.248 1518.1 58.528C1515.29 59.7653 1512.17 60.384 1508.76 60.384ZM1498.46 37.344C1498.46 38.88 1498.67 40.3733 1499.1 41.824C1499.52 43.232 1500.16 44.512 1501.02 45.664C1501.87 46.7733 1502.94 47.6693 1504.22 48.352C1505.54 48.992 1507.1 49.312 1508.89 49.312C1510.68 49.312 1512.24 48.9707 1513.56 48.288C1514.88 47.6053 1515.95 46.688 1516.76 45.536C1517.61 44.3413 1518.23 43.04 1518.62 41.632C1519.04 40.1813 1519.26 38.7093 1519.26 37.216C1519.26 35.68 1519.04 34.208 1518.62 32.8C1518.19 31.392 1517.55 30.1333 1516.69 29.024C1515.84 27.872 1514.75 26.976 1513.43 26.336C1512.11 25.696 1510.57 25.376 1508.82 25.376C1507.03 25.376 1505.47 25.7173 1504.15 26.4C1502.87 27.0827 1501.8 28 1500.95 29.152C1500.1 30.2613 1499.46 31.5413 1499.03 32.992C1498.65 34.4 1498.46 35.8507 1498.46 37.344ZM1571.92 25.44H1558.87V60H1546.39V25.44H1533.27V14.56L1571.92 14.56V25.44ZM1576.72 60V14.56H1589.2V42.208L1605.97 14.56H1617.62V60H1605.14V32.352L1588.56 60H1576.72ZM1625.91 60V14.56H1638.33V31.264L1640.89 31.264L1652.6 14.56L1666.29 14.56L1650.29 36.512L1667.77 60H1652.66L1640.37 42.592H1638.33V60H1625.91Z" fill="black"/>
<path d="M1693.9 60V14.56L1713.49 14.56C1715.71 14.56 1717.75 15.008 1719.63 15.904C1721.51 16.8 1723.13 18.016 1724.5 19.552C1725.86 21.0453 1726.91 22.7307 1727.63 24.608C1728.4 26.4853 1728.78 28.384 1728.78 30.304C1728.78 32.992 1728.14 35.5307 1726.86 37.92C1725.63 40.3093 1723.88 42.272 1721.62 43.808C1719.4 45.3013 1716.79 46.048 1713.81 46.048H1706.38V60H1693.9ZM1706.38 35.168H1712.98C1713.49 35.168 1713.98 35.0187 1714.45 34.72C1714.92 34.4213 1715.3 33.9093 1715.6 33.184C1715.94 32.4587 1716.11 31.4987 1716.11 30.304C1716.11 29.024 1715.92 28.0427 1715.54 27.36C1715.19 26.6347 1714.75 26.144 1714.19 25.888C1713.68 25.5893 1713.17 25.44 1712.66 25.44H1706.38V35.168ZM1754.26 60.384C1750.8 60.384 1747.67 59.744 1744.85 58.464C1742.04 57.1413 1739.6 55.392 1737.56 53.216C1735.55 50.9973 1733.99 48.5227 1732.88 45.792C1731.82 43.0187 1731.28 40.16 1731.28 37.216C1731.28 34.1867 1731.86 31.3067 1733.01 28.576C1734.16 25.8453 1735.76 23.4133 1737.81 21.28C1739.9 19.104 1742.36 17.3973 1745.17 16.16C1748.03 14.9227 1751.14 14.304 1754.52 14.304C1757.97 14.304 1761.11 14.9653 1763.92 16.288C1766.74 17.568 1769.15 19.3173 1771.16 21.536C1773.16 23.7547 1774.7 26.2507 1775.76 29.024C1776.87 31.7547 1777.43 34.5707 1777.43 37.472C1777.43 40.4587 1776.85 43.3173 1775.7 46.048C1774.59 48.7787 1772.99 51.232 1770.9 53.408C1768.85 55.5413 1766.42 57.248 1763.6 58.528C1760.79 59.7653 1757.67 60.384 1754.26 60.384ZM1743.96 37.344C1743.96 38.88 1744.17 40.3733 1744.6 41.824C1745.02 43.232 1745.66 44.512 1746.52 45.664C1747.37 46.7733 1748.44 47.6693 1749.72 48.352C1751.04 48.992 1752.6 49.312 1754.39 49.312C1756.18 49.312 1757.74 48.9707 1759.06 48.288C1760.38 47.6053 1761.45 46.688 1762.26 45.536C1763.11 44.3413 1763.73 43.04 1764.12 41.632C1764.54 40.1813 1764.76 38.7093 1764.76 37.216C1764.76 35.68 1764.54 34.208 1764.12 32.8C1763.69 31.392 1763.05 30.1333 1762.19 29.024C1761.34 27.872 1760.25 26.976 1758.93 26.336C1757.61 25.696 1756.07 25.376 1754.32 25.376C1752.53 25.376 1750.97 25.7173 1749.65 26.4C1748.37 27.0827 1747.3 28 1746.45 29.152C1745.6 30.2613 1744.96 31.5413 1744.53 32.992C1744.15 34.4 1743.96 35.8507 1743.96 37.344ZM1782.97 60V14.56L1817.72 14.56V25.248H1795.45V32.16H1805.44C1810.64 32.16 1814.59 33.376 1817.28 35.808C1819.96 38.24 1821.31 41.568 1821.31 45.792C1821.31 48.736 1820.73 51.2747 1819.58 53.408C1818.43 55.4987 1816.72 57.12 1814.46 58.272C1812.24 59.424 1809.45 60 1806.08 60H1782.97ZM1795.45 49.312H1804.22C1805.29 49.312 1806.12 49.12 1806.72 48.736C1807.36 48.352 1807.8 47.8613 1808.06 47.264C1808.36 46.6667 1808.51 46.048 1808.51 45.408C1808.51 44.768 1808.38 44.1707 1808.12 43.616C1807.91 43.0187 1807.48 42.5493 1806.84 42.208C1806.2 41.8667 1805.31 41.696 1804.16 41.696H1795.45V49.312ZM1846.76 60.384C1843.3 60.384 1840.17 59.744 1837.35 58.464C1834.54 57.1413 1832.1 55.392 1830.06 53.216C1828.05 50.9973 1826.49 48.5227 1825.38 45.792C1824.32 43.0187 1823.78 40.16 1823.78 37.216C1823.78 34.1867 1824.36 31.3067 1825.51 28.576C1826.66 25.8453 1828.26 23.4133 1830.31 21.28C1832.4 19.104 1834.86 17.3973 1837.67 16.16C1840.53 14.9227 1843.64 14.304 1847.02 14.304C1850.47 14.304 1853.61 14.9653 1856.42 16.288C1859.24 17.568 1861.65 19.3173 1863.66 21.536C1865.66 23.7547 1867.2 26.2507 1868.26 29.024C1869.37 31.7547 1869.93 34.5707 1869.93 37.472C1869.93 40.4587 1869.35 43.3173 1868.2 46.048C1867.09 48.7787 1865.49 51.232 1863.4 53.408C1861.35 55.5413 1858.92 57.248 1856.1 58.528C1853.29 59.7653 1850.17 60.384 1846.76 60.384ZM1836.46 37.344C1836.46 38.88 1836.67 40.3733 1837.1 41.824C1837.52 43.232 1838.16 44.512 1839.02 45.664C1839.87 46.7733 1840.94 47.6693 1842.22 48.352C1843.54 48.992 1845.1 49.312 1846.89 49.312C1848.68 49.312 1850.24 48.9707 1851.56 48.288C1852.88 47.6053 1853.95 46.688 1854.76 45.536C1855.61 44.3413 1856.23 43.04 1856.62 41.632C1857.04 40.1813 1857.26 38.7093 1857.26 37.216C1857.26 35.68 1857.04 34.208 1856.62 32.8C1856.19 31.392 1855.55 30.1333 1854.69 29.024C1853.84 27.872 1852.75 26.976 1851.43 26.336C1850.11 25.696 1848.57 25.376 1846.82 25.376C1845.03 25.376 1843.47 25.7173 1842.15 26.4C1840.87 27.0827 1839.8 28 1838.95 29.152C1838.1 30.2613 1837.46 31.5413 1837.03 32.992C1836.65 34.4 1836.46 35.8507 1836.46 37.344ZM1909.92 25.44H1896.87V60H1884.39V25.44H1871.27V14.56L1909.92 14.56V25.44ZM1914.72 60V14.56H1927.2V42.208L1943.97 14.56H1955.62V60H1943.14V32.352L1926.56 60H1914.72ZM1963.91 60V14.56H1976.33V31.264L1978.89 31.264L1990.6 14.56L2004.29 14.56L1988.29 36.512L2005.77 60H1990.66L1978.37 42.592H1976.33V60H1963.91Z" fill="#00B3FF"/>
</svg>
