<svg width="1440" height="77" viewBox="0 0 1440 77" fill="none" xmlns="http://www.w3.org/2000/svg">
<path d="M24.146 62.396C20.582 62.396 17.348 61.736 14.444 60.416C11.54 59.052 9.032 57.248 6.92 55.004C4.852 52.716 3.246 50.164 2.102 47.348C1.002 44.488 0.452 41.54 0.452 38.504C0.452 35.38 1.046 32.41 2.234 29.594C3.422 26.778 5.072 24.27 7.184 22.07C9.34 19.826 11.87 18.066 14.774 16.79C17.722 15.514 20.934 14.876 24.41 14.876C27.974 14.876 31.208 15.558 34.112 16.922C37.016 18.242 39.502 20.046 41.57 22.334C43.638 24.622 45.222 27.196 46.322 30.056C47.466 32.872 48.038 35.776 48.038 38.768C48.038 41.848 47.444 44.796 46.256 47.612C45.112 50.428 43.462 52.958 41.306 55.202C39.194 57.402 36.686 59.162 33.782 60.482C30.878 61.758 27.666 62.396 24.146 62.396ZM13.52 38.636C13.52 40.22 13.74 41.76 14.18 43.256C14.62 44.708 15.28 46.028 16.16 47.216C17.04 48.36 18.14 49.284 19.46 49.988C20.824 50.648 22.43 50.978 24.278 50.978C26.126 50.978 27.732 50.626 29.096 49.922C30.46 49.218 31.56 48.272 32.396 47.084C33.276 45.852 33.914 44.51 34.31 43.058C34.75 41.562 34.97 40.044 34.97 38.504C34.97 36.92 34.75 35.402 34.31 33.95C33.87 32.498 33.21 31.2 32.33 30.056C31.45 28.868 30.328 27.944 28.964 27.284C27.6 26.624 26.016 26.294 24.212 26.294C22.364 26.294 20.758 26.646 19.394 27.35C18.074 28.054 16.974 29 16.094 30.188C15.214 31.332 14.554 32.652 14.114 34.148C13.718 35.6 13.52 37.096 13.52 38.636ZM53.7568 62V15.14L89.5948 15.14V26.162H66.6268V33.29H76.9228C82.2908 33.29 86.3608 34.544 89.1328 37.052C91.9048 39.56 93.2908 42.992 93.2908 47.348C93.2908 50.384 92.6968 53.002 91.5088 55.202C90.3208 57.358 88.5608 59.03 86.2288 60.218C83.9408 61.406 81.0588 62 77.5828 62L53.7568 62ZM66.6268 50.978H75.6688C76.7688 50.978 77.6268 50.78 78.2428 50.384C78.9028 49.988 79.3648 49.482 79.6288 48.866C79.9368 48.25 80.0908 47.612 80.0908 46.952C80.0908 46.292 79.9588 45.676 79.6948 45.104C79.4748 44.488 79.0348 44.004 78.3748 43.652C77.7148 43.3 76.7908 43.124 75.6028 43.124H66.6268V50.978ZM119.537 62.396C115.973 62.396 112.739 61.736 109.835 60.416C106.931 59.052 104.423 57.248 102.311 55.004C100.243 52.716 98.6366 50.164 97.4926 47.348C96.3926 44.488 95.8426 41.54 95.8426 38.504C95.8426 35.38 96.4366 32.41 97.6246 29.594C98.8126 26.778 100.463 24.27 102.575 22.07C104.731 19.826 107.261 18.066 110.165 16.79C113.113 15.514 116.325 14.876 119.801 14.876C123.365 14.876 126.599 15.558 129.503 16.922C132.407 18.242 134.893 20.046 136.961 22.334C139.029 24.622 140.613 27.196 141.713 30.056C142.857 32.872 143.429 35.776 143.429 38.768C143.429 41.848 142.835 44.796 141.647 47.612C140.503 50.428 138.853 52.958 136.697 55.202C134.585 57.402 132.077 59.162 129.173 60.482C126.269 61.758 123.057 62.396 119.537 62.396ZM108.911 38.636C108.911 40.22 109.131 41.76 109.571 43.256C110.011 44.708 110.671 46.028 111.551 47.216C112.431 48.36 113.531 49.284 114.851 49.988C116.215 50.648 117.821 50.978 119.669 50.978C121.517 50.978 123.123 50.626 124.487 49.922C125.851 49.218 126.951 48.272 127.787 47.084C128.667 45.852 129.305 44.51 129.701 43.058C130.141 41.562 130.361 40.044 130.361 38.504C130.361 36.92 130.141 35.402 129.701 33.95C129.261 32.498 128.601 31.2 127.721 30.056C126.841 28.868 125.719 27.944 124.355 27.284C122.991 26.624 121.407 26.294 119.603 26.294C117.755 26.294 116.149 26.646 114.785 27.35C113.465 28.054 112.365 29 111.485 30.188C110.605 31.332 109.945 32.652 109.505 34.148C109.109 35.6 108.911 37.096 108.911 38.636ZM184.672 26.36H171.208V62H158.338V26.36H144.808V15.14L184.672 15.14V26.36ZM189.624 62V15.14H202.494V43.652L219.786 15.14H231.798V62H218.928V33.488L201.834 62L189.624 62ZM240.349 62V15.14H253.153V32.366H255.793L267.871 15.14L281.995 15.14L265.495 37.778L283.513 62H267.937L255.265 44.048H253.153V62H240.349Z" fill="black"/>
<path d="M310.026 62V15.14L330.222 15.14C332.51 15.14 334.622 15.602 336.558 16.526C338.494 17.45 340.166 18.704 341.574 20.288C342.982 21.828 344.06 23.566 344.808 25.502C345.6 27.438 345.996 29.396 345.996 31.376C345.996 34.148 345.336 36.766 344.016 39.23C342.74 41.694 340.936 43.718 338.604 45.302C336.316 46.842 333.632 47.612 330.552 47.612H322.896V62H310.026ZM322.896 36.392H329.694C330.222 36.392 330.728 36.238 331.212 35.93C331.696 35.622 332.092 35.094 332.4 34.346C332.752 33.598 332.928 32.608 332.928 31.376C332.928 30.056 332.73 29.044 332.334 28.34C331.982 27.592 331.52 27.086 330.948 26.822C330.42 26.514 329.892 26.36 329.364 26.36H322.896V36.392ZM372.267 62.396C368.703 62.396 365.469 61.736 362.565 60.416C359.661 59.052 357.153 57.248 355.041 55.004C352.973 52.716 351.367 50.164 350.223 47.348C349.123 44.488 348.573 41.54 348.573 38.504C348.573 35.38 349.167 32.41 350.355 29.594C351.543 26.778 353.193 24.27 355.305 22.07C357.461 19.826 359.991 18.066 362.895 16.79C365.843 15.514 369.055 14.876 372.531 14.876C376.095 14.876 379.329 15.558 382.233 16.922C385.137 18.242 387.623 20.046 389.691 22.334C391.759 24.622 393.343 27.196 394.443 30.056C395.587 32.872 396.159 35.776 396.159 38.768C396.159 41.848 395.565 44.796 394.377 47.612C393.233 50.428 391.583 52.958 389.427 55.202C387.315 57.402 384.807 59.162 381.903 60.482C378.999 61.758 375.787 62.396 372.267 62.396ZM361.641 38.636C361.641 40.22 361.861 41.76 362.301 43.256C362.741 44.708 363.401 46.028 364.281 47.216C365.161 48.36 366.261 49.284 367.581 49.988C368.945 50.648 370.551 50.978 372.399 50.978C374.247 50.978 375.853 50.626 377.217 49.922C378.581 49.218 379.681 48.272 380.517 47.084C381.397 45.852 382.035 44.51 382.431 43.058C382.871 41.562 383.091 40.044 383.091 38.504C383.091 36.92 382.871 35.402 382.431 33.95C381.991 32.498 381.331 31.2 380.451 30.056C379.571 28.868 378.449 27.944 377.085 27.284C375.721 26.624 374.137 26.294 372.333 26.294C370.485 26.294 368.879 26.646 367.515 27.35C366.195 28.054 365.095 29 364.215 30.188C363.335 31.332 362.675 32.652 362.235 34.148C361.839 35.6 361.641 37.096 361.641 38.636ZM401.878 62V15.14L437.716 15.14V26.162H414.748V33.29H425.044C430.412 33.29 434.482 34.544 437.254 37.052C440.026 39.56 441.412 42.992 441.412 47.348C441.412 50.384 440.818 53.002 439.63 55.202C438.442 57.358 436.682 59.03 434.35 60.218C432.062 61.406 429.18 62 425.704 62H401.878ZM414.748 50.978H423.79C424.89 50.978 425.748 50.78 426.364 50.384C427.024 49.988 427.486 49.482 427.75 48.866C428.058 48.25 428.212 47.612 428.212 46.952C428.212 46.292 428.08 45.676 427.816 45.104C427.596 44.488 427.156 44.004 426.496 43.652C425.836 43.3 424.912 43.124 423.724 43.124H414.748V50.978ZM467.658 62.396C464.094 62.396 460.86 61.736 457.956 60.416C455.052 59.052 452.544 57.248 450.432 55.004C448.364 52.716 446.758 50.164 445.614 47.348C444.514 44.488 443.964 41.54 443.964 38.504C443.964 35.38 444.558 32.41 445.746 29.594C446.934 26.778 448.584 24.27 450.696 22.07C452.852 19.826 455.382 18.066 458.286 16.79C461.234 15.514 464.446 14.876 467.922 14.876C471.486 14.876 474.72 15.558 477.624 16.922C480.528 18.242 483.014 20.046 485.082 22.334C487.15 24.622 488.734 27.196 489.834 30.056C490.978 32.872 491.55 35.776 491.55 38.768C491.55 41.848 490.956 44.796 489.768 47.612C488.624 50.428 486.974 52.958 484.818 55.202C482.706 57.402 480.198 59.162 477.294 60.482C474.39 61.758 471.178 62.396 467.658 62.396ZM457.032 38.636C457.032 40.22 457.252 41.76 457.692 43.256C458.132 44.708 458.792 46.028 459.672 47.216C460.552 48.36 461.652 49.284 462.972 49.988C464.336 50.648 465.942 50.978 467.79 50.978C469.638 50.978 471.244 50.626 472.608 49.922C473.972 49.218 475.072 48.272 475.908 47.084C476.788 45.852 477.426 44.51 477.822 43.058C478.262 41.562 478.482 40.044 478.482 38.504C478.482 36.92 478.262 35.402 477.822 33.95C477.382 32.498 476.722 31.2 475.842 30.056C474.962 28.868 473.84 27.944 472.476 27.284C471.112 26.624 469.528 26.294 467.724 26.294C465.876 26.294 464.27 26.646 462.906 27.35C461.586 28.054 460.486 29 459.606 30.188C458.726 31.332 458.066 32.652 457.626 34.148C457.23 35.6 457.032 37.096 457.032 38.636ZM532.794 26.36L519.33 26.36V62H506.46V26.36H492.93V15.14L532.794 15.14V26.36ZM537.745 62V15.14L550.615 15.14V43.652L567.907 15.14L579.919 15.14V62H567.049V33.488L549.955 62H537.745ZM588.47 62V15.14H601.274V32.366H603.914L615.992 15.14H630.116L613.616 37.778L631.634 62L616.058 62L603.386 44.048H601.274V62H588.47Z" fill="#00B3FF"/>
<path d="M658.026 62V15.14L678.222 15.14C680.51 15.14 682.622 15.602 684.558 16.526C686.494 17.45 688.166 18.704 689.574 20.288C690.982 21.828 692.06 23.566 692.808 25.502C693.6 27.438 693.996 29.396 693.996 31.376C693.996 34.148 693.336 36.766 692.016 39.23C690.74 41.694 688.936 43.718 686.604 45.302C684.316 46.842 681.632 47.612 678.552 47.612H670.896V62H658.026ZM670.896 36.392H677.694C678.222 36.392 678.728 36.238 679.212 35.93C679.696 35.622 680.092 35.094 680.4 34.346C680.752 33.598 680.928 32.608 680.928 31.376C680.928 30.056 680.73 29.044 680.334 28.34C679.982 27.592 679.52 27.086 678.948 26.822C678.42 26.514 677.892 26.36 677.364 26.36H670.896V36.392ZM720.267 62.396C716.703 62.396 713.469 61.736 710.565 60.416C707.661 59.052 705.153 57.248 703.041 55.004C700.973 52.716 699.367 50.164 698.223 47.348C697.123 44.488 696.573 41.54 696.573 38.504C696.573 35.38 697.167 32.41 698.355 29.594C699.543 26.778 701.193 24.27 703.305 22.07C705.461 19.826 707.991 18.066 710.895 16.79C713.843 15.514 717.055 14.876 720.531 14.876C724.095 14.876 727.329 15.558 730.233 16.922C733.137 18.242 735.623 20.046 737.691 22.334C739.759 24.622 741.343 27.196 742.443 30.056C743.587 32.872 744.159 35.776 744.159 38.768C744.159 41.848 743.565 44.796 742.377 47.612C741.233 50.428 739.583 52.958 737.427 55.202C735.315 57.402 732.807 59.162 729.903 60.482C726.999 61.758 723.787 62.396 720.267 62.396ZM709.641 38.636C709.641 40.22 709.861 41.76 710.301 43.256C710.741 44.708 711.401 46.028 712.281 47.216C713.161 48.36 714.261 49.284 715.581 49.988C716.945 50.648 718.551 50.978 720.399 50.978C722.247 50.978 723.853 50.626 725.217 49.922C726.581 49.218 727.681 48.272 728.517 47.084C729.397 45.852 730.035 44.51 730.431 43.058C730.871 41.562 731.091 40.044 731.091 38.504C731.091 36.92 730.871 35.402 730.431 33.95C729.991 32.498 729.331 31.2 728.451 30.056C727.571 28.868 726.449 27.944 725.085 27.284C723.721 26.624 722.137 26.294 720.333 26.294C718.485 26.294 716.879 26.646 715.515 27.35C714.195 28.054 713.095 29 712.215 30.188C711.335 31.332 710.675 32.652 710.235 34.148C709.839 35.6 709.641 37.096 709.641 38.636ZM749.878 62V15.14L785.716 15.14V26.162H762.748V33.29H773.044C778.412 33.29 782.482 34.544 785.254 37.052C788.026 39.56 789.412 42.992 789.412 47.348C789.412 50.384 788.818 53.002 787.63 55.202C786.442 57.358 784.682 59.03 782.35 60.218C780.062 61.406 777.18 62 773.704 62H749.878ZM762.748 50.978H771.79C772.89 50.978 773.748 50.78 774.364 50.384C775.024 49.988 775.486 49.482 775.75 48.866C776.058 48.25 776.212 47.612 776.212 46.952C776.212 46.292 776.08 45.676 775.816 45.104C775.596 44.488 775.156 44.004 774.496 43.652C773.836 43.3 772.912 43.124 771.724 43.124H762.748V50.978ZM815.658 62.396C812.094 62.396 808.86 61.736 805.956 60.416C803.052 59.052 800.544 57.248 798.432 55.004C796.364 52.716 794.758 50.164 793.614 47.348C792.514 44.488 791.964 41.54 791.964 38.504C791.964 35.38 792.558 32.41 793.746 29.594C794.934 26.778 796.584 24.27 798.696 22.07C800.852 19.826 803.382 18.066 806.286 16.79C809.234 15.514 812.446 14.876 815.922 14.876C819.486 14.876 822.72 15.558 825.624 16.922C828.528 18.242 831.014 20.046 833.082 22.334C835.15 24.622 836.734 27.196 837.834 30.056C838.978 32.872 839.55 35.776 839.55 38.768C839.55 41.848 838.956 44.796 837.768 47.612C836.624 50.428 834.974 52.958 832.818 55.202C830.706 57.402 828.198 59.162 825.294 60.482C822.39 61.758 819.178 62.396 815.658 62.396ZM805.032 38.636C805.032 40.22 805.252 41.76 805.692 43.256C806.132 44.708 806.792 46.028 807.672 47.216C808.552 48.36 809.652 49.284 810.972 49.988C812.336 50.648 813.942 50.978 815.79 50.978C817.638 50.978 819.244 50.626 820.608 49.922C821.972 49.218 823.072 48.272 823.908 47.084C824.788 45.852 825.426 44.51 825.822 43.058C826.262 41.562 826.482 40.044 826.482 38.504C826.482 36.92 826.262 35.402 825.822 33.95C825.382 32.498 824.722 31.2 823.842 30.056C822.962 28.868 821.84 27.944 820.476 27.284C819.112 26.624 817.528 26.294 815.724 26.294C813.876 26.294 812.27 26.646 810.906 27.35C809.586 28.054 808.486 29 807.606 30.188C806.726 31.332 806.066 32.652 805.626 34.148C805.23 35.6 805.032 37.096 805.032 38.636ZM880.794 26.36L867.33 26.36V62H854.46V26.36H840.93V15.14L880.794 15.14V26.36ZM885.745 62V15.14L898.615 15.14V43.652L915.907 15.14L927.919 15.14V62H915.049V33.488L897.955 62H885.745ZM936.47 62V15.14H949.274V32.366H951.914L963.992 15.14H978.116L961.616 37.778L979.634 62L964.058 62L951.386 44.048H949.274V62H936.47Z" fill="black"/>
<path d="M1006.03 62V15.14L1026.22 15.14C1028.51 15.14 1030.62 15.602 1032.56 16.526C1034.49 17.45 1036.17 18.704 1037.57 20.288C1038.98 21.828 1040.06 23.566 1040.81 25.502C1041.6 27.438 1042 29.396 1042 31.376C1042 34.148 1041.34 36.766 1040.02 39.23C1038.74 41.694 1036.94 43.718 1034.6 45.302C1032.32 46.842 1029.63 47.612 1026.55 47.612H1018.9V62H1006.03ZM1018.9 36.392H1025.69C1026.22 36.392 1026.73 36.238 1027.21 35.93C1027.7 35.622 1028.09 35.094 1028.4 34.346C1028.75 33.598 1028.93 32.608 1028.93 31.376C1028.93 30.056 1028.73 29.044 1028.33 28.34C1027.98 27.592 1027.52 27.086 1026.95 26.822C1026.42 26.514 1025.89 26.36 1025.36 26.36H1018.9V36.392ZM1068.27 62.396C1064.7 62.396 1061.47 61.736 1058.57 60.416C1055.66 59.052 1053.15 57.248 1051.04 55.004C1048.97 52.716 1047.37 50.164 1046.22 47.348C1045.12 44.488 1044.57 41.54 1044.57 38.504C1044.57 35.38 1045.17 32.41 1046.36 29.594C1047.54 26.778 1049.19 24.27 1051.31 22.07C1053.46 19.826 1055.99 18.066 1058.9 16.79C1061.84 15.514 1065.06 14.876 1068.53 14.876C1072.1 14.876 1075.33 15.558 1078.23 16.922C1081.14 18.242 1083.62 20.046 1085.69 22.334C1087.76 24.622 1089.34 27.196 1090.44 30.056C1091.59 32.872 1092.16 35.776 1092.16 38.768C1092.16 41.848 1091.57 44.796 1090.38 47.612C1089.23 50.428 1087.58 52.958 1085.43 55.202C1083.32 57.402 1080.81 59.162 1077.9 60.482C1075 61.758 1071.79 62.396 1068.27 62.396ZM1057.64 38.636C1057.64 40.22 1057.86 41.76 1058.3 43.256C1058.74 44.708 1059.4 46.028 1060.28 47.216C1061.16 48.36 1062.26 49.284 1063.58 49.988C1064.95 50.648 1066.55 50.978 1068.4 50.978C1070.25 50.978 1071.85 50.626 1073.22 49.922C1074.58 49.218 1075.68 48.272 1076.52 47.084C1077.4 45.852 1078.04 44.51 1078.43 43.058C1078.87 41.562 1079.09 40.044 1079.09 38.504C1079.09 36.92 1078.87 35.402 1078.43 33.95C1077.99 32.498 1077.33 31.2 1076.45 30.056C1075.57 28.868 1074.45 27.944 1073.09 27.284C1071.72 26.624 1070.14 26.294 1068.33 26.294C1066.49 26.294 1064.88 26.646 1063.52 27.35C1062.2 28.054 1061.1 29 1060.22 30.188C1059.34 31.332 1058.68 32.652 1058.24 34.148C1057.84 35.6 1057.64 37.096 1057.64 38.636ZM1097.88 62V15.14L1133.72 15.14V26.162H1110.75V33.29H1121.04C1126.41 33.29 1130.48 34.544 1133.25 37.052C1136.03 39.56 1137.41 42.992 1137.41 47.348C1137.41 50.384 1136.82 53.002 1135.63 55.202C1134.44 57.358 1132.68 59.03 1130.35 60.218C1128.06 61.406 1125.18 62 1121.7 62H1097.88ZM1110.75 50.978H1119.79C1120.89 50.978 1121.75 50.78 1122.36 50.384C1123.02 49.988 1123.49 49.482 1123.75 48.866C1124.06 48.25 1124.21 47.612 1124.21 46.952C1124.21 46.292 1124.08 45.676 1123.82 45.104C1123.6 44.488 1123.16 44.004 1122.5 43.652C1121.84 43.3 1120.91 43.124 1119.72 43.124H1110.75V50.978ZM1163.66 62.396C1160.09 62.396 1156.86 61.736 1153.96 60.416C1151.05 59.052 1148.54 57.248 1146.43 55.004C1144.36 52.716 1142.76 50.164 1141.61 47.348C1140.51 44.488 1139.96 41.54 1139.96 38.504C1139.96 35.38 1140.56 32.41 1141.75 29.594C1142.93 26.778 1144.58 24.27 1146.7 22.07C1148.85 19.826 1151.38 18.066 1154.29 16.79C1157.23 15.514 1160.45 14.876 1163.92 14.876C1167.49 14.876 1170.72 15.558 1173.62 16.922C1176.53 18.242 1179.01 20.046 1181.08 22.334C1183.15 24.622 1184.73 27.196 1185.83 30.056C1186.98 32.872 1187.55 35.776 1187.55 38.768C1187.55 41.848 1186.96 44.796 1185.77 47.612C1184.62 50.428 1182.97 52.958 1180.82 55.202C1178.71 57.402 1176.2 59.162 1173.29 60.482C1170.39 61.758 1167.18 62.396 1163.66 62.396ZM1153.03 38.636C1153.03 40.22 1153.25 41.76 1153.69 43.256C1154.13 44.708 1154.79 46.028 1155.67 47.216C1156.55 48.36 1157.65 49.284 1158.97 49.988C1160.34 50.648 1161.94 50.978 1163.79 50.978C1165.64 50.978 1167.24 50.626 1168.61 49.922C1169.97 49.218 1171.07 48.272 1171.91 47.084C1172.79 45.852 1173.43 44.51 1173.82 43.058C1174.26 41.562 1174.48 40.044 1174.48 38.504C1174.48 36.92 1174.26 35.402 1173.82 33.95C1173.38 32.498 1172.72 31.2 1171.84 30.056C1170.96 28.868 1169.84 27.944 1168.48 27.284C1167.11 26.624 1165.53 26.294 1163.72 26.294C1161.88 26.294 1160.27 26.646 1158.91 27.35C1157.59 28.054 1156.49 29 1155.61 30.188C1154.73 31.332 1154.07 32.652 1153.63 34.148C1153.23 35.6 1153.03 37.096 1153.03 38.636ZM1228.79 26.36L1215.33 26.36V62H1202.46V26.36H1188.93V15.14L1228.79 15.14V26.36ZM1233.75 62V15.14L1246.62 15.14V43.652L1263.91 15.14L1275.92 15.14V62H1263.05V33.488L1245.96 62H1233.75ZM1284.47 62V15.14H1297.27V32.366H1299.91L1311.99 15.14H1326.12L1309.62 37.778L1327.63 62L1312.06 62L1299.39 44.048H1297.27V62H1284.47Z" fill="#00B3FF"/>
<path d="M1354.03 62V15.14L1374.22 15.14C1376.51 15.14 1378.62 15.602 1380.56 16.526C1382.49 17.45 1384.17 18.704 1385.57 20.288C1386.98 21.828 1388.06 23.566 1388.81 25.502C1389.6 27.438 1390 29.396 1390 31.376C1390 34.148 1389.34 36.766 1388.02 39.23C1386.74 41.694 1384.94 43.718 1382.6 45.302C1380.32 46.842 1377.63 47.612 1374.55 47.612H1366.9V62H1354.03ZM1366.9 36.392H1373.69C1374.22 36.392 1374.73 36.238 1375.21 35.93C1375.7 35.622 1376.09 35.094 1376.4 34.346C1376.75 33.598 1376.93 32.608 1376.93 31.376C1376.93 30.056 1376.73 29.044 1376.33 28.34C1375.98 27.592 1375.52 27.086 1374.95 26.822C1374.42 26.514 1373.89 26.36 1373.36 26.36H1366.9V36.392ZM1416.27 62.396C1412.7 62.396 1409.47 61.736 1406.57 60.416C1403.66 59.052 1401.15 57.248 1399.04 55.004C1396.97 52.716 1395.37 50.164 1394.22 47.348C1393.12 44.488 1392.57 41.54 1392.57 38.504C1392.57 35.38 1393.17 32.41 1394.36 29.594C1395.54 26.778 1397.19 24.27 1399.31 22.07C1401.46 19.826 1403.99 18.066 1406.9 16.79C1409.84 15.514 1413.06 14.876 1416.53 14.876C1420.1 14.876 1423.33 15.558 1426.23 16.922C1429.14 18.242 1431.62 20.046 1433.69 22.334C1435.76 24.622 1437.34 27.196 1438.44 30.056C1439.59 32.872 1440.16 35.776 1440.16 38.768C1440.16 41.848 1439.57 44.796 1438.38 47.612C1437.23 50.428 1435.58 52.958 1433.43 55.202C1431.32 57.402 1428.81 59.162 1425.9 60.482C1423 61.758 1419.79 62.396 1416.27 62.396ZM1405.64 38.636C1405.64 40.22 1405.86 41.76 1406.3 43.256C1406.74 44.708 1407.4 46.028 1408.28 47.216C1409.16 48.36 1410.26 49.284 1411.58 49.988C1412.95 50.648 1414.55 50.978 1416.4 50.978C1418.25 50.978 1419.85 50.626 1421.22 49.922C1422.58 49.218 1423.68 48.272 1424.52 47.084C1425.4 45.852 1426.04 44.51 1426.43 43.058C1426.87 41.562 1427.09 40.044 1427.09 38.504C1427.09 36.92 1426.87 35.402 1426.43 33.95C1425.99 32.498 1425.33 31.2 1424.45 30.056C1423.57 28.868 1422.45 27.944 1421.09 27.284C1419.72 26.624 1418.14 26.294 1416.33 26.294C1414.49 26.294 1412.88 26.646 1411.52 27.35C1410.2 28.054 1409.1 29 1408.22 30.188C1407.34 31.332 1406.68 32.652 1406.24 34.148C1405.84 35.6 1405.64 37.096 1405.64 38.636Z" fill="black"/>
</svg>
