<svg width="2140" height="136" viewBox="0 0 2140 136" fill="none" xmlns="http://www.w3.org/2000/svg">
<path d="M3.904 60L3.904 14.56L23.488 14.56C25.7067 14.56 27.7547 15.008 29.632 15.904C31.5093 16.8 33.1307 18.016 34.496 19.552C35.8613 21.0453 36.9067 22.7307 37.632 24.608C38.4 26.4853 38.784 28.384 38.784 30.304C38.784 32.992 38.144 35.5307 36.864 37.92C35.6267 40.3093 33.8773 42.272 31.616 43.808C29.3973 45.3013 26.7947 46.048 23.808 46.048H16.384V60H3.904ZM16.384 35.168H22.976C23.488 35.168 23.9787 35.0187 24.448 34.72C24.9173 34.4213 25.3013 33.9093 25.6 33.184C25.9413 32.4587 26.112 31.4987 26.112 30.304C26.112 29.024 25.92 28.0427 25.536 27.36C25.1947 26.6347 24.7467 26.144 24.192 25.888C23.68 25.5893 23.168 25.44 22.656 25.44H16.384L16.384 35.168ZM64.259 60.384C60.803 60.384 57.667 59.744 54.851 58.464C52.035 57.1413 49.603 55.392 47.555 53.216C45.5497 50.9973 43.9923 48.5227 42.883 45.792C41.8163 43.0187 41.283 40.16 41.283 37.216C41.283 34.1867 41.859 31.3067 43.011 28.576C44.163 25.8453 45.763 23.4133 47.811 21.28C49.9017 19.104 52.355 17.3973 55.171 16.16C58.0297 14.9227 61.1443 14.304 64.515 14.304C67.971 14.304 71.107 14.9653 73.923 16.288C76.739 17.568 79.1497 19.3173 81.155 21.536C83.1603 23.7547 84.6963 26.2507 85.763 29.024C86.8723 31.7547 87.427 34.5707 87.427 37.472C87.427 40.4587 86.851 43.3173 85.699 46.048C84.5897 48.7787 82.9897 51.232 80.899 53.408C78.851 55.5413 76.419 57.248 73.603 58.528C70.787 59.7653 67.6723 60.384 64.259 60.384ZM53.955 37.344C53.955 38.88 54.1683 40.3733 54.595 41.824C55.0217 43.232 55.6617 44.512 56.515 45.664C57.3683 46.7733 58.435 47.6693 59.715 48.352C61.0377 48.992 62.595 49.312 64.387 49.312C66.179 49.312 67.7363 48.9707 69.059 48.288C70.3817 47.6053 71.4483 46.688 72.259 45.536C73.1123 44.3413 73.731 43.04 74.115 41.632C74.5417 40.1813 74.755 38.7093 74.755 37.216C74.755 35.68 74.5417 34.208 74.115 32.8C73.6883 31.392 73.0483 30.1333 72.195 29.024C71.3417 27.872 70.2537 26.976 68.931 26.336C67.6083 25.696 66.0723 25.376 64.323 25.376C62.531 25.376 60.9737 25.7173 59.651 26.4C58.371 27.0827 57.3043 28 56.451 29.152C55.5977 30.2613 54.9577 31.5413 54.531 32.992C54.147 34.4 53.955 35.8507 53.955 37.344ZM92.9725 60V14.56L127.725 14.56V25.248H105.453V32.16H115.437C120.642 32.16 124.589 33.376 127.277 35.808C129.965 38.24 131.309 41.568 131.309 45.792C131.309 48.736 130.733 51.2747 129.581 53.408C128.429 55.4987 126.722 57.12 124.461 58.272C122.242 59.424 119.447 60 116.077 60H92.9725ZM105.453 49.312H114.221C115.287 49.312 116.119 49.12 116.717 48.736C117.357 48.352 117.805 47.8613 118.061 47.264C118.359 46.6667 118.509 46.048 118.509 45.408C118.509 44.768 118.381 44.1707 118.125 43.616C117.911 43.0187 117.485 42.5493 116.845 42.208C116.205 41.8667 115.309 41.696 114.157 41.696H105.453V49.312ZM156.759 60.384C153.303 60.384 150.167 59.744 147.351 58.464C144.535 57.1413 142.103 55.392 140.055 53.216C138.05 50.9973 136.492 48.5227 135.383 45.792C134.316 43.0187 133.783 40.16 133.783 37.216C133.783 34.1867 134.359 31.3067 135.511 28.576C136.663 25.8453 138.263 23.4133 140.311 21.28C142.402 19.104 144.855 17.3973 147.671 16.16C150.53 14.9227 153.644 14.304 157.015 14.304C160.471 14.304 163.607 14.9653 166.423 16.288C169.239 17.568 171.65 19.3173 173.655 21.536C175.66 23.7547 177.196 26.2507 178.263 29.024C179.372 31.7547 179.927 34.5707 179.927 37.472C179.927 40.4587 179.351 43.3173 178.199 46.048C177.09 48.7787 175.49 51.232 173.399 53.408C171.351 55.5413 168.919 57.248 166.103 58.528C163.287 59.7653 160.172 60.384 156.759 60.384ZM146.455 37.344C146.455 38.88 146.668 40.3733 147.095 41.824C147.522 43.232 148.162 44.512 149.015 45.664C149.868 46.7733 150.935 47.6693 152.215 48.352C153.538 48.992 155.095 49.312 156.887 49.312C158.679 49.312 160.236 48.9707 161.559 48.288C162.882 47.6053 163.948 46.688 164.759 45.536C165.612 44.3413 166.231 43.04 166.615 41.632C167.042 40.1813 167.255 38.7093 167.255 37.216C167.255 35.68 167.042 34.208 166.615 32.8C166.188 31.392 165.548 30.1333 164.695 29.024C163.842 27.872 162.754 26.976 161.431 26.336C160.108 25.696 158.572 25.376 156.823 25.376C155.031 25.376 153.474 25.7173 152.151 26.4C150.871 27.0827 149.804 28 148.951 29.152C148.098 30.2613 147.458 31.5413 147.031 32.992C146.647 34.4 146.455 35.8507 146.455 37.344ZM219.921 25.44H206.865V60H194.385V25.44H181.265V14.56L219.921 14.56V25.44ZM224.723 60V14.56H237.203V42.208L253.971 14.56H265.619V60H253.139V32.352L236.562 60H224.723ZM273.91 60V14.56H286.326V31.264L288.886 31.264L300.598 14.56L314.294 14.56L298.294 36.512L315.766 60H300.662L288.374 42.592H286.326V60H273.91Z" fill="black"/>
<path d="M341.904 60V14.56L361.488 14.56C363.707 14.56 365.755 15.008 367.632 15.904C369.509 16.8 371.131 18.016 372.496 19.552C373.861 21.0453 374.907 22.7307 375.632 24.608C376.4 26.4853 376.784 28.384 376.784 30.304C376.784 32.992 376.144 35.5307 374.864 37.92C373.627 40.3093 371.877 42.272 369.616 43.808C367.397 45.3013 364.795 46.048 361.808 46.048H354.384V60H341.904ZM354.384 35.168H360.976C361.488 35.168 361.979 35.0187 362.448 34.72C362.917 34.4213 363.301 33.9093 363.6 33.184C363.941 32.4587 364.112 31.4987 364.112 30.304C364.112 29.024 363.92 28.0427 363.536 27.36C363.195 26.6347 362.747 26.144 362.192 25.888C361.68 25.5893 361.168 25.44 360.656 25.44H354.384V35.168ZM402.259 60.384C398.803 60.384 395.667 59.744 392.851 58.464C390.035 57.1413 387.603 55.392 385.555 53.216C383.55 50.9973 381.992 48.5227 380.883 45.792C379.816 43.0187 379.283 40.16 379.283 37.216C379.283 34.1867 379.859 31.3067 381.011 28.576C382.163 25.8453 383.763 23.4133 385.811 21.28C387.902 19.104 390.355 17.3973 393.171 16.16C396.03 14.9227 399.144 14.304 402.515 14.304C405.971 14.304 409.107 14.9653 411.923 16.288C414.739 17.568 417.15 19.3173 419.155 21.536C421.16 23.7547 422.696 26.2507 423.763 29.024C424.872 31.7547 425.427 34.5707 425.427 37.472C425.427 40.4587 424.851 43.3173 423.699 46.048C422.59 48.7787 420.99 51.232 418.899 53.408C416.851 55.5413 414.419 57.248 411.603 58.528C408.787 59.7653 405.672 60.384 402.259 60.384ZM391.955 37.344C391.955 38.88 392.168 40.3733 392.595 41.824C393.022 43.232 393.662 44.512 394.515 45.664C395.368 46.7733 396.435 47.6693 397.715 48.352C399.038 48.992 400.595 49.312 402.387 49.312C404.179 49.312 405.736 48.9707 407.059 48.288C408.382 47.6053 409.448 46.688 410.259 45.536C411.112 44.3413 411.731 43.04 412.115 41.632C412.542 40.1813 412.755 38.7093 412.755 37.216C412.755 35.68 412.542 34.208 412.115 32.8C411.688 31.392 411.048 30.1333 410.195 29.024C409.342 27.872 408.254 26.976 406.931 26.336C405.608 25.696 404.072 25.376 402.323 25.376C400.531 25.376 398.974 25.7173 397.651 26.4C396.371 27.0827 395.304 28 394.451 29.152C393.598 30.2613 392.958 31.5413 392.531 32.992C392.147 34.4 391.955 35.8507 391.955 37.344ZM430.973 60V14.56L465.725 14.56V25.248H443.453V32.16H453.437C458.642 32.16 462.589 33.376 465.277 35.808C467.965 38.24 469.309 41.568 469.309 45.792C469.309 48.736 468.733 51.2747 467.581 53.408C466.429 55.4987 464.722 57.12 462.461 58.272C460.242 59.424 457.447 60 454.077 60H430.973ZM443.453 49.312H452.221C453.287 49.312 454.119 49.12 454.717 48.736C455.357 48.352 455.805 47.8613 456.061 47.264C456.359 46.6667 456.509 46.048 456.509 45.408C456.509 44.768 456.381 44.1707 456.125 43.616C455.911 43.0187 455.485 42.5493 454.845 42.208C454.205 41.8667 453.309 41.696 452.157 41.696H443.453V49.312ZM494.759 60.384C491.303 60.384 488.167 59.744 485.351 58.464C482.535 57.1413 480.103 55.392 478.055 53.216C476.05 50.9973 474.492 48.5227 473.383 45.792C472.316 43.0187 471.783 40.16 471.783 37.216C471.783 34.1867 472.359 31.3067 473.511 28.576C474.663 25.8453 476.263 23.4133 478.311 21.28C480.402 19.104 482.855 17.3973 485.671 16.16C488.53 14.9227 491.644 14.304 495.015 14.304C498.471 14.304 501.607 14.9653 504.423 16.288C507.239 17.568 509.65 19.3173 511.655 21.536C513.66 23.7547 515.196 26.2507 516.263 29.024C517.372 31.7547 517.927 34.5707 517.927 37.472C517.927 40.4587 517.351 43.3173 516.199 46.048C515.09 48.7787 513.49 51.232 511.399 53.408C509.351 55.5413 506.919 57.248 504.103 58.528C501.287 59.7653 498.172 60.384 494.759 60.384ZM484.455 37.344C484.455 38.88 484.668 40.3733 485.095 41.824C485.522 43.232 486.162 44.512 487.015 45.664C487.868 46.7733 488.935 47.6693 490.215 48.352C491.538 48.992 493.095 49.312 494.887 49.312C496.679 49.312 498.236 48.9707 499.559 48.288C500.882 47.6053 501.948 46.688 502.759 45.536C503.612 44.3413 504.231 43.04 504.615 41.632C505.042 40.1813 505.255 38.7093 505.255 37.216C505.255 35.68 505.042 34.208 504.615 32.8C504.188 31.392 503.548 30.1333 502.695 29.024C501.842 27.872 500.754 26.976 499.431 26.336C498.108 25.696 496.572 25.376 494.823 25.376C493.031 25.376 491.474 25.7173 490.151 26.4C488.871 27.0827 487.804 28 486.951 29.152C486.098 30.2613 485.458 31.5413 485.031 32.992C484.647 34.4 484.455 35.8507 484.455 37.344ZM557.921 25.44H544.865V60H532.385V25.44H519.265V14.56L557.921 14.56V25.44ZM562.723 60V14.56H575.203V42.208L591.971 14.56H603.619V60H591.139V32.352L574.562 60H562.723ZM611.91 60V14.56H624.326V31.264L626.886 31.264L638.598 14.56L652.294 14.56L636.294 36.512L653.766 60H638.662L626.374 42.592H624.326V60H611.91Z" fill="#00B3FF"/>
<path d="M679.904 60V14.56L699.488 14.56C701.707 14.56 703.755 15.008 705.632 15.904C707.509 16.8 709.131 18.016 710.496 19.552C711.861 21.0453 712.907 22.7307 713.632 24.608C714.4 26.4853 714.784 28.384 714.784 30.304C714.784 32.992 714.144 35.5307 712.864 37.92C711.627 40.3093 709.877 42.272 707.616 43.808C705.397 45.3013 702.795 46.048 699.808 46.048H692.384V60H679.904ZM692.384 35.168H698.976C699.488 35.168 699.979 35.0187 700.448 34.72C700.917 34.4213 701.301 33.9093 701.6 33.184C701.941 32.4587 702.112 31.4987 702.112 30.304C702.112 29.024 701.92 28.0427 701.536 27.36C701.195 26.6347 700.747 26.144 700.192 25.888C699.68 25.5893 699.168 25.44 698.656 25.44H692.384V35.168ZM740.259 60.384C736.803 60.384 733.667 59.744 730.851 58.464C728.035 57.1413 725.603 55.392 723.555 53.216C721.55 50.9973 719.992 48.5227 718.883 45.792C717.816 43.0187 717.283 40.16 717.283 37.216C717.283 34.1867 717.859 31.3067 719.011 28.576C720.163 25.8453 721.763 23.4133 723.811 21.28C725.902 19.104 728.355 17.3973 731.171 16.16C734.03 14.9227 737.144 14.304 740.515 14.304C743.971 14.304 747.107 14.9653 749.923 16.288C752.739 17.568 755.15 19.3173 757.155 21.536C759.16 23.7547 760.696 26.2507 761.763 29.024C762.872 31.7547 763.427 34.5707 763.427 37.472C763.427 40.4587 762.851 43.3173 761.699 46.048C760.59 48.7787 758.99 51.232 756.899 53.408C754.851 55.5413 752.419 57.248 749.603 58.528C746.787 59.7653 743.672 60.384 740.259 60.384ZM729.955 37.344C729.955 38.88 730.168 40.3733 730.595 41.824C731.022 43.232 731.662 44.512 732.515 45.664C733.368 46.7733 734.435 47.6693 735.715 48.352C737.038 48.992 738.595 49.312 740.387 49.312C742.179 49.312 743.736 48.9707 745.059 48.288C746.382 47.6053 747.448 46.688 748.259 45.536C749.112 44.3413 749.731 43.04 750.115 41.632C750.542 40.1813 750.755 38.7093 750.755 37.216C750.755 35.68 750.542 34.208 750.115 32.8C749.688 31.392 749.048 30.1333 748.195 29.024C747.342 27.872 746.254 26.976 744.931 26.336C743.608 25.696 742.072 25.376 740.323 25.376C738.531 25.376 736.974 25.7173 735.651 26.4C734.371 27.0827 733.304 28 732.451 29.152C731.598 30.2613 730.958 31.5413 730.531 32.992C730.147 34.4 729.955 35.8507 729.955 37.344ZM768.973 60V14.56L803.725 14.56V25.248H781.453V32.16H791.437C796.642 32.16 800.589 33.376 803.277 35.808C805.965 38.24 807.309 41.568 807.309 45.792C807.309 48.736 806.733 51.2747 805.581 53.408C804.429 55.4987 802.722 57.12 800.461 58.272C798.242 59.424 795.447 60 792.077 60H768.973ZM781.453 49.312H790.221C791.287 49.312 792.119 49.12 792.717 48.736C793.357 48.352 793.805 47.8613 794.061 47.264C794.359 46.6667 794.509 46.048 794.509 45.408C794.509 44.768 794.381 44.1707 794.125 43.616C793.911 43.0187 793.485 42.5493 792.845 42.208C792.205 41.8667 791.309 41.696 790.157 41.696H781.453V49.312ZM832.759 60.384C829.303 60.384 826.167 59.744 823.351 58.464C820.535 57.1413 818.103 55.392 816.055 53.216C814.05 50.9973 812.492 48.5227 811.383 45.792C810.316 43.0187 809.783 40.16 809.783 37.216C809.783 34.1867 810.359 31.3067 811.511 28.576C812.663 25.8453 814.263 23.4133 816.311 21.28C818.402 19.104 820.855 17.3973 823.671 16.16C826.53 14.9227 829.644 14.304 833.015 14.304C836.471 14.304 839.607 14.9653 842.423 16.288C845.239 17.568 847.65 19.3173 849.655 21.536C851.66 23.7547 853.196 26.2507 854.263 29.024C855.372 31.7547 855.927 34.5707 855.927 37.472C855.927 40.4587 855.351 43.3173 854.199 46.048C853.09 48.7787 851.49 51.232 849.399 53.408C847.351 55.5413 844.919 57.248 842.103 58.528C839.287 59.7653 836.172 60.384 832.759 60.384ZM822.455 37.344C822.455 38.88 822.668 40.3733 823.095 41.824C823.522 43.232 824.162 44.512 825.015 45.664C825.868 46.7733 826.935 47.6693 828.215 48.352C829.538 48.992 831.095 49.312 832.887 49.312C834.679 49.312 836.236 48.9707 837.559 48.288C838.882 47.6053 839.948 46.688 840.759 45.536C841.612 44.3413 842.231 43.04 842.615 41.632C843.042 40.1813 843.255 38.7093 843.255 37.216C843.255 35.68 843.042 34.208 842.615 32.8C842.188 31.392 841.548 30.1333 840.695 29.024C839.842 27.872 838.754 26.976 837.431 26.336C836.108 25.696 834.572 25.376 832.823 25.376C831.031 25.376 829.474 25.7173 828.151 26.4C826.871 27.0827 825.804 28 824.951 29.152C824.098 30.2613 823.458 31.5413 823.031 32.992C822.647 34.4 822.455 35.8507 822.455 37.344ZM895.921 25.44H882.865V60H870.385V25.44H857.265V14.56L895.921 14.56V25.44ZM900.723 60V14.56H913.203V42.208L929.971 14.56H941.619V60H929.139V32.352L912.562 60H900.723ZM949.91 60V14.56H962.326V31.264L964.886 31.264L976.598 14.56L990.294 14.56L974.294 36.512L991.766 60H976.662L964.374 42.592H962.326V60H949.91Z" fill="black"/>
<path d="M1017.9 60V14.56L1037.49 14.56C1039.71 14.56 1041.75 15.008 1043.63 15.904C1045.51 16.8 1047.13 18.016 1048.5 19.552C1049.86 21.0453 1050.91 22.7307 1051.63 24.608C1052.4 26.4853 1052.78 28.384 1052.78 30.304C1052.78 32.992 1052.14 35.5307 1050.86 37.92C1049.63 40.3093 1047.88 42.272 1045.62 43.808C1043.4 45.3013 1040.79 46.048 1037.81 46.048H1030.38V60H1017.9ZM1030.38 35.168H1036.98C1037.49 35.168 1037.98 35.0187 1038.45 34.72C1038.92 34.4213 1039.3 33.9093 1039.6 33.184C1039.94 32.4587 1040.11 31.4987 1040.11 30.304C1040.11 29.024 1039.92 28.0427 1039.54 27.36C1039.19 26.6347 1038.75 26.144 1038.19 25.888C1037.68 25.5893 1037.17 25.44 1036.66 25.44H1030.38V35.168ZM1078.26 60.384C1074.8 60.384 1071.67 59.744 1068.85 58.464C1066.04 57.1413 1063.6 55.392 1061.56 53.216C1059.55 50.9973 1057.99 48.5227 1056.88 45.792C1055.82 43.0187 1055.28 40.16 1055.28 37.216C1055.28 34.1867 1055.86 31.3067 1057.01 28.576C1058.16 25.8453 1059.76 23.4133 1061.81 21.28C1063.9 19.104 1066.36 17.3973 1069.17 16.16C1072.03 14.9227 1075.14 14.304 1078.52 14.304C1081.97 14.304 1085.11 14.9653 1087.92 16.288C1090.74 17.568 1093.15 19.3173 1095.16 21.536C1097.16 23.7547 1098.7 26.2507 1099.76 29.024C1100.87 31.7547 1101.43 34.5707 1101.43 37.472C1101.43 40.4587 1100.85 43.3173 1099.7 46.048C1098.59 48.7787 1096.99 51.232 1094.9 53.408C1092.85 55.5413 1090.42 57.248 1087.6 58.528C1084.79 59.7653 1081.67 60.384 1078.26 60.384ZM1067.96 37.344C1067.96 38.88 1068.17 40.3733 1068.6 41.824C1069.02 43.232 1069.66 44.512 1070.52 45.664C1071.37 46.7733 1072.44 47.6693 1073.72 48.352C1075.04 48.992 1076.6 49.312 1078.39 49.312C1080.18 49.312 1081.74 48.9707 1083.06 48.288C1084.38 47.6053 1085.45 46.688 1086.26 45.536C1087.11 44.3413 1087.73 43.04 1088.12 41.632C1088.54 40.1813 1088.76 38.7093 1088.76 37.216C1088.76 35.68 1088.54 34.208 1088.12 32.8C1087.69 31.392 1087.05 30.1333 1086.19 29.024C1085.34 27.872 1084.25 26.976 1082.93 26.336C1081.61 25.696 1080.07 25.376 1078.32 25.376C1076.53 25.376 1074.97 25.7173 1073.65 26.4C1072.37 27.0827 1071.3 28 1070.45 29.152C1069.6 30.2613 1068.96 31.5413 1068.53 32.992C1068.15 34.4 1067.96 35.8507 1067.96 37.344ZM1106.97 60V14.56L1141.72 14.56V25.248H1119.45V32.16H1129.44C1134.64 32.16 1138.59 33.376 1141.28 35.808C1143.96 38.24 1145.31 41.568 1145.31 45.792C1145.31 48.736 1144.73 51.2747 1143.58 53.408C1142.43 55.4987 1140.72 57.12 1138.46 58.272C1136.24 59.424 1133.45 60 1130.08 60H1106.97ZM1119.45 49.312H1128.22C1129.29 49.312 1130.12 49.12 1130.72 48.736C1131.36 48.352 1131.8 47.8613 1132.06 47.264C1132.36 46.6667 1132.51 46.048 1132.51 45.408C1132.51 44.768 1132.38 44.1707 1132.12 43.616C1131.91 43.0187 1131.48 42.5493 1130.84 42.208C1130.2 41.8667 1129.31 41.696 1128.16 41.696H1119.45V49.312ZM1170.76 60.384C1167.3 60.384 1164.17 59.744 1161.35 58.464C1158.54 57.1413 1156.1 55.392 1154.06 53.216C1152.05 50.9973 1150.49 48.5227 1149.38 45.792C1148.32 43.0187 1147.78 40.16 1147.78 37.216C1147.78 34.1867 1148.36 31.3067 1149.51 28.576C1150.66 25.8453 1152.26 23.4133 1154.31 21.28C1156.4 19.104 1158.86 17.3973 1161.67 16.16C1164.53 14.9227 1167.64 14.304 1171.02 14.304C1174.47 14.304 1177.61 14.9653 1180.42 16.288C1183.24 17.568 1185.65 19.3173 1187.66 21.536C1189.66 23.7547 1191.2 26.2507 1192.26 29.024C1193.37 31.7547 1193.93 34.5707 1193.93 37.472C1193.93 40.4587 1193.35 43.3173 1192.2 46.048C1191.09 48.7787 1189.49 51.232 1187.4 53.408C1185.35 55.5413 1182.92 57.248 1180.1 58.528C1177.29 59.7653 1174.17 60.384 1170.76 60.384ZM1160.46 37.344C1160.46 38.88 1160.67 40.3733 1161.1 41.824C1161.52 43.232 1162.16 44.512 1163.02 45.664C1163.87 46.7733 1164.94 47.6693 1166.22 48.352C1167.54 48.992 1169.1 49.312 1170.89 49.312C1172.68 49.312 1174.24 48.9707 1175.56 48.288C1176.88 47.6053 1177.95 46.688 1178.76 45.536C1179.61 44.3413 1180.23 43.04 1180.62 41.632C1181.04 40.1813 1181.26 38.7093 1181.26 37.216C1181.26 35.68 1181.04 34.208 1180.62 32.8C1180.19 31.392 1179.55 30.1333 1178.69 29.024C1177.84 27.872 1176.75 26.976 1175.43 26.336C1174.11 25.696 1172.57 25.376 1170.82 25.376C1169.03 25.376 1167.47 25.7173 1166.15 26.4C1164.87 27.0827 1163.8 28 1162.95 29.152C1162.1 30.2613 1161.46 31.5413 1161.03 32.992C1160.65 34.4 1160.46 35.8507 1160.46 37.344ZM1233.92 25.44H1220.87V60H1208.39V25.44H1195.27V14.56L1233.92 14.56V25.44ZM1238.72 60V14.56H1251.2V42.208L1267.97 14.56H1279.62V60H1267.14V32.352L1250.56 60H1238.72ZM1287.91 60V14.56H1300.33V31.264L1302.89 31.264L1314.6 14.56L1328.29 14.56L1312.29 36.512L1329.77 60H1314.66L1302.37 42.592H1300.33V60H1287.91Z" fill="#00B3FF"/>
<path d="M1355.9 60V14.56L1375.49 14.56C1377.71 14.56 1379.75 15.008 1381.63 15.904C1383.51 16.8 1385.13 18.016 1386.5 19.552C1387.86 21.0453 1388.91 22.7307 1389.63 24.608C1390.4 26.4853 1390.78 28.384 1390.78 30.304C1390.78 32.992 1390.14 35.5307 1388.86 37.92C1387.63 40.3093 1385.88 42.272 1383.62 43.808C1381.4 45.3013 1378.79 46.048 1375.81 46.048H1368.38V60H1355.9ZM1368.38 35.168H1374.98C1375.49 35.168 1375.98 35.0187 1376.45 34.72C1376.92 34.4213 1377.3 33.9093 1377.6 33.184C1377.94 32.4587 1378.11 31.4987 1378.11 30.304C1378.11 29.024 1377.92 28.0427 1377.54 27.36C1377.19 26.6347 1376.75 26.144 1376.19 25.888C1375.68 25.5893 1375.17 25.44 1374.66 25.44H1368.38V35.168ZM1416.26 60.384C1412.8 60.384 1409.67 59.744 1406.85 58.464C1404.04 57.1413 1401.6 55.392 1399.56 53.216C1397.55 50.9973 1395.99 48.5227 1394.88 45.792C1393.82 43.0187 1393.28 40.16 1393.28 37.216C1393.28 34.1867 1393.86 31.3067 1395.01 28.576C1396.16 25.8453 1397.76 23.4133 1399.81 21.28C1401.9 19.104 1404.36 17.3973 1407.17 16.16C1410.03 14.9227 1413.14 14.304 1416.52 14.304C1419.97 14.304 1423.11 14.9653 1425.92 16.288C1428.74 17.568 1431.15 19.3173 1433.16 21.536C1435.16 23.7547 1436.7 26.2507 1437.76 29.024C1438.87 31.7547 1439.43 34.5707 1439.43 37.472C1439.43 40.4587 1438.85 43.3173 1437.7 46.048C1436.59 48.7787 1434.99 51.232 1432.9 53.408C1430.85 55.5413 1428.42 57.248 1425.6 58.528C1422.79 59.7653 1419.67 60.384 1416.26 60.384ZM1405.96 37.344C1405.96 38.88 1406.17 40.3733 1406.6 41.824C1407.02 43.232 1407.66 44.512 1408.52 45.664C1409.37 46.7733 1410.44 47.6693 1411.72 48.352C1413.04 48.992 1414.6 49.312 1416.39 49.312C1418.18 49.312 1419.74 48.9707 1421.06 48.288C1422.38 47.6053 1423.45 46.688 1424.26 45.536C1425.11 44.3413 1425.73 43.04 1426.12 41.632C1426.54 40.1813 1426.76 38.7093 1426.76 37.216C1426.76 35.68 1426.54 34.208 1426.12 32.8C1425.69 31.392 1425.05 30.1333 1424.19 29.024C1423.34 27.872 1422.25 26.976 1420.93 26.336C1419.61 25.696 1418.07 25.376 1416.32 25.376C1414.53 25.376 1412.97 25.7173 1411.65 26.4C1410.37 27.0827 1409.3 28 1408.45 29.152C1407.6 30.2613 1406.96 31.5413 1406.53 32.992C1406.15 34.4 1405.96 35.8507 1405.96 37.344ZM1444.97 60V14.56L1479.72 14.56V25.248H1457.45V32.16H1467.44C1472.64 32.16 1476.59 33.376 1479.28 35.808C1481.96 38.24 1483.31 41.568 1483.31 45.792C1483.31 48.736 1482.73 51.2747 1481.58 53.408C1480.43 55.4987 1478.72 57.12 1476.46 58.272C1474.24 59.424 1471.45 60 1468.08 60H1444.97ZM1457.45 49.312H1466.22C1467.29 49.312 1468.12 49.12 1468.72 48.736C1469.36 48.352 1469.8 47.8613 1470.06 47.264C1470.36 46.6667 1470.51 46.048 1470.51 45.408C1470.51 44.768 1470.38 44.1707 1470.12 43.616C1469.91 43.0187 1469.48 42.5493 1468.84 42.208C1468.2 41.8667 1467.31 41.696 1466.16 41.696H1457.45V49.312ZM1508.76 60.384C1505.3 60.384 1502.17 59.744 1499.35 58.464C1496.54 57.1413 1494.1 55.392 1492.06 53.216C1490.05 50.9973 1488.49 48.5227 1487.38 45.792C1486.32 43.0187 1485.78 40.16 1485.78 37.216C1485.78 34.1867 1486.36 31.3067 1487.51 28.576C1488.66 25.8453 1490.26 23.4133 1492.31 21.28C1494.4 19.104 1496.86 17.3973 1499.67 16.16C1502.53 14.9227 1505.64 14.304 1509.02 14.304C1512.47 14.304 1515.61 14.9653 1518.42 16.288C1521.24 17.568 1523.65 19.3173 1525.66 21.536C1527.66 23.7547 1529.2 26.2507 1530.26 29.024C1531.37 31.7547 1531.93 34.5707 1531.93 37.472C1531.93 40.4587 1531.35 43.3173 1530.2 46.048C1529.09 48.7787 1527.49 51.232 1525.4 53.408C1523.35 55.5413 1520.92 57.248 1518.1 58.528C1515.29 59.7653 1512.17 60.384 1508.76 60.384ZM1498.46 37.344C1498.46 38.88 1498.67 40.3733 1499.1 41.824C1499.52 43.232 1500.16 44.512 1501.02 45.664C1501.87 46.7733 1502.94 47.6693 1504.22 48.352C1505.54 48.992 1507.1 49.312 1508.89 49.312C1510.68 49.312 1512.24 48.9707 1513.56 48.288C1514.88 47.6053 1515.95 46.688 1516.76 45.536C1517.61 44.3413 1518.23 43.04 1518.62 41.632C1519.04 40.1813 1519.26 38.7093 1519.26 37.216C1519.26 35.68 1519.04 34.208 1518.62 32.8C1518.19 31.392 1517.55 30.1333 1516.69 29.024C1515.84 27.872 1514.75 26.976 1513.43 26.336C1512.11 25.696 1510.57 25.376 1508.82 25.376C1507.03 25.376 1505.47 25.7173 1504.15 26.4C1502.87 27.0827 1501.8 28 1500.95 29.152C1500.1 30.2613 1499.46 31.5413 1499.03 32.992C1498.65 34.4 1498.46 35.8507 1498.46 37.344ZM1571.92 25.44H1558.87V60H1546.39V25.44H1533.27V14.56L1571.92 14.56V25.44ZM1576.72 60V14.56H1589.2V42.208L1605.97 14.56H1617.62V60H1605.14V32.352L1588.56 60H1576.72ZM1625.91 60V14.56H1638.33V31.264L1640.89 31.264L1652.6 14.56L1666.29 14.56L1650.29 36.512L1667.77 60H1652.66L1640.37 42.592H1638.33V60H1625.91Z" fill="black"/>
<path d="M1693.9 60V14.56L1713.49 14.56C1715.71 14.56 1717.75 15.008 1719.63 15.904C1721.51 16.8 1723.13 18.016 1724.5 19.552C1725.86 21.0453 1726.91 22.7307 1727.63 24.608C1728.4 26.4853 1728.78 28.384 1728.78 30.304C1728.78 32.992 1728.14 35.5307 1726.86 37.92C1725.63 40.3093 1723.88 42.272 1721.62 43.808C1719.4 45.3013 1716.79 46.048 1713.81 46.048H1706.38V60H1693.9ZM1706.38 35.168H1712.98C1713.49 35.168 1713.98 35.0187 1714.45 34.72C1714.92 34.4213 1715.3 33.9093 1715.6 33.184C1715.94 32.4587 1716.11 31.4987 1716.11 30.304C1716.11 29.024 1715.92 28.0427 1715.54 27.36C1715.19 26.6347 1714.75 26.144 1714.19 25.888C1713.68 25.5893 1713.17 25.44 1712.66 25.44H1706.38V35.168ZM1754.26 60.384C1750.8 60.384 1747.67 59.744 1744.85 58.464C1742.04 57.1413 1739.6 55.392 1737.56 53.216C1735.55 50.9973 1733.99 48.5227 1732.88 45.792C1731.82 43.0187 1731.28 40.16 1731.28 37.216C1731.28 34.1867 1731.86 31.3067 1733.01 28.576C1734.16 25.8453 1735.76 23.4133 1737.81 21.28C1739.9 19.104 1742.36 17.3973 1745.17 16.16C1748.03 14.9227 1751.14 14.304 1754.52 14.304C1757.97 14.304 1761.11 14.9653 1763.92 16.288C1766.74 17.568 1769.15 19.3173 1771.16 21.536C1773.16 23.7547 1774.7 26.2507 1775.76 29.024C1776.87 31.7547 1777.43 34.5707 1777.43 37.472C1777.43 40.4587 1776.85 43.3173 1775.7 46.048C1774.59 48.7787 1772.99 51.232 1770.9 53.408C1768.85 55.5413 1766.42 57.248 1763.6 58.528C1760.79 59.7653 1757.67 60.384 1754.26 60.384ZM1743.96 37.344C1743.96 38.88 1744.17 40.3733 1744.6 41.824C1745.02 43.232 1745.66 44.512 1746.52 45.664C1747.37 46.7733 1748.44 47.6693 1749.72 48.352C1751.04 48.992 1752.6 49.312 1754.39 49.312C1756.18 49.312 1757.74 48.9707 1759.06 48.288C1760.38 47.6053 1761.45 46.688 1762.26 45.536C1763.11 44.3413 1763.73 43.04 1764.12 41.632C1764.54 40.1813 1764.76 38.7093 1764.76 37.216C1764.76 35.68 1764.54 34.208 1764.12 32.8C1763.69 31.392 1763.05 30.1333 1762.19 29.024C1761.34 27.872 1760.25 26.976 1758.93 26.336C1757.61 25.696 1756.07 25.376 1754.32 25.376C1752.53 25.376 1750.97 25.7173 1749.65 26.4C1748.37 27.0827 1747.3 28 1746.45 29.152C1745.6 30.2613 1744.96 31.5413 1744.53 32.992C1744.15 34.4 1743.96 35.8507 1743.96 37.344ZM1782.97 60V14.56L1817.72 14.56V25.248H1795.45V32.16H1805.44C1810.64 32.16 1814.59 33.376 1817.28 35.808C1819.96 38.24 1821.31 41.568 1821.31 45.792C1821.31 48.736 1820.73 51.2747 1819.58 53.408C1818.43 55.4987 1816.72 57.12 1814.46 58.272C1812.24 59.424 1809.45 60 1806.08 60H1782.97ZM1795.45 49.312H1804.22C1805.29 49.312 1806.12 49.12 1806.72 48.736C1807.36 48.352 1807.8 47.8613 1808.06 47.264C1808.36 46.6667 1808.51 46.048 1808.51 45.408C1808.51 44.768 1808.38 44.1707 1808.12 43.616C1807.91 43.0187 1807.48 42.5493 1806.84 42.208C1806.2 41.8667 1805.31 41.696 1804.16 41.696H1795.45V49.312ZM1846.76 60.384C1843.3 60.384 1840.17 59.744 1837.35 58.464C1834.54 57.1413 1832.1 55.392 1830.06 53.216C1828.05 50.9973 1826.49 48.5227 1825.38 45.792C1824.32 43.0187 1823.78 40.16 1823.78 37.216C1823.78 34.1867 1824.36 31.3067 1825.51 28.576C1826.66 25.8453 1828.26 23.4133 1830.31 21.28C1832.4 19.104 1834.86 17.3973 1837.67 16.16C1840.53 14.9227 1843.64 14.304 1847.02 14.304C1850.47 14.304 1853.61 14.9653 1856.42 16.288C1859.24 17.568 1861.65 19.3173 1863.66 21.536C1865.66 23.7547 1867.2 26.2507 1868.26 29.024C1869.37 31.7547 1869.93 34.5707 1869.93 37.472C1869.93 40.4587 1869.35 43.3173 1868.2 46.048C1867.09 48.7787 1865.49 51.232 1863.4 53.408C1861.35 55.5413 1858.92 57.248 1856.1 58.528C1853.29 59.7653 1850.17 60.384 1846.76 60.384ZM1836.46 37.344C1836.46 38.88 1836.67 40.3733 1837.1 41.824C1837.52 43.232 1838.16 44.512 1839.02 45.664C1839.87 46.7733 1840.94 47.6693 1842.22 48.352C1843.54 48.992 1845.1 49.312 1846.89 49.312C1848.68 49.312 1850.24 48.9707 1851.56 48.288C1852.88 47.6053 1853.95 46.688 1854.76 45.536C1855.61 44.3413 1856.23 43.04 1856.62 41.632C1857.04 40.1813 1857.26 38.7093 1857.26 37.216C1857.26 35.68 1857.04 34.208 1856.62 32.8C1856.19 31.392 1855.55 30.1333 1854.69 29.024C1853.84 27.872 1852.75 26.976 1851.43 26.336C1850.11 25.696 1848.57 25.376 1846.82 25.376C1845.03 25.376 1843.47 25.7173 1842.15 26.4C1840.87 27.0827 1839.8 28 1838.95 29.152C1838.1 30.2613 1837.46 31.5413 1837.03 32.992C1836.65 34.4 1836.46 35.8507 1836.46 37.344ZM1909.92 25.44H1896.87V60H1884.39V25.44H1871.27V14.56L1909.92 14.56V25.44ZM1914.72 60V14.56H1927.2V42.208L1943.97 14.56H1955.62V60H1943.14V32.352L1926.56 60H1914.72ZM1963.91 60V14.56H1976.33V31.264L1978.89 31.264L1990.6 14.56L2004.29 14.56L1988.29 36.512L2005.77 60H1990.66L1978.37 42.592H1976.33V60H1963.91Z" fill="#00B3FF"/>
<path d="M210.098 120.402V74.9618H228.914C230.877 74.9618 232.669 75.3671 234.29 76.1778C235.954 76.9885 237.383 78.0978 238.578 79.5058C239.773 80.8711 240.711 82.4071 241.394 84.1138C242.077 85.7778 242.418 87.4845 242.418 89.2338C242.418 91.7085 241.863 94.0551 240.754 96.2738C239.687 98.4498 238.173 100.22 236.21 101.586C234.247 102.951 231.943 103.634 229.298 103.634H214.578V120.402H210.098ZM214.578 99.6658H229.106C230.898 99.6658 232.455 99.1751 233.778 98.1938C235.101 97.2125 236.125 95.9325 236.85 94.3538C237.575 92.7751 237.938 91.0685 237.938 89.2338C237.938 87.3565 237.511 85.6285 236.658 84.0498C235.805 82.4711 234.674 81.2338 233.266 80.3378C231.901 79.3991 230.386 78.9298 228.722 78.9298H214.578V99.6658ZM268.214 120.722C265.014 120.722 262.113 120.082 259.51 118.802C256.908 117.522 254.668 115.794 252.79 113.618C250.913 111.399 249.462 108.924 248.438 106.194C247.414 103.42 246.902 100.583 246.902 97.6818C246.902 94.6525 247.436 91.7725 248.502 89.0418C249.569 86.2685 251.062 83.8151 252.982 81.6818C254.945 79.5058 257.228 77.7991 259.83 76.5618C262.433 75.2818 265.249 74.6418 268.278 74.6418C271.478 74.6418 274.38 75.3031 276.982 76.6258C279.585 77.9485 281.804 79.7191 283.638 81.9378C285.516 84.1565 286.966 86.6311 287.99 89.3618C289.014 92.0925 289.526 94.8871 289.526 97.7458C289.526 100.775 288.993 103.676 287.926 106.45C286.86 109.18 285.366 111.634 283.446 113.81C281.526 115.943 279.265 117.628 276.662 118.866C274.06 120.103 271.244 120.722 268.214 120.722ZM251.382 97.6818C251.382 100.156 251.788 102.546 252.598 104.85C253.409 107.111 254.561 109.138 256.054 110.93C257.548 112.679 259.318 114.087 261.366 115.154C263.457 116.178 265.74 116.69 268.214 116.69C270.817 116.69 273.142 116.156 275.19 115.09C277.281 113.98 279.052 112.53 280.502 110.738C281.996 108.903 283.126 106.855 283.894 104.594C284.662 102.332 285.046 100.028 285.046 97.6818C285.046 95.2071 284.641 92.8391 283.83 90.5778C283.02 88.3165 281.846 86.2898 280.31 84.4978C278.817 82.7058 277.046 81.2978 274.998 80.2738C272.95 79.2498 270.689 78.7378 268.214 78.7378C265.654 78.7378 263.329 79.2711 261.238 80.3378C259.19 81.4045 257.42 82.8551 255.926 84.6898C254.476 86.4818 253.345 88.5085 252.534 90.7698C251.766 93.0311 251.382 95.3351 251.382 97.6818ZM297.973 120.402V74.9618H328.437V78.9298H302.453V94.7378H317.429C322.421 94.7378 326.112 95.9111 328.501 98.2578C330.89 100.562 332.085 103.57 332.085 107.282C332.085 109.714 331.552 111.932 330.485 113.938C329.461 115.9 327.882 117.479 325.749 118.674C323.658 119.826 321.013 120.402 317.813 120.402H297.973ZM302.453 116.434H317.301C319.776 116.434 321.76 115.986 323.253 115.09C324.746 114.194 325.834 113.042 326.517 111.634C327.2 110.183 327.541 108.69 327.541 107.154C327.541 105.618 327.242 104.188 326.645 102.866C326.048 101.5 324.981 100.412 323.445 99.6018C321.952 98.7485 319.84 98.3218 317.109 98.3218H302.453V116.434ZM358.027 120.722C354.827 120.722 351.926 120.082 349.323 118.802C346.72 117.522 344.48 115.794 342.603 113.618C340.726 111.399 339.275 108.924 338.251 106.194C337.227 103.42 336.715 100.583 336.715 97.6818C336.715 94.6525 337.248 91.7725 338.315 89.0418C339.382 86.2685 340.875 83.8151 342.795 81.6818C344.758 79.5058 347.04 77.7991 349.643 76.5618C352.246 75.2818 355.062 74.6418 358.091 74.6418C361.291 74.6418 364.192 75.3031 366.795 76.6258C369.398 77.9485 371.616 79.7191 373.451 81.9378C375.328 84.1565 376.779 86.6311 377.803 89.3618C378.827 92.0925 379.339 94.8871 379.339 97.7458C379.339 100.775 378.806 103.676 377.739 106.45C376.672 109.18 375.179 111.634 373.259 113.81C371.339 115.943 369.078 117.628 366.475 118.866C363.872 120.103 361.056 120.722 358.027 120.722ZM341.195 97.6818C341.195 100.156 341.6 102.546 342.411 104.85C343.222 107.111 344.374 109.138 345.867 110.93C347.36 112.679 349.131 114.087 351.179 115.154C353.27 116.178 355.552 116.69 358.027 116.69C360.63 116.69 362.955 116.156 365.003 115.09C367.094 113.98 368.864 112.53 370.315 110.738C371.808 108.903 372.939 106.855 373.707 104.594C374.475 102.332 374.859 100.028 374.859 97.6818C374.859 95.2071 374.454 92.8391 373.643 90.5778C372.832 88.3165 371.659 86.2898 370.123 84.4978C368.63 82.7058 366.859 81.2978 364.811 80.2738C362.763 79.2498 360.502 78.7378 358.027 78.7378C355.467 78.7378 353.142 79.2711 351.051 80.3378C349.003 81.4045 347.232 82.8551 345.739 84.6898C344.288 86.4818 343.158 88.5085 342.347 90.7698C341.579 93.0311 341.195 95.3351 341.195 97.6818ZM418.416 78.9298H402.224V120.402H397.744V78.9298H381.552V74.9618H418.416V78.9298ZM425.479 120.402V74.9618H429.895V114.258L458.055 74.9618H462.215V120.402H457.799V81.8098L429.959 120.402H425.479ZM473.848 120.402V74.9618H478.328V95.1858H485.176L500.792 74.9618H505.976L488.888 96.9778L507.064 120.402H501.56L485.304 99.2818H478.328V120.402H473.848Z" fill="#00B3FF"/>
<path d="M536.098 120.402V74.9618H554.914C556.877 74.9618 558.669 75.3671 560.29 76.1778C561.954 76.9885 563.383 78.0978 564.578 79.5058C565.773 80.8711 566.711 82.4071 567.394 84.1138C568.077 85.7778 568.418 87.4845 568.418 89.2338C568.418 91.7085 567.863 94.0551 566.754 96.2738C565.687 98.4498 564.173 100.22 562.21 101.586C560.247 102.951 557.943 103.634 555.298 103.634H540.578V120.402H536.098ZM540.578 99.6658H555.106C556.898 99.6658 558.455 99.1751 559.778 98.1938C561.101 97.2125 562.125 95.9325 562.85 94.3538C563.575 92.7751 563.938 91.0685 563.938 89.2338C563.938 87.3565 563.511 85.6285 562.658 84.0498C561.805 82.4711 560.674 81.2338 559.266 80.3378C557.901 79.3991 556.386 78.9298 554.722 78.9298H540.578V99.6658ZM594.214 120.722C591.014 120.722 588.113 120.082 585.51 118.802C582.908 117.522 580.668 115.794 578.79 113.618C576.913 111.399 575.462 108.924 574.438 106.194C573.414 103.42 572.902 100.583 572.902 97.6818C572.902 94.6525 573.436 91.7725 574.502 89.0418C575.569 86.2685 577.062 83.8151 578.982 81.6818C580.945 79.5058 583.228 77.7991 585.83 76.5618C588.433 75.2818 591.249 74.6418 594.278 74.6418C597.478 74.6418 600.38 75.3031 602.982 76.6258C605.585 77.9485 607.804 79.7191 609.638 81.9378C611.516 84.1565 612.966 86.6311 613.99 89.3618C615.014 92.0925 615.526 94.8871 615.526 97.7458C615.526 100.775 614.993 103.676 613.926 106.45C612.86 109.18 611.366 111.634 609.446 113.81C607.526 115.943 605.265 117.628 602.662 118.866C600.06 120.103 597.244 120.722 594.214 120.722ZM577.382 97.6818C577.382 100.156 577.788 102.546 578.598 104.85C579.409 107.111 580.561 109.138 582.054 110.93C583.548 112.679 585.318 114.087 587.366 115.154C589.457 116.178 591.74 116.69 594.214 116.69C596.817 116.69 599.142 116.156 601.19 115.09C603.281 113.98 605.052 112.53 606.502 110.738C607.996 108.903 609.126 106.855 609.894 104.594C610.662 102.332 611.046 100.028 611.046 97.6818C611.046 95.2071 610.641 92.8391 609.83 90.5778C609.02 88.3165 607.846 86.2898 606.31 84.4978C604.817 82.7058 603.046 81.2978 600.998 80.2738C598.95 79.2498 596.689 78.7378 594.214 78.7378C591.654 78.7378 589.329 79.2711 587.238 80.3378C585.19 81.4045 583.42 82.8551 581.926 84.6898C580.476 86.4818 579.345 88.5085 578.534 90.7698C577.766 93.0311 577.382 95.3351 577.382 97.6818ZM623.973 120.402V74.9618H654.437V78.9298H628.453V94.7378H643.429C648.421 94.7378 652.112 95.9111 654.501 98.2578C656.89 100.562 658.085 103.57 658.085 107.282C658.085 109.714 657.552 111.932 656.485 113.938C655.461 115.9 653.882 117.479 651.749 118.674C649.658 119.826 647.013 120.402 643.813 120.402H623.973ZM628.453 116.434H643.301C645.776 116.434 647.76 115.986 649.253 115.09C650.746 114.194 651.834 113.042 652.517 111.634C653.2 110.183 653.541 108.69 653.541 107.154C653.541 105.618 653.242 104.188 652.645 102.866C652.048 101.5 650.981 100.412 649.445 99.6018C647.952 98.7485 645.84 98.3218 643.109 98.3218H628.453V116.434ZM684.027 120.722C680.827 120.722 677.926 120.082 675.323 118.802C672.72 117.522 670.48 115.794 668.603 113.618C666.726 111.399 665.275 108.924 664.251 106.194C663.227 103.42 662.715 100.583 662.715 97.6818C662.715 94.6525 663.248 91.7725 664.315 89.0418C665.382 86.2685 666.875 83.8151 668.795 81.6818C670.758 79.5058 673.04 77.7991 675.643 76.5618C678.246 75.2818 681.062 74.6418 684.091 74.6418C687.291 74.6418 690.192 75.3031 692.795 76.6258C695.398 77.9485 697.616 79.7191 699.451 81.9378C701.328 84.1565 702.779 86.6311 703.803 89.3618C704.827 92.0925 705.339 94.8871 705.339 97.7458C705.339 100.775 704.806 103.676 703.739 106.45C702.672 109.18 701.179 111.634 699.259 113.81C697.339 115.943 695.078 117.628 692.475 118.866C689.872 120.103 687.056 120.722 684.027 120.722ZM667.195 97.6818C667.195 100.156 667.6 102.546 668.411 104.85C669.222 107.111 670.374 109.138 671.867 110.93C673.36 112.679 675.131 114.087 677.179 115.154C679.27 116.178 681.552 116.69 684.027 116.69C686.63 116.69 688.955 116.156 691.003 115.09C693.094 113.98 694.864 112.53 696.315 110.738C697.808 108.903 698.939 106.855 699.707 104.594C700.475 102.332 700.859 100.028 700.859 97.6818C700.859 95.2071 700.454 92.8391 699.643 90.5778C698.832 88.3165 697.659 86.2898 696.123 84.4978C694.63 82.7058 692.859 81.2978 690.811 80.2738C688.763 79.2498 686.502 78.7378 684.027 78.7378C681.467 78.7378 679.142 79.2711 677.051 80.3378C675.003 81.4045 673.232 82.8551 671.739 84.6898C670.288 86.4818 669.158 88.5085 668.347 90.7698C667.579 93.0311 667.195 95.3351 667.195 97.6818ZM744.416 78.9298H728.224V120.402H723.744V78.9298H707.552V74.9618H744.416V78.9298ZM751.479 120.402V74.9618H755.895V114.258L784.055 74.9618H788.215V120.402H783.799V81.8098L755.959 120.402H751.479ZM799.848 120.402V74.9618H804.328V95.1858H811.176L826.792 74.9618H831.976L814.888 96.9778L833.064 120.402H827.56L811.304 99.2818H804.328V120.402H799.848Z" fill="black"/>
<path d="M862.098 120.402V74.9618H880.914C882.877 74.9618 884.669 75.3671 886.29 76.1778C887.954 76.9885 889.383 78.0978 890.578 79.5058C891.773 80.8711 892.711 82.4071 893.394 84.1138C894.077 85.7778 894.418 87.4845 894.418 89.2338C894.418 91.7085 893.863 94.0551 892.754 96.2738C891.687 98.4498 890.173 100.22 888.21 101.586C886.247 102.951 883.943 103.634 881.298 103.634H866.578V120.402H862.098ZM866.578 99.6658H881.106C882.898 99.6658 884.455 99.1751 885.778 98.1938C887.101 97.2125 888.125 95.9325 888.85 94.3538C889.575 92.7751 889.938 91.0685 889.938 89.2338C889.938 87.3565 889.511 85.6285 888.658 84.0498C887.805 82.4711 886.674 81.2338 885.266 80.3378C883.901 79.3991 882.386 78.9298 880.722 78.9298H866.578V99.6658ZM920.214 120.722C917.014 120.722 914.113 120.082 911.51 118.802C908.908 117.522 906.668 115.794 904.79 113.618C902.913 111.399 901.462 108.924 900.438 106.194C899.414 103.42 898.902 100.583 898.902 97.6818C898.902 94.6525 899.436 91.7725 900.502 89.0418C901.569 86.2685 903.062 83.8151 904.982 81.6818C906.945 79.5058 909.228 77.7991 911.83 76.5618C914.433 75.2818 917.249 74.6418 920.278 74.6418C923.478 74.6418 926.38 75.3031 928.982 76.6258C931.585 77.9485 933.804 79.7191 935.638 81.9378C937.516 84.1565 938.966 86.6311 939.99 89.3618C941.014 92.0925 941.526 94.8871 941.526 97.7458C941.526 100.775 940.993 103.676 939.926 106.45C938.86 109.18 937.366 111.634 935.446 113.81C933.526 115.943 931.265 117.628 928.662 118.866C926.06 120.103 923.244 120.722 920.214 120.722ZM903.382 97.6818C903.382 100.156 903.788 102.546 904.598 104.85C905.409 107.111 906.561 109.138 908.054 110.93C909.548 112.679 911.318 114.087 913.366 115.154C915.457 116.178 917.74 116.69 920.214 116.69C922.817 116.69 925.142 116.156 927.19 115.09C929.281 113.98 931.052 112.53 932.502 110.738C933.996 108.903 935.126 106.855 935.894 104.594C936.662 102.332 937.046 100.028 937.046 97.6818C937.046 95.2071 936.641 92.8391 935.83 90.5778C935.02 88.3165 933.846 86.2898 932.31 84.4978C930.817 82.7058 929.046 81.2978 926.998 80.2738C924.95 79.2498 922.689 78.7378 920.214 78.7378C917.654 78.7378 915.329 79.2711 913.238 80.3378C911.19 81.4045 909.42 82.8551 907.926 84.6898C906.476 86.4818 905.345 88.5085 904.534 90.7698C903.766 93.0311 903.382 95.3351 903.382 97.6818ZM949.973 120.402V74.9618H980.437V78.9298H954.453V94.7378H969.429C974.421 94.7378 978.112 95.9111 980.501 98.2578C982.89 100.562 984.085 103.57 984.085 107.282C984.085 109.714 983.552 111.932 982.485 113.938C981.461 115.9 979.882 117.479 977.749 118.674C975.658 119.826 973.013 120.402 969.813 120.402H949.973ZM954.453 116.434H969.301C971.776 116.434 973.76 115.986 975.253 115.09C976.746 114.194 977.834 113.042 978.517 111.634C979.2 110.183 979.541 108.69 979.541 107.154C979.541 105.618 979.242 104.188 978.645 102.866C978.048 101.5 976.981 100.412 975.445 99.6018C973.952 98.7485 971.84 98.3218 969.109 98.3218H954.453V116.434ZM1010.03 120.722C1006.83 120.722 1003.93 120.082 1001.32 118.802C998.72 117.522 996.48 115.794 994.603 113.618C992.726 111.399 991.275 108.924 990.251 106.194C989.227 103.42 988.715 100.583 988.715 97.6818C988.715 94.6525 989.248 91.7725 990.315 89.0418C991.382 86.2685 992.875 83.8151 994.795 81.6818C996.758 79.5058 999.04 77.7991 1001.64 76.5618C1004.25 75.2818 1007.06 74.6418 1010.09 74.6418C1013.29 74.6418 1016.19 75.3031 1018.79 76.6258C1021.4 77.9485 1023.62 79.7191 1025.45 81.9378C1027.33 84.1565 1028.78 86.6311 1029.8 89.3618C1030.83 92.0925 1031.34 94.8871 1031.34 97.7458C1031.34 100.775 1030.81 103.676 1029.74 106.45C1028.67 109.18 1027.18 111.634 1025.26 113.81C1023.34 115.943 1021.08 117.628 1018.47 118.866C1015.87 120.103 1013.06 120.722 1010.03 120.722ZM993.195 97.6818C993.195 100.156 993.6 102.546 994.411 104.85C995.222 107.111 996.374 109.138 997.867 110.93C999.36 112.679 1001.13 114.087 1003.18 115.154C1005.27 116.178 1007.55 116.69 1010.03 116.69C1012.63 116.69 1014.95 116.156 1017 115.09C1019.09 113.98 1020.86 112.53 1022.31 110.738C1023.81 108.903 1024.94 106.855 1025.71 104.594C1026.47 102.332 1026.86 100.028 1026.86 97.6818C1026.86 95.2071 1026.45 92.8391 1025.64 90.5778C1024.83 88.3165 1023.66 86.2898 1022.12 84.4978C1020.63 82.7058 1018.86 81.2978 1016.81 80.2738C1014.76 79.2498 1012.5 78.7378 1010.03 78.7378C1007.47 78.7378 1005.14 79.2711 1003.05 80.3378C1001 81.4045 999.232 82.8551 997.739 84.6898C996.288 86.4818 995.158 88.5085 994.347 90.7698C993.579 93.0311 993.195 95.3351 993.195 97.6818ZM1070.42 78.9298H1054.22V120.402H1049.74V78.9298H1033.55V74.9618H1070.42V78.9298ZM1077.48 120.402V74.9618H1081.89V114.258L1110.05 74.9618H1114.21V120.402H1109.8V81.8098L1081.96 120.402H1077.48ZM1125.85 120.402V74.9618H1130.33V95.1858H1137.18L1152.79 74.9618H1157.98L1140.89 96.9778L1159.06 120.402H1153.56L1137.3 99.2818H1130.33V120.402H1125.85Z" fill="#00B3FF"/>
<path d="M1188.1 120.402V74.9618H1206.91C1208.88 74.9618 1210.67 75.3671 1212.29 76.1778C1213.95 76.9885 1215.38 78.0978 1216.58 79.5058C1217.77 80.8711 1218.71 82.4071 1219.39 84.1138C1220.08 85.7778 1220.42 87.4845 1220.42 89.2338C1220.42 91.7085 1219.86 94.0551 1218.75 96.2738C1217.69 98.4498 1216.17 100.22 1214.21 101.586C1212.25 102.951 1209.94 103.634 1207.3 103.634H1192.58V120.402H1188.1ZM1192.58 99.6658H1207.11C1208.9 99.6658 1210.46 99.1751 1211.78 98.1938C1213.1 97.2125 1214.12 95.9325 1214.85 94.3538C1215.58 92.7751 1215.94 91.0685 1215.94 89.2338C1215.94 87.3565 1215.51 85.6285 1214.66 84.0498C1213.8 82.4711 1212.67 81.2338 1211.27 80.3378C1209.9 79.3991 1208.39 78.9298 1206.72 78.9298H1192.58V99.6658ZM1246.21 120.722C1243.01 120.722 1240.11 120.082 1237.51 118.802C1234.91 117.522 1232.67 115.794 1230.79 113.618C1228.91 111.399 1227.46 108.924 1226.44 106.194C1225.41 103.42 1224.9 100.583 1224.9 97.6818C1224.9 94.6525 1225.44 91.7725 1226.5 89.0418C1227.57 86.2685 1229.06 83.8151 1230.98 81.6818C1232.95 79.5058 1235.23 77.7991 1237.83 76.5618C1240.43 75.2818 1243.25 74.6418 1246.28 74.6418C1249.48 74.6418 1252.38 75.3031 1254.98 76.6258C1257.59 77.9485 1259.8 79.7191 1261.64 81.9378C1263.52 84.1565 1264.97 86.6311 1265.99 89.3618C1267.01 92.0925 1267.53 94.8871 1267.53 97.7458C1267.53 100.775 1266.99 103.676 1265.93 106.45C1264.86 109.18 1263.37 111.634 1261.45 113.81C1259.53 115.943 1257.27 117.628 1254.66 118.866C1252.06 120.103 1249.24 120.722 1246.21 120.722ZM1229.38 97.6818C1229.38 100.156 1229.79 102.546 1230.6 104.85C1231.41 107.111 1232.56 109.138 1234.05 110.93C1235.55 112.679 1237.32 114.087 1239.37 115.154C1241.46 116.178 1243.74 116.69 1246.21 116.69C1248.82 116.69 1251.14 116.156 1253.19 115.09C1255.28 113.98 1257.05 112.53 1258.5 110.738C1260 108.903 1261.13 106.855 1261.89 104.594C1262.66 102.332 1263.05 100.028 1263.05 97.6818C1263.05 95.2071 1262.64 92.8391 1261.83 90.5778C1261.02 88.3165 1259.85 86.2898 1258.31 84.4978C1256.82 82.7058 1255.05 81.2978 1253 80.2738C1250.95 79.2498 1248.69 78.7378 1246.21 78.7378C1243.65 78.7378 1241.33 79.2711 1239.24 80.3378C1237.19 81.4045 1235.42 82.8551 1233.93 84.6898C1232.48 86.4818 1231.35 88.5085 1230.53 90.7698C1229.77 93.0311 1229.38 95.3351 1229.38 97.6818ZM1275.97 120.402V74.9618H1306.44V78.9298H1280.45V94.7378H1295.43C1300.42 94.7378 1304.11 95.9111 1306.5 98.2578C1308.89 100.562 1310.08 103.57 1310.08 107.282C1310.08 109.714 1309.55 111.932 1308.48 113.938C1307.46 115.9 1305.88 117.479 1303.75 118.674C1301.66 119.826 1299.01 120.402 1295.81 120.402H1275.97ZM1280.45 116.434H1295.3C1297.78 116.434 1299.76 115.986 1301.25 115.09C1302.75 114.194 1303.83 113.042 1304.52 111.634C1305.2 110.183 1305.54 108.69 1305.54 107.154C1305.54 105.618 1305.24 104.188 1304.64 102.866C1304.05 101.5 1302.98 100.412 1301.44 99.6018C1299.95 98.7485 1297.84 98.3218 1295.11 98.3218H1280.45V116.434ZM1336.03 120.722C1332.83 120.722 1329.93 120.082 1327.32 118.802C1324.72 117.522 1322.48 115.794 1320.6 113.618C1318.73 111.399 1317.27 108.924 1316.25 106.194C1315.23 103.42 1314.71 100.583 1314.71 97.6818C1314.71 94.6525 1315.25 91.7725 1316.31 89.0418C1317.38 86.2685 1318.87 83.8151 1320.79 81.6818C1322.76 79.5058 1325.04 77.7991 1327.64 76.5618C1330.25 75.2818 1333.06 74.6418 1336.09 74.6418C1339.29 74.6418 1342.19 75.3031 1344.79 76.6258C1347.4 77.9485 1349.62 79.7191 1351.45 81.9378C1353.33 84.1565 1354.78 86.6311 1355.8 89.3618C1356.83 92.0925 1357.34 94.8871 1357.34 97.7458C1357.34 100.775 1356.81 103.676 1355.74 106.45C1354.67 109.18 1353.18 111.634 1351.26 113.81C1349.34 115.943 1347.08 117.628 1344.47 118.866C1341.87 120.103 1339.06 120.722 1336.03 120.722ZM1319.19 97.6818C1319.19 100.156 1319.6 102.546 1320.41 104.85C1321.22 107.111 1322.37 109.138 1323.87 110.93C1325.36 112.679 1327.13 114.087 1329.18 115.154C1331.27 116.178 1333.55 116.69 1336.03 116.69C1338.63 116.69 1340.95 116.156 1343 115.09C1345.09 113.98 1346.86 112.53 1348.31 110.738C1349.81 108.903 1350.94 106.855 1351.71 104.594C1352.47 102.332 1352.86 100.028 1352.86 97.6818C1352.86 95.2071 1352.45 92.8391 1351.64 90.5778C1350.83 88.3165 1349.66 86.2898 1348.12 84.4978C1346.63 82.7058 1344.86 81.2978 1342.81 80.2738C1340.76 79.2498 1338.5 78.7378 1336.03 78.7378C1333.47 78.7378 1331.14 79.2711 1329.05 80.3378C1327 81.4045 1325.23 82.8551 1323.74 84.6898C1322.29 86.4818 1321.16 88.5085 1320.35 90.7698C1319.58 93.0311 1319.19 95.3351 1319.19 97.6818ZM1396.42 78.9298H1380.22V120.402H1375.74V78.9298H1359.55V74.9618H1396.42V78.9298ZM1403.48 120.402V74.9618H1407.89V114.258L1436.05 74.9618H1440.21V120.402H1435.8V81.8098L1407.96 120.402H1403.48ZM1451.85 120.402V74.9618H1456.33V95.1858H1463.18L1478.79 74.9618H1483.98L1466.89 96.9778L1485.06 120.402H1479.56L1463.3 99.2818H1456.33V120.402H1451.85Z" fill="black"/>
<path d="M1514.1 120.402V74.9618H1532.91C1534.88 74.9618 1536.67 75.3671 1538.29 76.1778C1539.95 76.9885 1541.38 78.0978 1542.58 79.5058C1543.77 80.8711 1544.71 82.4071 1545.39 84.1138C1546.08 85.7778 1546.42 87.4845 1546.42 89.2338C1546.42 91.7085 1545.86 94.0551 1544.75 96.2738C1543.69 98.4498 1542.17 100.22 1540.21 101.586C1538.25 102.951 1535.94 103.634 1533.3 103.634H1518.58V120.402H1514.1ZM1518.58 99.6658H1533.11C1534.9 99.6658 1536.46 99.1751 1537.78 98.1938C1539.1 97.2125 1540.12 95.9325 1540.85 94.3538C1541.58 92.7751 1541.94 91.0685 1541.94 89.2338C1541.94 87.3565 1541.51 85.6285 1540.66 84.0498C1539.8 82.4711 1538.67 81.2338 1537.27 80.3378C1535.9 79.3991 1534.39 78.9298 1532.72 78.9298H1518.58V99.6658ZM1572.21 120.722C1569.01 120.722 1566.11 120.082 1563.51 118.802C1560.91 117.522 1558.67 115.794 1556.79 113.618C1554.91 111.399 1553.46 108.924 1552.44 106.194C1551.41 103.42 1550.9 100.583 1550.9 97.6818C1550.9 94.6525 1551.44 91.7725 1552.5 89.0418C1553.57 86.2685 1555.06 83.8151 1556.98 81.6818C1558.95 79.5058 1561.23 77.7991 1563.83 76.5618C1566.43 75.2818 1569.25 74.6418 1572.28 74.6418C1575.48 74.6418 1578.38 75.3031 1580.98 76.6258C1583.59 77.9485 1585.8 79.7191 1587.64 81.9378C1589.52 84.1565 1590.97 86.6311 1591.99 89.3618C1593.01 92.0925 1593.53 94.8871 1593.53 97.7458C1593.53 100.775 1592.99 103.676 1591.93 106.45C1590.86 109.18 1589.37 111.634 1587.45 113.81C1585.53 115.943 1583.27 117.628 1580.66 118.866C1578.06 120.103 1575.24 120.722 1572.21 120.722ZM1555.38 97.6818C1555.38 100.156 1555.79 102.546 1556.6 104.85C1557.41 107.111 1558.56 109.138 1560.05 110.93C1561.55 112.679 1563.32 114.087 1565.37 115.154C1567.46 116.178 1569.74 116.69 1572.21 116.69C1574.82 116.69 1577.14 116.156 1579.19 115.09C1581.28 113.98 1583.05 112.53 1584.5 110.738C1586 108.903 1587.13 106.855 1587.89 104.594C1588.66 102.332 1589.05 100.028 1589.05 97.6818C1589.05 95.2071 1588.64 92.8391 1587.83 90.5778C1587.02 88.3165 1585.85 86.2898 1584.31 84.4978C1582.82 82.7058 1581.05 81.2978 1579 80.2738C1576.95 79.2498 1574.69 78.7378 1572.21 78.7378C1569.65 78.7378 1567.33 79.2711 1565.24 80.3378C1563.19 81.4045 1561.42 82.8551 1559.93 84.6898C1558.48 86.4818 1557.35 88.5085 1556.53 90.7698C1555.77 93.0311 1555.38 95.3351 1555.38 97.6818ZM1601.97 120.402V74.9618H1632.44V78.9298H1606.45V94.7378H1621.43C1626.42 94.7378 1630.11 95.9111 1632.5 98.2578C1634.89 100.562 1636.08 103.57 1636.08 107.282C1636.08 109.714 1635.55 111.932 1634.48 113.938C1633.46 115.9 1631.88 117.479 1629.75 118.674C1627.66 119.826 1625.01 120.402 1621.81 120.402H1601.97ZM1606.45 116.434H1621.3C1623.78 116.434 1625.76 115.986 1627.25 115.09C1628.75 114.194 1629.83 113.042 1630.52 111.634C1631.2 110.183 1631.54 108.69 1631.54 107.154C1631.54 105.618 1631.24 104.188 1630.64 102.866C1630.05 101.5 1628.98 100.412 1627.44 99.6018C1625.95 98.7485 1623.84 98.3218 1621.11 98.3218H1606.45V116.434ZM1662.03 120.722C1658.83 120.722 1655.93 120.082 1653.32 118.802C1650.72 117.522 1648.48 115.794 1646.6 113.618C1644.73 111.399 1643.27 108.924 1642.25 106.194C1641.23 103.42 1640.71 100.583 1640.71 97.6818C1640.71 94.6525 1641.25 91.7725 1642.31 89.0418C1643.38 86.2685 1644.87 83.8151 1646.79 81.6818C1648.76 79.5058 1651.04 77.7991 1653.64 76.5618C1656.25 75.2818 1659.06 74.6418 1662.09 74.6418C1665.29 74.6418 1668.19 75.3031 1670.79 76.6258C1673.4 77.9485 1675.62 79.7191 1677.45 81.9378C1679.33 84.1565 1680.78 86.6311 1681.8 89.3618C1682.83 92.0925 1683.34 94.8871 1683.34 97.7458C1683.34 100.775 1682.81 103.676 1681.74 106.45C1680.67 109.18 1679.18 111.634 1677.26 113.81C1675.34 115.943 1673.08 117.628 1670.47 118.866C1667.87 120.103 1665.06 120.722 1662.03 120.722ZM1645.19 97.6818C1645.19 100.156 1645.6 102.546 1646.41 104.85C1647.22 107.111 1648.37 109.138 1649.87 110.93C1651.36 112.679 1653.13 114.087 1655.18 115.154C1657.27 116.178 1659.55 116.69 1662.03 116.69C1664.63 116.69 1666.95 116.156 1669 115.09C1671.09 113.98 1672.86 112.53 1674.31 110.738C1675.81 108.903 1676.94 106.855 1677.71 104.594C1678.47 102.332 1678.86 100.028 1678.86 97.6818C1678.86 95.2071 1678.45 92.8391 1677.64 90.5778C1676.83 88.3165 1675.66 86.2898 1674.12 84.4978C1672.63 82.7058 1670.86 81.2978 1668.81 80.2738C1666.76 79.2498 1664.5 78.7378 1662.03 78.7378C1659.47 78.7378 1657.14 79.2711 1655.05 80.3378C1653 81.4045 1651.23 82.8551 1649.74 84.6898C1648.29 86.4818 1647.16 88.5085 1646.35 90.7698C1645.58 93.0311 1645.19 95.3351 1645.19 97.6818ZM1722.42 78.9298H1706.22V120.402H1701.74V78.9298H1685.55V74.9618H1722.42V78.9298ZM1729.48 120.402V74.9618H1733.89V114.258L1762.05 74.9618H1766.21V120.402H1761.8V81.8098L1733.96 120.402H1729.48ZM1777.85 120.402V74.9618H1782.33V95.1858H1789.18L1804.79 74.9618H1809.98L1792.89 96.9778L1811.06 120.402H1805.56L1789.3 99.2818H1782.33V120.402H1777.85Z" fill="#00B3FF"/>
<path d="M1840.1 120.402V74.9618H1858.91C1860.88 74.9618 1862.67 75.3671 1864.29 76.1778C1865.95 76.9885 1867.38 78.0978 1868.58 79.5058C1869.77 80.8711 1870.71 82.4071 1871.39 84.1138C1872.08 85.7778 1872.42 87.4845 1872.42 89.2338C1872.42 91.7085 1871.86 94.0551 1870.75 96.2738C1869.69 98.4498 1868.17 100.22 1866.21 101.586C1864.25 102.951 1861.94 103.634 1859.3 103.634H1844.58V120.402H1840.1ZM1844.58 99.6658H1859.11C1860.9 99.6658 1862.46 99.1751 1863.78 98.1938C1865.1 97.2125 1866.13 95.9325 1866.85 94.3538C1867.58 92.7751 1867.94 91.0685 1867.94 89.2338C1867.94 87.3565 1867.51 85.6285 1866.66 84.0498C1865.81 82.4711 1864.67 81.2338 1863.27 80.3378C1861.9 79.3991 1860.39 78.9298 1858.72 78.9298H1844.58V99.6658ZM1898.21 120.722C1895.01 120.722 1892.11 120.082 1889.51 118.802C1886.91 117.522 1884.67 115.794 1882.79 113.618C1880.91 111.399 1879.46 108.924 1878.44 106.194C1877.41 103.42 1876.9 100.583 1876.9 97.6818C1876.9 94.6525 1877.44 91.7725 1878.5 89.0418C1879.57 86.2685 1881.06 83.8151 1882.98 81.6818C1884.95 79.5058 1887.23 77.7991 1889.83 76.5618C1892.43 75.2818 1895.25 74.6418 1898.28 74.6418C1901.48 74.6418 1904.38 75.3031 1906.98 76.6258C1909.59 77.9485 1911.8 79.7191 1913.64 81.9378C1915.52 84.1565 1916.97 86.6311 1917.99 89.3618C1919.01 92.0925 1919.53 94.8871 1919.53 97.7458C1919.53 100.775 1918.99 103.676 1917.93 106.45C1916.86 109.18 1915.37 111.634 1913.45 113.81C1911.53 115.943 1909.27 117.628 1906.66 118.866C1904.06 120.103 1901.24 120.722 1898.21 120.722ZM1881.38 97.6818C1881.38 100.156 1881.79 102.546 1882.6 104.85C1883.41 107.111 1884.56 109.138 1886.05 110.93C1887.55 112.679 1889.32 114.087 1891.37 115.154C1893.46 116.178 1895.74 116.69 1898.21 116.69C1900.82 116.69 1903.14 116.156 1905.19 115.09C1907.28 113.98 1909.05 112.53 1910.5 110.738C1912 108.903 1913.13 106.855 1913.89 104.594C1914.66 102.332 1915.05 100.028 1915.05 97.6818C1915.05 95.2071 1914.64 92.8391 1913.83 90.5778C1913.02 88.3165 1911.85 86.2898 1910.31 84.4978C1908.82 82.7058 1907.05 81.2978 1905 80.2738C1902.95 79.2498 1900.69 78.7378 1898.21 78.7378C1895.65 78.7378 1893.33 79.2711 1891.24 80.3378C1889.19 81.4045 1887.42 82.8551 1885.93 84.6898C1884.48 86.4818 1883.35 88.5085 1882.53 90.7698C1881.77 93.0311 1881.38 95.3351 1881.38 97.6818ZM1927.97 120.402V74.9618H1958.44V78.9298H1932.45V94.7378H1947.43C1952.42 94.7378 1956.11 95.9111 1958.5 98.2578C1960.89 100.562 1962.09 103.57 1962.09 107.282C1962.09 109.714 1961.55 111.932 1960.49 113.938C1959.46 115.9 1957.88 117.479 1955.75 118.674C1953.66 119.826 1951.01 120.402 1947.81 120.402H1927.97ZM1932.45 116.434H1947.3C1949.78 116.434 1951.76 115.986 1953.25 115.09C1954.75 114.194 1955.83 113.042 1956.52 111.634C1957.2 110.183 1957.54 108.69 1957.54 107.154C1957.54 105.618 1957.24 104.188 1956.65 102.866C1956.05 101.5 1954.98 100.412 1953.45 99.6018C1951.95 98.7485 1949.84 98.3218 1947.11 98.3218H1932.45V116.434ZM1988.03 120.722C1984.83 120.722 1981.93 120.082 1979.32 118.802C1976.72 117.522 1974.48 115.794 1972.6 113.618C1970.73 111.399 1969.28 108.924 1968.25 106.194C1967.23 103.42 1966.72 100.583 1966.72 97.6818C1966.72 94.6525 1967.25 91.7725 1968.32 89.0418C1969.38 86.2685 1970.88 83.8151 1972.8 81.6818C1974.76 79.5058 1977.04 77.7991 1979.64 76.5618C1982.25 75.2818 1985.06 74.6418 1988.09 74.6418C1991.29 74.6418 1994.19 75.3031 1996.8 76.6258C1999.4 77.9485 2001.62 79.7191 2003.45 81.9378C2005.33 84.1565 2006.78 86.6311 2007.8 89.3618C2008.83 92.0925 2009.34 94.8871 2009.34 97.7458C2009.34 100.775 2008.81 103.676 2007.74 106.45C2006.67 109.18 2005.18 111.634 2003.26 113.81C2001.34 115.943 1999.08 117.628 1996.48 118.866C1993.87 120.103 1991.06 120.722 1988.03 120.722ZM1971.2 97.6818C1971.2 100.156 1971.6 102.546 1972.41 104.85C1973.22 107.111 1974.37 109.138 1975.87 110.93C1977.36 112.679 1979.13 114.087 1981.18 115.154C1983.27 116.178 1985.55 116.69 1988.03 116.69C1990.63 116.69 1992.96 116.156 1995 115.09C1997.09 113.98 1998.86 112.53 2000.32 110.738C2001.81 108.903 2002.94 106.855 2003.71 104.594C2004.48 102.332 2004.86 100.028 2004.86 97.6818C2004.86 95.2071 2004.45 92.8391 2003.64 90.5778C2002.83 88.3165 2001.66 86.2898 2000.12 84.4978C1998.63 82.7058 1996.86 81.2978 1994.81 80.2738C1992.76 79.2498 1990.5 78.7378 1988.03 78.7378C1985.47 78.7378 1983.14 79.2711 1981.05 80.3378C1979 81.4045 1977.23 82.8551 1975.74 84.6898C1974.29 86.4818 1973.16 88.5085 1972.35 90.7698C1971.58 93.0311 1971.2 95.3351 1971.2 97.6818ZM2048.42 78.9298H2032.22V120.402H2027.74V78.9298H2011.55V74.9618H2048.42V78.9298ZM2055.48 120.402V74.9618H2059.9V114.258L2088.06 74.9618H2092.22V120.402H2087.8V81.8098L2059.96 120.402H2055.48ZM2103.85 120.402V74.9618H2108.33V95.1858H2115.18L2130.79 74.9618H2135.98L2118.89 96.9778L2137.06 120.402H2131.56L2115.3 99.2818H2108.33V120.402H2103.85Z" fill="black"/>
</svg>
