<svg width="1423" height="80" viewBox="0 0 1423 80" fill="none" xmlns="http://www.w3.org/2000/svg">
<path d="M4.148 64L4.148 15.72L24.956 15.72C27.3133 15.72 29.4893 16.196 31.484 17.148C33.4787 18.1 35.2013 19.392 36.652 21.024C38.1027 22.6107 39.2133 24.4013 39.984 26.396C40.8 28.3907 41.208 30.408 41.208 32.448C41.208 35.304 40.528 38.0013 39.168 40.54C37.8533 43.0787 35.9947 45.164 33.592 46.796C31.2347 48.3827 28.4693 49.176 25.296 49.176H17.408V64H4.148ZM17.408 37.616H24.412C24.956 37.616 25.4773 37.4573 25.976 37.14C26.4747 36.8227 26.8827 36.2787 27.2 35.508C27.5627 34.7373 27.744 33.7173 27.744 32.448C27.744 31.088 27.54 30.0453 27.132 29.32C26.7693 28.5493 26.2933 28.028 25.704 27.756C25.16 27.4387 24.616 27.28 24.072 27.28H17.408L17.408 37.616ZM68.2752 64.408C64.6032 64.408 61.2712 63.728 58.2792 62.368C55.2872 60.9627 52.7032 59.104 50.5272 56.792C48.3965 54.4347 46.7419 51.8053 45.5632 48.904C44.4299 45.9573 43.8632 42.92 43.8632 39.792C43.8632 36.5733 44.4752 33.5133 45.6992 30.612C46.9232 27.7107 48.6232 25.1267 50.7992 22.86C53.0205 20.548 55.6272 18.7347 58.6192 17.42C61.6565 16.1053 64.9659 15.448 68.5472 15.448C72.2192 15.448 75.5512 16.1507 78.5432 17.556C81.5352 18.916 84.0965 20.7747 86.2272 23.132C88.3579 25.4893 89.9899 28.1413 91.1232 31.088C92.3019 33.9893 92.8912 36.9813 92.8912 40.064C92.8912 43.2373 92.2792 46.2747 91.0552 49.176C89.8765 52.0773 88.1765 54.684 85.9552 56.996C83.7792 59.2627 81.1952 61.076 78.2032 62.436C75.2112 63.7507 71.9019 64.408 68.2752 64.408ZM57.3272 39.928C57.3272 41.56 57.5539 43.1467 58.0072 44.688C58.4605 46.184 59.1405 47.544 60.0472 48.768C60.9539 49.9467 62.0872 50.8987 63.4472 51.624C64.8525 52.304 66.5072 52.644 68.4112 52.644C70.3152 52.644 71.9699 52.2813 73.3752 51.556C74.7805 50.8307 75.9139 49.856 76.7752 48.632C77.6819 47.3627 78.3392 45.98 78.7472 44.484C79.2005 42.9427 79.4272 41.3787 79.4272 39.792C79.4272 38.16 79.2005 36.596 78.7472 35.1C78.2939 33.604 77.6139 32.2667 76.7072 31.088C75.8005 29.864 74.6445 28.912 73.2392 28.232C71.8339 27.552 70.2019 27.212 68.3432 27.212C66.4392 27.212 64.7845 27.5747 63.3792 28.3C62.0192 29.0253 60.8859 30 59.9792 31.224C59.0725 32.4027 58.3925 33.7627 57.9392 35.304C57.5312 36.8 57.3272 38.3413 57.3272 39.928ZM98.7833 64V15.72L135.707 15.72V27.076H112.043V34.42H122.651C128.182 34.42 132.375 35.712 135.231 38.296C138.087 40.88 139.515 44.416 139.515 48.904C139.515 52.032 138.903 54.7293 137.679 56.996C136.455 59.2173 134.642 60.94 132.239 62.164C129.882 63.388 126.913 64 123.331 64H98.7833ZM112.043 52.644H121.359C122.493 52.644 123.377 52.44 124.011 52.032C124.691 51.624 125.167 51.1027 125.439 50.468C125.757 49.8333 125.915 49.176 125.915 48.496C125.915 47.816 125.779 47.1813 125.507 46.592C125.281 45.9573 124.827 45.4587 124.147 45.096C123.467 44.7333 122.515 44.552 121.291 44.552H112.043V52.644ZM166.556 64.408C162.884 64.408 159.552 63.728 156.56 62.368C153.568 60.9627 150.984 59.104 148.808 56.792C146.678 54.4347 145.023 51.8053 143.844 48.904C142.711 45.9573 142.144 42.92 142.144 39.792C142.144 36.5733 142.756 33.5133 143.98 30.612C145.204 27.7107 146.904 25.1267 149.08 22.86C151.302 20.548 153.908 18.7347 156.9 17.42C159.938 16.1053 163.247 15.448 166.828 15.448C170.5 15.448 173.832 16.1507 176.824 17.556C179.816 18.916 182.378 20.7747 184.508 23.132C186.639 25.4893 188.271 28.1413 189.404 31.088C190.583 33.9893 191.172 36.9813 191.172 40.064C191.172 43.2373 190.56 46.2747 189.336 49.176C188.158 52.0773 186.458 54.684 184.236 56.996C182.06 59.2627 179.476 61.076 176.484 62.436C173.492 63.7507 170.183 64.408 166.556 64.408ZM155.608 39.928C155.608 41.56 155.835 43.1467 156.288 44.688C156.742 46.184 157.422 47.544 158.328 48.768C159.235 49.9467 160.368 50.8987 161.728 51.624C163.134 52.304 164.788 52.644 166.692 52.644C168.596 52.644 170.251 52.2813 171.656 51.556C173.062 50.8307 174.195 49.856 175.056 48.632C175.963 47.3627 176.62 45.98 177.028 44.484C177.482 42.9427 177.708 41.3787 177.708 39.792C177.708 38.16 177.482 36.596 177.028 35.1C176.575 33.604 175.895 32.2667 174.988 31.088C174.082 29.864 172.926 28.912 171.52 28.232C170.115 27.552 168.483 27.212 166.624 27.212C164.72 27.212 163.066 27.5747 161.66 28.3C160.3 29.0253 159.167 30 158.26 31.224C157.354 32.4027 156.674 33.7627 156.22 35.304C155.812 36.8 155.608 38.3413 155.608 39.928ZM233.666 27.28L219.794 27.28V64H206.534V27.28H192.594V15.72L233.666 15.72V27.28ZM238.768 64V15.72L252.028 15.72V45.096L269.844 15.72L282.22 15.72V64H268.96V34.624L251.348 64H238.768ZM291.029 64V15.72L304.221 15.72V33.468H306.941L319.385 15.72H333.937L316.937 39.044L335.501 64L319.453 64L306.397 45.504H304.221V64H291.029Z" fill="black"/>
<path d="M362.148 64V15.72L382.956 15.72C385.313 15.72 387.489 16.196 389.484 17.148C391.479 18.1 393.201 19.392 394.652 21.024C396.103 22.6107 397.213 24.4013 397.984 26.396C398.8 28.3907 399.208 30.408 399.208 32.448C399.208 35.304 398.528 38.0013 397.168 40.54C395.853 43.0787 393.995 45.164 391.592 46.796C389.235 48.3827 386.469 49.176 383.296 49.176H375.408V64H362.148ZM375.408 37.616H382.412C382.956 37.616 383.477 37.4573 383.976 37.14C384.475 36.8227 384.883 36.2787 385.2 35.508C385.563 34.7373 385.744 33.7173 385.744 32.448C385.744 31.088 385.54 30.0453 385.132 29.32C384.769 28.5493 384.293 28.028 383.704 27.756C383.16 27.4387 382.616 27.28 382.072 27.28H375.408V37.616ZM426.275 64.408C422.603 64.408 419.271 63.728 416.279 62.368C413.287 60.9627 410.703 59.104 408.527 56.792C406.397 54.4347 404.742 51.8053 403.563 48.904C402.43 45.9573 401.863 42.92 401.863 39.792C401.863 36.5733 402.475 33.5133 403.699 30.612C404.923 27.7107 406.623 25.1267 408.799 22.86C411.021 20.548 413.627 18.7347 416.619 17.42C419.657 16.1053 422.966 15.448 426.547 15.448C430.219 15.448 433.551 16.1507 436.543 17.556C439.535 18.916 442.097 20.7747 444.227 23.132C446.358 25.4893 447.99 28.1413 449.123 31.088C450.302 33.9893 450.891 36.9813 450.891 40.064C450.891 43.2373 450.279 46.2747 449.055 49.176C447.877 52.0773 446.177 54.684 443.955 56.996C441.779 59.2627 439.195 61.076 436.203 62.436C433.211 63.7507 429.902 64.408 426.275 64.408ZM415.327 39.928C415.327 41.56 415.554 43.1467 416.007 44.688C416.461 46.184 417.141 47.544 418.047 48.768C418.954 49.9467 420.087 50.8987 421.447 51.624C422.853 52.304 424.507 52.644 426.411 52.644C428.315 52.644 429.97 52.2813 431.375 51.556C432.781 50.8307 433.914 49.856 434.775 48.632C435.682 47.3627 436.339 45.98 436.747 44.484C437.201 42.9427 437.427 41.3787 437.427 39.792C437.427 38.16 437.201 36.596 436.747 35.1C436.294 33.604 435.614 32.2667 434.707 31.088C433.801 29.864 432.645 28.912 431.239 28.232C429.834 27.552 428.202 27.212 426.343 27.212C424.439 27.212 422.785 27.5747 421.379 28.3C420.019 29.0253 418.886 30 417.979 31.224C417.073 32.4027 416.393 33.7627 415.939 35.304C415.531 36.8 415.327 38.3413 415.327 39.928ZM456.783 64V15.72L493.707 15.72V27.076H470.043V34.42H480.651C486.182 34.42 490.375 35.712 493.231 38.296C496.087 40.88 497.515 44.416 497.515 48.904C497.515 52.032 496.903 54.7293 495.679 56.996C494.455 59.2173 492.642 60.94 490.239 62.164C487.882 63.388 484.913 64 481.331 64H456.783ZM470.043 52.644H479.359C480.493 52.644 481.377 52.44 482.011 52.032C482.691 51.624 483.167 51.1027 483.439 50.468C483.757 49.8333 483.915 49.176 483.915 48.496C483.915 47.816 483.779 47.1813 483.507 46.592C483.281 45.9573 482.827 45.4587 482.147 45.096C481.467 44.7333 480.515 44.552 479.291 44.552H470.043V52.644ZM524.556 64.408C520.884 64.408 517.552 63.728 514.56 62.368C511.568 60.9627 508.984 59.104 506.808 56.792C504.678 54.4347 503.023 51.8053 501.844 48.904C500.711 45.9573 500.144 42.92 500.144 39.792C500.144 36.5733 500.756 33.5133 501.98 30.612C503.204 27.7107 504.904 25.1267 507.08 22.86C509.302 20.548 511.908 18.7347 514.9 17.42C517.938 16.1053 521.247 15.448 524.828 15.448C528.5 15.448 531.832 16.1507 534.824 17.556C537.816 18.916 540.378 20.7747 542.508 23.132C544.639 25.4893 546.271 28.1413 547.404 31.088C548.583 33.9893 549.172 36.9813 549.172 40.064C549.172 43.2373 548.56 46.2747 547.336 49.176C546.158 52.0773 544.458 54.684 542.236 56.996C540.06 59.2627 537.476 61.076 534.484 62.436C531.492 63.7507 528.183 64.408 524.556 64.408ZM513.608 39.928C513.608 41.56 513.835 43.1467 514.288 44.688C514.742 46.184 515.422 47.544 516.328 48.768C517.235 49.9467 518.368 50.8987 519.728 51.624C521.134 52.304 522.788 52.644 524.692 52.644C526.596 52.644 528.251 52.2813 529.656 51.556C531.062 50.8307 532.195 49.856 533.056 48.632C533.963 47.3627 534.62 45.98 535.028 44.484C535.482 42.9427 535.708 41.3787 535.708 39.792C535.708 38.16 535.482 36.596 535.028 35.1C534.575 33.604 533.895 32.2667 532.988 31.088C532.082 29.864 530.926 28.912 529.52 28.232C528.115 27.552 526.483 27.212 524.624 27.212C522.72 27.212 521.066 27.5747 519.66 28.3C518.3 29.0253 517.167 30 516.26 31.224C515.354 32.4027 514.674 33.7627 514.22 35.304C513.812 36.8 513.608 38.3413 513.608 39.928ZM591.666 27.28L577.794 27.28V64H564.534V27.28H550.594V15.72L591.666 15.72V27.28ZM596.768 64V15.72L610.028 15.72V45.096L627.844 15.72L640.22 15.72V64H626.96V34.624L609.348 64H596.768ZM649.029 64V15.72L662.221 15.72V33.468H664.941L677.385 15.72H691.937L674.937 39.044L693.501 64L677.453 64L664.397 45.504H662.221V64H649.029Z" fill="#00B3FF"/>
<path d="M720.148 64V15.72L740.956 15.72C743.313 15.72 745.489 16.196 747.484 17.148C749.479 18.1 751.201 19.392 752.652 21.024C754.103 22.6107 755.213 24.4013 755.984 26.396C756.8 28.3907 757.208 30.408 757.208 32.448C757.208 35.304 756.528 38.0013 755.168 40.54C753.853 43.0787 751.995 45.164 749.592 46.796C747.235 48.3827 744.469 49.176 741.296 49.176H733.408V64H720.148ZM733.408 37.616H740.412C740.956 37.616 741.477 37.4573 741.976 37.14C742.475 36.8227 742.883 36.2787 743.2 35.508C743.563 34.7373 743.744 33.7173 743.744 32.448C743.744 31.088 743.54 30.0453 743.132 29.32C742.769 28.5493 742.293 28.028 741.704 27.756C741.16 27.4387 740.616 27.28 740.072 27.28H733.408V37.616ZM784.275 64.408C780.603 64.408 777.271 63.728 774.279 62.368C771.287 60.9627 768.703 59.104 766.527 56.792C764.397 54.4347 762.742 51.8053 761.563 48.904C760.43 45.9573 759.863 42.92 759.863 39.792C759.863 36.5733 760.475 33.5133 761.699 30.612C762.923 27.7107 764.623 25.1267 766.799 22.86C769.021 20.548 771.627 18.7347 774.619 17.42C777.657 16.1053 780.966 15.448 784.547 15.448C788.219 15.448 791.551 16.1507 794.543 17.556C797.535 18.916 800.097 20.7747 802.227 23.132C804.358 25.4893 805.99 28.1413 807.123 31.088C808.302 33.9893 808.891 36.9813 808.891 40.064C808.891 43.2373 808.279 46.2747 807.055 49.176C805.877 52.0773 804.177 54.684 801.955 56.996C799.779 59.2627 797.195 61.076 794.203 62.436C791.211 63.7507 787.902 64.408 784.275 64.408ZM773.327 39.928C773.327 41.56 773.554 43.1467 774.007 44.688C774.461 46.184 775.141 47.544 776.047 48.768C776.954 49.9467 778.087 50.8987 779.447 51.624C780.853 52.304 782.507 52.644 784.411 52.644C786.315 52.644 787.97 52.2813 789.375 51.556C790.781 50.8307 791.914 49.856 792.775 48.632C793.682 47.3627 794.339 45.98 794.747 44.484C795.201 42.9427 795.427 41.3787 795.427 39.792C795.427 38.16 795.201 36.596 794.747 35.1C794.294 33.604 793.614 32.2667 792.707 31.088C791.801 29.864 790.645 28.912 789.239 28.232C787.834 27.552 786.202 27.212 784.343 27.212C782.439 27.212 780.785 27.5747 779.379 28.3C778.019 29.0253 776.886 30 775.979 31.224C775.073 32.4027 774.393 33.7627 773.939 35.304C773.531 36.8 773.327 38.3413 773.327 39.928ZM814.783 64V15.72L851.707 15.72V27.076H828.043V34.42H838.651C844.182 34.42 848.375 35.712 851.231 38.296C854.087 40.88 855.515 44.416 855.515 48.904C855.515 52.032 854.903 54.7293 853.679 56.996C852.455 59.2173 850.642 60.94 848.239 62.164C845.882 63.388 842.913 64 839.331 64H814.783ZM828.043 52.644H837.359C838.493 52.644 839.377 52.44 840.011 52.032C840.691 51.624 841.167 51.1027 841.439 50.468C841.757 49.8333 841.915 49.176 841.915 48.496C841.915 47.816 841.779 47.1813 841.507 46.592C841.281 45.9573 840.827 45.4587 840.147 45.096C839.467 44.7333 838.515 44.552 837.291 44.552H828.043V52.644ZM882.556 64.408C878.884 64.408 875.552 63.728 872.56 62.368C869.568 60.9627 866.984 59.104 864.808 56.792C862.678 54.4347 861.023 51.8053 859.844 48.904C858.711 45.9573 858.144 42.92 858.144 39.792C858.144 36.5733 858.756 33.5133 859.98 30.612C861.204 27.7107 862.904 25.1267 865.08 22.86C867.302 20.548 869.908 18.7347 872.9 17.42C875.938 16.1053 879.247 15.448 882.828 15.448C886.5 15.448 889.832 16.1507 892.824 17.556C895.816 18.916 898.378 20.7747 900.508 23.132C902.639 25.4893 904.271 28.1413 905.404 31.088C906.583 33.9893 907.172 36.9813 907.172 40.064C907.172 43.2373 906.56 46.2747 905.336 49.176C904.158 52.0773 902.458 54.684 900.236 56.996C898.06 59.2627 895.476 61.076 892.484 62.436C889.492 63.7507 886.183 64.408 882.556 64.408ZM871.608 39.928C871.608 41.56 871.835 43.1467 872.288 44.688C872.742 46.184 873.422 47.544 874.328 48.768C875.235 49.9467 876.368 50.8987 877.728 51.624C879.134 52.304 880.788 52.644 882.692 52.644C884.596 52.644 886.251 52.2813 887.656 51.556C889.062 50.8307 890.195 49.856 891.056 48.632C891.963 47.3627 892.62 45.98 893.028 44.484C893.482 42.9427 893.708 41.3787 893.708 39.792C893.708 38.16 893.482 36.596 893.028 35.1C892.575 33.604 891.895 32.2667 890.988 31.088C890.082 29.864 888.926 28.912 887.52 28.232C886.115 27.552 884.483 27.212 882.624 27.212C880.72 27.212 879.066 27.5747 877.66 28.3C876.3 29.0253 875.167 30 874.26 31.224C873.354 32.4027 872.674 33.7627 872.22 35.304C871.812 36.8 871.608 38.3413 871.608 39.928ZM949.666 27.28L935.794 27.28V64H922.534V27.28H908.594V15.72L949.666 15.72V27.28ZM954.768 64V15.72L968.028 15.72V45.096L985.844 15.72L998.22 15.72V64H984.96V34.624L967.348 64H954.768ZM1007.03 64V15.72L1020.22 15.72V33.468H1022.94L1035.39 15.72H1049.94L1032.94 39.044L1051.5 64L1035.45 64L1022.4 45.504H1020.22V64H1007.03Z" fill="black"/>
<path d="M1078.15 64V15.72L1098.96 15.72C1101.31 15.72 1103.49 16.196 1105.48 17.148C1107.48 18.1 1109.2 19.392 1110.65 21.024C1112.1 22.6107 1113.21 24.4013 1113.98 26.396C1114.8 28.3907 1115.21 30.408 1115.21 32.448C1115.21 35.304 1114.53 38.0013 1113.17 40.54C1111.85 43.0787 1109.99 45.164 1107.59 46.796C1105.23 48.3827 1102.47 49.176 1099.3 49.176H1091.41V64H1078.15ZM1091.41 37.616H1098.41C1098.96 37.616 1099.48 37.4573 1099.98 37.14C1100.47 36.8227 1100.88 36.2787 1101.2 35.508C1101.56 34.7373 1101.74 33.7173 1101.74 32.448C1101.74 31.088 1101.54 30.0453 1101.13 29.32C1100.77 28.5493 1100.29 28.028 1099.7 27.756C1099.16 27.4387 1098.62 27.28 1098.07 27.28H1091.41V37.616ZM1142.28 64.408C1138.6 64.408 1135.27 63.728 1132.28 62.368C1129.29 60.9627 1126.7 59.104 1124.53 56.792C1122.4 54.4347 1120.74 51.8053 1119.56 48.904C1118.43 45.9573 1117.86 42.92 1117.86 39.792C1117.86 36.5733 1118.48 33.5133 1119.7 30.612C1120.92 27.7107 1122.62 25.1267 1124.8 22.86C1127.02 20.548 1129.63 18.7347 1132.62 17.42C1135.66 16.1053 1138.97 15.448 1142.55 15.448C1146.22 15.448 1149.55 16.1507 1152.54 17.556C1155.54 18.916 1158.1 20.7747 1160.23 23.132C1162.36 25.4893 1163.99 28.1413 1165.12 31.088C1166.3 33.9893 1166.89 36.9813 1166.89 40.064C1166.89 43.2373 1166.28 46.2747 1165.06 49.176C1163.88 52.0773 1162.18 54.684 1159.96 56.996C1157.78 59.2627 1155.2 61.076 1152.2 62.436C1149.21 63.7507 1145.9 64.408 1142.28 64.408ZM1131.33 39.928C1131.33 41.56 1131.55 43.1467 1132.01 44.688C1132.46 46.184 1133.14 47.544 1134.05 48.768C1134.95 49.9467 1136.09 50.8987 1137.45 51.624C1138.85 52.304 1140.51 52.644 1142.41 52.644C1144.32 52.644 1145.97 52.2813 1147.38 51.556C1148.78 50.8307 1149.91 49.856 1150.78 48.632C1151.68 47.3627 1152.34 45.98 1152.75 44.484C1153.2 42.9427 1153.43 41.3787 1153.43 39.792C1153.43 38.16 1153.2 36.596 1152.75 35.1C1152.29 33.604 1151.61 32.2667 1150.71 31.088C1149.8 29.864 1148.64 28.912 1147.24 28.232C1145.83 27.552 1144.2 27.212 1142.34 27.212C1140.44 27.212 1138.78 27.5747 1137.38 28.3C1136.02 29.0253 1134.89 30 1133.98 31.224C1133.07 32.4027 1132.39 33.7627 1131.94 35.304C1131.53 36.8 1131.33 38.3413 1131.33 39.928ZM1172.78 64V15.72L1209.71 15.72V27.076H1186.04V34.42H1196.65C1202.18 34.42 1206.38 35.712 1209.23 38.296C1212.09 40.88 1213.52 44.416 1213.52 48.904C1213.52 52.032 1212.9 54.7293 1211.68 56.996C1210.46 59.2173 1208.64 60.94 1206.24 62.164C1203.88 63.388 1200.91 64 1197.33 64H1172.78ZM1186.04 52.644H1195.36C1196.49 52.644 1197.38 52.44 1198.01 52.032C1198.69 51.624 1199.17 51.1027 1199.44 50.468C1199.76 49.8333 1199.92 49.176 1199.92 48.496C1199.92 47.816 1199.78 47.1813 1199.51 46.592C1199.28 45.9573 1198.83 45.4587 1198.15 45.096C1197.47 44.7333 1196.52 44.552 1195.29 44.552H1186.04V52.644ZM1240.56 64.408C1236.88 64.408 1233.55 63.728 1230.56 62.368C1227.57 60.9627 1224.98 59.104 1222.81 56.792C1220.68 54.4347 1219.02 51.8053 1217.84 48.904C1216.71 45.9573 1216.14 42.92 1216.14 39.792C1216.14 36.5733 1216.76 33.5133 1217.98 30.612C1219.2 27.7107 1220.9 25.1267 1223.08 22.86C1225.3 20.548 1227.91 18.7347 1230.9 17.42C1233.94 16.1053 1237.25 15.448 1240.83 15.448C1244.5 15.448 1247.83 16.1507 1250.82 17.556C1253.82 18.916 1256.38 20.7747 1258.51 23.132C1260.64 25.4893 1262.27 28.1413 1263.4 31.088C1264.58 33.9893 1265.17 36.9813 1265.17 40.064C1265.17 43.2373 1264.56 46.2747 1263.34 49.176C1262.16 52.0773 1260.46 54.684 1258.24 56.996C1256.06 59.2627 1253.48 61.076 1250.48 62.436C1247.49 63.7507 1244.18 64.408 1240.56 64.408ZM1229.61 39.928C1229.61 41.56 1229.84 43.1467 1230.29 44.688C1230.74 46.184 1231.42 47.544 1232.33 48.768C1233.24 49.9467 1234.37 50.8987 1235.73 51.624C1237.13 52.304 1238.79 52.644 1240.69 52.644C1242.6 52.644 1244.25 52.2813 1245.66 51.556C1247.06 50.8307 1248.2 49.856 1249.06 48.632C1249.96 47.3627 1250.62 45.98 1251.03 44.484C1251.48 42.9427 1251.71 41.3787 1251.71 39.792C1251.71 38.16 1251.48 36.596 1251.03 35.1C1250.58 33.604 1249.9 32.2667 1248.99 31.088C1248.08 29.864 1246.93 28.912 1245.52 28.232C1244.12 27.552 1242.48 27.212 1240.62 27.212C1238.72 27.212 1237.07 27.5747 1235.66 28.3C1234.3 29.0253 1233.17 30 1232.26 31.224C1231.35 32.4027 1230.67 33.7627 1230.22 35.304C1229.81 36.8 1229.61 38.3413 1229.61 39.928ZM1307.67 27.28L1293.79 27.28V64H1280.53V27.28H1266.59V15.72L1307.67 15.72V27.28ZM1312.77 64V15.72L1326.03 15.72V45.096L1343.84 15.72L1356.22 15.72V64H1342.96V34.624L1325.35 64H1312.77ZM1365.03 64V15.72L1378.22 15.72V33.468H1380.94L1393.39 15.72H1407.94L1390.94 39.044L1409.5 64L1393.45 64L1380.4 45.504H1378.22V64H1365.03Z" fill="#00B3FF"/>
</svg>
