<svg width="1440" height="80" viewBox="0 0 1440 80" fill="none" xmlns="http://www.w3.org/2000/svg">
<path d="M6.052 64L6.052 15.72L26.044 15.72C28.1293 15.72 30.0333 16.1507 31.756 17.012C33.524 17.8733 35.0427 19.052 36.312 20.548C37.5813 21.9987 38.5787 23.6307 39.304 25.444C40.0293 27.212 40.392 29.0253 40.392 30.884C40.392 33.5133 39.8027 36.0067 38.624 38.364C37.4907 40.676 35.8813 42.5573 33.796 44.008C31.7107 45.4587 29.2627 46.184 26.452 46.184H10.812L10.812 64H6.052ZM10.812 41.968H26.248C28.152 41.968 29.8067 41.4467 31.212 40.404C32.6173 39.3613 33.7053 38.0013 34.476 36.324C35.2467 34.6467 35.632 32.8333 35.632 30.884C35.632 28.8893 35.1787 27.0533 34.272 25.376C33.3653 23.6987 32.164 22.384 30.668 21.432C29.2173 20.4347 27.608 19.936 25.84 19.936H10.812V41.968ZM67.8008 64.34C64.4008 64.34 61.3181 63.66 58.5528 62.3C55.7874 60.94 53.4074 59.104 51.4128 56.792C49.4181 54.4347 47.8768 51.8053 46.7888 48.904C45.7008 45.9573 45.1568 42.9427 45.1568 39.86C45.1568 36.6413 45.7234 33.5813 46.8568 30.68C47.9901 27.7333 49.5768 25.1267 51.6168 22.86C53.7021 20.548 56.1274 18.7347 58.8928 17.42C61.6581 16.06 64.6501 15.38 67.8688 15.38C71.2688 15.38 74.3515 16.0827 77.1168 17.488C79.8821 18.8933 82.2394 20.7747 84.1888 23.132C86.1835 25.4893 87.7248 28.1187 88.8128 31.02C89.9008 33.9213 90.4448 36.8907 90.4448 39.928C90.4448 43.1467 89.8781 46.2293 88.7448 49.176C87.6115 52.0773 86.0248 54.684 83.9848 56.996C81.9448 59.2627 79.5421 61.0533 76.7768 62.368C74.0114 63.6827 71.0194 64.34 67.8008 64.34ZM49.9168 39.86C49.9168 42.4893 50.3474 45.028 51.2088 47.476C52.0701 49.8787 53.2941 52.032 54.8808 53.936C56.4674 55.7947 58.3488 57.2907 60.5248 58.424C62.7461 59.512 65.1714 60.056 67.8008 60.056C70.5661 60.056 73.0368 59.4893 75.2128 58.356C77.4341 57.1773 79.3155 55.636 80.8568 53.732C82.4435 51.7827 83.6448 49.6067 84.4608 47.204C85.2768 44.8013 85.6848 42.3533 85.6848 39.86C85.6848 37.2307 85.2541 34.7147 84.3928 32.312C83.5314 29.9093 82.2848 27.756 80.6528 25.852C79.0661 23.948 77.1848 22.452 75.0088 21.364C72.8328 20.276 70.4301 19.732 67.8008 19.732C65.0808 19.732 62.6101 20.2987 60.3888 21.432C58.2128 22.5653 56.3314 24.1067 54.7448 26.056C53.2034 27.96 52.0021 30.1133 51.1408 32.516C50.3248 34.9187 49.9168 37.3667 49.9168 39.86ZM99.4192 64V15.72L131.787 15.72V19.936H104.179V36.732H120.091C125.395 36.732 129.317 37.9787 131.855 40.472C134.394 42.92 135.663 46.116 135.663 50.06C135.663 52.644 135.097 55.0013 133.963 57.132C132.875 59.2173 131.198 60.8947 128.931 62.164C126.71 63.388 123.899 64 120.499 64H99.4192ZM104.179 59.784H119.955C122.585 59.784 124.693 59.308 126.279 58.356C127.866 57.404 129.022 56.18 129.747 54.684C130.473 53.1427 130.835 51.556 130.835 49.924C130.835 48.292 130.518 46.7733 129.883 45.368C129.249 43.9173 128.115 42.7613 126.483 41.9C124.897 40.9933 122.653 40.54 119.751 40.54H104.179V59.784ZM163.227 64.34C159.827 64.34 156.744 63.66 153.979 62.3C151.213 60.94 148.833 59.104 146.839 56.792C144.844 54.4347 143.303 51.8053 142.215 48.904C141.127 45.9573 140.583 42.9427 140.583 39.86C140.583 36.6413 141.149 33.5813 142.283 30.68C143.416 27.7333 145.003 25.1267 147.043 22.86C149.128 20.548 151.553 18.7347 154.319 17.42C157.084 16.06 160.076 15.38 163.295 15.38C166.695 15.38 169.777 16.0827 172.543 17.488C175.308 18.8933 177.665 20.7747 179.615 23.132C181.609 25.4893 183.151 28.1187 184.239 31.02C185.327 33.9213 185.871 36.8907 185.871 39.928C185.871 43.1467 185.304 46.2293 184.171 49.176C183.037 52.0773 181.451 54.684 179.411 56.996C177.371 59.2627 174.968 61.0533 172.203 62.368C169.437 63.6827 166.445 64.34 163.227 64.34ZM145.343 39.86C145.343 42.4893 145.773 45.028 146.635 47.476C147.496 49.8787 148.72 52.032 150.307 53.936C151.893 55.7947 153.775 57.2907 155.951 58.424C158.172 59.512 160.597 60.056 163.227 60.056C165.992 60.056 168.463 59.4893 170.639 58.356C172.86 57.1773 174.741 55.636 176.283 53.732C177.869 51.7827 179.071 49.6067 179.887 47.204C180.703 44.8013 181.111 42.3533 181.111 39.86C181.111 37.2307 180.68 34.7147 179.819 32.312C178.957 29.9093 177.711 27.756 176.079 25.852C174.492 23.948 172.611 22.452 170.435 21.364C168.259 20.276 165.856 19.732 163.227 19.732C160.507 19.732 158.036 20.2987 155.815 21.432C153.639 22.5653 151.757 24.1067 150.171 26.056C148.629 27.96 147.428 30.1133 146.567 32.516C145.751 34.9187 145.343 37.3667 145.343 39.86ZM227.39 19.936L210.186 19.936V64H205.426V19.936H188.222V15.72L227.39 15.72V19.936ZM234.894 64V15.72H239.586V57.472L269.506 15.72L273.926 15.72V64H269.234V22.996L239.654 64H234.894ZM286.286 64V15.72H291.046V37.208H298.322L314.914 15.72H320.422L302.266 39.112L321.578 64L315.73 64L298.458 41.56H291.046V64H286.286Z" fill="#00B3FF"/>
<path d="M372.052 64V15.72L392.044 15.72C394.129 15.72 396.033 16.1507 397.756 17.012C399.524 17.8733 401.043 19.052 402.312 20.548C403.581 21.9987 404.579 23.6307 405.304 25.444C406.029 27.212 406.392 29.0253 406.392 30.884C406.392 33.5133 405.803 36.0067 404.624 38.364C403.491 40.676 401.881 42.5573 399.796 44.008C397.711 45.4587 395.263 46.184 392.452 46.184H376.812V64H372.052ZM376.812 41.968H392.248C394.152 41.968 395.807 41.4467 397.212 40.404C398.617 39.3613 399.705 38.0013 400.476 36.324C401.247 34.6467 401.632 32.8333 401.632 30.884C401.632 28.8893 401.179 27.0533 400.272 25.376C399.365 23.6987 398.164 22.384 396.668 21.432C395.217 20.4347 393.608 19.936 391.84 19.936H376.812V41.968ZM433.801 64.34C430.401 64.34 427.318 63.66 424.553 62.3C421.787 60.94 419.407 59.104 417.413 56.792C415.418 54.4347 413.877 51.8053 412.789 48.904C411.701 45.9573 411.157 42.9427 411.157 39.86C411.157 36.6413 411.723 33.5813 412.857 30.68C413.99 27.7333 415.577 25.1267 417.617 22.86C419.702 20.548 422.127 18.7347 424.893 17.42C427.658 16.06 430.65 15.38 433.869 15.38C437.269 15.38 440.351 16.0827 443.117 17.488C445.882 18.8933 448.239 20.7747 450.189 23.132C452.183 25.4893 453.725 28.1187 454.813 31.02C455.901 33.9213 456.445 36.8907 456.445 39.928C456.445 43.1467 455.878 46.2293 454.745 49.176C453.611 52.0773 452.025 54.684 449.985 56.996C447.945 59.2627 445.542 61.0533 442.777 62.368C440.011 63.6827 437.019 64.34 433.801 64.34ZM415.917 39.86C415.917 42.4893 416.347 45.028 417.209 47.476C418.07 49.8787 419.294 52.032 420.881 53.936C422.467 55.7947 424.349 57.2907 426.525 58.424C428.746 59.512 431.171 60.056 433.801 60.056C436.566 60.056 439.037 59.4893 441.213 58.356C443.434 57.1773 445.315 55.636 446.857 53.732C448.443 51.7827 449.645 49.6067 450.461 47.204C451.277 44.8013 451.685 42.3533 451.685 39.86C451.685 37.2307 451.254 34.7147 450.393 32.312C449.531 29.9093 448.285 27.756 446.653 25.852C445.066 23.948 443.185 22.452 441.009 21.364C438.833 20.276 436.43 19.732 433.801 19.732C431.081 19.732 428.61 20.2987 426.389 21.432C424.213 22.5653 422.331 24.1067 420.745 26.056C419.203 27.96 418.002 30.1133 417.141 32.516C416.325 34.9187 415.917 37.3667 415.917 39.86ZM465.419 64V15.72L497.787 15.72V19.936H470.179V36.732H486.091C491.395 36.732 495.317 37.9787 497.855 40.472C500.394 42.92 501.663 46.116 501.663 50.06C501.663 52.644 501.097 55.0013 499.963 57.132C498.875 59.2173 497.198 60.8947 494.931 62.164C492.71 63.388 489.899 64 486.499 64H465.419ZM470.179 59.784H485.955C488.585 59.784 490.693 59.308 492.279 58.356C493.866 57.404 495.022 56.18 495.747 54.684C496.473 53.1427 496.835 51.556 496.835 49.924C496.835 48.292 496.518 46.7733 495.883 45.368C495.249 43.9173 494.115 42.7613 492.483 41.9C490.897 40.9933 488.653 40.54 485.751 40.54H470.179V59.784ZM529.227 64.34C525.827 64.34 522.744 63.66 519.979 62.3C517.213 60.94 514.833 59.104 512.839 56.792C510.844 54.4347 509.303 51.8053 508.215 48.904C507.127 45.9573 506.583 42.9427 506.583 39.86C506.583 36.6413 507.149 33.5813 508.283 30.68C509.416 27.7333 511.003 25.1267 513.043 22.86C515.128 20.548 517.553 18.7347 520.319 17.42C523.084 16.06 526.076 15.38 529.295 15.38C532.695 15.38 535.777 16.0827 538.543 17.488C541.308 18.8933 543.665 20.7747 545.615 23.132C547.609 25.4893 549.151 28.1187 550.239 31.02C551.327 33.9213 551.871 36.8907 551.871 39.928C551.871 43.1467 551.304 46.2293 550.171 49.176C549.037 52.0773 547.451 54.684 545.411 56.996C543.371 59.2627 540.968 61.0533 538.203 62.368C535.437 63.6827 532.445 64.34 529.227 64.34ZM511.343 39.86C511.343 42.4893 511.773 45.028 512.635 47.476C513.496 49.8787 514.72 52.032 516.307 53.936C517.893 55.7947 519.775 57.2907 521.951 58.424C524.172 59.512 526.597 60.056 529.227 60.056C531.992 60.056 534.463 59.4893 536.639 58.356C538.86 57.1773 540.741 55.636 542.283 53.732C543.869 51.7827 545.071 49.6067 545.887 47.204C546.703 44.8013 547.111 42.3533 547.111 39.86C547.111 37.2307 546.68 34.7147 545.819 32.312C544.957 29.9093 543.711 27.756 542.079 25.852C540.492 23.948 538.611 22.452 536.435 21.364C534.259 20.276 531.856 19.732 529.227 19.732C526.507 19.732 524.036 20.2987 521.815 21.432C519.639 22.5653 517.757 24.1067 516.171 26.056C514.629 27.96 513.428 30.1133 512.567 32.516C511.751 34.9187 511.343 37.3667 511.343 39.86ZM593.39 19.936L576.186 19.936V64H571.426V19.936H554.222V15.72L593.39 15.72V19.936ZM600.894 64V15.72H605.586V57.472L635.506 15.72L639.926 15.72V64H635.234V22.996L605.654 64H600.894ZM652.286 64V15.72H657.046V37.208H664.322L680.914 15.72H686.422L668.266 39.112L687.578 64L681.73 64L664.458 41.56H657.046V64H652.286Z" fill="black"/>
<path d="M738.052 64V15.72L758.044 15.72C760.129 15.72 762.033 16.1507 763.756 17.012C765.524 17.8733 767.043 19.052 768.312 20.548C769.581 21.9987 770.579 23.6307 771.304 25.444C772.029 27.212 772.392 29.0253 772.392 30.884C772.392 33.5133 771.803 36.0067 770.624 38.364C769.491 40.676 767.881 42.5573 765.796 44.008C763.711 45.4587 761.263 46.184 758.452 46.184H742.812V64H738.052ZM742.812 41.968H758.248C760.152 41.968 761.807 41.4467 763.212 40.404C764.617 39.3613 765.705 38.0013 766.476 36.324C767.247 34.6467 767.632 32.8333 767.632 30.884C767.632 28.8893 767.179 27.0533 766.272 25.376C765.365 23.6987 764.164 22.384 762.668 21.432C761.217 20.4347 759.608 19.936 757.84 19.936H742.812V41.968ZM799.801 64.34C796.401 64.34 793.318 63.66 790.553 62.3C787.787 60.94 785.407 59.104 783.413 56.792C781.418 54.4347 779.877 51.8053 778.789 48.904C777.701 45.9573 777.157 42.9427 777.157 39.86C777.157 36.6413 777.723 33.5813 778.857 30.68C779.99 27.7333 781.577 25.1267 783.617 22.86C785.702 20.548 788.127 18.7347 790.893 17.42C793.658 16.06 796.65 15.38 799.869 15.38C803.269 15.38 806.351 16.0827 809.117 17.488C811.882 18.8933 814.239 20.7747 816.189 23.132C818.183 25.4893 819.725 28.1187 820.813 31.02C821.901 33.9213 822.445 36.8907 822.445 39.928C822.445 43.1467 821.878 46.2293 820.745 49.176C819.611 52.0773 818.025 54.684 815.985 56.996C813.945 59.2627 811.542 61.0533 808.777 62.368C806.011 63.6827 803.019 64.34 799.801 64.34ZM781.917 39.86C781.917 42.4893 782.347 45.028 783.209 47.476C784.07 49.8787 785.294 52.032 786.881 53.936C788.467 55.7947 790.349 57.2907 792.525 58.424C794.746 59.512 797.171 60.056 799.801 60.056C802.566 60.056 805.037 59.4893 807.213 58.356C809.434 57.1773 811.315 55.636 812.857 53.732C814.443 51.7827 815.645 49.6067 816.461 47.204C817.277 44.8013 817.685 42.3533 817.685 39.86C817.685 37.2307 817.254 34.7147 816.393 32.312C815.531 29.9093 814.285 27.756 812.653 25.852C811.066 23.948 809.185 22.452 807.009 21.364C804.833 20.276 802.43 19.732 799.801 19.732C797.081 19.732 794.61 20.2987 792.389 21.432C790.213 22.5653 788.331 24.1067 786.745 26.056C785.203 27.96 784.002 30.1133 783.141 32.516C782.325 34.9187 781.917 37.3667 781.917 39.86ZM831.419 64V15.72L863.787 15.72V19.936H836.179V36.732H852.091C857.395 36.732 861.317 37.9787 863.855 40.472C866.394 42.92 867.663 46.116 867.663 50.06C867.663 52.644 867.097 55.0013 865.963 57.132C864.875 59.2173 863.198 60.8947 860.931 62.164C858.71 63.388 855.899 64 852.499 64H831.419ZM836.179 59.784H851.955C854.585 59.784 856.693 59.308 858.279 58.356C859.866 57.404 861.022 56.18 861.747 54.684C862.473 53.1427 862.835 51.556 862.835 49.924C862.835 48.292 862.518 46.7733 861.883 45.368C861.249 43.9173 860.115 42.7613 858.483 41.9C856.897 40.9933 854.653 40.54 851.751 40.54H836.179V59.784ZM895.227 64.34C891.827 64.34 888.744 63.66 885.979 62.3C883.213 60.94 880.833 59.104 878.839 56.792C876.844 54.4347 875.303 51.8053 874.215 48.904C873.127 45.9573 872.583 42.9427 872.583 39.86C872.583 36.6413 873.149 33.5813 874.283 30.68C875.416 27.7333 877.003 25.1267 879.043 22.86C881.128 20.548 883.553 18.7347 886.319 17.42C889.084 16.06 892.076 15.38 895.295 15.38C898.695 15.38 901.777 16.0827 904.543 17.488C907.308 18.8933 909.665 20.7747 911.615 23.132C913.609 25.4893 915.151 28.1187 916.239 31.02C917.327 33.9213 917.871 36.8907 917.871 39.928C917.871 43.1467 917.304 46.2293 916.171 49.176C915.037 52.0773 913.451 54.684 911.411 56.996C909.371 59.2627 906.968 61.0533 904.203 62.368C901.437 63.6827 898.445 64.34 895.227 64.34ZM877.343 39.86C877.343 42.4893 877.773 45.028 878.635 47.476C879.496 49.8787 880.72 52.032 882.307 53.936C883.893 55.7947 885.775 57.2907 887.951 58.424C890.172 59.512 892.597 60.056 895.227 60.056C897.992 60.056 900.463 59.4893 902.639 58.356C904.86 57.1773 906.741 55.636 908.283 53.732C909.869 51.7827 911.071 49.6067 911.887 47.204C912.703 44.8013 913.111 42.3533 913.111 39.86C913.111 37.2307 912.68 34.7147 911.819 32.312C910.957 29.9093 909.711 27.756 908.079 25.852C906.492 23.948 904.611 22.452 902.435 21.364C900.259 20.276 897.856 19.732 895.227 19.732C892.507 19.732 890.036 20.2987 887.815 21.432C885.639 22.5653 883.757 24.1067 882.171 26.056C880.629 27.96 879.428 30.1133 878.567 32.516C877.751 34.9187 877.343 37.3667 877.343 39.86ZM959.39 19.936L942.186 19.936V64H937.426V19.936H920.222V15.72L959.39 15.72V19.936ZM966.894 64V15.72H971.586V57.472L1001.51 15.72L1005.93 15.72V64H1001.23V22.996L971.654 64H966.894ZM1018.29 64V15.72H1023.05V37.208H1030.32L1046.91 15.72H1052.42L1034.27 39.112L1053.58 64L1047.73 64L1030.46 41.56H1023.05V64H1018.29Z" fill="#00B3FF"/>
<path d="M1104.39 64V15.72L1124.38 15.72C1126.46 15.72 1128.37 16.1507 1130.09 17.012C1131.86 17.8733 1133.38 19.052 1134.65 20.548C1135.92 21.9987 1136.91 23.6307 1137.64 25.444C1138.36 27.212 1138.73 29.0253 1138.73 30.884C1138.73 33.5133 1138.14 36.0067 1136.96 38.364C1135.82 40.676 1134.22 42.5573 1132.13 44.008C1130.04 45.4587 1127.6 46.184 1124.79 46.184H1109.15V64H1104.39ZM1109.15 41.968H1124.58C1126.49 41.968 1128.14 41.4467 1129.55 40.404C1130.95 39.3613 1132.04 38.0013 1132.81 36.324C1133.58 34.6467 1133.97 32.8333 1133.97 30.884C1133.97 28.8893 1133.51 27.0533 1132.61 25.376C1131.7 23.6987 1130.5 22.384 1129 21.432C1127.55 20.4347 1125.94 19.936 1124.17 19.936H1109.15V41.968ZM1166.13 64.34C1162.73 64.34 1159.65 63.66 1156.89 62.3C1154.12 60.94 1151.74 59.104 1149.75 56.792C1147.75 54.4347 1146.21 51.8053 1145.12 48.904C1144.03 45.9573 1143.49 42.9427 1143.49 39.86C1143.49 36.6413 1144.06 33.5813 1145.19 30.68C1146.32 27.7333 1147.91 25.1267 1149.95 22.86C1152.04 20.548 1154.46 18.7347 1157.23 17.42C1159.99 16.06 1162.98 15.38 1166.2 15.38C1169.6 15.38 1172.69 16.0827 1175.45 17.488C1178.22 18.8933 1180.57 20.7747 1182.52 23.132C1184.52 25.4893 1186.06 28.1187 1187.15 31.02C1188.23 33.9213 1188.78 36.8907 1188.78 39.928C1188.78 43.1467 1188.21 46.2293 1187.08 49.176C1185.95 52.0773 1184.36 54.684 1182.32 56.996C1180.28 59.2627 1177.88 61.0533 1175.11 62.368C1172.35 63.6827 1169.35 64.34 1166.13 64.34ZM1148.25 39.86C1148.25 42.4893 1148.68 45.028 1149.54 47.476C1150.4 49.8787 1151.63 52.032 1153.21 53.936C1154.8 55.7947 1156.68 57.2907 1158.86 58.424C1161.08 59.512 1163.51 60.056 1166.13 60.056C1168.9 60.056 1171.37 59.4893 1173.55 58.356C1175.77 57.1773 1177.65 55.636 1179.19 53.732C1180.78 51.7827 1181.98 49.6067 1182.79 47.204C1183.61 44.8013 1184.02 42.3533 1184.02 39.86C1184.02 37.2307 1183.59 34.7147 1182.73 32.312C1181.87 29.9093 1180.62 27.756 1178.99 25.852C1177.4 23.948 1175.52 22.452 1173.34 21.364C1171.17 20.276 1168.76 19.732 1166.13 19.732C1163.41 19.732 1160.94 20.2987 1158.72 21.432C1156.55 22.5653 1154.67 24.1067 1153.08 26.056C1151.54 27.96 1150.34 30.1133 1149.47 32.516C1148.66 34.9187 1148.25 37.3667 1148.25 39.86ZM1197.75 64V15.72L1230.12 15.72V19.936H1202.51V36.732H1218.43C1223.73 36.732 1227.65 37.9787 1230.19 40.472C1232.73 42.92 1234 46.116 1234 50.06C1234 52.644 1233.43 55.0013 1232.3 57.132C1231.21 59.2173 1229.53 60.8947 1227.27 62.164C1225.04 63.388 1222.23 64 1218.83 64H1197.75ZM1202.51 59.784H1218.29C1220.92 59.784 1223.03 59.308 1224.61 58.356C1226.2 57.404 1227.36 56.18 1228.08 54.684C1228.81 53.1427 1229.17 51.556 1229.17 49.924C1229.17 48.292 1228.85 46.7733 1228.22 45.368C1227.58 43.9173 1226.45 42.7613 1224.82 41.9C1223.23 40.9933 1220.99 40.54 1218.09 40.54H1202.51V59.784ZM1261.56 64.34C1258.16 64.34 1255.08 63.66 1252.31 62.3C1249.55 60.94 1247.17 59.104 1245.17 56.792C1243.18 54.4347 1241.64 51.8053 1240.55 48.904C1239.46 45.9573 1238.92 42.9427 1238.92 39.86C1238.92 36.6413 1239.48 33.5813 1240.62 30.68C1241.75 27.7333 1243.34 25.1267 1245.38 22.86C1247.46 20.548 1249.89 18.7347 1252.65 17.42C1255.42 16.06 1258.41 15.38 1261.63 15.38C1265.03 15.38 1268.11 16.0827 1270.88 17.488C1273.64 18.8933 1276 20.7747 1277.95 23.132C1279.94 25.4893 1281.48 28.1187 1282.57 31.02C1283.66 33.9213 1284.2 36.8907 1284.2 39.928C1284.2 43.1467 1283.64 46.2293 1282.5 49.176C1281.37 52.0773 1279.78 54.684 1277.74 56.996C1275.7 59.2627 1273.3 61.0533 1270.54 62.368C1267.77 63.6827 1264.78 64.34 1261.56 64.34ZM1243.68 39.86C1243.68 42.4893 1244.11 45.028 1244.97 47.476C1245.83 49.8787 1247.05 52.032 1248.64 53.936C1250.23 55.7947 1252.11 57.2907 1254.28 58.424C1256.51 59.512 1258.93 60.056 1261.56 60.056C1264.33 60.056 1266.8 59.4893 1268.97 58.356C1271.19 57.1773 1273.08 55.636 1274.62 53.732C1276.2 51.7827 1277.4 49.6067 1278.22 47.204C1279.04 44.8013 1279.44 42.3533 1279.44 39.86C1279.44 37.2307 1279.01 34.7147 1278.15 32.312C1277.29 29.9093 1276.04 27.756 1274.41 25.852C1272.83 23.948 1270.94 22.452 1268.77 21.364C1266.59 20.276 1264.19 19.732 1261.56 19.732C1258.84 19.732 1256.37 20.2987 1254.15 21.432C1251.97 22.5653 1250.09 24.1067 1248.5 26.056C1246.96 27.96 1245.76 30.1133 1244.9 32.516C1244.08 34.9187 1243.68 37.3667 1243.68 39.86ZM1325.72 19.936L1308.52 19.936V64H1303.76V19.936H1286.56V15.72L1325.72 15.72V19.936ZM1333.23 64V15.72H1337.92V57.472L1367.84 15.72L1372.26 15.72V64H1367.57V22.996L1337.99 64H1333.23ZM1384.62 64V15.72H1389.38V37.208H1396.66L1413.25 15.72H1418.76L1400.6 39.112L1419.91 64L1414.06 64L1396.79 41.56H1389.38V64H1384.62Z" fill="black"/>
</svg>
