<svg width="1343" height="75" viewBox="0 0 1343 75" fill="none" xmlns="http://www.w3.org/2000/svg">
<path d="M3.904 60L3.904 14.56L23.488 14.56C25.7067 14.56 27.7547 15.008 29.632 15.904C31.5093 16.8 33.1307 18.016 34.496 19.552C35.8613 21.0453 36.9067 22.7307 37.632 24.608C38.4 26.4853 38.784 28.384 38.784 30.304C38.784 32.992 38.144 35.5307 36.864 37.92C35.6267 40.3093 33.8773 42.272 31.616 43.808C29.3973 45.3013 26.7947 46.048 23.808 46.048H16.384V60H3.904ZM16.384 35.168H22.976C23.488 35.168 23.9787 35.0187 24.448 34.72C24.9173 34.4213 25.3013 33.9093 25.6 33.184C25.9413 32.4587 26.112 31.4987 26.112 30.304C26.112 29.024 25.92 28.0427 25.536 27.36C25.1947 26.6347 24.7467 26.144 24.192 25.888C23.68 25.5893 23.168 25.44 22.656 25.44H16.384L16.384 35.168ZM64.259 60.384C60.803 60.384 57.667 59.744 54.851 58.464C52.035 57.1413 49.603 55.392 47.555 53.216C45.5497 50.9973 43.9923 48.5227 42.883 45.792C41.8163 43.0187 41.283 40.16 41.283 37.216C41.283 34.1867 41.859 31.3067 43.011 28.576C44.163 25.8453 45.763 23.4133 47.811 21.28C49.9017 19.104 52.355 17.3973 55.171 16.16C58.0297 14.9227 61.1443 14.304 64.515 14.304C67.971 14.304 71.107 14.9653 73.923 16.288C76.739 17.568 79.1497 19.3173 81.155 21.536C83.1603 23.7547 84.6963 26.2507 85.763 29.024C86.8723 31.7547 87.427 34.5707 87.427 37.472C87.427 40.4587 86.851 43.3173 85.699 46.048C84.5897 48.7787 82.9897 51.232 80.899 53.408C78.851 55.5413 76.419 57.248 73.603 58.528C70.787 59.7653 67.6723 60.384 64.259 60.384ZM53.955 37.344C53.955 38.88 54.1683 40.3733 54.595 41.824C55.0217 43.232 55.6617 44.512 56.515 45.664C57.3683 46.7733 58.435 47.6693 59.715 48.352C61.0377 48.992 62.595 49.312 64.387 49.312C66.179 49.312 67.7363 48.9707 69.059 48.288C70.3817 47.6053 71.4483 46.688 72.259 45.536C73.1123 44.3413 73.731 43.04 74.115 41.632C74.5417 40.1813 74.755 38.7093 74.755 37.216C74.755 35.68 74.5417 34.208 74.115 32.8C73.6883 31.392 73.0483 30.1333 72.195 29.024C71.3417 27.872 70.2537 26.976 68.931 26.336C67.6083 25.696 66.0723 25.376 64.323 25.376C62.531 25.376 60.9737 25.7173 59.651 26.4C58.371 27.0827 57.3043 28 56.451 29.152C55.5977 30.2613 54.9577 31.5413 54.531 32.992C54.147 34.4 53.955 35.8507 53.955 37.344ZM92.9725 60V14.56L127.725 14.56V25.248H105.453V32.16H115.437C120.642 32.16 124.589 33.376 127.277 35.808C129.965 38.24 131.309 41.568 131.309 45.792C131.309 48.736 130.733 51.2747 129.581 53.408C128.429 55.4987 126.722 57.12 124.461 58.272C122.242 59.424 119.447 60 116.077 60H92.9725ZM105.453 49.312H114.221C115.287 49.312 116.119 49.12 116.717 48.736C117.357 48.352 117.805 47.8613 118.061 47.264C118.359 46.6667 118.509 46.048 118.509 45.408C118.509 44.768 118.381 44.1707 118.125 43.616C117.911 43.0187 117.485 42.5493 116.845 42.208C116.205 41.8667 115.309 41.696 114.157 41.696H105.453V49.312ZM156.759 60.384C153.303 60.384 150.167 59.744 147.351 58.464C144.535 57.1413 142.103 55.392 140.055 53.216C138.05 50.9973 136.492 48.5227 135.383 45.792C134.316 43.0187 133.783 40.16 133.783 37.216C133.783 34.1867 134.359 31.3067 135.511 28.576C136.663 25.8453 138.263 23.4133 140.311 21.28C142.402 19.104 144.855 17.3973 147.671 16.16C150.53 14.9227 153.644 14.304 157.015 14.304C160.471 14.304 163.607 14.9653 166.423 16.288C169.239 17.568 171.65 19.3173 173.655 21.536C175.66 23.7547 177.196 26.2507 178.263 29.024C179.372 31.7547 179.927 34.5707 179.927 37.472C179.927 40.4587 179.351 43.3173 178.199 46.048C177.09 48.7787 175.49 51.232 173.399 53.408C171.351 55.5413 168.919 57.248 166.103 58.528C163.287 59.7653 160.172 60.384 156.759 60.384ZM146.455 37.344C146.455 38.88 146.668 40.3733 147.095 41.824C147.522 43.232 148.162 44.512 149.015 45.664C149.868 46.7733 150.935 47.6693 152.215 48.352C153.538 48.992 155.095 49.312 156.887 49.312C158.679 49.312 160.236 48.9707 161.559 48.288C162.882 47.6053 163.948 46.688 164.759 45.536C165.612 44.3413 166.231 43.04 166.615 41.632C167.042 40.1813 167.255 38.7093 167.255 37.216C167.255 35.68 167.042 34.208 166.615 32.8C166.188 31.392 165.548 30.1333 164.695 29.024C163.842 27.872 162.754 26.976 161.431 26.336C160.108 25.696 158.572 25.376 156.823 25.376C155.031 25.376 153.474 25.7173 152.151 26.4C150.871 27.0827 149.804 28 148.951 29.152C148.098 30.2613 147.458 31.5413 147.031 32.992C146.647 34.4 146.455 35.8507 146.455 37.344ZM219.921 25.44H206.865V60H194.385V25.44H181.265V14.56L219.921 14.56V25.44ZM224.723 60V14.56H237.203V42.208L253.971 14.56H265.619V60H253.139V32.352L236.562 60H224.723ZM273.91 60V14.56H286.326V31.264L288.886 31.264L300.598 14.56L314.294 14.56L298.294 36.512L315.766 60H300.662L288.374 42.592H286.326V60H273.91Z" fill="black"/>
<path d="M345.904 60V14.56L365.488 14.56C367.707 14.56 369.755 15.008 371.632 15.904C373.509 16.8 375.131 18.016 376.496 19.552C377.861 21.0453 378.907 22.7307 379.632 24.608C380.4 26.4853 380.784 28.384 380.784 30.304C380.784 32.992 380.144 35.5307 378.864 37.92C377.627 40.3093 375.877 42.272 373.616 43.808C371.397 45.3013 368.795 46.048 365.808 46.048H358.384V60H345.904ZM358.384 35.168H364.976C365.488 35.168 365.979 35.0187 366.448 34.72C366.917 34.4213 367.301 33.9093 367.6 33.184C367.941 32.4587 368.112 31.4987 368.112 30.304C368.112 29.024 367.92 28.0427 367.536 27.36C367.195 26.6347 366.747 26.144 366.192 25.888C365.68 25.5893 365.168 25.44 364.656 25.44H358.384V35.168ZM406.259 60.384C402.803 60.384 399.667 59.744 396.851 58.464C394.035 57.1413 391.603 55.392 389.555 53.216C387.55 50.9973 385.992 48.5227 384.883 45.792C383.816 43.0187 383.283 40.16 383.283 37.216C383.283 34.1867 383.859 31.3067 385.011 28.576C386.163 25.8453 387.763 23.4133 389.811 21.28C391.902 19.104 394.355 17.3973 397.171 16.16C400.03 14.9227 403.144 14.304 406.515 14.304C409.971 14.304 413.107 14.9653 415.923 16.288C418.739 17.568 421.15 19.3173 423.155 21.536C425.16 23.7547 426.696 26.2507 427.763 29.024C428.872 31.7547 429.427 34.5707 429.427 37.472C429.427 40.4587 428.851 43.3173 427.699 46.048C426.59 48.7787 424.99 51.232 422.899 53.408C420.851 55.5413 418.419 57.248 415.603 58.528C412.787 59.7653 409.672 60.384 406.259 60.384ZM395.955 37.344C395.955 38.88 396.168 40.3733 396.595 41.824C397.022 43.232 397.662 44.512 398.515 45.664C399.368 46.7733 400.435 47.6693 401.715 48.352C403.038 48.992 404.595 49.312 406.387 49.312C408.179 49.312 409.736 48.9707 411.059 48.288C412.382 47.6053 413.448 46.688 414.259 45.536C415.112 44.3413 415.731 43.04 416.115 41.632C416.542 40.1813 416.755 38.7093 416.755 37.216C416.755 35.68 416.542 34.208 416.115 32.8C415.688 31.392 415.048 30.1333 414.195 29.024C413.342 27.872 412.254 26.976 410.931 26.336C409.608 25.696 408.072 25.376 406.323 25.376C404.531 25.376 402.974 25.7173 401.651 26.4C400.371 27.0827 399.304 28 398.451 29.152C397.598 30.2613 396.958 31.5413 396.531 32.992C396.147 34.4 395.955 35.8507 395.955 37.344ZM434.973 60V14.56L469.725 14.56V25.248H447.453V32.16H457.437C462.642 32.16 466.589 33.376 469.277 35.808C471.965 38.24 473.309 41.568 473.309 45.792C473.309 48.736 472.733 51.2747 471.581 53.408C470.429 55.4987 468.722 57.12 466.461 58.272C464.242 59.424 461.447 60 458.077 60H434.973ZM447.453 49.312H456.221C457.287 49.312 458.119 49.12 458.717 48.736C459.357 48.352 459.805 47.8613 460.061 47.264C460.359 46.6667 460.509 46.048 460.509 45.408C460.509 44.768 460.381 44.1707 460.125 43.616C459.911 43.0187 459.485 42.5493 458.845 42.208C458.205 41.8667 457.309 41.696 456.157 41.696H447.453V49.312ZM498.759 60.384C495.303 60.384 492.167 59.744 489.351 58.464C486.535 57.1413 484.103 55.392 482.055 53.216C480.05 50.9973 478.492 48.5227 477.383 45.792C476.316 43.0187 475.783 40.16 475.783 37.216C475.783 34.1867 476.359 31.3067 477.511 28.576C478.663 25.8453 480.263 23.4133 482.311 21.28C484.402 19.104 486.855 17.3973 489.671 16.16C492.53 14.9227 495.644 14.304 499.015 14.304C502.471 14.304 505.607 14.9653 508.423 16.288C511.239 17.568 513.65 19.3173 515.655 21.536C517.66 23.7547 519.196 26.2507 520.263 29.024C521.372 31.7547 521.927 34.5707 521.927 37.472C521.927 40.4587 521.351 43.3173 520.199 46.048C519.09 48.7787 517.49 51.232 515.399 53.408C513.351 55.5413 510.919 57.248 508.103 58.528C505.287 59.7653 502.172 60.384 498.759 60.384ZM488.455 37.344C488.455 38.88 488.668 40.3733 489.095 41.824C489.522 43.232 490.162 44.512 491.015 45.664C491.868 46.7733 492.935 47.6693 494.215 48.352C495.538 48.992 497.095 49.312 498.887 49.312C500.679 49.312 502.236 48.9707 503.559 48.288C504.882 47.6053 505.948 46.688 506.759 45.536C507.612 44.3413 508.231 43.04 508.615 41.632C509.042 40.1813 509.255 38.7093 509.255 37.216C509.255 35.68 509.042 34.208 508.615 32.8C508.188 31.392 507.548 30.1333 506.695 29.024C505.842 27.872 504.754 26.976 503.431 26.336C502.108 25.696 500.572 25.376 498.823 25.376C497.031 25.376 495.474 25.7173 494.151 26.4C492.871 27.0827 491.804 28 490.951 29.152C490.098 30.2613 489.458 31.5413 489.031 32.992C488.647 34.4 488.455 35.8507 488.455 37.344ZM561.921 25.44H548.865V60H536.385V25.44H523.265V14.56L561.921 14.56V25.44ZM566.723 60V14.56H579.203V42.208L595.971 14.56H607.619V60H595.139V32.352L578.562 60H566.723ZM615.91 60V14.56H628.326V31.264L630.886 31.264L642.598 14.56L656.294 14.56L640.294 36.512L657.766 60H642.662L630.374 42.592H628.326V60H615.91Z" fill="#00B3FF"/>
<path d="M687.904 60V14.56L707.488 14.56C709.707 14.56 711.755 15.008 713.632 15.904C715.509 16.8 717.131 18.016 718.496 19.552C719.861 21.0453 720.907 22.7307 721.632 24.608C722.4 26.4853 722.784 28.384 722.784 30.304C722.784 32.992 722.144 35.5307 720.864 37.92C719.627 40.3093 717.877 42.272 715.616 43.808C713.397 45.3013 710.795 46.048 707.808 46.048H700.384V60H687.904ZM700.384 35.168H706.976C707.488 35.168 707.979 35.0187 708.448 34.72C708.917 34.4213 709.301 33.9093 709.6 33.184C709.941 32.4587 710.112 31.4987 710.112 30.304C710.112 29.024 709.92 28.0427 709.536 27.36C709.195 26.6347 708.747 26.144 708.192 25.888C707.68 25.5893 707.168 25.44 706.656 25.44H700.384V35.168ZM748.259 60.384C744.803 60.384 741.667 59.744 738.851 58.464C736.035 57.1413 733.603 55.392 731.555 53.216C729.55 50.9973 727.992 48.5227 726.883 45.792C725.816 43.0187 725.283 40.16 725.283 37.216C725.283 34.1867 725.859 31.3067 727.011 28.576C728.163 25.8453 729.763 23.4133 731.811 21.28C733.902 19.104 736.355 17.3973 739.171 16.16C742.03 14.9227 745.144 14.304 748.515 14.304C751.971 14.304 755.107 14.9653 757.923 16.288C760.739 17.568 763.15 19.3173 765.155 21.536C767.16 23.7547 768.696 26.2507 769.763 29.024C770.872 31.7547 771.427 34.5707 771.427 37.472C771.427 40.4587 770.851 43.3173 769.699 46.048C768.59 48.7787 766.99 51.232 764.899 53.408C762.851 55.5413 760.419 57.248 757.603 58.528C754.787 59.7653 751.672 60.384 748.259 60.384ZM737.955 37.344C737.955 38.88 738.168 40.3733 738.595 41.824C739.022 43.232 739.662 44.512 740.515 45.664C741.368 46.7733 742.435 47.6693 743.715 48.352C745.038 48.992 746.595 49.312 748.387 49.312C750.179 49.312 751.736 48.9707 753.059 48.288C754.382 47.6053 755.448 46.688 756.259 45.536C757.112 44.3413 757.731 43.04 758.115 41.632C758.542 40.1813 758.755 38.7093 758.755 37.216C758.755 35.68 758.542 34.208 758.115 32.8C757.688 31.392 757.048 30.1333 756.195 29.024C755.342 27.872 754.254 26.976 752.931 26.336C751.608 25.696 750.072 25.376 748.323 25.376C746.531 25.376 744.974 25.7173 743.651 26.4C742.371 27.0827 741.304 28 740.451 29.152C739.598 30.2613 738.958 31.5413 738.531 32.992C738.147 34.4 737.955 35.8507 737.955 37.344ZM776.973 60V14.56L811.725 14.56V25.248H789.453V32.16H799.437C804.642 32.16 808.589 33.376 811.277 35.808C813.965 38.24 815.309 41.568 815.309 45.792C815.309 48.736 814.733 51.2747 813.581 53.408C812.429 55.4987 810.722 57.12 808.461 58.272C806.242 59.424 803.447 60 800.077 60H776.973ZM789.453 49.312H798.221C799.287 49.312 800.119 49.12 800.717 48.736C801.357 48.352 801.805 47.8613 802.061 47.264C802.359 46.6667 802.509 46.048 802.509 45.408C802.509 44.768 802.381 44.1707 802.125 43.616C801.911 43.0187 801.485 42.5493 800.845 42.208C800.205 41.8667 799.309 41.696 798.157 41.696H789.453V49.312ZM840.759 60.384C837.303 60.384 834.167 59.744 831.351 58.464C828.535 57.1413 826.103 55.392 824.055 53.216C822.05 50.9973 820.492 48.5227 819.383 45.792C818.316 43.0187 817.783 40.16 817.783 37.216C817.783 34.1867 818.359 31.3067 819.511 28.576C820.663 25.8453 822.263 23.4133 824.311 21.28C826.402 19.104 828.855 17.3973 831.671 16.16C834.53 14.9227 837.644 14.304 841.015 14.304C844.471 14.304 847.607 14.9653 850.423 16.288C853.239 17.568 855.65 19.3173 857.655 21.536C859.66 23.7547 861.196 26.2507 862.263 29.024C863.372 31.7547 863.927 34.5707 863.927 37.472C863.927 40.4587 863.351 43.3173 862.199 46.048C861.09 48.7787 859.49 51.232 857.399 53.408C855.351 55.5413 852.919 57.248 850.103 58.528C847.287 59.7653 844.172 60.384 840.759 60.384ZM830.455 37.344C830.455 38.88 830.668 40.3733 831.095 41.824C831.522 43.232 832.162 44.512 833.015 45.664C833.868 46.7733 834.935 47.6693 836.215 48.352C837.538 48.992 839.095 49.312 840.887 49.312C842.679 49.312 844.236 48.9707 845.559 48.288C846.882 47.6053 847.948 46.688 848.759 45.536C849.612 44.3413 850.231 43.04 850.615 41.632C851.042 40.1813 851.255 38.7093 851.255 37.216C851.255 35.68 851.042 34.208 850.615 32.8C850.188 31.392 849.548 30.1333 848.695 29.024C847.842 27.872 846.754 26.976 845.431 26.336C844.108 25.696 842.572 25.376 840.823 25.376C839.031 25.376 837.474 25.7173 836.151 26.4C834.871 27.0827 833.804 28 832.951 29.152C832.098 30.2613 831.458 31.5413 831.031 32.992C830.647 34.4 830.455 35.8507 830.455 37.344ZM903.921 25.44H890.865V60H878.385V25.44H865.265V14.56L903.921 14.56V25.44ZM908.723 60V14.56H921.203V42.208L937.971 14.56H949.619V60H937.139V32.352L920.562 60H908.723ZM957.91 60V14.56H970.326V31.264L972.886 31.264L984.598 14.56L998.294 14.56L982.294 36.512L999.766 60H984.662L972.374 42.592H970.326V60H957.91Z" fill="black"/>
<path d="M1029.9 60V14.56L1049.49 14.56C1051.71 14.56 1053.75 15.008 1055.63 15.904C1057.51 16.8 1059.13 18.016 1060.5 19.552C1061.86 21.0453 1062.91 22.7307 1063.63 24.608C1064.4 26.4853 1064.78 28.384 1064.78 30.304C1064.78 32.992 1064.14 35.5307 1062.86 37.92C1061.63 40.3093 1059.88 42.272 1057.62 43.808C1055.4 45.3013 1052.79 46.048 1049.81 46.048H1042.38V60H1029.9ZM1042.38 35.168H1048.98C1049.49 35.168 1049.98 35.0187 1050.45 34.72C1050.92 34.4213 1051.3 33.9093 1051.6 33.184C1051.94 32.4587 1052.11 31.4987 1052.11 30.304C1052.11 29.024 1051.92 28.0427 1051.54 27.36C1051.19 26.6347 1050.75 26.144 1050.19 25.888C1049.68 25.5893 1049.17 25.44 1048.66 25.44H1042.38V35.168ZM1090.26 60.384C1086.8 60.384 1083.67 59.744 1080.85 58.464C1078.04 57.1413 1075.6 55.392 1073.56 53.216C1071.55 50.9973 1069.99 48.5227 1068.88 45.792C1067.82 43.0187 1067.28 40.16 1067.28 37.216C1067.28 34.1867 1067.86 31.3067 1069.01 28.576C1070.16 25.8453 1071.76 23.4133 1073.81 21.28C1075.9 19.104 1078.36 17.3973 1081.17 16.16C1084.03 14.9227 1087.14 14.304 1090.52 14.304C1093.97 14.304 1097.11 14.9653 1099.92 16.288C1102.74 17.568 1105.15 19.3173 1107.16 21.536C1109.16 23.7547 1110.7 26.2507 1111.76 29.024C1112.87 31.7547 1113.43 34.5707 1113.43 37.472C1113.43 40.4587 1112.85 43.3173 1111.7 46.048C1110.59 48.7787 1108.99 51.232 1106.9 53.408C1104.85 55.5413 1102.42 57.248 1099.6 58.528C1096.79 59.7653 1093.67 60.384 1090.26 60.384ZM1079.96 37.344C1079.96 38.88 1080.17 40.3733 1080.6 41.824C1081.02 43.232 1081.66 44.512 1082.52 45.664C1083.37 46.7733 1084.44 47.6693 1085.72 48.352C1087.04 48.992 1088.6 49.312 1090.39 49.312C1092.18 49.312 1093.74 48.9707 1095.06 48.288C1096.38 47.6053 1097.45 46.688 1098.26 45.536C1099.11 44.3413 1099.73 43.04 1100.12 41.632C1100.54 40.1813 1100.76 38.7093 1100.76 37.216C1100.76 35.68 1100.54 34.208 1100.12 32.8C1099.69 31.392 1099.05 30.1333 1098.19 29.024C1097.34 27.872 1096.25 26.976 1094.93 26.336C1093.61 25.696 1092.07 25.376 1090.32 25.376C1088.53 25.376 1086.97 25.7173 1085.65 26.4C1084.37 27.0827 1083.3 28 1082.45 29.152C1081.6 30.2613 1080.96 31.5413 1080.53 32.992C1080.15 34.4 1079.96 35.8507 1079.96 37.344ZM1118.97 60V14.56L1153.72 14.56V25.248H1131.45V32.16H1141.44C1146.64 32.16 1150.59 33.376 1153.28 35.808C1155.96 38.24 1157.31 41.568 1157.31 45.792C1157.31 48.736 1156.73 51.2747 1155.58 53.408C1154.43 55.4987 1152.72 57.12 1150.46 58.272C1148.24 59.424 1145.45 60 1142.08 60H1118.97ZM1131.45 49.312H1140.22C1141.29 49.312 1142.12 49.12 1142.72 48.736C1143.36 48.352 1143.8 47.8613 1144.06 47.264C1144.36 46.6667 1144.51 46.048 1144.51 45.408C1144.51 44.768 1144.38 44.1707 1144.12 43.616C1143.91 43.0187 1143.48 42.5493 1142.84 42.208C1142.2 41.8667 1141.31 41.696 1140.16 41.696H1131.45V49.312ZM1182.76 60.384C1179.3 60.384 1176.17 59.744 1173.35 58.464C1170.54 57.1413 1168.1 55.392 1166.06 53.216C1164.05 50.9973 1162.49 48.5227 1161.38 45.792C1160.32 43.0187 1159.78 40.16 1159.78 37.216C1159.78 34.1867 1160.36 31.3067 1161.51 28.576C1162.66 25.8453 1164.26 23.4133 1166.31 21.28C1168.4 19.104 1170.86 17.3973 1173.67 16.16C1176.53 14.9227 1179.64 14.304 1183.02 14.304C1186.47 14.304 1189.61 14.9653 1192.42 16.288C1195.24 17.568 1197.65 19.3173 1199.66 21.536C1201.66 23.7547 1203.2 26.2507 1204.26 29.024C1205.37 31.7547 1205.93 34.5707 1205.93 37.472C1205.93 40.4587 1205.35 43.3173 1204.2 46.048C1203.09 48.7787 1201.49 51.232 1199.4 53.408C1197.35 55.5413 1194.92 57.248 1192.1 58.528C1189.29 59.7653 1186.17 60.384 1182.76 60.384ZM1172.46 37.344C1172.46 38.88 1172.67 40.3733 1173.1 41.824C1173.52 43.232 1174.16 44.512 1175.02 45.664C1175.87 46.7733 1176.94 47.6693 1178.22 48.352C1179.54 48.992 1181.1 49.312 1182.89 49.312C1184.68 49.312 1186.24 48.9707 1187.56 48.288C1188.88 47.6053 1189.95 46.688 1190.76 45.536C1191.61 44.3413 1192.23 43.04 1192.62 41.632C1193.04 40.1813 1193.26 38.7093 1193.26 37.216C1193.26 35.68 1193.04 34.208 1192.62 32.8C1192.19 31.392 1191.55 30.1333 1190.69 29.024C1189.84 27.872 1188.75 26.976 1187.43 26.336C1186.11 25.696 1184.57 25.376 1182.82 25.376C1181.03 25.376 1179.47 25.7173 1178.15 26.4C1176.87 27.0827 1175.8 28 1174.95 29.152C1174.1 30.2613 1173.46 31.5413 1173.03 32.992C1172.65 34.4 1172.46 35.8507 1172.46 37.344ZM1245.92 25.44H1232.87V60H1220.39V25.44H1207.27V14.56L1245.92 14.56V25.44ZM1250.72 60V14.56H1263.2V42.208L1279.97 14.56H1291.62V60H1279.14V32.352L1262.56 60H1250.72ZM1299.91 60V14.56H1312.33V31.264L1314.89 31.264L1326.6 14.56L1340.29 14.56L1324.29 36.512L1341.77 60H1326.66L1314.37 42.592H1312.33V60H1299.91Z" fill="#00B3FF"/>
</svg>
