<svg width="1936" height="76" viewBox="0 0 1936 76" fill="none" xmlns="http://www.w3.org/2000/svg">
<path d="M6.09786 60.4018L6.09786 14.9618L24.9139 14.9618C26.8765 14.9618 28.6685 15.3671 30.2899 16.1778C31.9539 16.9885 33.3832 18.0978 34.5779 19.5058C35.7725 20.8711 36.7112 22.4071 37.3939 24.1138C38.0765 25.7778 38.4179 27.4845 38.4179 29.2338C38.4179 31.7085 37.8632 34.0551 36.7539 36.2738C35.6872 38.4498 34.1725 40.2205 32.2099 41.5858C30.2472 42.9511 27.9432 43.6338 25.2979 43.6338H10.5779L10.5779 60.4018H6.09786ZM10.5779 39.6658H25.1059C26.8979 39.6658 28.4552 39.1751 29.7779 38.1938C31.1005 37.2125 32.1245 35.9325 32.8499 34.3538C33.5752 32.7751 33.9379 31.0685 33.9379 29.2338C33.9379 27.3565 33.5112 25.6285 32.6579 24.0498C31.8045 22.4711 30.6739 21.2338 29.2659 20.3378C27.9005 19.3991 26.3859 18.9298 24.7219 18.9298H10.5779V39.6658ZM64.2144 60.7218C61.0144 60.7218 58.113 60.0818 55.5104 58.8018C52.9077 57.5218 50.6677 55.7938 48.7904 53.6178C46.913 51.3991 45.4624 48.9245 44.4384 46.1938C43.4144 43.4205 42.9024 40.5831 42.9024 37.6818C42.9024 34.6525 43.4357 31.7725 44.5024 29.0418C45.569 26.2685 47.0624 23.8151 48.9824 21.6818C50.945 19.5058 53.2277 17.7991 55.8304 16.5618C58.433 15.2818 61.249 14.6418 64.2784 14.6418C67.4784 14.6418 70.3797 15.3031 72.9824 16.6258C75.585 17.9485 77.8037 19.7191 79.6384 21.9378C81.5157 24.1565 82.9664 26.6311 83.9904 29.3618C85.0144 32.0925 85.5264 34.8871 85.5264 37.7458C85.5264 40.7751 84.993 43.6765 83.9264 46.4498C82.8597 49.1805 81.3664 51.6338 79.4464 53.8098C77.5264 55.9431 75.265 57.6285 72.6624 58.8658C70.0597 60.1031 67.2437 60.7218 64.2144 60.7218ZM47.3824 37.6818C47.3824 40.1565 47.7877 42.5458 48.5984 44.8498C49.409 47.1111 50.561 49.1378 52.0544 50.9298C53.5477 52.6791 55.3184 54.0871 57.3664 55.1538C59.457 56.1778 61.7397 56.6898 64.2144 56.6898C66.817 56.6898 69.1424 56.1565 71.1904 55.0898C73.281 53.9805 75.0517 52.5298 76.5024 50.7378C77.9957 48.9031 79.1264 46.8551 79.8944 44.5938C80.6624 42.3325 81.0464 40.0285 81.0464 37.6818C81.0464 35.2071 80.641 32.8391 79.8304 30.5778C79.0197 28.3165 77.8464 26.2898 76.3104 24.4978C74.817 22.7058 73.0464 21.2978 70.9984 20.2738C68.9504 19.2498 66.689 18.7378 64.2144 18.7378C61.6544 18.7378 59.329 19.2711 57.2384 20.3378C55.1904 21.4045 53.4197 22.8551 51.9264 24.6898C50.4757 26.4818 49.345 28.5085 48.5344 30.7698C47.7664 33.0311 47.3824 35.3351 47.3824 37.6818ZM93.9729 60.4018V14.9618L124.437 14.9618V18.9298H98.4529V34.7378H113.429C118.421 34.7378 122.112 35.9111 124.501 38.2578C126.89 40.5618 128.085 43.5698 128.085 47.2818C128.085 49.7138 127.552 51.9325 126.485 53.9378C125.461 55.9005 123.882 57.4791 121.749 58.6738C119.658 59.8258 117.013 60.4018 113.813 60.4018H93.9729ZM98.4529 56.4338H113.301C115.776 56.4338 117.76 55.9858 119.253 55.0898C120.746 54.1938 121.834 53.0418 122.517 51.6338C123.2 50.1831 123.541 48.6898 123.541 47.1538C123.541 45.6178 123.242 44.1885 122.645 42.8658C122.048 41.5005 120.981 40.4125 119.445 39.6018C117.952 38.7485 115.84 38.3218 113.109 38.3218H98.4529V56.4338ZM154.027 60.7218C150.827 60.7218 147.926 60.0818 145.323 58.8018C142.72 57.5218 140.48 55.7938 138.603 53.6178C136.726 51.3991 135.275 48.9245 134.251 46.1938C133.227 43.4205 132.715 40.5831 132.715 37.6818C132.715 34.6525 133.248 31.7725 134.315 29.0418C135.382 26.2685 136.875 23.8151 138.795 21.6818C140.758 19.5058 143.04 17.7991 145.643 16.5618C148.246 15.2818 151.062 14.6418 154.091 14.6418C157.291 14.6418 160.192 15.3031 162.795 16.6258C165.398 17.9485 167.616 19.7191 169.451 21.9378C171.328 24.1565 172.779 26.6311 173.803 29.3618C174.827 32.0925 175.339 34.8871 175.339 37.7458C175.339 40.7751 174.806 43.6765 173.739 46.4498C172.672 49.1805 171.179 51.6338 169.259 53.8098C167.339 55.9431 165.078 57.6285 162.475 58.8658C159.872 60.1031 157.056 60.7218 154.027 60.7218ZM137.195 37.6818C137.195 40.1565 137.6 42.5458 138.411 44.8498C139.222 47.1111 140.374 49.1378 141.867 50.9298C143.36 52.6791 145.131 54.0871 147.179 55.1538C149.27 56.1778 151.552 56.6898 154.027 56.6898C156.63 56.6898 158.955 56.1565 161.003 55.0898C163.094 53.9805 164.864 52.5298 166.315 50.7378C167.808 48.9031 168.939 46.8551 169.707 44.5938C170.475 42.3325 170.859 40.0285 170.859 37.6818C170.859 35.2071 170.454 32.8391 169.643 30.5778C168.832 28.3165 167.659 26.2898 166.123 24.4978C164.63 22.7058 162.859 21.2978 160.811 20.2738C158.763 19.2498 156.502 18.7378 154.027 18.7378C151.467 18.7378 149.142 19.2711 147.051 20.3378C145.003 21.4045 143.232 22.8551 141.739 24.6898C140.288 26.4818 139.158 28.5085 138.347 30.7698C137.579 33.0311 137.195 35.3351 137.195 37.6818ZM214.416 18.9298H198.224V60.4018H193.744V18.9298H177.552V14.9618L214.416 14.9618V18.9298ZM221.479 60.4018V14.9618H225.895V54.2578L254.055 14.9618H258.215V60.4018H253.799V21.8098L225.959 60.4018H221.479ZM269.848 60.4018V14.9618L274.328 14.9618V35.1858H281.176L296.792 14.9618H301.976L284.888 36.9778L303.064 60.4018H297.56L281.304 39.2818H274.328V60.4018H269.848Z" fill="#00B3FF"/>
<path d="M332.098 60.4018V14.9618L350.914 14.9618C352.877 14.9618 354.669 15.3671 356.29 16.1778C357.954 16.9885 359.383 18.0978 360.578 19.5058C361.773 20.8711 362.711 22.4071 363.394 24.1138C364.077 25.7778 364.418 27.4845 364.418 29.2338C364.418 31.7085 363.863 34.0551 362.754 36.2738C361.687 38.4498 360.173 40.2205 358.21 41.5858C356.247 42.9511 353.943 43.6338 351.298 43.6338H336.578V60.4018H332.098ZM336.578 39.6658H351.106C352.898 39.6658 354.455 39.1751 355.778 38.1938C357.101 37.2125 358.125 35.9325 358.85 34.3538C359.575 32.7751 359.938 31.0685 359.938 29.2338C359.938 27.3565 359.511 25.6285 358.658 24.0498C357.805 22.4711 356.674 21.2338 355.266 20.3378C353.901 19.3991 352.386 18.9298 350.722 18.9298H336.578V39.6658ZM390.214 60.7218C387.014 60.7218 384.113 60.0818 381.51 58.8018C378.908 57.5218 376.668 55.7938 374.79 53.6178C372.913 51.3991 371.462 48.9245 370.438 46.1938C369.414 43.4205 368.902 40.5831 368.902 37.6818C368.902 34.6525 369.436 31.7725 370.502 29.0418C371.569 26.2685 373.062 23.8151 374.982 21.6818C376.945 19.5058 379.228 17.7991 381.83 16.5618C384.433 15.2818 387.249 14.6418 390.278 14.6418C393.478 14.6418 396.38 15.3031 398.982 16.6258C401.585 17.9485 403.804 19.7191 405.638 21.9378C407.516 24.1565 408.966 26.6311 409.99 29.3618C411.014 32.0925 411.526 34.8871 411.526 37.7458C411.526 40.7751 410.993 43.6765 409.926 46.4498C408.86 49.1805 407.366 51.6338 405.446 53.8098C403.526 55.9431 401.265 57.6285 398.662 58.8658C396.06 60.1031 393.244 60.7218 390.214 60.7218ZM373.382 37.6818C373.382 40.1565 373.788 42.5458 374.598 44.8498C375.409 47.1111 376.561 49.1378 378.054 50.9298C379.548 52.6791 381.318 54.0871 383.366 55.1538C385.457 56.1778 387.74 56.6898 390.214 56.6898C392.817 56.6898 395.142 56.1565 397.19 55.0898C399.281 53.9805 401.052 52.5298 402.502 50.7378C403.996 48.9031 405.126 46.8551 405.894 44.5938C406.662 42.3325 407.046 40.0285 407.046 37.6818C407.046 35.2071 406.641 32.8391 405.83 30.5778C405.02 28.3165 403.846 26.2898 402.31 24.4978C400.817 22.7058 399.046 21.2978 396.998 20.2738C394.95 19.2498 392.689 18.7378 390.214 18.7378C387.654 18.7378 385.329 19.2711 383.238 20.3378C381.19 21.4045 379.42 22.8551 377.926 24.6898C376.476 26.4818 375.345 28.5085 374.534 30.7698C373.766 33.0311 373.382 35.3351 373.382 37.6818ZM419.973 60.4018V14.9618L450.437 14.9618V18.9298H424.453V34.7378H439.429C444.421 34.7378 448.112 35.9111 450.501 38.2578C452.89 40.5618 454.085 43.5698 454.085 47.2818C454.085 49.7138 453.552 51.9325 452.485 53.9378C451.461 55.9005 449.882 57.4791 447.749 58.6738C445.658 59.8258 443.013 60.4018 439.813 60.4018H419.973ZM424.453 56.4338H439.301C441.776 56.4338 443.76 55.9858 445.253 55.0898C446.746 54.1938 447.834 53.0418 448.517 51.6338C449.2 50.1831 449.541 48.6898 449.541 47.1538C449.541 45.6178 449.242 44.1885 448.645 42.8658C448.048 41.5005 446.981 40.4125 445.445 39.6018C443.952 38.7485 441.84 38.3218 439.109 38.3218H424.453V56.4338ZM480.027 60.7218C476.827 60.7218 473.926 60.0818 471.323 58.8018C468.72 57.5218 466.48 55.7938 464.603 53.6178C462.726 51.3991 461.275 48.9245 460.251 46.1938C459.227 43.4205 458.715 40.5831 458.715 37.6818C458.715 34.6525 459.248 31.7725 460.315 29.0418C461.382 26.2685 462.875 23.8151 464.795 21.6818C466.758 19.5058 469.04 17.7991 471.643 16.5618C474.246 15.2818 477.062 14.6418 480.091 14.6418C483.291 14.6418 486.192 15.3031 488.795 16.6258C491.398 17.9485 493.616 19.7191 495.451 21.9378C497.328 24.1565 498.779 26.6311 499.803 29.3618C500.827 32.0925 501.339 34.8871 501.339 37.7458C501.339 40.7751 500.806 43.6765 499.739 46.4498C498.672 49.1805 497.179 51.6338 495.259 53.8098C493.339 55.9431 491.078 57.6285 488.475 58.8658C485.872 60.1031 483.056 60.7218 480.027 60.7218ZM463.195 37.6818C463.195 40.1565 463.6 42.5458 464.411 44.8498C465.222 47.1111 466.374 49.1378 467.867 50.9298C469.36 52.6791 471.131 54.0871 473.179 55.1538C475.27 56.1778 477.552 56.6898 480.027 56.6898C482.63 56.6898 484.955 56.1565 487.003 55.0898C489.094 53.9805 490.864 52.5298 492.315 50.7378C493.808 48.9031 494.939 46.8551 495.707 44.5938C496.475 42.3325 496.859 40.0285 496.859 37.6818C496.859 35.2071 496.454 32.8391 495.643 30.5778C494.832 28.3165 493.659 26.2898 492.123 24.4978C490.63 22.7058 488.859 21.2978 486.811 20.2738C484.763 19.2498 482.502 18.7378 480.027 18.7378C477.467 18.7378 475.142 19.2711 473.051 20.3378C471.003 21.4045 469.232 22.8551 467.739 24.6898C466.288 26.4818 465.158 28.5085 464.347 30.7698C463.579 33.0311 463.195 35.3351 463.195 37.6818ZM540.416 18.9298H524.224V60.4018H519.744V18.9298H503.552V14.9618L540.416 14.9618V18.9298ZM547.479 60.4018V14.9618H551.895V54.2578L580.055 14.9618H584.215V60.4018H579.799V21.8098L551.959 60.4018H547.479ZM595.848 60.4018V14.9618L600.328 14.9618V35.1858H607.176L622.792 14.9618H627.976L610.888 36.9778L629.064 60.4018H623.56L607.304 39.2818H600.328V60.4018H595.848Z" fill="black"/>
<path d="M658.098 60.4018V14.9618L676.914 14.9618C678.877 14.9618 680.669 15.3671 682.29 16.1778C683.954 16.9885 685.383 18.0978 686.578 19.5058C687.773 20.8711 688.711 22.4071 689.394 24.1138C690.077 25.7778 690.418 27.4845 690.418 29.2338C690.418 31.7085 689.863 34.0551 688.754 36.2738C687.687 38.4498 686.173 40.2205 684.21 41.5858C682.247 42.9511 679.943 43.6338 677.298 43.6338H662.578V60.4018H658.098ZM662.578 39.6658H677.106C678.898 39.6658 680.455 39.1751 681.778 38.1938C683.101 37.2125 684.125 35.9325 684.85 34.3538C685.575 32.7751 685.938 31.0685 685.938 29.2338C685.938 27.3565 685.511 25.6285 684.658 24.0498C683.805 22.4711 682.674 21.2338 681.266 20.3378C679.901 19.3991 678.386 18.9298 676.722 18.9298H662.578V39.6658ZM716.214 60.7218C713.014 60.7218 710.113 60.0818 707.51 58.8018C704.908 57.5218 702.668 55.7938 700.79 53.6178C698.913 51.3991 697.462 48.9245 696.438 46.1938C695.414 43.4205 694.902 40.5831 694.902 37.6818C694.902 34.6525 695.436 31.7725 696.502 29.0418C697.569 26.2685 699.062 23.8151 700.982 21.6818C702.945 19.5058 705.228 17.7991 707.83 16.5618C710.433 15.2818 713.249 14.6418 716.278 14.6418C719.478 14.6418 722.38 15.3031 724.982 16.6258C727.585 17.9485 729.804 19.7191 731.638 21.9378C733.516 24.1565 734.966 26.6311 735.99 29.3618C737.014 32.0925 737.526 34.8871 737.526 37.7458C737.526 40.7751 736.993 43.6765 735.926 46.4498C734.86 49.1805 733.366 51.6338 731.446 53.8098C729.526 55.9431 727.265 57.6285 724.662 58.8658C722.06 60.1031 719.244 60.7218 716.214 60.7218ZM699.382 37.6818C699.382 40.1565 699.788 42.5458 700.598 44.8498C701.409 47.1111 702.561 49.1378 704.054 50.9298C705.548 52.6791 707.318 54.0871 709.366 55.1538C711.457 56.1778 713.74 56.6898 716.214 56.6898C718.817 56.6898 721.142 56.1565 723.19 55.0898C725.281 53.9805 727.052 52.5298 728.502 50.7378C729.996 48.9031 731.126 46.8551 731.894 44.5938C732.662 42.3325 733.046 40.0285 733.046 37.6818C733.046 35.2071 732.641 32.8391 731.83 30.5778C731.02 28.3165 729.846 26.2898 728.31 24.4978C726.817 22.7058 725.046 21.2978 722.998 20.2738C720.95 19.2498 718.689 18.7378 716.214 18.7378C713.654 18.7378 711.329 19.2711 709.238 20.3378C707.19 21.4045 705.42 22.8551 703.926 24.6898C702.476 26.4818 701.345 28.5085 700.534 30.7698C699.766 33.0311 699.382 35.3351 699.382 37.6818ZM745.973 60.4018V14.9618L776.437 14.9618V18.9298H750.453V34.7378H765.429C770.421 34.7378 774.112 35.9111 776.501 38.2578C778.89 40.5618 780.085 43.5698 780.085 47.2818C780.085 49.7138 779.552 51.9325 778.485 53.9378C777.461 55.9005 775.882 57.4791 773.749 58.6738C771.658 59.8258 769.013 60.4018 765.813 60.4018H745.973ZM750.453 56.4338H765.301C767.776 56.4338 769.76 55.9858 771.253 55.0898C772.746 54.1938 773.834 53.0418 774.517 51.6338C775.2 50.1831 775.541 48.6898 775.541 47.1538C775.541 45.6178 775.242 44.1885 774.645 42.8658C774.048 41.5005 772.981 40.4125 771.445 39.6018C769.952 38.7485 767.84 38.3218 765.109 38.3218H750.453V56.4338ZM806.027 60.7218C802.827 60.7218 799.926 60.0818 797.323 58.8018C794.72 57.5218 792.48 55.7938 790.603 53.6178C788.726 51.3991 787.275 48.9245 786.251 46.1938C785.227 43.4205 784.715 40.5831 784.715 37.6818C784.715 34.6525 785.248 31.7725 786.315 29.0418C787.382 26.2685 788.875 23.8151 790.795 21.6818C792.758 19.5058 795.04 17.7991 797.643 16.5618C800.246 15.2818 803.062 14.6418 806.091 14.6418C809.291 14.6418 812.192 15.3031 814.795 16.6258C817.398 17.9485 819.616 19.7191 821.451 21.9378C823.328 24.1565 824.779 26.6311 825.803 29.3618C826.827 32.0925 827.339 34.8871 827.339 37.7458C827.339 40.7751 826.806 43.6765 825.739 46.4498C824.672 49.1805 823.179 51.6338 821.259 53.8098C819.339 55.9431 817.078 57.6285 814.475 58.8658C811.872 60.1031 809.056 60.7218 806.027 60.7218ZM789.195 37.6818C789.195 40.1565 789.6 42.5458 790.411 44.8498C791.222 47.1111 792.374 49.1378 793.867 50.9298C795.36 52.6791 797.131 54.0871 799.179 55.1538C801.27 56.1778 803.552 56.6898 806.027 56.6898C808.63 56.6898 810.955 56.1565 813.003 55.0898C815.094 53.9805 816.864 52.5298 818.315 50.7378C819.808 48.9031 820.939 46.8551 821.707 44.5938C822.475 42.3325 822.859 40.0285 822.859 37.6818C822.859 35.2071 822.454 32.8391 821.643 30.5778C820.832 28.3165 819.659 26.2898 818.123 24.4978C816.63 22.7058 814.859 21.2978 812.811 20.2738C810.763 19.2498 808.502 18.7378 806.027 18.7378C803.467 18.7378 801.142 19.2711 799.051 20.3378C797.003 21.4045 795.232 22.8551 793.739 24.6898C792.288 26.4818 791.158 28.5085 790.347 30.7698C789.579 33.0311 789.195 35.3351 789.195 37.6818ZM866.416 18.9298H850.224V60.4018H845.744V18.9298H829.552V14.9618L866.416 14.9618V18.9298ZM873.479 60.4018V14.9618H877.895V54.2578L906.055 14.9618H910.215V60.4018H905.799V21.8098L877.959 60.4018H873.479ZM921.848 60.4018V14.9618L926.328 14.9618V35.1858H933.176L948.792 14.9618H953.976L936.888 36.9778L955.064 60.4018H949.56L933.304 39.2818H926.328V60.4018H921.848Z" fill="#00B3FF"/>
<path d="M984.098 60.4018V14.9618L1002.91 14.9618C1004.88 14.9618 1006.67 15.3671 1008.29 16.1778C1009.95 16.9885 1011.38 18.0978 1012.58 19.5058C1013.77 20.8711 1014.71 22.4071 1015.39 24.1138C1016.08 25.7778 1016.42 27.4845 1016.42 29.2338C1016.42 31.7085 1015.86 34.0551 1014.75 36.2738C1013.69 38.4498 1012.17 40.2205 1010.21 41.5858C1008.25 42.9511 1005.94 43.6338 1003.3 43.6338H988.578V60.4018H984.098ZM988.578 39.6658H1003.11C1004.9 39.6658 1006.46 39.1751 1007.78 38.1938C1009.1 37.2125 1010.12 35.9325 1010.85 34.3538C1011.58 32.7751 1011.94 31.0685 1011.94 29.2338C1011.94 27.3565 1011.51 25.6285 1010.66 24.0498C1009.8 22.4711 1008.67 21.2338 1007.27 20.3378C1005.9 19.3991 1004.39 18.9298 1002.72 18.9298H988.578V39.6658ZM1042.21 60.7218C1039.01 60.7218 1036.11 60.0818 1033.51 58.8018C1030.91 57.5218 1028.67 55.7938 1026.79 53.6178C1024.91 51.3991 1023.46 48.9245 1022.44 46.1938C1021.41 43.4205 1020.9 40.5831 1020.9 37.6818C1020.9 34.6525 1021.44 31.7725 1022.5 29.0418C1023.57 26.2685 1025.06 23.8151 1026.98 21.6818C1028.95 19.5058 1031.23 17.7991 1033.83 16.5618C1036.43 15.2818 1039.25 14.6418 1042.28 14.6418C1045.48 14.6418 1048.38 15.3031 1050.98 16.6258C1053.59 17.9485 1055.8 19.7191 1057.64 21.9378C1059.52 24.1565 1060.97 26.6311 1061.99 29.3618C1063.01 32.0925 1063.53 34.8871 1063.53 37.7458C1063.53 40.7751 1062.99 43.6765 1061.93 46.4498C1060.86 49.1805 1059.37 51.6338 1057.45 53.8098C1055.53 55.9431 1053.27 57.6285 1050.66 58.8658C1048.06 60.1031 1045.24 60.7218 1042.21 60.7218ZM1025.38 37.6818C1025.38 40.1565 1025.79 42.5458 1026.6 44.8498C1027.41 47.1111 1028.56 49.1378 1030.05 50.9298C1031.55 52.6791 1033.32 54.0871 1035.37 55.1538C1037.46 56.1778 1039.74 56.6898 1042.21 56.6898C1044.82 56.6898 1047.14 56.1565 1049.19 55.0898C1051.28 53.9805 1053.05 52.5298 1054.5 50.7378C1056 48.9031 1057.13 46.8551 1057.89 44.5938C1058.66 42.3325 1059.05 40.0285 1059.05 37.6818C1059.05 35.2071 1058.64 32.8391 1057.83 30.5778C1057.02 28.3165 1055.85 26.2898 1054.31 24.4978C1052.82 22.7058 1051.05 21.2978 1049 20.2738C1046.95 19.2498 1044.69 18.7378 1042.21 18.7378C1039.65 18.7378 1037.33 19.2711 1035.24 20.3378C1033.19 21.4045 1031.42 22.8551 1029.93 24.6898C1028.48 26.4818 1027.35 28.5085 1026.53 30.7698C1025.77 33.0311 1025.38 35.3351 1025.38 37.6818ZM1071.97 60.4018V14.9618L1102.44 14.9618V18.9298H1076.45V34.7378H1091.43C1096.42 34.7378 1100.11 35.9111 1102.5 38.2578C1104.89 40.5618 1106.08 43.5698 1106.08 47.2818C1106.08 49.7138 1105.55 51.9325 1104.48 53.9378C1103.46 55.9005 1101.88 57.4791 1099.75 58.6738C1097.66 59.8258 1095.01 60.4018 1091.81 60.4018H1071.97ZM1076.45 56.4338H1091.3C1093.78 56.4338 1095.76 55.9858 1097.25 55.0898C1098.75 54.1938 1099.83 53.0418 1100.52 51.6338C1101.2 50.1831 1101.54 48.6898 1101.54 47.1538C1101.54 45.6178 1101.24 44.1885 1100.64 42.8658C1100.05 41.5005 1098.98 40.4125 1097.44 39.6018C1095.95 38.7485 1093.84 38.3218 1091.11 38.3218H1076.45V56.4338ZM1132.03 60.7218C1128.83 60.7218 1125.93 60.0818 1123.32 58.8018C1120.72 57.5218 1118.48 55.7938 1116.6 53.6178C1114.73 51.3991 1113.27 48.9245 1112.25 46.1938C1111.23 43.4205 1110.71 40.5831 1110.71 37.6818C1110.71 34.6525 1111.25 31.7725 1112.31 29.0418C1113.38 26.2685 1114.87 23.8151 1116.79 21.6818C1118.76 19.5058 1121.04 17.7991 1123.64 16.5618C1126.25 15.2818 1129.06 14.6418 1132.09 14.6418C1135.29 14.6418 1138.19 15.3031 1140.79 16.6258C1143.4 17.9485 1145.62 19.7191 1147.45 21.9378C1149.33 24.1565 1150.78 26.6311 1151.8 29.3618C1152.83 32.0925 1153.34 34.8871 1153.34 37.7458C1153.34 40.7751 1152.81 43.6765 1151.74 46.4498C1150.67 49.1805 1149.18 51.6338 1147.26 53.8098C1145.34 55.9431 1143.08 57.6285 1140.47 58.8658C1137.87 60.1031 1135.06 60.7218 1132.03 60.7218ZM1115.19 37.6818C1115.19 40.1565 1115.6 42.5458 1116.41 44.8498C1117.22 47.1111 1118.37 49.1378 1119.87 50.9298C1121.36 52.6791 1123.13 54.0871 1125.18 55.1538C1127.27 56.1778 1129.55 56.6898 1132.03 56.6898C1134.63 56.6898 1136.95 56.1565 1139 55.0898C1141.09 53.9805 1142.86 52.5298 1144.31 50.7378C1145.81 48.9031 1146.94 46.8551 1147.71 44.5938C1148.47 42.3325 1148.86 40.0285 1148.86 37.6818C1148.86 35.2071 1148.45 32.8391 1147.64 30.5778C1146.83 28.3165 1145.66 26.2898 1144.12 24.4978C1142.63 22.7058 1140.86 21.2978 1138.81 20.2738C1136.76 19.2498 1134.5 18.7378 1132.03 18.7378C1129.47 18.7378 1127.14 19.2711 1125.05 20.3378C1123 21.4045 1121.23 22.8551 1119.74 24.6898C1118.29 26.4818 1117.16 28.5085 1116.35 30.7698C1115.58 33.0311 1115.19 35.3351 1115.19 37.6818ZM1192.42 18.9298H1176.22V60.4018H1171.74V18.9298H1155.55V14.9618L1192.42 14.9618V18.9298ZM1199.48 60.4018V14.9618H1203.89V54.2578L1232.05 14.9618H1236.21V60.4018H1231.8V21.8098L1203.96 60.4018H1199.48ZM1247.85 60.4018V14.9618L1252.33 14.9618V35.1858H1259.18L1274.79 14.9618H1279.98L1262.89 36.9778L1281.06 60.4018H1275.56L1259.3 39.2818H1252.33V60.4018H1247.85Z" fill="black"/>
<path d="M1310.1 60.4018V14.9618L1328.91 14.9618C1330.88 14.9618 1332.67 15.3671 1334.29 16.1778C1335.95 16.9885 1337.38 18.0978 1338.58 19.5058C1339.77 20.8711 1340.71 22.4071 1341.39 24.1138C1342.08 25.7778 1342.42 27.4845 1342.42 29.2338C1342.42 31.7085 1341.86 34.0551 1340.75 36.2738C1339.69 38.4498 1338.17 40.2205 1336.21 41.5858C1334.25 42.9511 1331.94 43.6338 1329.3 43.6338H1314.58V60.4018H1310.1ZM1314.58 39.6658H1329.11C1330.9 39.6658 1332.46 39.1751 1333.78 38.1938C1335.1 37.2125 1336.12 35.9325 1336.85 34.3538C1337.58 32.7751 1337.94 31.0685 1337.94 29.2338C1337.94 27.3565 1337.51 25.6285 1336.66 24.0498C1335.8 22.4711 1334.67 21.2338 1333.27 20.3378C1331.9 19.3991 1330.39 18.9298 1328.72 18.9298H1314.58V39.6658ZM1368.21 60.7218C1365.01 60.7218 1362.11 60.0818 1359.51 58.8018C1356.91 57.5218 1354.67 55.7938 1352.79 53.6178C1350.91 51.3991 1349.46 48.9245 1348.44 46.1938C1347.41 43.4205 1346.9 40.5831 1346.9 37.6818C1346.9 34.6525 1347.44 31.7725 1348.5 29.0418C1349.57 26.2685 1351.06 23.8151 1352.98 21.6818C1354.95 19.5058 1357.23 17.7991 1359.83 16.5618C1362.43 15.2818 1365.25 14.6418 1368.28 14.6418C1371.48 14.6418 1374.38 15.3031 1376.98 16.6258C1379.59 17.9485 1381.8 19.7191 1383.64 21.9378C1385.52 24.1565 1386.97 26.6311 1387.99 29.3618C1389.01 32.0925 1389.53 34.8871 1389.53 37.7458C1389.53 40.7751 1388.99 43.6765 1387.93 46.4498C1386.86 49.1805 1385.37 51.6338 1383.45 53.8098C1381.53 55.9431 1379.27 57.6285 1376.66 58.8658C1374.06 60.1031 1371.24 60.7218 1368.21 60.7218ZM1351.38 37.6818C1351.38 40.1565 1351.79 42.5458 1352.6 44.8498C1353.41 47.1111 1354.56 49.1378 1356.05 50.9298C1357.55 52.6791 1359.32 54.0871 1361.37 55.1538C1363.46 56.1778 1365.74 56.6898 1368.21 56.6898C1370.82 56.6898 1373.14 56.1565 1375.19 55.0898C1377.28 53.9805 1379.05 52.5298 1380.5 50.7378C1382 48.9031 1383.13 46.8551 1383.89 44.5938C1384.66 42.3325 1385.05 40.0285 1385.05 37.6818C1385.05 35.2071 1384.64 32.8391 1383.83 30.5778C1383.02 28.3165 1381.85 26.2898 1380.31 24.4978C1378.82 22.7058 1377.05 21.2978 1375 20.2738C1372.95 19.2498 1370.69 18.7378 1368.21 18.7378C1365.65 18.7378 1363.33 19.2711 1361.24 20.3378C1359.19 21.4045 1357.42 22.8551 1355.93 24.6898C1354.48 26.4818 1353.35 28.5085 1352.53 30.7698C1351.77 33.0311 1351.38 35.3351 1351.38 37.6818ZM1397.97 60.4018V14.9618L1428.44 14.9618V18.9298H1402.45V34.7378H1417.43C1422.42 34.7378 1426.11 35.9111 1428.5 38.2578C1430.89 40.5618 1432.08 43.5698 1432.08 47.2818C1432.08 49.7138 1431.55 51.9325 1430.48 53.9378C1429.46 55.9005 1427.88 57.4791 1425.75 58.6738C1423.66 59.8258 1421.01 60.4018 1417.81 60.4018H1397.97ZM1402.45 56.4338H1417.3C1419.78 56.4338 1421.76 55.9858 1423.25 55.0898C1424.75 54.1938 1425.83 53.0418 1426.52 51.6338C1427.2 50.1831 1427.54 48.6898 1427.54 47.1538C1427.54 45.6178 1427.24 44.1885 1426.64 42.8658C1426.05 41.5005 1424.98 40.4125 1423.44 39.6018C1421.95 38.7485 1419.84 38.3218 1417.11 38.3218H1402.45V56.4338ZM1458.03 60.7218C1454.83 60.7218 1451.93 60.0818 1449.32 58.8018C1446.72 57.5218 1444.48 55.7938 1442.6 53.6178C1440.73 51.3991 1439.27 48.9245 1438.25 46.1938C1437.23 43.4205 1436.71 40.5831 1436.71 37.6818C1436.71 34.6525 1437.25 31.7725 1438.31 29.0418C1439.38 26.2685 1440.87 23.8151 1442.79 21.6818C1444.76 19.5058 1447.04 17.7991 1449.64 16.5618C1452.25 15.2818 1455.06 14.6418 1458.09 14.6418C1461.29 14.6418 1464.19 15.3031 1466.79 16.6258C1469.4 17.9485 1471.62 19.7191 1473.45 21.9378C1475.33 24.1565 1476.78 26.6311 1477.8 29.3618C1478.83 32.0925 1479.34 34.8871 1479.34 37.7458C1479.34 40.7751 1478.81 43.6765 1477.74 46.4498C1476.67 49.1805 1475.18 51.6338 1473.26 53.8098C1471.34 55.9431 1469.08 57.6285 1466.47 58.8658C1463.87 60.1031 1461.06 60.7218 1458.03 60.7218ZM1441.19 37.6818C1441.19 40.1565 1441.6 42.5458 1442.41 44.8498C1443.22 47.1111 1444.37 49.1378 1445.87 50.9298C1447.36 52.6791 1449.13 54.0871 1451.18 55.1538C1453.27 56.1778 1455.55 56.6898 1458.03 56.6898C1460.63 56.6898 1462.95 56.1565 1465 55.0898C1467.09 53.9805 1468.86 52.5298 1470.31 50.7378C1471.81 48.9031 1472.94 46.8551 1473.71 44.5938C1474.47 42.3325 1474.86 40.0285 1474.86 37.6818C1474.86 35.2071 1474.45 32.8391 1473.64 30.5778C1472.83 28.3165 1471.66 26.2898 1470.12 24.4978C1468.63 22.7058 1466.86 21.2978 1464.81 20.2738C1462.76 19.2498 1460.5 18.7378 1458.03 18.7378C1455.47 18.7378 1453.14 19.2711 1451.05 20.3378C1449 21.4045 1447.23 22.8551 1445.74 24.6898C1444.29 26.4818 1443.16 28.5085 1442.35 30.7698C1441.58 33.0311 1441.19 35.3351 1441.19 37.6818ZM1518.42 18.9298H1502.22V60.4018H1497.74V18.9298H1481.55V14.9618L1518.42 14.9618V18.9298ZM1525.48 60.4018V14.9618H1529.89V54.2578L1558.05 14.9618H1562.21V60.4018H1557.8V21.8098L1529.96 60.4018H1525.48ZM1573.85 60.4018V14.9618L1578.33 14.9618V35.1858H1585.18L1600.79 14.9618H1605.98L1588.89 36.9778L1607.06 60.4018H1601.56L1585.3 39.2818H1578.33V60.4018H1573.85Z" fill="#00B3FF"/>
<path d="M1636.1 60.4018V14.9618L1654.91 14.9618C1656.88 14.9618 1658.67 15.3671 1660.29 16.1778C1661.95 16.9885 1663.38 18.0978 1664.58 19.5058C1665.77 20.8711 1666.71 22.4071 1667.39 24.1138C1668.08 25.7778 1668.42 27.4845 1668.42 29.2338C1668.42 31.7085 1667.86 34.0551 1666.75 36.2738C1665.69 38.4498 1664.17 40.2205 1662.21 41.5858C1660.25 42.9511 1657.94 43.6338 1655.3 43.6338H1640.58V60.4018H1636.1ZM1640.58 39.6658H1655.11C1656.9 39.6658 1658.46 39.1751 1659.78 38.1938C1661.1 37.2125 1662.13 35.9325 1662.85 34.3538C1663.58 32.7751 1663.94 31.0685 1663.94 29.2338C1663.94 27.3565 1663.51 25.6285 1662.66 24.0498C1661.81 22.4711 1660.67 21.2338 1659.27 20.3378C1657.9 19.3991 1656.39 18.9298 1654.72 18.9298H1640.58V39.6658ZM1694.21 60.7218C1691.01 60.7218 1688.11 60.0818 1685.51 58.8018C1682.91 57.5218 1680.67 55.7938 1678.79 53.6178C1676.91 51.3991 1675.46 48.9245 1674.44 46.1938C1673.41 43.4205 1672.9 40.5831 1672.9 37.6818C1672.9 34.6525 1673.44 31.7725 1674.5 29.0418C1675.57 26.2685 1677.06 23.8151 1678.98 21.6818C1680.95 19.5058 1683.23 17.7991 1685.83 16.5618C1688.43 15.2818 1691.25 14.6418 1694.28 14.6418C1697.48 14.6418 1700.38 15.3031 1702.98 16.6258C1705.59 17.9485 1707.8 19.7191 1709.64 21.9378C1711.52 24.1565 1712.97 26.6311 1713.99 29.3618C1715.01 32.0925 1715.53 34.8871 1715.53 37.7458C1715.53 40.7751 1714.99 43.6765 1713.93 46.4498C1712.86 49.1805 1711.37 51.6338 1709.45 53.8098C1707.53 55.9431 1705.27 57.6285 1702.66 58.8658C1700.06 60.1031 1697.24 60.7218 1694.21 60.7218ZM1677.38 37.6818C1677.38 40.1565 1677.79 42.5458 1678.6 44.8498C1679.41 47.1111 1680.56 49.1378 1682.05 50.9298C1683.55 52.6791 1685.32 54.0871 1687.37 55.1538C1689.46 56.1778 1691.74 56.6898 1694.21 56.6898C1696.82 56.6898 1699.14 56.1565 1701.19 55.0898C1703.28 53.9805 1705.05 52.5298 1706.5 50.7378C1708 48.9031 1709.13 46.8551 1709.89 44.5938C1710.66 42.3325 1711.05 40.0285 1711.05 37.6818C1711.05 35.2071 1710.64 32.8391 1709.83 30.5778C1709.02 28.3165 1707.85 26.2898 1706.31 24.4978C1704.82 22.7058 1703.05 21.2978 1701 20.2738C1698.95 19.2498 1696.69 18.7378 1694.21 18.7378C1691.65 18.7378 1689.33 19.2711 1687.24 20.3378C1685.19 21.4045 1683.42 22.8551 1681.93 24.6898C1680.48 26.4818 1679.35 28.5085 1678.53 30.7698C1677.77 33.0311 1677.38 35.3351 1677.38 37.6818ZM1723.97 60.4018V14.9618L1754.44 14.9618V18.9298H1728.45V34.7378H1743.43C1748.42 34.7378 1752.11 35.9111 1754.5 38.2578C1756.89 40.5618 1758.09 43.5698 1758.09 47.2818C1758.09 49.7138 1757.55 51.9325 1756.49 53.9378C1755.46 55.9005 1753.88 57.4791 1751.75 58.6738C1749.66 59.8258 1747.01 60.4018 1743.81 60.4018H1723.97ZM1728.45 56.4338H1743.3C1745.78 56.4338 1747.76 55.9858 1749.25 55.0898C1750.75 54.1938 1751.83 53.0418 1752.52 51.6338C1753.2 50.1831 1753.54 48.6898 1753.54 47.1538C1753.54 45.6178 1753.24 44.1885 1752.65 42.8658C1752.05 41.5005 1750.98 40.4125 1749.45 39.6018C1747.95 38.7485 1745.84 38.3218 1743.11 38.3218H1728.45V56.4338ZM1784.03 60.7218C1780.83 60.7218 1777.93 60.0818 1775.32 58.8018C1772.72 57.5218 1770.48 55.7938 1768.6 53.6178C1766.73 51.3991 1765.28 48.9245 1764.25 46.1938C1763.23 43.4205 1762.72 40.5831 1762.72 37.6818C1762.72 34.6525 1763.25 31.7725 1764.32 29.0418C1765.38 26.2685 1766.88 23.8151 1768.8 21.6818C1770.76 19.5058 1773.04 17.7991 1775.64 16.5618C1778.25 15.2818 1781.06 14.6418 1784.09 14.6418C1787.29 14.6418 1790.19 15.3031 1792.8 16.6258C1795.4 17.9485 1797.62 19.7191 1799.45 21.9378C1801.33 24.1565 1802.78 26.6311 1803.8 29.3618C1804.83 32.0925 1805.34 34.8871 1805.34 37.7458C1805.34 40.7751 1804.81 43.6765 1803.74 46.4498C1802.67 49.1805 1801.18 51.6338 1799.26 53.8098C1797.34 55.9431 1795.08 57.6285 1792.48 58.8658C1789.87 60.1031 1787.06 60.7218 1784.03 60.7218ZM1767.2 37.6818C1767.2 40.1565 1767.6 42.5458 1768.41 44.8498C1769.22 47.1111 1770.37 49.1378 1771.87 50.9298C1773.36 52.6791 1775.13 54.0871 1777.18 55.1538C1779.27 56.1778 1781.55 56.6898 1784.03 56.6898C1786.63 56.6898 1788.96 56.1565 1791 55.0898C1793.09 53.9805 1794.86 52.5298 1796.32 50.7378C1797.81 48.9031 1798.94 46.8551 1799.71 44.5938C1800.48 42.3325 1800.86 40.0285 1800.86 37.6818C1800.86 35.2071 1800.45 32.8391 1799.64 30.5778C1798.83 28.3165 1797.66 26.2898 1796.12 24.4978C1794.63 22.7058 1792.86 21.2978 1790.81 20.2738C1788.76 19.2498 1786.5 18.7378 1784.03 18.7378C1781.47 18.7378 1779.14 19.2711 1777.05 20.3378C1775 21.4045 1773.23 22.8551 1771.74 24.6898C1770.29 26.4818 1769.16 28.5085 1768.35 30.7698C1767.58 33.0311 1767.2 35.3351 1767.2 37.6818ZM1844.42 18.9298H1828.22V60.4018H1823.74V18.9298H1807.55V14.9618L1844.42 14.9618V18.9298ZM1851.48 60.4018V14.9618H1855.9V54.2578L1884.06 14.9618H1888.22V60.4018H1883.8V21.8098L1855.96 60.4018H1851.48ZM1899.85 60.4018V14.9618L1904.33 14.9618V35.1858H1911.18L1926.79 14.9618H1931.98L1914.89 36.9778L1933.06 60.4018H1927.56L1911.3 39.2818H1904.33V60.4018H1899.85Z" fill="black"/>
</svg>
